<svg xmlns="http://www.w3.org/2000/svg" xmlns:xlink="http://www.w3.org/1999/xlink" width="609.201" height="760.607" viewBox="0 0 609.201 760.607">
  <defs>
    <clipPath id="clip-path">
      <rect id="Rectángulo_407602" data-name="Rectángulo 407602" width="609.201" height="701.608" fill="none"/>
    </clipPath>
  </defs>
  <g id="Grupo_1114375" data-name="Grupo 1114375" transform="translate(-495 -15608.354)">
    <g id="Grupo_1114297" data-name="Grupo 1114297" transform="translate(228 13246.962)">
      <text id="_Medida_-_Centímetro" data-name="*Medida - Centímetro" transform="translate(287.051 3103)" fill="#12263f" font-size="16" font-family="Roboto-Medium, Roboto" font-weight="500"><tspan x="-76.711" y="15">*Medida - Centímetro</tspan></text>
      <text id="_P_Contorno_de_pecho" data-name="*P = Contorno de pecho" transform="translate(484.051 3103)" fill="#12263f" font-size="16" font-family="Roboto-Medium, Roboto" font-weight="500"><tspan x="-85.023" y="15">*P = Contorno de pecho</tspan></text>
      <text id="_Costura_-_No_incluida" data-name="*Costura - No incluida" transform="translate(695.051 3103)" fill="#12263f" font-size="16" font-family="Roboto-Medium, Roboto" font-weight="500"><tspan x="-78.461" y="15">*Costura - No incluida</tspan></text>
    </g>
    <g id="Grupo_1114300" data-name="Grupo 1114300" transform="translate(-92.051 -775.646)">
      <g id="Grupo_1114299" data-name="Grupo 1114299" transform="translate(587.051 16384)">
        <g id="Grupo_1114298" data-name="Grupo 1114298" clip-path="url(#clip-path)">
          <path id="Trazado_900669" data-name="Trazado 900669" d="M227.438,425.388S142.11,415.075,121.1,374.12" transform="translate(51.632 159.513)" fill="none" stroke="#9d9d9c" stroke-miterlimit="10" stroke-width="0.5"/>
          <path id="Trazado_900670" data-name="Trazado 900670" d="M336.393,377.5s-16.669,33.955-105.623,46.443" transform="translate(98.393 160.955)" fill="none" stroke="#9d9d9c" stroke-miterlimit="10" stroke-width="0.5"/>
          <path id="Trazado_900671" data-name="Trazado 900671" d="M319.5,475.51s-14.709,10.549-106.42,17.851" transform="translate(90.851 202.742)" fill="none" stroke="#9d9d9c" stroke-miterlimit="10" stroke-width="0.5"/>
          <path id="Trazado_900672" data-name="Trazado 900672" d="M118,475.51s27.607,13.834,98.308,17.851" transform="translate(50.311 202.742)" fill="none" stroke="#9d9d9c" stroke-miterlimit="10" stroke-width="0.5"/>
          <path id="Trazado_900673" data-name="Trazado 900673" d="M272.862,338.831s-2.044,27.7-16.5,50.224" transform="translate(109.303 144.467)" fill="none" stroke="#9d9d9c" stroke-miterlimit="10" stroke-width="0.5"/>
          <path id="Trazado_900674" data-name="Trazado 900674" d="M256.413,282.307S271.1,305.886,272.7,332.6" transform="translate(109.326 120.367)" fill="none" stroke="#9d9d9c" stroke-miterlimit="10" stroke-width="0.5"/>
          <path id="Trazado_900675" data-name="Trazado 900675" d="M146.508,12.2h-1.249V3.915l-2.506.92V3.707l3.56-1.338h.2Z" transform="translate(60.865 1.01)"/>
          <path id="Trazado_900676" data-name="Trazado 900676" d="M148.046,9.029a.783.783,0,0,1,.191-.538.733.733,0,0,1,.575-.214.756.756,0,0,1,.582.214.767.767,0,0,1,.2.538.723.723,0,0,1-.2.518.77.77,0,0,1-.582.208.746.746,0,0,1-.575-.208.737.737,0,0,1-.191-.518" transform="translate(63.122 3.529)"/>
          <path id="Trazado_900677" data-name="Trazado 900677" d="M156.943,12.226h-6.41v-.893l3.386-3.764a7.985,7.985,0,0,0,1.038-1.386,2.325,2.325,0,0,0,.285-1.105,1.753,1.753,0,0,0-.464-1.257,1.62,1.62,0,0,0-1.237-.491,1.916,1.916,0,0,0-1.441.528,2.015,2.015,0,0,0-.513,1.468h-1.244a2.891,2.891,0,0,1,.87-2.184,3.229,3.229,0,0,1,2.328-.833,3.093,3.093,0,0,1,2.157.716,2.439,2.439,0,0,1,.794,1.9q0,1.446-1.841,3.44l-2.62,2.843h4.911Z" transform="translate(64.102 0.984)"/>
          <path id="Trazado_900678" data-name="Trazado 900678" d="M275.512,83.741h.934a2.051,2.051,0,0,0,1.385-.464,1.549,1.549,0,0,0,.5-1.215,1.518,1.518,0,0,0-1.714-1.72,1.781,1.781,0,0,0-1.285.459,1.608,1.608,0,0,0-.481,1.22h-1.244a2.494,2.494,0,0,1,.852-1.931,3.093,3.093,0,0,1,2.158-.77,3.06,3.06,0,0,1,2.171.733,2.642,2.642,0,0,1,.787,2.035,2.147,2.147,0,0,1-.414,1.237,2.5,2.5,0,0,1-1.127.893,2.425,2.425,0,0,1,1.248.847,2.35,2.35,0,0,1,.439,1.445,2.671,2.671,0,0,1-.859,2.09,3.229,3.229,0,0,1-2.239.773,3.307,3.307,0,0,1-2.239-.746,2.475,2.475,0,0,1-.864-1.97h1.25a1.6,1.6,0,0,0,.5,1.238,1.918,1.918,0,0,0,1.349.462,1.886,1.886,0,0,0,1.378-.469,1.814,1.814,0,0,0,.478-1.351,1.642,1.642,0,0,0-.525-1.309,2.286,2.286,0,0,0-1.512-.472h-.934Z" transform="translate(116.622 33.819)"/>
          <path id="Trazado_900679" data-name="Trazado 900679" d="M279.177,86.041a.783.783,0,0,1,.191-.538.731.731,0,0,1,.575-.214.751.751,0,0,1,.581.214.762.762,0,0,1,.2.538.718.718,0,0,1-.2.518.764.764,0,0,1-.581.208.691.691,0,0,1-.766-.726" transform="translate(119.032 36.365)"/>
          <path id="Trazado_900680" data-name="Trazado 900680" d="M282.112,84.292l.5-4.878h5.011v1.15h-3.957l-.3,2.667A3.155,3.155,0,0,1,285,82.807a2.7,2.7,0,0,1,2.124.884,3.457,3.457,0,0,1,.786,2.388,3.344,3.344,0,0,1-.816,2.382,2.975,2.975,0,0,1-2.281.87,3.09,3.09,0,0,1-2.117-.719,2.865,2.865,0,0,1-.934-1.988h1.175a1.977,1.977,0,0,0,.6,1.267,1.861,1.861,0,0,0,1.277.426,1.678,1.678,0,0,0,1.361-.592,2.473,2.473,0,0,0,.492-1.632,2.266,2.266,0,0,0-.533-1.576,1.818,1.818,0,0,0-1.421-.595,2.045,2.045,0,0,0-1.277.357l-.329.268Z" transform="translate(120.135 33.86)"/>
          <path id="Trazado_900681" data-name="Trazado 900681" d="M6.6,213.056H.188v-.894L3.574,208.4a7.986,7.986,0,0,0,1.038-1.386,2.326,2.326,0,0,0,.285-1.107,1.758,1.758,0,0,0-.464-1.257,1.624,1.624,0,0,0-1.237-.489,1.916,1.916,0,0,0-1.441.528,2.015,2.015,0,0,0-.513,1.468H0a2.889,2.889,0,0,1,.87-2.184,3.223,3.223,0,0,1,2.328-.833,3.093,3.093,0,0,1,2.157.716,2.437,2.437,0,0,1,.794,1.9q0,1.446-1.841,3.44l-2.62,2.841H6.6Z" transform="translate(0 86.612)"/>
          <path id="Trazado_900682" data-name="Trazado 900682" d="M384.875,213.056h-6.41v-.894l3.386-3.763a7.963,7.963,0,0,0,1.037-1.386,2.311,2.311,0,0,0,.287-1.107,1.759,1.759,0,0,0-.465-1.257,1.619,1.619,0,0,0-1.235-.489,1.922,1.922,0,0,0-1.442.528,2.015,2.015,0,0,0-.513,1.468h-1.242a2.884,2.884,0,0,1,.87-2.184,3.223,3.223,0,0,1,2.328-.833,3.093,3.093,0,0,1,2.157.716,2.437,2.437,0,0,1,.794,1.9q0,1.446-1.841,3.44l-2.62,2.841h4.911Z" transform="translate(161.285 86.612)"/>
          <path id="Trazado_900683" data-name="Trazado 900683" d="M54.485,377.689v1.054h-.23a3.277,3.277,0,0,0-2.311.86,3.573,3.573,0,0,0-.994,2.345,2.651,2.651,0,0,1,2.11-.887,2.542,2.542,0,0,1,2.04.9,3.948,3.948,0,0,1-.061,4.744,2.833,2.833,0,0,1-2.207.907,2.793,2.793,0,0,1-2.278-1.078,4.268,4.268,0,0,1-.874-2.779v-.476a6.44,6.44,0,0,1,1.153-4.128,4.234,4.234,0,0,1,3.43-1.462ZM52.852,382.1a2.093,2.093,0,0,0-1.921,1.344v.458a3.215,3.215,0,0,0,.543,1.948,1.633,1.633,0,0,0,1.358.737,1.582,1.582,0,0,0,1.321-.618,2.965,2.965,0,0,0-.007-3.248,1.565,1.565,0,0,0-1.294-.622" transform="translate(21.182 161.035)"/>
          <rect id="Rectángulo_407596" data-name="Rectángulo 407596" width="3.279" height="1.014" transform="translate(81.357 543.849)"/>
          <path id="Trazado_900684" data-name="Trazado 900684" d="M67.289,383.216a3.024,3.024,0,0,1-.93.745,2.526,2.526,0,0,1-1.187.284,2.61,2.61,0,0,1-1.473-.417,2.713,2.713,0,0,1-.971-1.174,4,4,0,0,1-.342-1.669,4.09,4.09,0,0,1,.372-1.769,2.733,2.733,0,0,1,1.058-1.2,3.016,3.016,0,0,1,1.6-.416,2.731,2.731,0,0,1,2.288,1.084,4.733,4.733,0,0,1,.837,2.96v.362a6.318,6.318,0,0,1-1.13,4.169A4.338,4.338,0,0,1,64,387.524h-.242v-1.057h.262a2.958,2.958,0,0,0,3.265-3.251m-1.914,0a1.922,1.922,0,0,0,1.153-.384,2.254,2.254,0,0,0,.769-.949v-.495a3.42,3.42,0,0,0-.531-1.99,1.623,1.623,0,0,0-2.662-.137,2.591,2.591,0,0,0-.5,1.656,2.694,2.694,0,0,0,.481,1.649,1.52,1.52,0,0,0,1.287.649" transform="translate(26.599 160.996)"/>
          <path id="Trazado_900685" data-name="Trazado 900685" d="M325.059,377.689v1.054h-.23a3.277,3.277,0,0,0-2.311.86,3.573,3.573,0,0,0-.994,2.345,2.649,2.649,0,0,1,2.11-.887,2.539,2.539,0,0,1,2.038.9,3.945,3.945,0,0,1-.06,4.744,2.834,2.834,0,0,1-2.208.907,2.79,2.79,0,0,1-2.276-1.078,4.268,4.268,0,0,1-.874-2.779v-.476a6.44,6.44,0,0,1,1.153-4.128,4.234,4.234,0,0,1,3.43-1.462Zm-1.633,4.407a2.1,2.1,0,0,0-1.923,1.344v.458a3.205,3.205,0,0,0,.545,1.948,1.629,1.629,0,0,0,1.357.737,1.579,1.579,0,0,0,1.321-.618,2.965,2.965,0,0,0-.007-3.248,1.56,1.56,0,0,0-1.292-.622" transform="translate(136.546 161.035)"/>
          <rect id="Rectángulo_407597" data-name="Rectángulo 407597" width="3.279" height="1.014" transform="translate(467.297 543.849)"/>
          <path id="Trazado_900686" data-name="Trazado 900686" d="M337.864,383.216a3.048,3.048,0,0,1-.931.745,2.526,2.526,0,0,1-1.187.284,2.61,2.61,0,0,1-1.473-.417,2.71,2.71,0,0,1-.97-1.174,3.98,3.98,0,0,1-.344-1.669,4.091,4.091,0,0,1,.372-1.769,2.742,2.742,0,0,1,1.058-1.2,3.02,3.02,0,0,1,1.6-.416,2.735,2.735,0,0,1,2.289,1.084,4.742,4.742,0,0,1,.836,2.96v.362a6.326,6.326,0,0,1-1.128,4.169,4.344,4.344,0,0,1-3.408,1.349h-.242v-1.057h.264a2.958,2.958,0,0,0,3.265-3.251m-1.916,0a1.919,1.919,0,0,0,1.153-.384,2.258,2.258,0,0,0,.77-.949v-.495a3.421,3.421,0,0,0-.531-1.99,1.624,1.624,0,0,0-2.663-.137,2.591,2.591,0,0,0-.495,1.656,2.693,2.693,0,0,0,.479,1.649,1.52,1.52,0,0,0,1.286.649" transform="translate(141.963 160.996)"/>
          <path id="Trazado_900687" data-name="Trazado 900687" d="M214.133,416.6h-6.41v-.893l3.388-3.764a7.982,7.982,0,0,0,1.037-1.386,2.322,2.322,0,0,0,.287-1.105,1.757,1.757,0,0,0-.465-1.257,1.619,1.619,0,0,0-1.237-.489,1.925,1.925,0,0,0-1.441.526,2.018,2.018,0,0,0-.513,1.468h-1.244a2.885,2.885,0,0,1,.87-2.182,3.226,3.226,0,0,1,2.328-.834,3.106,3.106,0,0,1,2.158.716,2.446,2.446,0,0,1,.793,1.906q0,1.444-1.841,3.439l-2.62,2.843h4.911Z" transform="translate(88.486 173.397)"/>
          <path id="Trazado_900688" data-name="Trazado 900688" d="M214.946,411.1h.933a2.052,2.052,0,0,0,1.385-.462,1.555,1.555,0,0,0,.5-1.217,1.518,1.518,0,0,0-1.714-1.72,1.789,1.789,0,0,0-1.287.459,1.609,1.609,0,0,0-.481,1.221h-1.242a2.494,2.494,0,0,1,.85-1.933,3.1,3.1,0,0,1,2.16-.77,3.063,3.063,0,0,1,2.171.733,2.65,2.65,0,0,1,.786,2.037,2.154,2.154,0,0,1-.412,1.235,2.509,2.509,0,0,1-1.127.894,2.408,2.408,0,0,1,1.248.847,2.351,2.351,0,0,1,.438,1.443,2.666,2.666,0,0,1-.859,2.09,3.218,3.218,0,0,1-2.238.773,3.308,3.308,0,0,1-2.241-.746,2.479,2.479,0,0,1-.864-1.968h1.25a1.6,1.6,0,0,0,.5,1.237,1.921,1.921,0,0,0,1.351.462,1.883,1.883,0,0,0,1.378-.469,1.812,1.812,0,0,0,.476-1.351,1.643,1.643,0,0,0-.523-1.309,2.282,2.282,0,0,0-1.513-.471h-.933Z" transform="translate(90.798 173.397)"/>
          <path id="Trazado_900689" data-name="Trazado 900689" d="M202.266,494.754h-6.41v-.893l3.386-3.764a7.928,7.928,0,0,0,1.038-1.386,2.32,2.32,0,0,0,.285-1.105,1.756,1.756,0,0,0-.464-1.257,1.619,1.619,0,0,0-1.237-.489,1.921,1.921,0,0,0-1.441.526,2.018,2.018,0,0,0-.514,1.468h-1.244a2.885,2.885,0,0,1,.87-2.182,3.224,3.224,0,0,1,2.328-.834,3.1,3.1,0,0,1,2.157.716,2.443,2.443,0,0,1,.794,1.906q0,1.444-1.841,3.439l-2.62,2.843h4.911Z" transform="translate(83.427 206.719)"/>
          <path id="Trazado_900690" data-name="Trazado 900690" d="M203.078,489.258h.934a2.052,2.052,0,0,0,1.384-.462,1.55,1.55,0,0,0,.5-1.217,1.518,1.518,0,0,0-1.715-1.72,1.791,1.791,0,0,0-1.287.459,1.613,1.613,0,0,0-.479,1.221h-1.244a2.5,2.5,0,0,1,.85-1.933,3.1,3.1,0,0,1,2.16-.77,3.062,3.062,0,0,1,2.171.733,2.645,2.645,0,0,1,.786,2.037,2.154,2.154,0,0,1-.412,1.235,2.509,2.509,0,0,1-1.127.894,2.409,2.409,0,0,1,1.248.847,2.352,2.352,0,0,1,.439,1.443,2.667,2.667,0,0,1-.86,2.09,3.216,3.216,0,0,1-2.238.773,3.31,3.31,0,0,1-2.241-.746,2.477,2.477,0,0,1-.863-1.968h1.25a1.6,1.6,0,0,0,.5,1.237,1.924,1.924,0,0,0,1.351.462,1.88,1.88,0,0,0,1.378-.469,1.812,1.812,0,0,0,.478-1.351,1.644,1.644,0,0,0-.525-1.309,2.278,2.278,0,0,0-1.512-.471h-.934Z" transform="translate(85.738 206.719)"/>
          <path id="Trazado_900691" data-name="Trazado 900691" d="M110.6,430.785h-1.25V422.5l-2.506.92v-1.128l3.56-1.338h.2Z" transform="translate(45.554 179.482)"/>
          <path id="Trazado_900692" data-name="Trazado 900692" d="M118.493,430.812h-6.41v-.893l3.386-3.764a7.932,7.932,0,0,0,1.038-1.386,2.32,2.32,0,0,0,.285-1.105,1.755,1.755,0,0,0-.464-1.257,1.619,1.619,0,0,0-1.237-.489,1.921,1.921,0,0,0-1.441.526,2.018,2.018,0,0,0-.513,1.468h-1.244a2.885,2.885,0,0,1,.87-2.182,3.224,3.224,0,0,1,2.328-.834,3.1,3.1,0,0,1,2.157.716,2.442,2.442,0,0,1,.794,1.906q0,1.444-1.841,3.439l-2.62,2.843h4.911Z" transform="translate(47.709 179.456)"/>
          <path id="Trazado_900693" data-name="Trazado 900693" d="M215.634,383.347h.934a2.051,2.051,0,0,0,1.385-.464,1.554,1.554,0,0,0,.5-1.217,1.519,1.519,0,0,0-1.714-1.72,1.786,1.786,0,0,0-1.287.461,1.612,1.612,0,0,0-.479,1.22h-1.244a2.5,2.5,0,0,1,.85-1.933,3.1,3.1,0,0,1,2.16-.769,3.054,3.054,0,0,1,2.171.733,2.64,2.64,0,0,1,.787,2.035,2.157,2.157,0,0,1-.414,1.237,2.506,2.506,0,0,1-1.127.893,2.416,2.416,0,0,1,1.248.847,2.355,2.355,0,0,1,.439,1.443,2.663,2.663,0,0,1-.86,2.09,3.218,3.218,0,0,1-2.238.773,3.31,3.31,0,0,1-2.241-.745,2.478,2.478,0,0,1-.863-1.97h1.25a1.6,1.6,0,0,0,.5,1.237,1.918,1.918,0,0,0,1.351.464,1.883,1.883,0,0,0,1.378-.471,1.809,1.809,0,0,0,.478-1.349,1.647,1.647,0,0,0-.525-1.311,2.285,2.285,0,0,0-1.512-.471h-.934Z" transform="translate(91.092 161.562)"/>
          <path id="Trazado_900694" data-name="Trazado 900694" d="M266.683,368.826l.5-4.878h5.011v1.15h-3.955l-.3,2.667a3.161,3.161,0,0,1,1.633-.424,2.7,2.7,0,0,1,2.124.883,3.468,3.468,0,0,1,.785,2.389,3.343,3.343,0,0,1-.816,2.382,2.973,2.973,0,0,1-2.281.87,3.093,3.093,0,0,1-2.117-.719,2.866,2.866,0,0,1-.934-1.988h1.175a1.97,1.97,0,0,0,.6,1.265,1.856,1.856,0,0,0,1.277.427,1.677,1.677,0,0,0,1.361-.591,2.469,2.469,0,0,0,.494-1.632,2.267,2.267,0,0,0-.535-1.576,1.818,1.818,0,0,0-1.421-.595,2.05,2.05,0,0,0-1.275.355l-.331.27Z" transform="translate(113.556 155.176)"/>
          <path id="Trazado_900695" data-name="Trazado 900695" d="M271.7,370.575a.785.785,0,0,1,.191-.538.733.733,0,0,1,.575-.214.749.749,0,0,1,.581.214.764.764,0,0,1,.2.538.718.718,0,0,1-.2.518.762.762,0,0,1-.581.208.746.746,0,0,1-.575-.208.737.737,0,0,1-.191-.518" transform="translate(115.846 157.681)"/>
          <path id="Trazado_900696" data-name="Trazado 900696" d="M274.639,368.826l.5-4.878h5.012v1.15h-3.958l-.3,2.667a3.156,3.156,0,0,1,1.632-.424,2.7,2.7,0,0,1,2.124.883,3.462,3.462,0,0,1,.786,2.389,3.337,3.337,0,0,1-.816,2.382,2.974,2.974,0,0,1-2.279.87,3.092,3.092,0,0,1-2.118-.719,2.865,2.865,0,0,1-.933-1.988h1.175a1.969,1.969,0,0,0,.6,1.265,1.855,1.855,0,0,0,1.278.427,1.674,1.674,0,0,0,1.359-.591,2.476,2.476,0,0,0,.492-1.632,2.266,2.266,0,0,0-.533-1.576,1.813,1.813,0,0,0-1.421-.595,2.054,2.054,0,0,0-1.277.355l-.329.27Z" transform="translate(116.949 155.176)"/>
          <path id="Trazado_900697" data-name="Trazado 900697" d="M268.125,335.783h-1.25V327.5l-2.508.921v-1.128l3.562-1.338h.2Z" transform="translate(112.718 138.976)"/>
          <path id="Trazado_900698" data-name="Trazado 900698" d="M274.411,325.982v1.054h-.23a3.277,3.277,0,0,0-2.311.86,3.573,3.573,0,0,0-.994,2.345,2.649,2.649,0,0,1,2.11-.887,2.539,2.539,0,0,1,2.038.9,3.946,3.946,0,0,1-.06,4.744,2.834,2.834,0,0,1-2.208.907,2.79,2.79,0,0,1-2.276-1.078,4.268,4.268,0,0,1-.874-2.779v-.476a6.44,6.44,0,0,1,1.153-4.128,4.234,4.234,0,0,1,3.43-1.462Zm-1.633,4.407a2.1,2.1,0,0,0-1.923,1.344v.458a3.205,3.205,0,0,0,.545,1.948,1.629,1.629,0,0,0,1.356.737,1.579,1.579,0,0,0,1.321-.618,2.965,2.965,0,0,0-.007-3.248,1.56,1.56,0,0,0-1.292-.622" transform="translate(114.951 138.988)"/>
          <path id="Trazado_900699" data-name="Trazado 900699" d="M298.912,448.243l-4.052,9.083h-1.3l4.038-8.761H292.3v-1.021h6.613Z" transform="translate(124.627 190.819)"/>
          <path id="Trazado_900700" data-name="Trazado 900700" d="M218.508,317.211v1.054h-.23a3.277,3.277,0,0,0-2.311.86,3.573,3.573,0,0,0-.994,2.345,2.649,2.649,0,0,1,2.11-.887,2.539,2.539,0,0,1,2.038.9,3.946,3.946,0,0,1-.06,4.744,2.834,2.834,0,0,1-2.208.907,2.79,2.79,0,0,1-2.276-1.078,4.268,4.268,0,0,1-.874-2.779V322.8a6.44,6.44,0,0,1,1.153-4.128,4.233,4.233,0,0,1,3.43-1.462Zm-1.633,4.407a2.1,2.1,0,0,0-1.923,1.344v.458a3.205,3.205,0,0,0,.545,1.948,1.629,1.629,0,0,0,1.356.737,1.579,1.579,0,0,0,1.321-.618,2.965,2.965,0,0,0-.007-3.248,1.56,1.56,0,0,0-1.292-.622" transform="translate(91.116 135.249)"/>
          <path id="Trazado_900701" data-name="Trazado 900701" d="M112.725,89.308h-1.25V81.024l-2.506.92V80.815l3.56-1.338h.2Z" transform="translate(46.461 33.887)"/>
          <path id="Trazado_900702" data-name="Trazado 900702" d="M114.263,86.137a.777.777,0,0,1,.193-.538.728.728,0,0,1,.573-.214.752.752,0,0,1,.582.214.768.768,0,0,1,.2.538.724.724,0,0,1-.2.518.765.765,0,0,1-.582.208.741.741,0,0,1-.573-.208.732.732,0,0,1-.193-.518" transform="translate(48.718 36.405)"/>
          <path id="Trazado_900703" data-name="Trazado 900703" d="M117.2,84.388l.5-4.878h5.012v1.15h-3.957l-.3,2.667a3.161,3.161,0,0,1,1.633-.424,2.7,2.7,0,0,1,2.124.884A3.464,3.464,0,0,1,123,86.175a3.337,3.337,0,0,1-.816,2.382,2.972,2.972,0,0,1-2.279.87,3.094,3.094,0,0,1-2.118-.719,2.865,2.865,0,0,1-.933-1.988h1.175a1.976,1.976,0,0,0,.6,1.267,1.865,1.865,0,0,0,1.278.426,1.675,1.675,0,0,0,1.359-.592,2.466,2.466,0,0,0,.494-1.632,2.267,2.267,0,0,0-.535-1.576,1.814,1.814,0,0,0-1.421-.595,2.041,2.041,0,0,0-1.275.357l-.331.268Z" transform="translate(49.821 33.901)"/>
          <path id="Trazado_900704" data-name="Trazado 900704" d="M80.5,112.274a5.693,5.693,0,0,1-.745,3.245,3.1,3.1,0,0,1-4.65.021,5.381,5.381,0,0,1-.78-3.1v-1.66a5.551,5.551,0,0,1,.746-3.205,3.151,3.151,0,0,1,4.663-.037,5.358,5.358,0,0,1,.766,3.122Zm-1.242-1.7a4.551,4.551,0,0,0-.444-2.3,1.528,1.528,0,0,0-1.4-.725,1.508,1.508,0,0,0-1.392.719,4.454,4.454,0,0,0-.449,2.212v1.99a4.62,4.62,0,0,0,.459,2.339,1.523,1.523,0,0,0,1.395.756,1.5,1.5,0,0,0,1.366-.71,4.469,4.469,0,0,0,.468-2.247Z" transform="translate(31.691 45.42)"/>
          <path id="Trazado_900705" data-name="Trazado 900705" d="M79.88,113.249a.783.783,0,0,1,.191-.538.733.733,0,0,1,.575-.214.756.756,0,0,1,.582.214.767.767,0,0,1,.2.538.723.723,0,0,1-.2.518.77.77,0,0,1-.582.208.746.746,0,0,1-.575-.208.737.737,0,0,1-.191-.518" transform="translate(34.058 47.965)"/>
          <path id="Trazado_900706" data-name="Trazado 900706" d="M88.263,109.215a2.269,2.269,0,0,1-.387,1.3,2.627,2.627,0,0,1-1.044.893,2.817,2.817,0,0,1,1.212.961,2.417,2.417,0,0,1,.446,1.432,2.555,2.555,0,0,1-.856,2.021,3.756,3.756,0,0,1-4.516,0,2.568,2.568,0,0,1-.85-2.018,2.489,2.489,0,0,1,.434-1.432,2.7,2.7,0,0,1,1.2-.967,2.566,2.566,0,0,1-1.028-.894,2.3,2.3,0,0,1-.377-1.3,2.535,2.535,0,0,1,.793-1.963,3.371,3.371,0,0,1,4.176,0,2.527,2.527,0,0,1,.8,1.963m-1.014,4.563a1.806,1.806,0,0,0-.521-1.338,1.855,1.855,0,0,0-1.361-.518,1.752,1.752,0,0,0-1.856,1.856,1.735,1.735,0,0,0,.495,1.309,2.2,2.2,0,0,0,2.744,0,1.734,1.734,0,0,0,.5-1.307m-1.869-6.229a1.609,1.609,0,0,0-1.187.454,1.88,1.88,0,0,0-.006,2.439,1.774,1.774,0,0,0,2.385,0,1.841,1.841,0,0,0-.016-2.422,1.583,1.583,0,0,0-1.177-.471" transform="translate(35.077 45.42)"/>
          <path id="Trazado_900707" data-name="Trazado 900707" d="M250.121,397.8h-6.41V396.9l3.386-3.764a8.005,8.005,0,0,0,1.038-1.386,2.326,2.326,0,0,0,.285-1.107,1.76,1.76,0,0,0-.464-1.257,1.624,1.624,0,0,0-1.237-.489,1.918,1.918,0,0,0-1.441.528,2.018,2.018,0,0,0-.515,1.468h-1.242a2.878,2.878,0,0,1,.87-2.182,3.218,3.218,0,0,1,2.328-.834,3.093,3.093,0,0,1,2.157.716,2.441,2.441,0,0,1,.794,1.9q0,1.446-1.841,3.44l-2.62,2.841h4.911Z" transform="translate(103.831 165.38)"/>
          <path id="Trazado_900708" data-name="Trazado 900708" d="M249.18,394.6a.783.783,0,0,1,.191-.538.729.729,0,0,1,.575-.214.744.744,0,0,1,.581.214.762.762,0,0,1,.2.538.713.713,0,0,1-.2.516.757.757,0,0,1-.581.21.742.742,0,0,1-.575-.21.732.732,0,0,1-.191-.516" transform="translate(106.243 167.925)"/>
          <path id="Trazado_900709" data-name="Trazado 900709" d="M258.077,397.8h-6.41V396.9l3.388-3.764a7.887,7.887,0,0,0,1.036-1.386,2.313,2.313,0,0,0,.288-1.107,1.762,1.762,0,0,0-.466-1.257,1.619,1.619,0,0,0-1.235-.489,1.924,1.924,0,0,0-1.442.528,2.017,2.017,0,0,0-.512,1.468h-1.244a2.883,2.883,0,0,1,.87-2.182,3.22,3.22,0,0,1,2.328-.834,3.1,3.1,0,0,1,2.158.716,2.445,2.445,0,0,1,.793,1.9q0,1.446-1.841,3.44l-2.62,2.841h4.911Z" transform="translate(107.223 165.38)"/>
          <path id="Trazado_900710" data-name="Trazado 900710" d="M243.011,15.957h-1.25V7.673l-2.508.92V7.464l3.562-1.338h.2Z" transform="translate(102.01 2.612)"/>
          <path id="Trazado_900711" data-name="Trazado 900711" d="M244.549,12.786a.783.783,0,0,1,.191-.538.731.731,0,0,1,.575-.214.751.751,0,0,1,.581.214.762.762,0,0,1,.2.538.718.718,0,0,1-.2.518.764.764,0,0,1-.581.208.691.691,0,0,1-.766-.726" transform="translate(104.268 5.131)"/>
          <path id="Trazado_900712" data-name="Trazado 900712" d="M247.484,11.037l.5-4.878h5.011v1.15h-3.957l-.3,2.667a3.155,3.155,0,0,1,1.632-.424,2.7,2.7,0,0,1,2.124.884,3.458,3.458,0,0,1,.786,2.388,3.344,3.344,0,0,1-.816,2.382,2.975,2.975,0,0,1-2.281.87,3.09,3.09,0,0,1-2.117-.719,2.866,2.866,0,0,1-.934-1.988h1.175a1.977,1.977,0,0,0,.6,1.267,1.861,1.861,0,0,0,1.277.426,1.678,1.678,0,0,0,1.361-.592,2.473,2.473,0,0,0,.492-1.632,2.266,2.266,0,0,0-.533-1.576,1.818,1.818,0,0,0-1.421-.595,2.045,2.045,0,0,0-1.277.357l-.329.268Z" transform="translate(105.371 2.626)"/>
          <path id="Trazado_900713" data-name="Trazado 900713" d="M32.292,11.13h4.636v1.056H31V2.4h1.3Z" transform="translate(13.215 1.024)"/>
          <path id="Trazado_900714" data-name="Trazado 900714" d="M40.6,11.474a2.609,2.609,0,0,1-.174-.766,2.773,2.773,0,0,1-2.07.9A2.571,2.571,0,0,1,36.592,11,1.964,1.964,0,0,1,35.9,9.459a2.055,2.055,0,0,1,.863-1.764A4.078,4.078,0,0,1,39.2,7.067h1.21V6.495a1.394,1.394,0,0,0-.389-1.037,1.567,1.567,0,0,0-1.15-.387,1.811,1.811,0,0,0-1.115.335.992.992,0,0,0-.451.813h-1.25a1.721,1.721,0,0,1,.387-1.051,2.634,2.634,0,0,1,1.048-.8,3.527,3.527,0,0,1,1.455-.3,2.872,2.872,0,0,1,1.968.629,2.263,2.263,0,0,1,.739,1.729V9.774a4.107,4.107,0,0,0,.255,1.593v.107Zm-2.063-.947a2.185,2.185,0,0,0,1.108-.3,1.837,1.837,0,0,0,.76-.786V7.947H39.43q-2.283,0-2.284,1.337a1.134,1.134,0,0,0,.389.914,1.5,1.5,0,0,0,1,.329" transform="translate(15.308 1.735)"/>
          <path id="Trazado_900715" data-name="Trazado 900715" d="M44.811,5.319a3.728,3.728,0,0,0-.612-.047A1.637,1.637,0,0,0,42.54,6.314v5.161H41.3V4.2h1.208l.02.84a1.937,1.937,0,0,1,1.734-.974,1.27,1.27,0,0,1,.551.094Z" transform="translate(17.608 1.735)"/>
          <path id="Trazado_900716" data-name="Trazado 900716" d="M44.355,7.779a4.265,4.265,0,0,1,.786-2.7A2.711,2.711,0,0,1,49.3,5.01l.06-.806H50.5V11.3a2.955,2.955,0,0,1-.836,2.224,3.084,3.084,0,0,1-2.248.814A3.741,3.741,0,0,1,45.873,14a2.643,2.643,0,0,1-1.148-.92l.645-.746a2.432,2.432,0,0,0,1.956.987,1.9,1.9,0,0,0,1.414-.511,1.948,1.948,0,0,0,.508-1.438v-.625a2.554,2.554,0,0,1-2.037.86,2.482,2.482,0,0,1-2.065-1.028,4.49,4.49,0,0,1-.789-2.8M45.6,7.92a3.262,3.262,0,0,0,.5,1.931,1.636,1.636,0,0,0,1.411.7,1.82,1.82,0,0,0,1.727-1.068V6.167a1.842,1.842,0,0,0-1.713-1.043,1.651,1.651,0,0,0-1.418.706A3.547,3.547,0,0,0,45.6,7.92" transform="translate(18.912 1.735)"/>
          <path id="Trazado_900717" data-name="Trazado 900717" d="M49.744,7.771a4.3,4.3,0,0,1,.419-1.921,3.146,3.146,0,0,1,1.17-1.318,3.191,3.191,0,0,1,1.71-.462,3.068,3.068,0,0,1,2.4,1.027,3.955,3.955,0,0,1,.917,2.734V7.92a4.329,4.329,0,0,1-.407,1.9,3.084,3.084,0,0,1-1.162,1.314,3.216,3.216,0,0,1-1.737.471,3.056,3.056,0,0,1-2.395-1.028,3.93,3.93,0,0,1-.917-2.72Zm1.25.148a3.1,3.1,0,0,0,.562,1.941,1.9,1.9,0,0,0,3.005-.01,3.4,3.4,0,0,0,.559-2.08,3.108,3.108,0,0,0-.568-1.938,1.808,1.808,0,0,0-1.509-.742,1.786,1.786,0,0,0-1.485.732,3.376,3.376,0,0,0-.565,2.1" transform="translate(21.209 1.735)"/>
          <path id="Trazado_900718" data-name="Trazado 900718" d="M62.187,9.546a.916.916,0,0,0-.379-.783,3.654,3.654,0,0,0-1.324-.481,6.173,6.173,0,0,1-1.5-.484,2.124,2.124,0,0,1-.82-.672A1.608,1.608,0,0,1,57.9,6.2a1.883,1.883,0,0,1,.756-1.512,2.951,2.951,0,0,1,1.931-.618,3.038,3.038,0,0,1,2.005.638,2.03,2.03,0,0,1,.77,1.633H62.113a1.125,1.125,0,0,0-.432-.88,1.624,1.624,0,0,0-1.093-.369,1.7,1.7,0,0,0-1.061.3.933.933,0,0,0-.384.773.757.757,0,0,0,.357.679,4.392,4.392,0,0,0,1.287.436,6.761,6.761,0,0,1,1.509.5,2.207,2.207,0,0,1,.856.7,1.7,1.7,0,0,1,.28.991,1.863,1.863,0,0,1-.78,1.562,3.267,3.267,0,0,1-2.023.588,3.647,3.647,0,0,1-1.545-.31,2.5,2.5,0,0,1-1.051-.863,2.074,2.074,0,0,1-.379-1.2H58.9a1.288,1.288,0,0,0,.5.991,1.941,1.941,0,0,0,1.232.367,2.012,2.012,0,0,0,1.133-.285.88.88,0,0,0,.426-.763" transform="translate(24.581 1.735)"/>
          <path id="Trazado_900719" data-name="Trazado 900719" d="M62.844,3.027a.738.738,0,0,1,.185-.511.693.693,0,0,1,.546-.208.708.708,0,0,1,.552.208.733.733,0,0,1,.187.511.708.708,0,0,1-.187.5.721.721,0,0,1-.552.2.705.705,0,0,1-.546-.2.713.713,0,0,1-.185-.5m1.344,9.2H62.944V4.955h1.244Z" transform="translate(26.795 0.984)"/>
          <path id="Trazado_900720" data-name="Trazado 900720" d="M69.5,9.546a.916.916,0,0,0-.379-.783A3.654,3.654,0,0,0,67.8,8.282,6.173,6.173,0,0,1,66.3,7.8a2.124,2.124,0,0,1-.82-.672,1.608,1.608,0,0,1-.265-.927,1.883,1.883,0,0,1,.756-1.512A2.951,2.951,0,0,1,67.9,4.07a3.038,3.038,0,0,1,2.005.638,2.03,2.03,0,0,1,.77,1.633H69.429A1.125,1.125,0,0,0,69,5.461,1.624,1.624,0,0,0,67.9,5.091a1.7,1.7,0,0,0-1.061.3.933.933,0,0,0-.384.773.757.757,0,0,0,.357.679,4.392,4.392,0,0,0,1.287.436,6.761,6.761,0,0,1,1.509.5,2.207,2.207,0,0,1,.856.7,1.7,1.7,0,0,1,.28.991,1.863,1.863,0,0,1-.78,1.562,3.267,3.267,0,0,1-2.023.588A3.647,3.647,0,0,1,66.4,11.3a2.5,2.5,0,0,1-1.051-.863,2.074,2.074,0,0,1-.379-1.2h1.242a1.288,1.288,0,0,0,.5.991,1.941,1.941,0,0,0,1.232.367,2.012,2.012,0,0,0,1.133-.285.88.88,0,0,0,.426-.763" transform="translate(27.701 1.735)"/>
          <path id="Trazado_900721" data-name="Trazado 900721" d="M74.7,11.474a2.609,2.609,0,0,1-.174-.766,2.773,2.773,0,0,1-2.07.9A2.571,2.571,0,0,1,70.7,11a1.964,1.964,0,0,1-.687-1.542,2.055,2.055,0,0,1,.863-1.764A4.078,4.078,0,0,1,73.3,7.067h1.21V6.495a1.394,1.394,0,0,0-.389-1.037,1.567,1.567,0,0,0-1.15-.387,1.811,1.811,0,0,0-1.115.335.992.992,0,0,0-.451.813H70.156a1.721,1.721,0,0,1,.387-1.051,2.634,2.634,0,0,1,1.048-.8,3.528,3.528,0,0,1,1.455-.3,2.872,2.872,0,0,1,1.968.629,2.263,2.263,0,0,1,.739,1.729V9.774a4.107,4.107,0,0,0,.255,1.593v.107Zm-2.063-.947a2.185,2.185,0,0,0,1.108-.3,1.837,1.837,0,0,0,.76-.786V7.947h-.976q-2.283,0-2.284,1.337a1.134,1.134,0,0,0,.389.914,1.5,1.5,0,0,0,1,.329" transform="translate(29.85 1.735)"/>
          <path id="Trazado_900722" data-name="Trazado 900722" d="M78.564,12.388V6.079h-1.15V5.118h1.15V4.372a2.478,2.478,0,0,1,.625-1.807,2.362,2.362,0,0,1,1.767-.638,3.282,3.282,0,0,1,.853.113l-.067,1a3.611,3.611,0,0,0-.672-.06,1.215,1.215,0,0,0-.934.354,1.437,1.437,0,0,0-.329,1.014v.769h1.552v.961H79.806v6.309Z" transform="translate(33.007 0.822)"/>
          <path id="Trazado_900723" data-name="Trazado 900723" d="M84.655,5.319a3.758,3.758,0,0,0-.613-.047,1.638,1.638,0,0,0-1.659,1.041v5.161H81.14V4.2h1.208l.02.84A1.937,1.937,0,0,1,84.1,4.07a1.281,1.281,0,0,1,.552.094Z" transform="translate(34.596 1.735)"/>
          <path id="Trazado_900724" data-name="Trazado 900724" d="M87.515,11.608a3.178,3.178,0,0,1-2.4-.97,3.607,3.607,0,0,1-.927-2.6V7.813A4.36,4.36,0,0,1,84.6,5.881a3.211,3.211,0,0,1,1.155-1.331,2.9,2.9,0,0,1,1.609-.481,2.719,2.719,0,0,1,2.2.934,4.035,4.035,0,0,1,.787,2.673V8.2H85.427a2.579,2.579,0,0,0,.628,1.737,1.976,1.976,0,0,0,1.529.662,2.155,2.155,0,0,0,1.114-.27,2.784,2.784,0,0,0,.8-.712l.759.592a3.051,3.051,0,0,1-2.742,1.4m-.154-6.517a1.654,1.654,0,0,0-1.262.548,2.664,2.664,0,0,0-.632,1.535h3.642V7.081A2.364,2.364,0,0,0,88.6,5.612a1.565,1.565,0,0,0-1.237-.521" transform="translate(35.893 1.735)"/>
          <path id="Trazado_900725" data-name="Trazado 900725" d="M90.691,4.2l.04.914A2.645,2.645,0,0,1,92.909,4.07q2.3,0,2.325,2.6v4.8H93.991V6.663A1.671,1.671,0,0,0,93.631,5.5a1.441,1.441,0,0,0-1.1-.377,1.8,1.8,0,0,0-1.063.322,2.208,2.208,0,0,0-.712.847v5.181H89.516V4.2Z" transform="translate(38.167 1.735)"/>
          <path id="Trazado_900726" data-name="Trazado 900726" d="M96.788,2.93V4.69h1.358v.961H96.788v4.514a1,1,0,0,0,.181.655.761.761,0,0,0,.619.22,2.988,2.988,0,0,0,.591-.081v1a3.644,3.644,0,0,1-.954.133,1.547,1.547,0,0,1-1.257-.5,2.174,2.174,0,0,1-.424-1.432V5.652H94.222V4.69h1.322V2.93Z" transform="translate(40.173 1.249)"/>
          <path id="Trazado_900727" data-name="Trazado 900727" d="M101.1,11.608a3.178,3.178,0,0,1-2.4-.97,3.607,3.607,0,0,1-.927-2.6V7.813a4.36,4.36,0,0,1,.414-1.931,3.211,3.211,0,0,1,1.155-1.331,2.9,2.9,0,0,1,1.609-.481,2.719,2.719,0,0,1,2.2.934,4.035,4.035,0,0,1,.787,2.673V8.2H99.013a2.579,2.579,0,0,0,.628,1.737,1.976,1.976,0,0,0,1.529.662,2.155,2.155,0,0,0,1.114-.27,2.784,2.784,0,0,0,.8-.712l.759.592a3.05,3.05,0,0,1-2.741,1.4m-.154-6.517a1.654,1.654,0,0,0-1.262.548,2.664,2.664,0,0,0-.632,1.535h3.642V7.081a2.364,2.364,0,0,0-.511-1.469,1.565,1.565,0,0,0-1.237-.521" transform="translate(41.686 1.735)"/>
          <rect id="Rectángulo_407598" data-name="Rectángulo 407598" width="3.279" height="1.014" transform="translate(149.774 8.547)"/>
          <path id="Trazado_900728" data-name="Trazado 900728" d="M114.208,8.053a5.693,5.693,0,0,1-.745,3.245,3.1,3.1,0,0,1-4.65.023,5.389,5.389,0,0,1-.78-3.1V6.561a5.555,5.555,0,0,1,.746-3.205,3.154,3.154,0,0,1,4.663-.037,5.358,5.358,0,0,1,.766,3.122Zm-1.242-1.7a4.554,4.554,0,0,0-.444-2.3,1.527,1.527,0,0,0-1.4-.723,1.508,1.508,0,0,0-1.392.719,4.448,4.448,0,0,0-.449,2.211v1.99a4.627,4.627,0,0,0,.459,2.341,1.526,1.526,0,0,0,1.4.756,1.5,1.5,0,0,0,1.366-.712,4.466,4.466,0,0,0,.468-2.245Z" transform="translate(46.062 0.984)"/>
          <path id="Trazado_900729" data-name="Trazado 900729" d="M113.587,9.029a.783.783,0,0,1,.191-.538.733.733,0,0,1,.575-.214.756.756,0,0,1,.582.214.767.767,0,0,1,.2.538.723.723,0,0,1-.2.518.77.77,0,0,1-.582.208.746.746,0,0,1-.575-.208.737.737,0,0,1-.191-.518" transform="translate(48.43 3.529)"/>
          <path id="Trazado_900730" data-name="Trazado 900730" d="M121.4,8.9h1.358V9.913H121.4v2.272h-1.25V9.913H115.7V9.182l4.38-6.78H121.4Zm-4.292,0h3.042V4.1L120,4.37Z" transform="translate(49.33 1.024)"/>
          <path id="Trazado_900731" data-name="Trazado 900731" d="M265.36,9.1H270V10.16h-5.932V.377h1.3Z" transform="translate(112.588 0.161)"/>
          <path id="Trazado_900732" data-name="Trazado 900732" d="M273.668,9.449a2.6,2.6,0,0,1-.175-.766,2.767,2.767,0,0,1-2.068.9,2.568,2.568,0,0,1-1.764-.608,1.965,1.965,0,0,1-.689-1.542,2.056,2.056,0,0,1,.864-1.764,4.073,4.073,0,0,1,2.429-.628h1.21V4.47a1.389,1.389,0,0,0-.391-1.037,1.563,1.563,0,0,0-1.15-.387,1.81,1.81,0,0,0-1.114.335.988.988,0,0,0-.451.813h-1.25a1.721,1.721,0,0,1,.387-1.051,2.625,2.625,0,0,1,1.048-.8,3.526,3.526,0,0,1,1.453-.3,2.873,2.873,0,0,1,1.97.629,2.263,2.263,0,0,1,.739,1.729V7.749a4.081,4.081,0,0,0,.255,1.593v.107ZM271.605,8.5a2.189,2.189,0,0,0,1.108-.3,1.846,1.846,0,0,0,.76-.786V5.922H272.5q-2.283,0-2.285,1.337a1.135,1.135,0,0,0,.391.914,1.5,1.5,0,0,0,1,.329" transform="translate(114.681 0.872)"/>
          <path id="Trazado_900733" data-name="Trazado 900733" d="M277.879,3.294a3.716,3.716,0,0,0-.612-.047,1.637,1.637,0,0,0-1.659,1.041V9.449h-1.242V2.179h1.21l.019.84a1.941,1.941,0,0,1,1.734-.974,1.27,1.27,0,0,1,.551.094Z" transform="translate(116.981 0.872)"/>
          <path id="Trazado_900734" data-name="Trazado 900734" d="M277.422,5.754a4.273,4.273,0,0,1,.786-2.7,2.711,2.711,0,0,1,4.159-.064l.06-.806h1.137V9.274a2.956,2.956,0,0,1-.837,2.224,3.081,3.081,0,0,1-2.247.814,3.742,3.742,0,0,1-1.54-.337,2.651,2.651,0,0,1-1.148-.92l.645-.746a2.434,2.434,0,0,0,1.956.987,1.9,1.9,0,0,0,1.414-.511,1.948,1.948,0,0,0,.508-1.438V8.723a2.553,2.553,0,0,1-2.035.86,2.478,2.478,0,0,1-2.065-1.028,4.49,4.49,0,0,1-.79-2.8m1.25.141a3.252,3.252,0,0,0,.5,1.931,1.636,1.636,0,0,0,1.411.7,1.817,1.817,0,0,0,1.726-1.068V4.142A1.842,1.842,0,0,0,280.6,3.1a1.652,1.652,0,0,0-1.418.706,3.547,3.547,0,0,0-.511,2.09" transform="translate(118.284 0.872)"/>
          <path id="Trazado_900735" data-name="Trazado 900735" d="M282.811,5.746a4.3,4.3,0,0,1,.421-1.921A3.134,3.134,0,0,1,284.4,2.507a3.194,3.194,0,0,1,1.71-.462,3.068,3.068,0,0,1,2.4,1.027,3.956,3.956,0,0,1,.919,2.734v.088a4.329,4.329,0,0,1-.408,1.9,3.075,3.075,0,0,1-1.162,1.314,3.216,3.216,0,0,1-1.737.471,3.053,3.053,0,0,1-2.393-1.028,3.93,3.93,0,0,1-.919-2.72Zm1.25.148a3.111,3.111,0,0,0,.562,1.941,1.9,1.9,0,0,0,3.007-.01,3.4,3.4,0,0,0,.558-2.08,3.108,3.108,0,0,0-.568-1.938,1.806,1.806,0,0,0-1.509-.742,1.786,1.786,0,0,0-1.485.732,3.376,3.376,0,0,0-.565,2.1" transform="translate(120.582 0.872)"/>
          <path id="Trazado_900736" data-name="Trazado 900736" d="M295.256,7.521a.917.917,0,0,0-.381-.783,3.634,3.634,0,0,0-1.322-.481,6.151,6.151,0,0,1-1.5-.484,2.113,2.113,0,0,1-.82-.672,1.609,1.609,0,0,1-.267-.927,1.887,1.887,0,0,1,.756-1.512,2.955,2.955,0,0,1,1.933-.618,3.038,3.038,0,0,1,2.005.638,2.029,2.029,0,0,1,.769,1.633h-1.25a1.125,1.125,0,0,0-.432-.88,1.627,1.627,0,0,0-1.093-.369,1.7,1.7,0,0,0-1.061.3.933.933,0,0,0-.384.773.754.754,0,0,0,.357.679,4.393,4.393,0,0,0,1.287.436,6.722,6.722,0,0,1,1.508.5,2.2,2.2,0,0,1,.857.7,1.7,1.7,0,0,1,.278.991A1.862,1.862,0,0,1,295.719,9a3.267,3.267,0,0,1-2.023.588,3.658,3.658,0,0,1-1.546-.31,2.509,2.509,0,0,1-1.05-.863,2.075,2.075,0,0,1-.381-1.2h1.242a1.284,1.284,0,0,0,.5.991,1.941,1.941,0,0,0,1.232.367,2.012,2.012,0,0,0,1.133-.285.88.88,0,0,0,.426-.763" transform="translate(123.954 0.872)"/>
          <path id="Trazado_900737" data-name="Trazado 900737" d="M295.912,1A.736.736,0,0,1,296.1.492a.685.685,0,0,1,.546-.21.7.7,0,0,1,.551.21.731.731,0,0,1,.188.511.709.709,0,0,1-.188.5.719.719,0,0,1-.551.2.7.7,0,0,1-.546-.2.713.713,0,0,1-.185-.5m1.344,9.2h-1.244V2.931h1.244Z" transform="translate(126.168 0.12)"/>
          <path id="Trazado_900738" data-name="Trazado 900738" d="M302.57,7.521a.916.916,0,0,0-.379-.783,3.656,3.656,0,0,0-1.322-.481,6.165,6.165,0,0,1-1.5-.484,2.119,2.119,0,0,1-.819-.672,1.6,1.6,0,0,1-.267-.927,1.887,1.887,0,0,1,.756-1.512,2.951,2.951,0,0,1,1.931-.618,3.038,3.038,0,0,1,2.005.638,2.026,2.026,0,0,1,.77,1.633H302.5a1.121,1.121,0,0,0-.432-.88,1.621,1.621,0,0,0-1.093-.369,1.7,1.7,0,0,0-1.061.3.933.933,0,0,0-.384.773.757.757,0,0,0,.357.679,4.39,4.39,0,0,0,1.288.436,6.771,6.771,0,0,1,1.508.5,2.223,2.223,0,0,1,.857.7,1.715,1.715,0,0,1,.278.991A1.863,1.863,0,0,1,303.034,9a3.267,3.267,0,0,1-2.023.588,3.647,3.647,0,0,1-1.545-.31,2.513,2.513,0,0,1-1.051-.863,2.073,2.073,0,0,1-.379-1.2h1.242a1.288,1.288,0,0,0,.5.991,1.947,1.947,0,0,0,1.232.367,2.009,2.009,0,0,0,1.133-.285.88.88,0,0,0,.427-.763" transform="translate(127.073 0.872)"/>
          <path id="Trazado_900739" data-name="Trazado 900739" d="M307.772,9.449a2.607,2.607,0,0,1-.174-.766,2.77,2.77,0,0,1-2.07.9,2.567,2.567,0,0,1-1.763-.608,1.961,1.961,0,0,1-.689-1.542,2.055,2.055,0,0,1,.863-1.764,4.078,4.078,0,0,1,2.429-.628h1.21V4.47a1.394,1.394,0,0,0-.389-1.037,1.567,1.567,0,0,0-1.15-.387,1.811,1.811,0,0,0-1.115.335.99.99,0,0,0-.449.813h-1.25a1.718,1.718,0,0,1,.385-1.051,2.639,2.639,0,0,1,1.05-.8,3.516,3.516,0,0,1,1.453-.3,2.872,2.872,0,0,1,1.968.629,2.264,2.264,0,0,1,.74,1.729V7.749a4.11,4.11,0,0,0,.254,1.593v.107ZM305.709,8.5a2.185,2.185,0,0,0,1.108-.3,1.837,1.837,0,0,0,.76-.786V5.922H306.6q-2.283,0-2.285,1.337a1.13,1.13,0,0,0,.391.914,1.493,1.493,0,0,0,1,.329" transform="translate(129.222 0.872)"/>
          <path id="Trazado_900740" data-name="Trazado 900740" d="M315.409,9.449a2.6,2.6,0,0,1-.175-.766,2.767,2.767,0,0,1-2.068.9,2.568,2.568,0,0,1-1.764-.608,1.965,1.965,0,0,1-.689-1.542,2.056,2.056,0,0,1,.864-1.764,4.072,4.072,0,0,1,2.429-.628h1.21V4.47a1.389,1.389,0,0,0-.391-1.037,1.563,1.563,0,0,0-1.15-.387,1.81,1.81,0,0,0-1.114.335.988.988,0,0,0-.451.813H310.86a1.721,1.721,0,0,1,.387-1.051,2.624,2.624,0,0,1,1.048-.8,3.526,3.526,0,0,1,1.453-.3,2.873,2.873,0,0,1,1.97.629,2.263,2.263,0,0,1,.739,1.729V7.749a4.08,4.08,0,0,0,.255,1.593v.107ZM313.346,8.5a2.189,2.189,0,0,0,1.108-.3,1.846,1.846,0,0,0,.76-.786V5.922h-.976q-2.283,0-2.285,1.337a1.135,1.135,0,0,0,.391.914,1.5,1.5,0,0,0,1,.329" transform="translate(132.478 0.872)"/>
          <path id="Trazado_900741" data-name="Trazado 900741" d="M318.056.9v1.76h1.356v.961h-1.356V8.141a1,1,0,0,0,.181.655.761.761,0,0,0,.619.22,2.988,2.988,0,0,0,.591-.081v1a3.653,3.653,0,0,1-.954.133,1.547,1.547,0,0,1-1.257-.5,2.174,2.174,0,0,1-.424-1.432V3.627h-1.324V2.665h1.324V.9Z" transform="translate(134.515 0.386)"/>
          <path id="Trazado_900742" data-name="Trazado 900742" d="M322.772,3.294a3.728,3.728,0,0,0-.612-.047,1.639,1.639,0,0,0-1.66,1.041V9.449h-1.242V2.179h1.21l.02.84a1.937,1.937,0,0,1,1.733-.974,1.273,1.273,0,0,1,.552.094Z" transform="translate(136.121 0.872)"/>
          <path id="Trazado_900743" data-name="Trazado 900743" d="M327.073,10.32a2.6,2.6,0,0,1-.174-.766,2.777,2.777,0,0,1-2.071.9,2.568,2.568,0,0,1-1.763-.609,1.964,1.964,0,0,1-.687-1.542,2.059,2.059,0,0,1,.862-1.764,4.081,4.081,0,0,1,2.429-.628h1.21V5.342a1.4,1.4,0,0,0-.389-1.038,1.564,1.564,0,0,0-1.148-.387,1.817,1.817,0,0,0-1.115.335,1,1,0,0,0-.451.814h-1.249a1.716,1.716,0,0,1,.387-1.053,2.637,2.637,0,0,1,1.048-.8,3.523,3.523,0,0,1,1.455-.3,2.87,2.87,0,0,1,1.967.629,2.267,2.267,0,0,1,.74,1.73V8.62a4.1,4.1,0,0,0,.255,1.593v.107Zm-2.064-.947a2.186,2.186,0,0,0,1.11-.3,1.818,1.818,0,0,0,.759-.786V6.792H325.9q-2.283,0-2.284,1.338a1.129,1.129,0,0,0,.389.913,1.5,1.5,0,0,0,1,.329M326.158,0h1.506l-1.8,1.976-1,0Z" transform="translate(137.451)"/>
          <path id="Trazado_900744" data-name="Trazado 900744" d="M332.092,7.521a.916.916,0,0,0-.379-.783,3.655,3.655,0,0,0-1.322-.481,6.166,6.166,0,0,1-1.5-.484,2.118,2.118,0,0,1-.819-.672,1.6,1.6,0,0,1-.267-.927,1.887,1.887,0,0,1,.756-1.512,2.951,2.951,0,0,1,1.931-.618,3.038,3.038,0,0,1,2.005.638,2.026,2.026,0,0,1,.77,1.633h-1.251a1.121,1.121,0,0,0-.432-.88,1.622,1.622,0,0,0-1.093-.369,1.7,1.7,0,0,0-1.061.3.933.933,0,0,0-.384.773.757.757,0,0,0,.357.679,4.389,4.389,0,0,0,1.288.436,6.772,6.772,0,0,1,1.508.5,2.223,2.223,0,0,1,.857.7,1.714,1.714,0,0,1,.278.991A1.863,1.863,0,0,1,332.556,9a3.267,3.267,0,0,1-2.023.588,3.647,3.647,0,0,1-1.545-.31,2.513,2.513,0,0,1-1.051-.863,2.074,2.074,0,0,1-.379-1.2H328.8a1.287,1.287,0,0,0,.5.991,1.946,1.946,0,0,0,1.232.367,2.009,2.009,0,0,0,1.133-.285.88.88,0,0,0,.427-.763" transform="translate(139.66 0.872)"/>
          <rect id="Rectángulo_407599" data-name="Rectángulo 407599" width="3.279" height="1.014" transform="translate(477.33 5.657)"/>
          <path id="Trazado_900745" data-name="Trazado 900745" d="M343.851,6.027a5.7,5.7,0,0,1-.745,3.245,3.1,3.1,0,0,1-4.65.023,5.378,5.378,0,0,1-.78-3.1V4.535a5.567,5.567,0,0,1,.745-3.205,3.156,3.156,0,0,1,4.664-.037,5.369,5.369,0,0,1,.766,3.122Zm-1.242-1.7a4.536,4.536,0,0,0-.445-2.3,1.524,1.524,0,0,0-1.4-.723,1.507,1.507,0,0,0-1.391.719,4.446,4.446,0,0,0-.451,2.211v1.99a4.624,4.624,0,0,0,.461,2.341,1.525,1.525,0,0,0,1.395.756,1.5,1.5,0,0,0,1.366-.712,4.466,4.466,0,0,0,.468-2.245Z" transform="translate(143.974 0.12)"/>
          <path id="Trazado_900746" data-name="Trazado 900746" d="M343.23,7a.783.783,0,0,1,.191-.538A.731.731,0,0,1,344,6.252a.751.751,0,0,1,.581.214.762.762,0,0,1,.2.538.718.718,0,0,1-.2.518A.764.764,0,0,1,344,7.73.691.691,0,0,1,343.23,7" transform="translate(146.342 2.666)"/>
          <path id="Trazado_900747" data-name="Trazado 900747" d="M347.521,4.7h.934a2.051,2.051,0,0,0,1.385-.464,1.548,1.548,0,0,0,.5-1.215A1.518,1.518,0,0,0,348.63,1.3a1.782,1.782,0,0,0-1.285.459,1.608,1.608,0,0,0-.481,1.22H345.62a2.494,2.494,0,0,1,.852-1.931,3.093,3.093,0,0,1,2.158-.77,3.06,3.06,0,0,1,2.171.733,2.643,2.643,0,0,1,.787,2.035,2.147,2.147,0,0,1-.414,1.237,2.5,2.5,0,0,1-1.127.893,2.425,2.425,0,0,1,1.248.847,2.35,2.35,0,0,1,.439,1.445,2.671,2.671,0,0,1-.859,2.09,3.229,3.229,0,0,1-2.239.773,3.307,3.307,0,0,1-2.239-.746,2.475,2.475,0,0,1-.864-1.97h1.25a1.6,1.6,0,0,0,.5,1.238,1.918,1.918,0,0,0,1.349.462,1.886,1.886,0,0,0,1.378-.469,1.814,1.814,0,0,0,.478-1.351,1.642,1.642,0,0,0-.525-1.309,2.285,2.285,0,0,0-1.512-.472h-.934Z" transform="translate(147.324 0.12)"/>
          <path id="Trazado_900748" data-name="Trazado 900748" d="M414.254,146.763V151.4H413.2v-5.932h9.784v1.3Z" transform="translate(176.175 62.022)"/>
          <path id="Trazado_900749" data-name="Trazado 900749" d="M413.239,155.071a2.609,2.609,0,0,1,.766-.174,2.773,2.773,0,0,1-.9-2.07,2.571,2.571,0,0,1,.608-1.764,1.964,1.964,0,0,1,1.542-.687,2.058,2.058,0,0,1,1.764.863,4.078,4.078,0,0,1,.628,2.429v1.21h.571a1.4,1.4,0,0,0,1.04-.389,1.579,1.579,0,0,0,.385-1.15,1.821,1.821,0,0,0-.335-1.115.994.994,0,0,0-.813-.451v-1.25a1.724,1.724,0,0,1,1.051.387,2.634,2.634,0,0,1,.8,1.048,3.528,3.528,0,0,1,.3,1.455,2.865,2.865,0,0,1-.629,1.968,2.264,2.264,0,0,1-1.73.739h-3.346a4.1,4.1,0,0,0-1.592.255h-.107Zm.947-2.063a2.171,2.171,0,0,0,.3,1.108,1.833,1.833,0,0,0,.787.76h1.491V153.9q0-2.283-1.338-2.284a1.138,1.138,0,0,0-.914.389,1.5,1.5,0,0,0-.328,1" transform="translate(176.135 64.115)"/>
          <path id="Trazado_900750" data-name="Trazado 900750" d="M419.352,159.282a3.729,3.729,0,0,0,.047-.612,1.637,1.637,0,0,0-1.041-1.659H413.2v-1.242h7.269v1.208l-.84.02a1.939,1.939,0,0,1,.976,1.734,1.291,1.291,0,0,1-.094.551Z" transform="translate(176.175 66.415)"/>
          <path id="Trazado_900751" data-name="Trazado 900751" d="M417.75,158.826a4.263,4.263,0,0,1,2.7.786,2.709,2.709,0,0,1,.064,4.159l.806.06v1.135H414.23a2.958,2.958,0,0,1-2.225-.836,3.089,3.089,0,0,1-.813-2.248,3.761,3.761,0,0,1,.335-1.539,2.655,2.655,0,0,1,.921-1.148l.745.645a2.431,2.431,0,0,0-.986,1.956,1.906,1.906,0,0,0,.509,1.414,1.948,1.948,0,0,0,1.438.508h.626a2.554,2.554,0,0,1-.86-2.037,2.482,2.482,0,0,1,1.028-2.065,4.49,4.49,0,0,1,2.8-.789m-.141,1.25a3.262,3.262,0,0,0-1.931.5,1.634,1.634,0,0,0-.7,1.411,1.82,1.82,0,0,0,1.068,1.727h3.319A1.841,1.841,0,0,0,420.4,162a1.65,1.65,0,0,0-.7-1.418,3.551,3.551,0,0,0-2.09-.511" transform="translate(175.319 67.718)"/>
          <path id="Trazado_900752" data-name="Trazado 900752" d="M416.942,164.215a4.3,4.3,0,0,1,1.921.419,3.143,3.143,0,0,1,1.317,1.17,3.179,3.179,0,0,1,.464,1.71,3.068,3.068,0,0,1-1.027,2.4,3.959,3.959,0,0,1-2.736.917h-.087a4.339,4.339,0,0,1-1.906-.406,3.092,3.092,0,0,1-1.314-1.163,3.215,3.215,0,0,1-.469-1.737,3.056,3.056,0,0,1,1.028-2.395,3.93,3.93,0,0,1,2.72-.917Zm-.148,1.25a3.1,3.1,0,0,0-1.941.562,1.9,1.9,0,0,0,.01,3.005,3.4,3.4,0,0,0,2.08.559,3.114,3.114,0,0,0,1.938-.568,1.807,1.807,0,0,0,.74-1.509,1.782,1.782,0,0,0-.732-1.485,3.371,3.371,0,0,0-2.1-.565" transform="translate(176.135 70.016)"/>
          <path id="Trazado_900753" data-name="Trazado 900753" d="M420.468,173.506l-.806.034a2.685,2.685,0,0,1,.941,2.157,2.077,2.077,0,0,1-1.171,2.075,2.732,2.732,0,0,1,.847.944,2.784,2.784,0,0,1,.324,1.375q0,2.39-2.535,2.432H413.2V181.28H418a1.673,1.673,0,0,0,1.165-.355,1.57,1.57,0,0,0,.385-1.2,1.646,1.646,0,0,0-.412-1.15,1.682,1.682,0,0,0-1.111-.531H413.2V176.8h4.764a1.387,1.387,0,0,0,1.585-1.553,1.663,1.663,0,0,0-1.041-1.673H413.2v-1.242h7.27Z" transform="translate(176.175 73.477)"/>
          <path id="Trazado_900754" data-name="Trazado 900754" d="M413.239,185.341a2.608,2.608,0,0,1,.766-.174,2.77,2.77,0,0,1-.9-2.07,2.567,2.567,0,0,1,.608-1.763,1.961,1.961,0,0,1,1.542-.689,2.058,2.058,0,0,1,1.764.863,4.078,4.078,0,0,1,.628,2.429v1.21h.571a1.4,1.4,0,0,0,1.04-.389,1.579,1.579,0,0,0,.385-1.15,1.82,1.82,0,0,0-.335-1.115.992.992,0,0,0-.813-.449v-1.25a1.722,1.722,0,0,1,1.051.385,2.639,2.639,0,0,1,.8,1.05,3.516,3.516,0,0,1,.3,1.453,2.865,2.865,0,0,1-.629,1.968,2.265,2.265,0,0,1-1.73.74h-3.346a4.107,4.107,0,0,0-1.592.254h-.107Zm.947-2.063a2.171,2.171,0,0,0,.3,1.108,1.833,1.833,0,0,0,.787.76h1.491v-.974q0-2.283-1.338-2.285a1.134,1.134,0,0,0-.914.391,1.5,1.5,0,0,0-.328,1" transform="translate(176.135 77.021)"/>
          <path id="Trazado_900755" data-name="Trazado 900755" d="M420.468,187.214l-.914.041a2.646,2.646,0,0,1,1.05,2.178q0,2.3-2.6,2.325h-4.8v-1.244h4.811a1.664,1.664,0,0,0,1.162-.361,1.436,1.436,0,0,0,.375-1.1,1.8,1.8,0,0,0-.321-1.061,2.2,2.2,0,0,0-.847-.712H413.2V186.04h7.27Z" transform="translate(176.175 79.322)"/>
          <path id="Trazado_900756" data-name="Trazado 900756" d="M417.75,191.155a4.272,4.272,0,0,1,2.7.786,2.709,2.709,0,0,1,.064,4.159l.806.06V197.3H414.23a2.959,2.959,0,0,1-2.225-.837,3.086,3.086,0,0,1-.813-2.247,3.763,3.763,0,0,1,.335-1.54,2.664,2.664,0,0,1,.921-1.148l.745.645a2.433,2.433,0,0,0-.986,1.956,1.905,1.905,0,0,0,.509,1.414,1.948,1.948,0,0,0,1.438.508h.626a2.553,2.553,0,0,1-.86-2.035,2.478,2.478,0,0,1,1.028-2.065,4.49,4.49,0,0,1,2.8-.79m-.141,1.25a3.252,3.252,0,0,0-1.931.5,1.634,1.634,0,0,0-.7,1.411,1.817,1.817,0,0,0,1.068,1.726h3.319a1.841,1.841,0,0,0,1.041-1.713,1.651,1.651,0,0,0-.7-1.418,3.551,3.551,0,0,0-2.09-.511" transform="translate(175.319 81.502)"/>
          <path id="Trazado_900757" data-name="Trazado 900757" d="M413.239,201.325a2.6,2.6,0,0,1,.766-.175,2.767,2.767,0,0,1-.9-2.068,2.568,2.568,0,0,1,.608-1.764,1.965,1.965,0,0,1,1.542-.689,2.059,2.059,0,0,1,1.764.864,4.072,4.072,0,0,1,.628,2.429v1.21h.571a1.4,1.4,0,0,0,1.04-.391,1.574,1.574,0,0,0,.385-1.15,1.819,1.819,0,0,0-.335-1.114.99.99,0,0,0-.813-.451v-1.25a1.724,1.724,0,0,1,1.051.387,2.624,2.624,0,0,1,.8,1.048,3.525,3.525,0,0,1,.3,1.453,2.866,2.866,0,0,1-.629,1.97,2.264,2.264,0,0,1-1.73.739h-3.346a4.078,4.078,0,0,0-1.592.255h-.107Zm.947-2.063a2.175,2.175,0,0,0,.3,1.108,1.841,1.841,0,0,0,.787.76h1.491v-.976q0-2.283-1.338-2.285a1.139,1.139,0,0,0-.914.391,1.5,1.5,0,0,0-.328,1" transform="translate(176.135 83.836)"/>
          <path id="Trazado_900758" data-name="Trazado 900758" d="M418.154,208.1v2.729h-1.177V208.1h-3.091v-1.249h3.091v-2.729h1.177v2.729h2.856V208.1Z" transform="translate(176.468 87.029)"/>
          <path id="Trazado_900759" data-name="Trazado 900759" d="M416.484,215.174v1.356h-1.016v-1.356H413.2v-1.249h2.271v-4.456h.733l6.781,4.38v1.325Zm0-4.295v3.045h4.8l-.268-.15Z" transform="translate(176.175 89.311)"/>
          <rect id="Rectángulo_407600" data-name="Rectángulo 407600" width="1.014" height="3.279" transform="translate(593.023 309.806)"/>
          <path id="Trazado_900760" data-name="Trazado 900760" d="M422.283,229.05,413.2,225v-1.3l8.761,4.038v-5.295h1.023v6.613Z" transform="translate(176.175 94.84)"/>
          <path id="Trazado_900761" data-name="Trazado 900761" d="M418.114,230.507a10.424,10.424,0,0,1,2.916.407,8.511,8.511,0,0,1,2.54,1.214,5.183,5.183,0,0,1,1.613,1.673l-.82.254a5.376,5.376,0,0,0-2.3-1.609,9.907,9.907,0,0,0-3.46-.687l-.572-.007a10.011,10.011,0,0,0-4.5.947,5.375,5.375,0,0,0-1.787,1.356l-.759-.254a5.322,5.322,0,0,1,1.666-1.707,9.341,9.341,0,0,1,5.463-1.586" transform="translate(175.231 98.281)"/>
          <path id="Trazado_900762" data-name="Trazado 900762" d="M417.589,239.979a4.357,4.357,0,0,1-2.674-.759,2.434,2.434,0,0,1-1.014-2.057,2.669,2.669,0,0,1,.839-2.082h-3.5v-1.242H421.3v1.135l-.807.06a2.564,2.564,0,0,1,.943,2.111,2.477,2.477,0,0,1-.99,2.072,4.4,4.4,0,0,1-2.747.762Zm.141-1.242a3.209,3.209,0,0,0,1.941-.523,1.688,1.688,0,0,0,.712-1.438,1.828,1.828,0,0,0-1-1.695H415.91a1.833,1.833,0,0,0-1,1.707,1.679,1.679,0,0,0,.709,1.421,3.5,3.5,0,0,0,2.107.528" transform="translate(175.34 99.701)"/>
          <path id="Trazado_900763" data-name="Trazado 900763" d="M413.958,243.746a2.643,2.643,0,0,1-.853-2.13,2.262,2.262,0,0,1,.675-1.77,2.919,2.919,0,0,1,2-.615h4.73v1.242h-4.7c-1.1,0-1.653.449-1.653,1.344a1.862,1.862,0,0,0,1.061,1.9h5.288v1.244h-7.27v-1.182Z" transform="translate(176.135 102.001)"/>
          <path id="Trazado_900764" data-name="Trazado 900764" d="M420.469,245.744l-.914.041a2.644,2.644,0,0,1,1.048,2.177q0,2.3-2.6,2.325h-4.8v-1.244h4.811a1.673,1.673,0,0,0,1.162-.359,1.447,1.447,0,0,0,.375-1.1,1.8,1.8,0,0,0-.321-1.061,2.206,2.206,0,0,0-.847-.712H413.2v-1.242h7.27Zm2.836,4.112a1.676,1.676,0,0,1-1.177-.414,1.342,1.342,0,0,1-.449-1.031,1.538,1.538,0,0,1,.067-.478,2.578,2.578,0,0,1,.277-.526,2.21,2.21,0,0,0,.25-.471,1.07,1.07,0,0,0,.046-.332.617.617,0,0,0-.213-.471.766.766,0,0,0-.541-.194l.047-.834a1.756,1.756,0,0,1,1.188.406,1.308,1.308,0,0,1,.471,1.033,1.276,1.276,0,0,1-.067.424,3.008,3.008,0,0,1-.263.509,3.118,3.118,0,0,0-.255.495,1.141,1.141,0,0,0-.06.378.6.6,0,0,0,.23.481.794.794,0,0,0,.529.193Z" transform="translate(176.175 104.277)"/>
          <path id="Trazado_900765" data-name="Trazado 900765" d="M416.942,249.66a4.3,4.3,0,0,1,1.921.421,3.13,3.13,0,0,1,1.317,1.168,3.183,3.183,0,0,1,.464,1.71,3.068,3.068,0,0,1-1.027,2.4,3.959,3.959,0,0,1-2.736.919h-.087a4.34,4.34,0,0,1-1.906-.408,3.083,3.083,0,0,1-1.314-1.163,3.215,3.215,0,0,1-.469-1.737,3.053,3.053,0,0,1,1.028-2.393,3.93,3.93,0,0,1,2.72-.919Zm-.148,1.25a3.108,3.108,0,0,0-1.941.562,1.9,1.9,0,0,0,.01,3.007,3.4,3.4,0,0,0,2.08.558,3.114,3.114,0,0,0,1.938-.568,1.8,1.8,0,0,0,.74-1.509,1.782,1.782,0,0,0-.732-1.485,3.371,3.371,0,0,0-2.1-.565" transform="translate(176.135 106.447)"/>
          <path id="Trazado_900766" data-name="Trazado 900766" d="M418.046,258.466a10.45,10.45,0,0,1-2.873-.391,8.526,8.526,0,0,1-2.535-1.2,5.26,5.26,0,0,1-1.653-1.7l.759-.261a5.4,5.4,0,0,0,2.463,1.663,10.659,10.659,0,0,0,3.7.642h.215a11.056,11.056,0,0,0,2.623-.3,8.928,8.928,0,0,0,2.174-.823,5.052,5.052,0,0,0,1.5-1.187l.76.261a5.287,5.287,0,0,1-1.64,1.692,8.5,8.5,0,0,1-2.533,1.2,10.573,10.573,0,0,1-2.964.4" transform="translate(175.231 108.687)"/>
          <path id="Trazado_900767" data-name="Trazado 900767" d="M402.962,57.2h2.727V58.38h-2.727v3.09h-1.251V58.38h-2.727V57.2h2.727V54.348h1.251Z" transform="translate(170.114 23.172)"/>
          <path id="Trazado_900768" data-name="Trazado 900768" d="M410.04,59.667H411.4v1.014H410.04v2.272h-1.249V60.681h-4.455V59.95l4.38-6.78h1.324Zm-4.293,0h3.044v-4.8l-.148.268Z" transform="translate(172.396 22.67)"/>
          <path id="Trazado_900769" data-name="Trazado 900769" d="M362.461,54.825a3.6,3.6,0,0,1-1.145,2.395,3.759,3.759,0,0,1-2.565.844,3.447,3.447,0,0,1-2.777-1.244,5,5,0,0,1-1.044-3.326v-.94a5.569,5.569,0,0,1,.486-2.4,3.643,3.643,0,0,1,1.381-1.589,3.845,3.845,0,0,1,2.068-.555,3.539,3.539,0,0,1,2.5.87,3.641,3.641,0,0,1,1.1,2.409h-1.3a2.8,2.8,0,0,0-.729-1.7,2.208,2.208,0,0,0-1.57-.526,2.308,2.308,0,0,0-1.937.914,4.2,4.2,0,0,0-.7,2.6v.947a4.317,4.317,0,0,0,.665,2.536,2.149,2.149,0,0,0,1.86.941,2.486,2.486,0,0,0,1.652-.488,2.7,2.7,0,0,0,.762-1.7Z" transform="translate(151.331 20.47)"/>
          <path id="Trazado_900770" data-name="Trazado 900770" d="M361.078,53.475a4.3,4.3,0,0,1,.419-1.921,3.137,3.137,0,0,1,1.17-1.318,3.188,3.188,0,0,1,1.71-.462,3.068,3.068,0,0,1,2.4,1.027,3.955,3.955,0,0,1,.917,2.734v.088a4.329,4.329,0,0,1-.406,1.9,3.084,3.084,0,0,1-1.162,1.314,3.219,3.219,0,0,1-1.737.471A3.054,3.054,0,0,1,362,56.284a3.929,3.929,0,0,1-.917-2.72Zm1.25.148a3.1,3.1,0,0,0,.562,1.941,1.9,1.9,0,0,0,3.005-.01,3.4,3.4,0,0,0,.559-2.08,3.1,3.1,0,0,0-.569-1.938,1.8,1.8,0,0,0-1.508-.742,1.784,1.784,0,0,0-1.485.732,3.376,3.376,0,0,0-.565,2.1" transform="translate(153.952 21.222)"/>
          <path id="Trazado_900771" data-name="Trazado 900771" d="M367.985,49.908l.04.914a2.649,2.649,0,0,1,2.178-1.048q2.3,0,2.325,2.6v4.8h-1.244V52.367a1.678,1.678,0,0,0-.358-1.162,1.444,1.444,0,0,0-1.1-.377,1.8,1.8,0,0,0-1.061.322,2.2,2.2,0,0,0-.713.847v5.181H366.81v-7.27Z" transform="translate(156.396 21.222)"/>
          <path id="Trazado_900772" data-name="Trazado 900772" d="M374.083,48.634v1.76h1.356v.961h-1.356V55.87a1,1,0,0,0,.181.655.761.761,0,0,0,.619.22,2.988,2.988,0,0,0,.591-.081v1a3.652,3.652,0,0,1-.954.133,1.547,1.547,0,0,1-1.257-.5,2.174,2.174,0,0,1-.424-1.432V51.356h-1.324v-.961h1.324v-1.76Z" transform="translate(158.403 20.736)"/>
          <path id="Trazado_900773" data-name="Trazado 900773" d="M382,55.249a.913.913,0,0,0-.379-.782,3.629,3.629,0,0,0-1.322-.481,6.166,6.166,0,0,1-1.5-.484,2.119,2.119,0,0,1-.819-.672,1.6,1.6,0,0,1-.267-.927,1.887,1.887,0,0,1,.756-1.512,2.951,2.951,0,0,1,1.931-.619,3.045,3.045,0,0,1,2.005.638,2.029,2.029,0,0,1,.77,1.635h-1.251a1.121,1.121,0,0,0-.432-.88A1.622,1.622,0,0,0,380.4,50.8a1.7,1.7,0,0,0-1.061.3.933.933,0,0,0-.384.772.758.758,0,0,0,.357.68,4.476,4.476,0,0,0,1.288.436,6.705,6.705,0,0,1,1.508.495,2.239,2.239,0,0,1,.857.7,1.714,1.714,0,0,1,.278.991,1.865,1.865,0,0,1-.78,1.562,3.267,3.267,0,0,1-2.023.588A3.626,3.626,0,0,1,378.892,57a2.5,2.5,0,0,1-1.051-.862,2.073,2.073,0,0,1-.379-1.2H378.7a1.29,1.29,0,0,0,.5.991,1.946,1.946,0,0,0,1.232.367,2,2,0,0,0,1.133-.287.878.878,0,0,0,.427-.763" transform="translate(160.937 21.222)"/>
          <path id="Trazado_900774" data-name="Trazado 900774" d="M382.652,48.731a.742.742,0,0,1,.185-.511.692.692,0,0,1,.548-.21.7.7,0,0,1,.551.21.731.731,0,0,1,.188.511.709.709,0,0,1-.188.5.719.719,0,0,1-.551.2.708.708,0,0,1-.548-.2.719.719,0,0,1-.185-.5M384,57.93h-1.242V50.66H384Z" transform="translate(163.151 20.47)"/>
          <path id="Trazado_900775" data-name="Trazado 900775" d="M389.311,55.249a.913.913,0,0,0-.379-.782,3.629,3.629,0,0,0-1.322-.481,6.166,6.166,0,0,1-1.5-.484,2.119,2.119,0,0,1-.819-.672,1.6,1.6,0,0,1-.267-.927,1.887,1.887,0,0,1,.756-1.512,2.951,2.951,0,0,1,1.931-.619,3.045,3.045,0,0,1,2.005.638,2.029,2.029,0,0,1,.77,1.635h-1.251a1.121,1.121,0,0,0-.432-.88,1.622,1.622,0,0,0-1.093-.369,1.7,1.7,0,0,0-1.061.3.933.933,0,0,0-.384.772.758.758,0,0,0,.357.68,4.477,4.477,0,0,0,1.288.436,6.705,6.705,0,0,1,1.508.495,2.238,2.238,0,0,1,.857.7,1.715,1.715,0,0,1,.278.991,1.865,1.865,0,0,1-.78,1.562,3.267,3.267,0,0,1-2.023.588A3.626,3.626,0,0,1,386.208,57a2.5,2.5,0,0,1-1.051-.862,2.073,2.073,0,0,1-.379-1.2h1.242a1.29,1.29,0,0,0,.5.991,1.947,1.947,0,0,0,1.232.367,2,2,0,0,0,1.133-.287.879.879,0,0,0,.426-.763" transform="translate(164.057 21.222)"/>
          <path id="Trazado_900776" data-name="Trazado 900776" d="M394.514,57.178a2.6,2.6,0,0,1-.175-.766,2.767,2.767,0,0,1-2.068.9,2.568,2.568,0,0,1-1.764-.608,1.965,1.965,0,0,1-.689-1.542,2.056,2.056,0,0,1,.864-1.764,4.072,4.072,0,0,1,2.429-.628h1.21V52.2a1.389,1.389,0,0,0-.391-1.037,1.562,1.562,0,0,0-1.15-.387,1.81,1.81,0,0,0-1.114.335.988.988,0,0,0-.451.813h-1.25a1.721,1.721,0,0,1,.387-1.051,2.624,2.624,0,0,1,1.048-.8,3.525,3.525,0,0,1,1.453-.3,2.873,2.873,0,0,1,1.97.629,2.263,2.263,0,0,1,.739,1.729v3.346a4.081,4.081,0,0,0,.255,1.593v.107Zm-2.062-.947a2.189,2.189,0,0,0,1.108-.3,1.845,1.845,0,0,0,.76-.786V53.651h-.976q-2.283,0-2.285,1.337a1.135,1.135,0,0,0,.391.914,1.5,1.5,0,0,0,1,.329" transform="translate(166.206 21.222)"/>
          <path id="Trazado_900777" data-name="Trazado 900777" d="M377.177,59.871v1.054h-.23a3.283,3.283,0,0,0-2.311.86,3.577,3.577,0,0,0-.994,2.345,2.654,2.654,0,0,1,2.11-.886,2.535,2.535,0,0,1,2.04.9,3.948,3.948,0,0,1-.061,4.744,2.833,2.833,0,0,1-2.207.907,2.79,2.79,0,0,1-2.276-1.078,4.266,4.266,0,0,1-.876-2.779v-.478a6.434,6.434,0,0,1,1.154-4.128,4.229,4.229,0,0,1,3.429-1.462Zm-1.633,4.407a2.093,2.093,0,0,0-1.921,1.344v.458a3.215,3.215,0,0,0,.543,1.948,1.634,1.634,0,0,0,1.358.739,1.582,1.582,0,0,0,1.321-.619,2.965,2.965,0,0,0-.007-3.248,1.563,1.563,0,0,0-1.294-.622" transform="translate(158.768 25.527)"/>
          <line id="Línea_1676" data-name="Línea 1676" x1="64.881" transform="translate(501.677 81.206)" fill="none" stroke="#000" stroke-miterlimit="10" stroke-width="0.75"/>
          <line id="Línea_1677" data-name="Línea 1677" x2="32.832" transform="translate(576.369 23.842)" fill="none" stroke="#9d9d9c" stroke-miterlimit="10" stroke-width="0.75"/>
          <line id="Línea_1678" data-name="Línea 1678" y1="173.105" transform="translate(592.785 23.844)" fill="none" stroke="#9d9d9c" stroke-miterlimit="10" stroke-width="0.75"/>
          <line id="Línea_1679" data-name="Línea 1679" x2="32.832" transform="translate(517.442 23.842)" fill="none" stroke="#9d9d9c" stroke-miterlimit="10" stroke-width="0.75"/>
          <line id="Línea_1680" data-name="Línea 1680" y1="36.33" transform="translate(533.858 23.843)" fill="none" stroke="#9d9d9c" stroke-miterlimit="10" stroke-width="0.75"/>
          <line id="Línea_1681" data-name="Línea 1681" x2="32.832" transform="translate(517.442 135.811)" fill="none" stroke="#9d9d9c" stroke-miterlimit="10" stroke-width="0.75"/>
          <line id="Línea_1682" data-name="Línea 1682" y2="36.33" transform="translate(533.858 99.481)" fill="none" stroke="#9d9d9c" stroke-miterlimit="10" stroke-width="0.75"/>
          <line id="Línea_1683" data-name="Línea 1683" x2="32.832" transform="translate(576.369 533.957)" fill="none" stroke="#9d9d9c" stroke-miterlimit="10" stroke-width="0.75"/>
          <line id="Línea_1684" data-name="Línea 1684" y2="155.719" transform="translate(592.785 378.237)" fill="none" stroke="#9d9d9c" stroke-miterlimit="10" stroke-width="0.75"/>
          <path id="Trazado_900778" data-name="Trazado 900778" d="M263.53,374.042l-11.046,17.131-12.941-16.8" transform="translate(102.133 159.48)" fill="none" stroke="#9d9d9c" stroke-miterlimit="10" stroke-width="0.5"/>
          <path id="Trazado_900779" data-name="Trazado 900779" d="M118.176,57.319V85.865L106.114,63.552" transform="translate(45.244 24.439)" fill="none" stroke="#9d9d9c" stroke-miterlimit="10" stroke-width="0.5"/>
          <path id="Trazado_900780" data-name="Trazado 900780" d="M118,389c3.8-9.035,4.419-14.88,4.419-14.88" transform="translate(50.311 159.513)" fill="none" stroke="#9d9d9c" stroke-miterlimit="10" stroke-width="0.5"/>
          <path id="Trazado_900781" data-name="Trazado 900781" d="M205.762,389c3.8-9.035,4.419-14.88,4.419-14.88" transform="translate(87.73 159.513)" fill="none" stroke="#9d9d9c" stroke-miterlimit="10" stroke-width="0.5"/>
          <path id="Trazado_900782" data-name="Trazado 900782" d="M192.561,388.905c-5.131-6.946-4.419-12.864-4.419-12.864" transform="translate(80.204 160.332)" fill="none" stroke="#9d9d9c" stroke-miterlimit="10" stroke-width="0.5"/>
          <path id="Trazado_900783" data-name="Trazado 900783" d="M102.849,391.4c-8.12,0-14.4-13.947-14.4-13.947" transform="translate(37.714 160.934)" fill="none" stroke="#9d9d9c" stroke-miterlimit="10" stroke-width="0.5"/>
          <path id="Trazado_900784" data-name="Trazado 900784" d="M254.229,336.776a5.111,5.111,0,1,1-5.112-5.112A5.112,5.112,0,0,1,254.229,336.776Z" transform="translate(104.036 141.411)" fill="none" stroke="#000" stroke-miterlimit="10" stroke-width="0.664"/>
          <line id="Línea_1685" data-name="Línea 1685" x2="5.477" transform="translate(350.415 478.187)" fill="none" stroke="#000" stroke-miterlimit="10" stroke-width="0.75"/>
          <line id="Línea_1686" data-name="Línea 1686" x2="2.625" transform="translate(351.842 470.413)" fill="none" stroke="#000" stroke-miterlimit="10" stroke-width="0.75"/>
          <line id="Línea_1687" data-name="Línea 1687" x2="2.625" transform="translate(351.842 484.91)" fill="none" stroke="#000" stroke-miterlimit="10" stroke-width="0.75"/>
          <line id="Línea_1688" data-name="Línea 1688" y1="13.879" transform="translate(353.154 470.955)" fill="none" stroke="#000" stroke-miterlimit="10" stroke-width="0.75"/>
          <path id="Trazado_900785" data-name="Trazado 900785" d="M119.459,456.975a5.111,5.111,0,1,1-5.112-5.112A5.112,5.112,0,0,1,119.459,456.975Z" transform="translate(46.575 192.66)" fill="none" stroke="#000" stroke-miterlimit="10" stroke-width="0.664"/>
          <line id="Línea_1689" data-name="Línea 1689" x2="5.477" transform="translate(158.184 649.636)" fill="none" stroke="#000" stroke-miterlimit="10" stroke-width="0.75"/>
          <line id="Línea_1690" data-name="Línea 1690" y1="3.63" transform="translate(160.922 647.909)" fill="none" stroke="#000" stroke-miterlimit="10" stroke-width="0.75"/>
          <line id="Línea_1691" data-name="Línea 1691" y2="99.612" transform="translate(239.497 222.825)" fill="none" stroke="#000" stroke-miterlimit="10" stroke-width="0.75"/>
          <path id="Trazado_900786" data-name="Trazado 900786" d="M168.981,230.1l3.6-6.229-3.6,1.426-3.6-1.426Z" transform="translate(70.515 95.452)"/>
          <path id="Trazado_900787" data-name="Trazado 900787" d="M168.981,153.493l3.6,6.229-3.6-1.426-3.6,1.426Z" transform="translate(70.515 65.445)"/>
          <line id="Línea_1692" data-name="Línea 1692" y2="22.435" transform="translate(350.415 436.7)" fill="none" stroke="#000" stroke-miterlimit="10" stroke-width="0.75"/>
          <path id="Trazado_900788" data-name="Trazado 900788" d="M246.744,325.936l3.6-6.229-3.6,1.426-3.6-1.426Z" transform="translate(103.671 136.313)"/>
          <path id="Trazado_900789" data-name="Trazado 900789" d="M246.744,302.8l3.6,6.229-3.6-1.426-3.6,1.426Z" transform="translate(103.671 129.102)"/>
          <line id="Línea_1693" data-name="Línea 1693" x2="99.184" transform="translate(223.909 662.068)" fill="none" stroke="#000" stroke-miterlimit="10" stroke-width="0.75"/>
          <line id="Línea_1694" data-name="Línea 1694" x2="14.595" transform="translate(383.613 647.345)" fill="none" stroke="#000" stroke-miterlimit="10" stroke-width="0.75"/>
          <line id="Línea_1695" data-name="Línea 1695" y1="3.739" transform="translate(398.207 645.476)" fill="none" stroke="#000" stroke-miterlimit="10" stroke-width="0.75"/>
          <line id="Línea_1696" data-name="Línea 1696" y1="3.739" transform="translate(383.613 645.476)" fill="none" stroke="#000" stroke-miterlimit="10" stroke-width="0.75"/>
          <line id="Línea_1697" data-name="Línea 1697" y1="9.688" transform="translate(395.644 642.501)" fill="none" stroke="#000" stroke-miterlimit="10" stroke-width="0.75"/>
          <path id="Trazado_900790" data-name="Trazado 900790" d="M230.56,465.238l-6.229-3.6,1.426,3.6-1.426,3.6Z" transform="translate(95.648 196.83)"/>
          <path id="Trazado_900791" data-name="Trazado 900791" d="M153.611,465.238l6.229-3.6-1.426,3.6,1.426,3.6Z" transform="translate(65.495 196.83)"/>
          <line id="Línea_1698" data-name="Línea 1698" x2="56.329" y2="7.401" transform="translate(475.556 286.322)" fill="none" stroke="#9d9d9c" stroke-miterlimit="10" stroke-width="0.5"/>
          <line id="Línea_1699" data-name="Línea 1699" x1="56.329" y2="7.401" transform="translate(29.339 286.322)" fill="none" stroke="#9d9d9c" stroke-miterlimit="10" stroke-width="0.5"/>
          <line id="Línea_1700" data-name="Línea 1700" x1="12.921" y1="23.929" transform="translate(99.972 124.557)" fill="none" stroke="#9d9d9c" stroke-miterlimit="10" stroke-width="0.5"/>
          <line id="Línea_1701" data-name="Línea 1701" x1="47.377" y1="48.261" transform="translate(144.6 18.57)" fill="none" stroke="#9d9d9c" stroke-miterlimit="10" stroke-width="0.5"/>
          <line id="Línea_1702" data-name="Línea 1702" x1="13.675" y1="26.252" transform="translate(215.201 16.447)" fill="none" stroke="#9d9d9c" stroke-miterlimit="10" stroke-width="0.5"/>
          <line id="Línea_1703" data-name="Línea 1703" y1="22.819" x2="17.423" transform="translate(329.335 21.077)" fill="none" stroke="#9d9d9c" stroke-miterlimit="10" stroke-width="0.5"/>
          <line id="Línea_1704" data-name="Línea 1704" y1="52.198" x2="60.099" transform="translate(365.941 15.675)" fill="none" stroke="#9d9d9c" stroke-miterlimit="10" stroke-width="0.5"/>
          <line id="Línea_1705" data-name="Línea 1705" y1="398.147" x2="71.174" transform="translate(435.335 135.811)" fill="none" stroke="#9d9d9c" stroke-miterlimit="10" stroke-width="0.75"/>
          <line id="Línea_1706" data-name="Línea 1706" x1="72.763" y1="398.523" transform="translate(52.648 135.811)" fill="none" stroke="#9d9d9c" stroke-miterlimit="10" stroke-width="0.75"/>
          <line id="Línea_1707" data-name="Línea 1707" x1="221.542" y2="112.712" transform="translate(52.648 25.003)" fill="none" stroke="#9d9d9c" stroke-miterlimit="10" stroke-width="0.75"/>
          <line id="Línea_1708" data-name="Línea 1708" x2="232.318" y2="110.807" transform="translate(274.191 25.003)" fill="none" stroke="#9d9d9c" stroke-miterlimit="10" stroke-width="0.75"/>
          <path id="Trazado_900792" data-name="Trazado 900792" d="M36.911,128.336S50.487,70.774,158.877,74.448c74.87,2.538,99.576-56.919,99.576-56.919" transform="translate(15.738 7.474)" fill="none" stroke="#9d9d9c" stroke-miterlimit="10" stroke-width="0.75" stroke-dasharray="5.164 2.066"/>
          <path id="Trazado_900793" data-name="Trazado 900793" d="M424.8,128.336S410.549,70.774,296.763,74.448c-78.6,2.538-104.533-56.919-104.533-56.919" transform="translate(81.961 7.474)" fill="none" stroke="#9d9d9c" stroke-miterlimit="10" stroke-width="0.768" stroke-dasharray="5.291 2.117"/>
          <path id="Trazado_900794" data-name="Trazado 900794" d="M113.826,387.581a5.377,5.377,0,1,1-5.377-5.377,5.378,5.378,0,0,1,5.377,5.377" transform="translate(43.946 162.96)"/>
          <path id="Trazado_900795" data-name="Trazado 900795" d="M205.481,387.359a5.377,5.377,0,1,1-5.377-5.377,5.378,5.378,0,0,1,5.377,5.377" transform="translate(83.025 162.865)"/>
          <line id="Línea_1709" data-name="Línea 1709" x2="3.997" y2="73.367" transform="translate(293.306 462.249)" fill="none" stroke="#000" stroke-miterlimit="10" stroke-width="1"/>
          <path id="Trazado_900796" data-name="Trazado 900796" d="M239.543,417.962V286.632L251.021,273.4l12.509,13.545V416.954" transform="translate(102.134 116.569)" fill="none" stroke="#000" stroke-miterlimit="10" stroke-width="1"/>
          <line id="Línea_1710" data-name="Línea 1710" x1="2.657" y2="73.367" transform="translate(259.006 462.249)" fill="none" stroke="#000" stroke-miterlimit="10" stroke-width="1"/>
          <line id="Línea_1711" data-name="Línea 1711" x2="35.099" y2="15.482" transform="translate(261.663 496.108)" fill="none" stroke="#000" stroke-miterlimit="10" stroke-width="1"/>
          <line id="Línea_1712" data-name="Línea 1712" y2="508.519" transform="translate(274.191 25.003)" fill="none" stroke="#9d9d9c" stroke-miterlimit="10" stroke-width="1"/>
          <rect id="Rectángulo_407601" data-name="Rectángulo 407601" width="453.86" height="398.523" transform="translate(52.649 135.81)" fill="none" stroke="#9d9d9c" stroke-miterlimit="10" stroke-width="1"/>
          <path id="Trazado_900797" data-name="Trazado 900797" d="M36.41,128.336s54.49,125.82,74.543,404.33c0,0,91.609-16.584,155.952,0,0,0,77.887-12.087,152.278-1.746,0,0,15.55-231.43,71.8-402.584,0,0-37.23-9.619-89.329-43.951S308.3,17.529,260.113,17.529,158.021,56.679,133.627,81.072,93.684,120.79,36.41,128.336Z" transform="translate(15.524 7.474)" fill="none" stroke="#000" stroke-miterlimit="10" stroke-width="1"/>
          <path id="Trazado_900798" data-name="Trazado 900798" d="M260.281,396.478l-39.222-75.057L256.6,340.057" transform="translate(94.252 137.044)" fill="none" stroke="#9d9d9c" stroke-miterlimit="10" stroke-width="0.5"/>
          <path id="Trazado_900799" data-name="Trazado 900799" d="M305.807,71.58,284.588,85.852l-8.259-28.5" transform="translate(117.818 24.451)" fill="none" stroke="#9d9d9c" stroke-miterlimit="10" stroke-width="0.5"/>
          <line id="Línea_1713" data-name="Línea 1713" y2="62.79" transform="translate(168.309 615.95)" fill="none" stroke="#9d9d9c" stroke-miterlimit="10" stroke-width="0.75"/>
          <path id="Trazado_900800" data-name="Trazado 900800" d="M345.951,494.621H126.117a18.3,18.3,0,0,1-18.3-18.3V431.831h256.44v44.487A18.3,18.3,0,0,1,345.951,494.621Z" transform="translate(45.969 184.119)" fill="none" stroke="#000" stroke-miterlimit="10" stroke-width="1"/>
        </g>
      </g>
    </g>
  </g>
</svg>
