<svg xmlns="http://www.w3.org/2000/svg" xmlns:xlink="http://www.w3.org/1999/xlink" width="819.163" height="1003.221" viewBox="0 0 819.163 1003.221">
  <defs>
    <clipPath id="clip-path">
      <rect id="Rectángulo_407579" data-name="Rectángulo 407579" width="819.163" height="944.221" fill="none"/>
    </clipPath>
  </defs>
  <g id="Grupo_1114375" data-name="Grupo 1114375" transform="translate(-390.051 -9086.468)">
    <g id="Grupo_1114263" data-name="Grupo 1114263" transform="translate(228 6967.688)">
      <text id="_Medida_-_Centímetro" data-name="*Medida - Centímetro" transform="translate(287.051 3103)" fill="#12263f" font-size="16" font-family="Roboto-Medium, Roboto" font-weight="500"><tspan x="-76.711" y="15">*Medida - Centímetro</tspan></text>
      <text id="_P_Contorno_de_pecho" data-name="*P = Contorno de pecho" transform="translate(484.051 3103)" fill="#12263f" font-size="16" font-family="Roboto-Medium, Roboto" font-weight="500"><tspan x="-85.023" y="15">*P = Contorno de pecho</tspan></text>
      <text id="_Costura_-_No_incluida" data-name="*Costura - No incluida" transform="translate(695.051 3103)" fill="#12263f" font-size="16" font-family="Roboto-Medium, Roboto" font-weight="500"><tspan x="-78.461" y="15">*Costura - No incluida</tspan></text>
    </g>
    <g id="Grupo_1114261" data-name="Grupo 1114261" transform="translate(-514 -61.532)">
      <g id="Grupo_1114260" data-name="Grupo 1114260" transform="translate(904.051 9148)">
        <g id="Grupo_1114259" data-name="Grupo 1114259" clip-path="url(#clip-path)">
          <path id="Trazado_900174" data-name="Trazado 900174" d="M257.11,443.116s-100.769-13.879-129.049-69" transform="translate(117.765 344.041)" fill="none" stroke="#9d9d9c" stroke-miterlimit="10" stroke-width="0.5"/>
          <path id="Trazado_900175" data-name="Trazado 900175" d="M372.553,377.5s-22.432,45.7-142.146,62.5" transform="translate(211.882 347.152)" fill="none" stroke="#9d9d9c" stroke-miterlimit="10" stroke-width="0.5"/>
          <path id="Trazado_900176" data-name="Trazado 900176" d="M355.938,475.51s-19.795,14.2-143.219,24.024" transform="translate(195.616 437.279)" fill="none" stroke="#9d9d9c" stroke-miterlimit="10" stroke-width="0.5"/>
          <path id="Trazado_900177" data-name="Trazado 900177" d="M117.636,475.51s37.154,18.618,132.3,24.024" transform="translate(108.178 437.279)" fill="none" stroke="#9d9d9c" stroke-miterlimit="10" stroke-width="0.5"/>
          <path id="Trazado_900178" data-name="Trazado 900178" d="M295.959,338.831s-2.751,37.284-22.21,67.591" transform="translate(251.74 311.589)" fill="none" stroke="#9d9d9c" stroke-miterlimit="10" stroke-width="0.5"/>
          <path id="Trazado_900179" data-name="Trazado 900179" d="M273.8,282.307s19.766,31.733,21.924,67.683" transform="translate(251.788 259.61)" fill="none" stroke="#9d9d9c" stroke-miterlimit="10" stroke-width="0.5"/>
          <path id="Trazado_900180" data-name="Trazado 900180" d="M150.44,10.04a7.677,7.677,0,0,1-1,4.367,4.171,4.171,0,0,1-6.258.031,7.238,7.238,0,0,1-1.05-4.171V8.032a7.492,7.492,0,0,1,1-4.313,4.247,4.247,0,0,1,6.277-.05,7.226,7.226,0,0,1,1.031,4.2Zm-1.672-2.288a6.105,6.105,0,0,0-.6-3.1,2.052,2.052,0,0,0-1.889-.973,2.028,2.028,0,0,0-1.872.967,5.983,5.983,0,0,0-.607,2.975V10.3a6.224,6.224,0,0,0,.62,3.15,2.052,2.052,0,0,0,1.877,1.017,2.024,2.024,0,0,0,1.839-.958,6.011,6.011,0,0,0,.63-3.021Z" transform="translate(130.703 2.122)"/>
          <path id="Trazado_900181" data-name="Trazado 900181" d="M147.684,9.289a1.053,1.053,0,0,1,.257-.724.984.984,0,0,1,.774-.288,1.01,1.01,0,0,1,.781.288,1.025,1.025,0,0,1,.267.724.967.967,0,0,1-.267.7,1.028,1.028,0,0,1-.781.28.929.929,0,0,1-1.031-.977" transform="translate(135.81 7.612)"/>
          <path id="Trazado_900182" data-name="Trazado 900182" d="M158.8,3.343l-5.452,12.226H151.6l5.434-11.792h-7.126V2.4h8.9Z" transform="translate(137.855 2.209)"/>
          <path id="Trazado_900183" data-name="Trazado 900183" d="M5.054,216.429H3.373V205.28L0,206.518V205l4.791-1.8h.263Z" transform="translate(0 186.862)"/>
          <path id="Trazado_900184" data-name="Trazado 900184" d="M5.294,210.119a1.049,1.049,0,0,1,.259-.724.98.98,0,0,1,.772-.288,1.012,1.012,0,0,1,.783.288,1.037,1.037,0,0,1,.267.724.975.975,0,0,1-.267.7,1.03,1.03,0,0,1-.783.28,1,1,0,0,1-.772-.28.985.985,0,0,1-.259-.7" transform="translate(4.868 192.295)"/>
          <path id="Trazado_900185" data-name="Trazado 900185" d="M8.349,209.8l.67-6.565h6.745v1.547H10.44l-.4,3.59a4.254,4.254,0,0,1,2.2-.57,3.635,3.635,0,0,1,2.858,1.188,4.667,4.667,0,0,1,1.056,3.215,4.491,4.491,0,0,1-1.1,3.206,4,4,0,0,1-3.068,1.171,4.164,4.164,0,0,1-2.851-.967,3.855,3.855,0,0,1-1.255-2.676H9.463a2.65,2.65,0,0,0,.8,1.7,2.5,2.5,0,0,0,1.72.574,2.253,2.253,0,0,0,1.829-.795,3.322,3.322,0,0,0,.664-2.2,3.051,3.051,0,0,0-.72-2.121,2.441,2.441,0,0,0-1.912-.8,2.758,2.758,0,0,0-1.716.478l-.445.363Z" transform="translate(7.247 186.893)"/>
          <path id="Trazado_900186" data-name="Trazado 900186" d="M383.332,216.429h-1.682V205.28l-3.375,1.238V205l4.793-1.8h.263Z" transform="translate(347.863 186.862)"/>
          <path id="Trazado_900187" data-name="Trazado 900187" d="M383.571,210.119a1.057,1.057,0,0,1,.257-.724.985.985,0,0,1,.774-.288,1.01,1.01,0,0,1,.781.288,1.028,1.028,0,0,1,.267.724.966.966,0,0,1-.267.7,1.028,1.028,0,0,1-.781.28.929.929,0,0,1-1.031-.977" transform="translate(352.732 192.295)"/>
          <path id="Trazado_900188" data-name="Trazado 900188" d="M386.627,209.8l.67-6.565h6.744v1.547h-5.325l-.4,3.59a4.247,4.247,0,0,1,2.2-.57,3.635,3.635,0,0,1,2.858,1.188,4.658,4.658,0,0,1,1.058,3.215,4.5,4.5,0,0,1-1.1,3.206,4,4,0,0,1-3.069,1.171,4.159,4.159,0,0,1-2.849-.967,3.857,3.857,0,0,1-1.257-2.676h1.582a2.651,2.651,0,0,0,.806,1.7,2.5,2.5,0,0,0,1.718.574,2.257,2.257,0,0,0,1.831-.795,3.332,3.332,0,0,0,.662-2.2,3.05,3.05,0,0,0-.718-2.121,2.446,2.446,0,0,0-1.912-.8,2.764,2.764,0,0,0-1.718.478l-.443.363Z" transform="translate(355.11 186.893)"/>
          <path id="Trazado_900189" data-name="Trazado 900189" d="M55.769,385.158a4.078,4.078,0,0,1-1.254,1,3.386,3.386,0,0,1-1.6.382,3.523,3.523,0,0,1-1.985-.56,3.647,3.647,0,0,1-1.305-1.58,5.355,5.355,0,0,1-.463-2.246,5.478,5.478,0,0,1,.5-2.38,3.678,3.678,0,0,1,1.424-1.616,4.059,4.059,0,0,1,2.152-.561,3.677,3.677,0,0,1,3.079,1.459,6.382,6.382,0,0,1,1.127,3.983v.488q0,3.844-1.52,5.611a5.838,5.838,0,0,1-4.584,1.816h-.326v-1.422h.353a3.981,3.981,0,0,0,4.394-4.375m-2.576,0a2.587,2.587,0,0,0,1.551-.516,3.048,3.048,0,0,0,1.035-1.277V382.7a4.6,4.6,0,0,0-.714-2.678,2.184,2.184,0,0,0-3.582-.184,3.487,3.487,0,0,0-.668,2.229,3.625,3.625,0,0,0,.647,2.219,2.046,2.046,0,0,0,1.731.873" transform="translate(45.214 347.24)"/>
          <rect id="Rectángulo_407572" data-name="Rectángulo 407572" width="4.413" height="1.365" transform="translate(108.795 731.909)"/>
          <path id="Trazado_900190" data-name="Trazado 900190" d="M67.407,390.89H65.725V379.739l-3.373,1.24v-1.518l4.791-1.8h.263Z" transform="translate(57.339 347.296)"/>
          <path id="Trazado_900191" data-name="Trazado 900191" d="M76.286,390.946H67.659v-1.2l4.559-5.064a10.814,10.814,0,0,0,1.4-1.866,3.132,3.132,0,0,0,.386-1.49,2.367,2.367,0,0,0-.626-1.691,2.186,2.186,0,0,0-1.664-.658,2.585,2.585,0,0,0-1.939.71,2.712,2.712,0,0,0-.691,1.975H67.406a3.888,3.888,0,0,1,1.171-2.939A4.341,4.341,0,0,1,71.71,377.6a4.171,4.171,0,0,1,2.9.964,3.285,3.285,0,0,1,1.067,2.563q0,1.946-2.478,4.63l-3.526,3.824h6.609Z" transform="translate(61.987 347.24)"/>
          <path id="Trazado_900192" data-name="Trazado 900192" d="M326.343,385.158a4.124,4.124,0,0,1-1.253,1,3.4,3.4,0,0,1-1.6.382,3.513,3.513,0,0,1-1.983-.56,3.638,3.638,0,0,1-1.307-1.58,5.355,5.355,0,0,1-.463-2.246,5.5,5.5,0,0,1,.5-2.38,3.678,3.678,0,0,1,1.424-1.616,4.059,4.059,0,0,1,2.152-.561,3.677,3.677,0,0,1,3.079,1.459,6.382,6.382,0,0,1,1.127,3.983v.488q0,3.844-1.52,5.611a5.838,5.838,0,0,1-4.584,1.816h-.326v-1.422h.355a3.981,3.981,0,0,0,4.394-4.375m-2.578,0a2.583,2.583,0,0,0,1.551-.516,3.048,3.048,0,0,0,1.035-1.277V382.7a4.6,4.6,0,0,0-.712-2.678,2.186,2.186,0,0,0-3.584-.184,3.486,3.486,0,0,0-.668,2.229,3.625,3.625,0,0,0,.647,2.219,2.046,2.046,0,0,0,1.732.873" transform="translate(294.033 347.24)"/>
          <rect id="Rectángulo_407573" data-name="Rectángulo 407573" width="4.413" height="1.365" transform="translate(628.189 731.909)"/>
          <path id="Trazado_900193" data-name="Trazado 900193" d="M337.98,390.89H336.3V379.739l-3.375,1.24v-1.518l4.791-1.8h.263Z" transform="translate(306.158 347.296)"/>
          <path id="Trazado_900194" data-name="Trazado 900194" d="M346.858,390.946h-8.627v-1.2l4.559-5.064a10.812,10.812,0,0,0,1.4-1.866,3.111,3.111,0,0,0,.386-1.49,2.367,2.367,0,0,0-.626-1.691,2.179,2.179,0,0,0-1.662-.658,2.586,2.586,0,0,0-1.941.71,2.712,2.712,0,0,0-.691,1.975H337.98a3.886,3.886,0,0,1,1.169-2.939,4.342,4.342,0,0,1,3.135-1.121,4.169,4.169,0,0,1,2.9.964,3.28,3.28,0,0,1,1.069,2.563q0,1.946-2.478,4.63l-3.528,3.824h6.609Z" transform="translate(310.807 347.24)"/>
          <path id="Trazado_900195" data-name="Trazado 900195" d="M213.469,420.031h-8.627v-1.2l4.559-5.066a10.739,10.739,0,0,0,1.4-1.866,3.125,3.125,0,0,0,.386-1.488,2.364,2.364,0,0,0-.626-1.691,2.179,2.179,0,0,0-1.664-.658,2.591,2.591,0,0,0-1.939.708,2.715,2.715,0,0,0-.691,1.975h-1.674a3.883,3.883,0,0,1,1.171-2.937,4.342,4.342,0,0,1,3.133-1.123,4.18,4.18,0,0,1,2.9.964,3.292,3.292,0,0,1,1.067,2.565q0,1.944-2.478,4.628l-3.526,3.826h6.609Z" transform="translate(188.14 373.987)"/>
          <path id="Trazado_900196" data-name="Trazado 900196" d="M212.688,412.634h1.255a2.762,2.762,0,0,0,1.864-.622,2.092,2.092,0,0,0,.68-1.637,2.043,2.043,0,0,0-2.307-2.315,2.407,2.407,0,0,0-1.731.618,2.166,2.166,0,0,0-.647,1.643h-1.672a3.356,3.356,0,0,1,1.144-2.6,4.171,4.171,0,0,1,2.906-1.037,4.122,4.122,0,0,1,2.922.987,3.566,3.566,0,0,1,1.058,2.741,2.9,2.9,0,0,1-.555,1.662,3.377,3.377,0,0,1-1.516,1.2,3.24,3.24,0,0,1,1.68,1.14,3.165,3.165,0,0,1,.589,1.943,3.588,3.588,0,0,1-1.156,2.812,4.331,4.331,0,0,1-3.012,1.04,4.452,4.452,0,0,1-3.016-1,3.336,3.336,0,0,1-1.163-2.649h1.682a2.159,2.159,0,0,0,.68,1.664,2.586,2.586,0,0,0,1.818.622,2.534,2.534,0,0,0,1.854-.632,2.438,2.438,0,0,0,.641-1.818,2.211,2.211,0,0,0-.7-1.762,3.071,3.071,0,0,0-2.037-.634h-1.255Z" transform="translate(193.125 373.986)"/>
          <path id="Trazado_900197" data-name="Trazado 900197" d="M215.664,413.665a1.057,1.057,0,0,1,.257-.724.984.984,0,0,1,.774-.288,1.01,1.01,0,0,1,.781.288,1.028,1.028,0,0,1,.267.724.966.966,0,0,1-.267.7,1.028,1.028,0,0,1-.781.28.929.929,0,0,1-1.031-.977" transform="translate(198.325 379.476)"/>
          <path id="Trazado_900198" data-name="Trazado 900198" d="M218.72,413.344l.67-6.565h6.744v1.547h-5.325l-.4,3.59a4.247,4.247,0,0,1,2.2-.57,3.635,3.635,0,0,1,2.858,1.188,4.658,4.658,0,0,1,1.058,3.215,4.5,4.5,0,0,1-1.1,3.206,4,4,0,0,1-3.069,1.171,4.159,4.159,0,0,1-2.849-.967,3.857,3.857,0,0,1-1.257-2.676h1.582a2.651,2.651,0,0,0,.806,1.7,2.5,2.5,0,0,0,1.718.574,2.256,2.256,0,0,0,1.831-.795,3.332,3.332,0,0,0,.662-2.2,3.05,3.05,0,0,0-.718-2.121,2.446,2.446,0,0,0-1.912-.8,2.764,2.764,0,0,0-1.718.478l-.443.363Z" transform="translate(200.703 374.074)"/>
          <path id="Trazado_900199" data-name="Trazado 900199" d="M200.185,498.184h-8.627v-1.2l4.559-5.064a10.816,10.816,0,0,0,1.4-1.866,3.133,3.133,0,0,0,.386-1.49,2.367,2.367,0,0,0-.626-1.691,2.186,2.186,0,0,0-1.664-.658,2.585,2.585,0,0,0-1.939.71,2.712,2.712,0,0,0-.691,1.975H191.3a3.888,3.888,0,0,1,1.171-2.939,4.341,4.341,0,0,1,3.133-1.121,4.171,4.171,0,0,1,2.9.964,3.285,3.285,0,0,1,1.067,2.563q0,1.947-2.478,4.63l-3.526,3.824h6.609Z" transform="translate(175.924 445.856)"/>
          <path id="Trazado_900200" data-name="Trazado 900200" d="M199.4,490.788h1.255a2.753,2.753,0,0,0,1.864-.624,2.087,2.087,0,0,0,.68-1.637,2.044,2.044,0,0,0-2.307-2.315,2.4,2.4,0,0,0-1.731.62,2.164,2.164,0,0,0-.647,1.641h-1.672a3.361,3.361,0,0,1,1.144-2.6,4.17,4.17,0,0,1,2.906-1.035,4.113,4.113,0,0,1,2.922.987,3.559,3.559,0,0,1,1.058,2.739,2.9,2.9,0,0,1-.555,1.664,3.372,3.372,0,0,1-1.516,1.2,3.253,3.253,0,0,1,1.68,1.14,3.169,3.169,0,0,1,.589,1.943,3.583,3.583,0,0,1-1.156,2.812,4.332,4.332,0,0,1-3.012,1.04,4.451,4.451,0,0,1-3.016-1,3.337,3.337,0,0,1-1.163-2.651h1.682a2.159,2.159,0,0,0,.68,1.664A2.578,2.578,0,0,0,200.9,497a2.534,2.534,0,0,0,1.854-.634,2.433,2.433,0,0,0,.641-1.816,2.215,2.215,0,0,0-.7-1.764,3.081,3.081,0,0,0-2.037-.633H199.4Z" transform="translate(180.909 445.856)"/>
          <path id="Trazado_900201" data-name="Trazado 900201" d="M202.38,491.818a1.053,1.053,0,0,1,.257-.724.978.978,0,0,1,.774-.288,1,1,0,0,1,.781.288,1.025,1.025,0,0,1,.267.724.959.959,0,0,1-.267.695,1.022,1.022,0,0,1-.781.282,1,1,0,0,1-.774-.282.984.984,0,0,1-.257-.695" transform="translate(186.109 451.345)"/>
          <path id="Trazado_900202" data-name="Trazado 900202" d="M205.436,491.5l.67-6.565h6.744v1.547h-5.325l-.4,3.59a4.266,4.266,0,0,1,2.2-.57,3.636,3.636,0,0,1,2.858,1.19,4.655,4.655,0,0,1,1.058,3.215,4.506,4.506,0,0,1-1.1,3.206,4.01,4.01,0,0,1-3.069,1.169,4.159,4.159,0,0,1-2.849-.967,3.857,3.857,0,0,1-1.257-2.676h1.582a2.661,2.661,0,0,0,.806,1.7,2.5,2.5,0,0,0,1.718.574,2.258,2.258,0,0,0,1.831-.8,3.329,3.329,0,0,0,.662-2.2,3.057,3.057,0,0,0-.718-2.121,2.446,2.446,0,0,0-1.912-.8,2.752,2.752,0,0,0-1.718.48l-.443.363Z" transform="translate(188.487 445.943)"/>
          <path id="Trazado_900203" data-name="Trazado 900203" d="M222.157,378.007H213.53v-1.2l4.559-5.066a10.741,10.741,0,0,0,1.4-1.866,3.125,3.125,0,0,0,.386-1.488,2.364,2.364,0,0,0-.626-1.691,2.179,2.179,0,0,0-1.664-.658,2.591,2.591,0,0,0-1.939.708,2.715,2.715,0,0,0-.691,1.975h-1.674a3.883,3.883,0,0,1,1.171-2.937,4.342,4.342,0,0,1,3.133-1.123,4.18,4.18,0,0,1,2.9.964,3.292,3.292,0,0,1,1.067,2.565q0,1.944-2.478,4.628l-3.526,3.826h6.609Z" transform="translate(196.13 335.341)"/>
          <path id="Trazado_900204" data-name="Trazado 900204" d="M256.362,378.007h-8.627v-1.2l4.559-5.066a10.743,10.743,0,0,0,1.4-1.866,3.125,3.125,0,0,0,.386-1.488,2.364,2.364,0,0,0-.626-1.691,2.179,2.179,0,0,0-1.664-.658,2.591,2.591,0,0,0-1.939.708,2.715,2.715,0,0,0-.691,1.975h-1.674a3.883,3.883,0,0,1,1.171-2.937,4.342,4.342,0,0,1,3.133-1.123,4.18,4.18,0,0,1,2.9.964,3.292,3.292,0,0,1,1.067,2.565q0,1.944-2.478,4.628l-3.526,3.826h6.609Z" transform="translate(227.585 335.341)"/>
          <path id="Trazado_900205" data-name="Trazado 900205" d="M287.705,371.319l.67-6.565h6.745V366.3H289.8l-.4,3.59a4.253,4.253,0,0,1,2.2-.57,3.635,3.635,0,0,1,2.858,1.188,4.667,4.667,0,0,1,1.056,3.215,4.491,4.491,0,0,1-1.1,3.206,4,4,0,0,1-3.068,1.171,4.164,4.164,0,0,1-2.851-.967,3.855,3.855,0,0,1-1.255-2.676h1.582a2.65,2.65,0,0,0,.8,1.7,2.5,2.5,0,0,0,1.72.574,2.253,2.253,0,0,0,1.829-.795,3.322,3.322,0,0,0,.664-2.2,3.051,3.051,0,0,0-.72-2.121,2.441,2.441,0,0,0-1.912-.8,2.758,2.758,0,0,0-1.716.478l-.445.363Z" transform="translate(264.143 335.428)"/>
          <path id="Trazado_900206" data-name="Trazado 900206" d="M292.606,371.641a1.049,1.049,0,0,1,.259-.724.98.98,0,0,1,.772-.288,1.012,1.012,0,0,1,.783.288,1.037,1.037,0,0,1,.267.724.974.974,0,0,1-.267.7,1.03,1.03,0,0,1-.783.28,1,1,0,0,1-.772-.28.985.985,0,0,1-.259-.7" transform="translate(269.081 340.831)"/>
          <path id="Trazado_900207" data-name="Trazado 900207" d="M295.663,371.319l.668-6.565h6.745V366.3h-5.325l-.4,3.59a4.253,4.253,0,0,1,2.2-.57,3.635,3.635,0,0,1,2.858,1.188,4.667,4.667,0,0,1,1.056,3.215,4.482,4.482,0,0,1-1.1,3.206A4,4,0,0,1,299.3,378.1a4.164,4.164,0,0,1-2.851-.967,3.855,3.855,0,0,1-1.255-2.676h1.582a2.65,2.65,0,0,0,.8,1.7,2.5,2.5,0,0,0,1.72.574,2.253,2.253,0,0,0,1.829-.795,3.322,3.322,0,0,0,.664-2.2,3.051,3.051,0,0,0-.72-2.121,2.441,2.441,0,0,0-1.912-.8,2.758,2.758,0,0,0-1.716.478l-.445.363Z" transform="translate(271.46 335.428)"/>
          <path id="Trazado_900208" data-name="Trazado 900208" d="M286.813,339.183h-1.682V328.032l-3.375,1.24v-1.518l4.793-1.8h.263Z" transform="translate(259.103 299.746)"/>
          <path id="Trazado_900209" data-name="Trazado 900209" d="M294.3,334.731h1.827V336.1H294.3v3.058h-1.682V336.1h-5.995v-.985l5.9-9.126H294.3Zm-5.778,0h4.1v-6.456l-.2.361Z" transform="translate(263.579 299.776)"/>
          <path id="Trazado_900210" data-name="Trazado 900210" d="M300.836,448.485l-5.454,12.224h-1.755l5.434-11.79h-7.126v-1.374h8.9Z" transform="translate(268.465 411.562)"/>
          <path id="Trazado_900211" data-name="Trazado 900211" d="M105.293,493.617h-1.682V482.468l-3.375,1.238v-1.518l4.793-1.8h.263Z" transform="translate(92.178 441.765)"/>
          <path id="Trazado_900212" data-name="Trazado 900212" d="M105.532,487.308a1.057,1.057,0,0,1,.257-.724.984.984,0,0,1,.774-.288,1.01,1.01,0,0,1,.781.288,1.028,1.028,0,0,1,.267.724.967.967,0,0,1-.267.7,1.028,1.028,0,0,1-.781.28.929.929,0,0,1-1.031-.977" transform="translate(97.047 447.198)"/>
          <path id="Trazado_900213" data-name="Trazado 900213" d="M116.711,493.674h-8.627v-1.2l4.557-5.066a10.644,10.644,0,0,0,1.4-1.866,3.1,3.1,0,0,0,.386-1.488,2.364,2.364,0,0,0-.626-1.691,2.172,2.172,0,0,0-1.662-.658,2.593,2.593,0,0,0-1.941.708,2.715,2.715,0,0,0-.691,1.975h-1.672A3.876,3.876,0,0,1,109,481.45a4.339,4.339,0,0,1,3.133-1.123,4.172,4.172,0,0,1,2.9.964,3.287,3.287,0,0,1,1.069,2.565q0,1.944-2.478,4.628l-3.526,3.826h6.609Z" transform="translate(99.161 441.709)"/>
          <path id="Trazado_900214" data-name="Trazado 900214" d="M224.226,321.128l.67-6.565h6.744v1.547h-5.325l-.4,3.59a4.246,4.246,0,0,1,2.2-.57,3.635,3.635,0,0,1,2.858,1.188,4.658,4.658,0,0,1,1.058,3.215,4.5,4.5,0,0,1-1.1,3.206,4,4,0,0,1-3.069,1.171,4.159,4.159,0,0,1-2.849-.967,3.857,3.857,0,0,1-1.257-2.676h1.582a2.651,2.651,0,0,0,.806,1.7,2.5,2.5,0,0,0,1.718.574,2.257,2.257,0,0,0,1.831-.795,3.332,3.332,0,0,0,.662-2.2,3.05,3.05,0,0,0-.718-2.121,2.446,2.446,0,0,0-1.912-.8,2.764,2.764,0,0,0-1.718.478l-.443.363Z" transform="translate(205.766 289.272)"/>
          <path id="Trazado_900215" data-name="Trazado 900215" d="M229.126,321.449a1.056,1.056,0,0,1,.257-.724.984.984,0,0,1,.774-.288,1.01,1.01,0,0,1,.781.288,1.028,1.028,0,0,1,.267.724.967.967,0,0,1-.267.7,1.028,1.028,0,0,1-.781.28.929.929,0,0,1-1.031-.977" transform="translate(210.704 294.674)"/>
          <path id="Trazado_900216" data-name="Trazado 900216" d="M232.182,321.128l.67-6.565H239.6v1.547h-5.325l-.4,3.59a4.246,4.246,0,0,1,2.2-.57,3.635,3.635,0,0,1,2.858,1.188,4.658,4.658,0,0,1,1.058,3.215,4.5,4.5,0,0,1-1.1,3.206,4,4,0,0,1-3.069,1.171,4.159,4.159,0,0,1-2.849-.967,3.857,3.857,0,0,1-1.257-2.676h1.582a2.651,2.651,0,0,0,.806,1.7,2.5,2.5,0,0,0,1.718.574,2.257,2.257,0,0,0,1.831-.795,3.332,3.332,0,0,0,.662-2.2,3.05,3.05,0,0,0-.718-2.121,2.446,2.446,0,0,0-1.912-.8,2.765,2.765,0,0,0-1.718.478l-.443.363Z" transform="translate(213.082 289.272)"/>
          <path id="Trazado_900217" data-name="Trazado 900217" d="M117.412,92.611H115.73V81.462L112.355,82.7V81.181l4.793-1.8h.263Z" transform="translate(103.322 72.999)"/>
          <path id="Trazado_900218" data-name="Trazado 900218" d="M82.975,119.819H81.293V108.67l-3.373,1.238v-1.518l4.791-1.8h.263Z" transform="translate(71.656 98.019)"/>
          <path id="Trazado_900219" data-name="Trazado 900219" d="M269.792,401.227h-8.627v-1.2l4.559-5.066a10.743,10.743,0,0,0,1.4-1.866,3.125,3.125,0,0,0,.386-1.488,2.364,2.364,0,0,0-.626-1.691,2.179,2.179,0,0,0-1.664-.658,2.591,2.591,0,0,0-1.939.708,2.715,2.715,0,0,0-.691,1.975h-1.674A3.883,3.883,0,0,1,262.083,389a4.342,4.342,0,0,1,3.133-1.123,4.18,4.18,0,0,1,2.9.964,3.292,3.292,0,0,1,1.067,2.565q0,1.944-2.478,4.628l-3.526,3.826h6.609Z" transform="translate(239.935 356.695)"/>
          <path id="Trazado_900220" data-name="Trazado 900220" d="M266.569,394.861a1.049,1.049,0,0,1,.259-.724.98.98,0,0,1,.772-.288,1.012,1.012,0,0,1,.783.288,1.037,1.037,0,0,1,.267.724.975.975,0,0,1-.267.7,1.03,1.03,0,0,1-.783.28,1,1,0,0,1-.772-.28.985.985,0,0,1-.259-.7" transform="translate(245.137 362.184)"/>
          <path id="Trazado_900221" data-name="Trazado 900221" d="M269.624,394.54l.67-6.565h6.745v1.547h-5.325l-.4,3.59a4.254,4.254,0,0,1,2.2-.57,3.635,3.635,0,0,1,2.858,1.188,4.667,4.667,0,0,1,1.056,3.215,4.491,4.491,0,0,1-1.1,3.206,4,4,0,0,1-3.068,1.171,4.164,4.164,0,0,1-2.851-.967,3.855,3.855,0,0,1-1.255-2.676h1.582a2.649,2.649,0,0,0,.8,1.7,2.5,2.5,0,0,0,1.72.574,2.253,2.253,0,0,0,1.829-.795,3.322,3.322,0,0,0,.664-2.2,3.051,3.051,0,0,0-.72-2.121,2.44,2.44,0,0,0-1.912-.8,2.758,2.758,0,0,0-1.716.478l-.445.363Z" transform="translate(247.516 356.782)"/>
          <path id="Trazado_900222" data-name="Trazado 900222" d="M246.943,13.8a7.677,7.677,0,0,1-1,4.367,4.171,4.171,0,0,1-6.258.031,7.238,7.238,0,0,1-1.05-4.171V11.789a7.492,7.492,0,0,1,1-4.313,4.247,4.247,0,0,1,6.277-.05,7.226,7.226,0,0,1,1.031,4.2Zm-1.672-2.288a6.105,6.105,0,0,0-.6-3.1,2.052,2.052,0,0,0-1.889-.973,2.028,2.028,0,0,0-1.872.967,5.983,5.983,0,0,0-.607,2.975V14.06a6.224,6.224,0,0,0,.62,3.15,2.052,2.052,0,0,0,1.877,1.017,2.024,2.024,0,0,0,1.839-.958,6.011,6.011,0,0,0,.63-3.021Z" transform="translate(219.447 5.577)"/>
          <path id="Trazado_900223" data-name="Trazado 900223" d="M244.186,13.046a1.053,1.053,0,0,1,.257-.724.984.984,0,0,1,.774-.288,1.01,1.01,0,0,1,.781.288,1.025,1.025,0,0,1,.267.724.966.966,0,0,1-.267.7,1.028,1.028,0,0,1-.781.28.929.929,0,0,1-1.031-.977" transform="translate(224.554 11.066)"/>
          <path id="Trazado_900224" data-name="Trazado 900224" d="M254.641,9.683a3.048,3.048,0,0,1-.52,1.753,3.525,3.525,0,0,1-1.405,1.2,3.761,3.761,0,0,1,1.63,1.294,3.25,3.25,0,0,1,.6,1.927,3.442,3.442,0,0,1-1.154,2.72,5.051,5.051,0,0,1-6.076,0,3.456,3.456,0,0,1-1.144-2.716,3.35,3.35,0,0,1,.584-1.927,3.606,3.606,0,0,1,1.614-1.3,3.454,3.454,0,0,1-1.384-1.2,3.1,3.1,0,0,1-.507-1.745,3.4,3.4,0,0,1,1.067-2.641,4.537,4.537,0,0,1,5.621,0,3.4,3.4,0,0,1,1.071,2.641m-1.365,6.139a2.427,2.427,0,0,0-.7-1.8,2.49,2.49,0,0,0-1.831-.7,2.358,2.358,0,0,0-2.5,2.5,2.335,2.335,0,0,0,.664,1.762,2.965,2.965,0,0,0,3.7,0,2.335,2.335,0,0,0,.67-1.76m-2.515-8.383a2.163,2.163,0,0,0-1.6.612,2.24,2.24,0,0,0-.609,1.659,2.23,2.23,0,0,0,.6,1.624,2.387,2.387,0,0,0,3.21,0,2.23,2.23,0,0,0,.6-1.624,2.223,2.223,0,0,0-.624-1.635,2.128,2.128,0,0,0-1.582-.635" transform="translate(226.75 5.578)"/>
          <path id="Trazado_900225" data-name="Trazado 900225" d="M32.377,14.148h6.241v1.421H30.632V2.4h1.745Z" transform="translate(28.169 2.209)"/>
          <path id="Trazado_900226" data-name="Trazado 900226" d="M41.86,14.035A3.511,3.511,0,0,1,41.626,13a3.728,3.728,0,0,1-2.785,1.211,3.454,3.454,0,0,1-2.373-.818,2.639,2.639,0,0,1-.927-2.075A2.765,2.765,0,0,1,36.7,8.948,5.488,5.488,0,0,1,39.971,8.1H41.6v-.77a1.876,1.876,0,0,0-.524-1.4,2.109,2.109,0,0,0-1.547-.52,2.437,2.437,0,0,0-1.5.451,1.333,1.333,0,0,0-.6,1.094H35.741a2.313,2.313,0,0,1,.518-1.415,3.552,3.552,0,0,1,1.413-1.081,4.732,4.732,0,0,1,1.956-.4,3.865,3.865,0,0,1,2.649.847,3.047,3.047,0,0,1,1,2.327v4.5a5.531,5.531,0,0,0,.342,2.144v.144ZM39.085,12.76a2.941,2.941,0,0,0,1.492-.407A2.473,2.473,0,0,0,41.6,11.3V9.287H40.288q-3.072,0-3.075,1.8a1.521,1.521,0,0,0,.526,1.23,2.009,2.009,0,0,0,1.346.443" transform="translate(32.684 3.743)"/>
          <path id="Trazado_900227" data-name="Trazado 900227" d="M45.664,5.752a5.017,5.017,0,0,0-.824-.063,2.206,2.206,0,0,0-2.234,1.4v6.945H40.934V4.25h1.628l.027,1.131A2.607,2.607,0,0,1,44.921,4.07a1.713,1.713,0,0,1,.743.127Z" transform="translate(37.643 3.743)"/>
          <path id="Trazado_900228" data-name="Trazado 900228" d="M43.991,9.061a5.74,5.74,0,0,1,1.06-3.64,3.649,3.649,0,0,1,5.6-.086l.081-1.085h1.528V13.8a3.984,3.984,0,0,1-1.125,2.993,4.154,4.154,0,0,1-3.025,1.1,5.05,5.05,0,0,1-2.073-.453A3.551,3.551,0,0,1,44.49,16.2l.868-1a3.27,3.27,0,0,0,2.63,1.328,2.559,2.559,0,0,0,1.9-.687,2.622,2.622,0,0,0,.683-1.935v-.841a3.439,3.439,0,0,1-2.741,1.158,3.337,3.337,0,0,1-2.78-1.384,6.042,6.042,0,0,1-1.063-3.77m1.683.19a4.377,4.377,0,0,0,.678,2.6,2.2,2.2,0,0,0,1.9.944,2.45,2.45,0,0,0,2.325-1.438V6.892a2.479,2.479,0,0,0-2.305-1.4,2.227,2.227,0,0,0-1.91.95,4.789,4.789,0,0,0-.685,2.812" transform="translate(40.454 3.743)"/>
          <path id="Trazado_900229" data-name="Trazado 900229" d="M49.381,9.051a5.787,5.787,0,0,1,.564-2.586,4.221,4.221,0,0,1,1.574-1.774,4.289,4.289,0,0,1,2.3-.622,4.129,4.129,0,0,1,3.233,1.382,5.322,5.322,0,0,1,1.234,3.68v.119a5.826,5.826,0,0,1-.547,2.563,4.151,4.151,0,0,1-1.564,1.768,4.333,4.333,0,0,1-2.338.633,4.11,4.11,0,0,1-3.223-1.384A5.288,5.288,0,0,1,49.381,9.17Zm1.682.2a4.174,4.174,0,0,0,.756,2.613,2.555,2.555,0,0,0,4.045-.013,4.573,4.573,0,0,0,.752-2.8,4.171,4.171,0,0,0-.766-2.609,2.427,2.427,0,0,0-2.029-1,2.4,2.4,0,0,0-2,.985,4.543,4.543,0,0,0-.76,2.822" transform="translate(45.411 3.743)"/>
          <path id="Trazado_900230" data-name="Trazado 900230" d="M63.392,11.439a1.232,1.232,0,0,0-.511-1.054A4.92,4.92,0,0,0,61.1,9.739a8.3,8.3,0,0,1-2.018-.651,2.851,2.851,0,0,1-1.1-.9,2.15,2.15,0,0,1-.359-1.248A2.539,2.539,0,0,1,58.641,4.9a3.971,3.971,0,0,1,2.6-.831,4.088,4.088,0,0,1,2.7.858,2.727,2.727,0,0,1,1.037,2.2H63.293a1.508,1.508,0,0,0-.582-1.184,2.182,2.182,0,0,0-1.47-.5,2.292,2.292,0,0,0-1.428.4,1.256,1.256,0,0,0-.516,1.04,1.019,1.019,0,0,0,.48.914,5.907,5.907,0,0,0,1.733.587,9.113,9.113,0,0,1,2.029.668,2.992,2.992,0,0,1,1.154.937,2.307,2.307,0,0,1,.374,1.334,2.507,2.507,0,0,1-1.05,2.1,4.4,4.4,0,0,1-2.722.791,4.908,4.908,0,0,1-2.079-.417A3.382,3.382,0,0,1,57.8,12.637a2.791,2.791,0,0,1-.511-1.614h1.672a1.733,1.733,0,0,0,.674,1.334,2.62,2.62,0,0,0,1.659.493,2.7,2.7,0,0,0,1.524-.384,1.185,1.185,0,0,0,.574-1.027" transform="translate(52.684 3.743)"/>
          <path id="Trazado_900231" data-name="Trazado 900231" d="M62.48,3.275a1,1,0,0,1,.25-.687.937.937,0,0,1,.737-.28.953.953,0,0,1,.743.28.987.987,0,0,1,.253.687.954.954,0,0,1-.253.678.97.97,0,0,1-.743.273.953.953,0,0,1-.737-.273.968.968,0,0,1-.25-.678m1.81,12.38H62.618V5.871H64.29Z" transform="translate(57.457 2.122)"/>
          <path id="Trazado_900232" data-name="Trazado 900232" d="M70.709,11.439a1.234,1.234,0,0,0-.513-1.054,4.891,4.891,0,0,0-1.779-.647A8.279,8.279,0,0,1,66.4,9.088a2.844,2.844,0,0,1-1.1-.9,2.165,2.165,0,0,1-.359-1.248A2.539,2.539,0,0,1,65.956,4.9a3.976,3.976,0,0,1,2.6-.831,4.088,4.088,0,0,1,2.7.858,2.73,2.73,0,0,1,1.035,2.2H70.61a1.514,1.514,0,0,0-.582-1.184,2.189,2.189,0,0,0-1.47-.5,2.284,2.284,0,0,0-1.428.4,1.256,1.256,0,0,0-.516,1.04,1.015,1.015,0,0,0,.48.914,5.911,5.911,0,0,0,1.731.587,9.045,9.045,0,0,1,2.029.668,2.964,2.964,0,0,1,1.154.937,2.293,2.293,0,0,1,.374,1.334,2.505,2.505,0,0,1-1.048,2.1,4.4,4.4,0,0,1-2.722.791A4.923,4.923,0,0,1,66.53,13.8a3.376,3.376,0,0,1-1.413-1.161,2.793,2.793,0,0,1-.513-1.614h1.672a1.729,1.729,0,0,0,.676,1.334,2.612,2.612,0,0,0,1.659.493,2.708,2.708,0,0,0,1.524-.384,1.185,1.185,0,0,0,.574-1.027" transform="translate(59.411 3.743)"/>
          <path id="Trazado_900233" data-name="Trazado 900233" d="M75.966,14.035A3.5,3.5,0,0,1,75.73,13a3.724,3.724,0,0,1-2.783,1.211,3.456,3.456,0,0,1-2.375-.818,2.645,2.645,0,0,1-.927-2.075,2.767,2.767,0,0,1,1.163-2.375A5.48,5.48,0,0,1,74.077,8.1h1.628v-.77a1.87,1.87,0,0,0-.526-1.4,2.1,2.1,0,0,0-1.547-.52,2.435,2.435,0,0,0-1.5.451,1.33,1.33,0,0,0-.607,1.094H69.845a2.316,2.316,0,0,1,.52-1.415,3.532,3.532,0,0,1,1.411-1.081,4.745,4.745,0,0,1,1.956-.4,3.867,3.867,0,0,1,2.651.847,3.046,3.046,0,0,1,.994,2.327v4.5a5.492,5.492,0,0,0,.344,2.144v.144ZM73.19,12.76a2.946,2.946,0,0,0,1.492-.407A2.484,2.484,0,0,0,75.705,11.3V9.287H74.392q-3.072,0-3.075,1.8a1.527,1.527,0,0,0,.526,1.23,2.014,2.014,0,0,0,1.348.443" transform="translate(64.046 3.743)"/>
          <path id="Trazado_900234" data-name="Trazado 900234" d="M78.6,16.005V7.515H77.05V6.221H78.6v-1a3.335,3.335,0,0,1,.841-2.432,3.182,3.182,0,0,1,2.378-.858,4.417,4.417,0,0,1,1.148.152l-.088,1.348a4.881,4.881,0,0,0-.906-.081,1.631,1.631,0,0,0-1.255.476,1.926,1.926,0,0,0-.445,1.365V6.221h2.09V7.515h-2.09v8.49Z" transform="translate(70.855 1.772)"/>
          <path id="Trazado_900235" data-name="Trazado 900235" d="M85.5,5.752a5,5,0,0,0-.824-.063,2.2,2.2,0,0,0-2.232,1.4v6.945H80.777V4.25H82.4l.025,1.131A2.612,2.612,0,0,1,84.764,4.07,1.709,1.709,0,0,1,85.5,4.2Z" transform="translate(74.283 3.743)"/>
          <path id="Trazado_900236" data-name="Trazado 900236" d="M88.3,14.215A4.272,4.272,0,0,1,85.07,12.91a4.848,4.848,0,0,1-1.25-3.5V9.107a5.843,5.843,0,0,1,.559-2.6,4.3,4.3,0,0,1,1.553-1.791A3.907,3.907,0,0,1,88.1,4.07a3.666,3.666,0,0,1,2.968,1.257,5.441,5.441,0,0,1,1.058,3.6v.7H85.494a3.471,3.471,0,0,0,.845,2.338,2.662,2.662,0,0,0,2.058.891,2.891,2.891,0,0,0,1.5-.363,3.747,3.747,0,0,0,1.077-.958l1.021.8A4.105,4.105,0,0,1,88.3,14.215M88.1,5.444a2.229,2.229,0,0,0-1.7.737,3.586,3.586,0,0,0-.85,2.065h4.9V8.122a3.193,3.193,0,0,0-.689-1.977,2.106,2.106,0,0,0-1.664-.7" transform="translate(77.081 3.743)"/>
          <path id="Trazado_900237" data-name="Trazado 900237" d="M90.735,4.25l.054,1.23A3.564,3.564,0,0,1,93.72,4.07q3.1,0,3.129,3.5v6.465H95.175V7.56A2.258,2.258,0,0,0,94.693,6a1.944,1.944,0,0,0-1.48-.507,2.419,2.419,0,0,0-1.428.434,2.96,2.96,0,0,0-.96,1.14v6.972H89.153V4.25Z" transform="translate(81.985 3.743)"/>
          <path id="Trazado_900238" data-name="Trazado 900238" d="M97.313,2.93V5.3h1.826V6.593H97.313v6.076a1.351,1.351,0,0,0,.244.881,1.024,1.024,0,0,0,.833.3,4.021,4.021,0,0,0,.795-.109v1.349a4.915,4.915,0,0,1-1.284.179,2.082,2.082,0,0,1-1.691-.678,2.926,2.926,0,0,1-.57-1.927V6.593H93.858V5.3h1.781V2.93Z" transform="translate(86.312 2.694)"/>
          <path id="Trazado_900239" data-name="Trazado 900239" d="M101.891,14.215a4.276,4.276,0,0,1-3.236-1.305,4.848,4.848,0,0,1-1.25-3.5V9.107a5.843,5.843,0,0,1,.559-2.6,4.308,4.308,0,0,1,1.555-1.791,3.9,3.9,0,0,1,2.165-.647,3.662,3.662,0,0,1,2.966,1.257,5.442,5.442,0,0,1,1.06,3.6v.7H99.081a3.471,3.471,0,0,0,.845,2.338,2.658,2.658,0,0,0,2.056.891,2.9,2.9,0,0,0,1.5-.363,3.747,3.747,0,0,0,1.077-.958l1.021.8a4.105,4.105,0,0,1-3.689,1.889m-.207-8.771a2.233,2.233,0,0,0-1.7.737,3.6,3.6,0,0,0-.848,2.065h4.9V8.122a3.2,3.2,0,0,0-.687-1.977,2.106,2.106,0,0,0-1.664-.7" transform="translate(89.574 3.743)"/>
          <rect id="Rectángulo_407574" data-name="Rectángulo 407574" width="4.413" height="1.365" transform="translate(200.867 11.502)"/>
          <path id="Trazado_900240" data-name="Trazado 900240" d="M115.98,10.04a7.677,7.677,0,0,1-1,4.367,4.171,4.171,0,0,1-6.258.031,7.238,7.238,0,0,1-1.05-4.171V8.032a7.492,7.492,0,0,1,1-4.313,4.247,4.247,0,0,1,6.277-.05,7.226,7.226,0,0,1,1.031,4.2Zm-1.672-2.288a6.105,6.105,0,0,0-.6-3.1,2.052,2.052,0,0,0-1.889-.973,2.029,2.029,0,0,0-1.872.967,5.983,5.983,0,0,0-.607,2.975V10.3a6.224,6.224,0,0,0,.62,3.15,2.052,2.052,0,0,0,1.877,1.017,2.024,2.024,0,0,0,1.839-.958,6.011,6.011,0,0,0,.63-3.021Z" transform="translate(99.013 2.122)"/>
          <path id="Trazado_900241" data-name="Trazado 900241" d="M113.224,9.289a1.046,1.046,0,0,1,.259-.724.98.98,0,0,1,.772-.288,1.012,1.012,0,0,1,.783.288,1.034,1.034,0,0,1,.267.724.975.975,0,0,1-.267.7,1.03,1.03,0,0,1-.783.28,1,1,0,0,1-.772-.28.985.985,0,0,1-.259-.7" transform="translate(104.121 7.612)"/>
          <path id="Trazado_900242" data-name="Trazado 900242" d="M118.2,8.258h1.255a2.753,2.753,0,0,0,1.864-.624A2.085,2.085,0,0,0,122,6,2.043,2.043,0,0,0,119.7,3.683a2.4,2.4,0,0,0-1.731.618,2.164,2.164,0,0,0-.647,1.641h-1.672a3.355,3.355,0,0,1,1.144-2.6A4.171,4.171,0,0,1,119.7,2.307a4.122,4.122,0,0,1,2.922.987,3.562,3.562,0,0,1,1.058,2.739,2.9,2.9,0,0,1-.555,1.664A3.36,3.36,0,0,1,121.6,8.9a3.264,3.264,0,0,1,1.68,1.14,3.174,3.174,0,0,1,.589,1.945,3.588,3.588,0,0,1-1.156,2.812,4.34,4.34,0,0,1-3.012,1.04,4.452,4.452,0,0,1-3.016-1,3.337,3.337,0,0,1-1.163-2.651h1.682a2.16,2.16,0,0,0,.68,1.666,2.586,2.586,0,0,0,1.818.622,2.542,2.542,0,0,0,1.854-.632,2.441,2.441,0,0,0,.641-1.818,2.208,2.208,0,0,0-.7-1.762,3.081,3.081,0,0,0-2.037-.635H118.2Z" transform="translate(106.239 2.122)"/>
          <path id="Trazado_900243" data-name="Trazado 900243" d="M265.445,12.123h6.239v1.421H263.7V.377h1.745Z" transform="translate(242.499 0.347)"/>
          <path id="Trazado_900244" data-name="Trazado 900244" d="M274.929,12.01a3.5,3.5,0,0,1-.236-1.031,3.724,3.724,0,0,1-2.783,1.211,3.456,3.456,0,0,1-2.375-.818,2.645,2.645,0,0,1-.927-2.075,2.767,2.767,0,0,1,1.163-2.375,5.48,5.48,0,0,1,3.269-.845h1.628v-.77a1.87,1.87,0,0,0-.526-1.4,2.1,2.1,0,0,0-1.547-.52,2.435,2.435,0,0,0-1.5.451,1.33,1.33,0,0,0-.607,1.094h-1.682a2.316,2.316,0,0,1,.52-1.415,3.532,3.532,0,0,1,1.411-1.081,4.745,4.745,0,0,1,1.956-.4,3.867,3.867,0,0,1,2.651.847,3.046,3.046,0,0,1,.994,2.327v4.5a5.492,5.492,0,0,0,.344,2.144v.144Zm-2.776-1.275a2.946,2.946,0,0,0,1.492-.407,2.484,2.484,0,0,0,1.023-1.058V7.262h-1.313q-3.072,0-3.075,1.8a1.527,1.527,0,0,0,.526,1.23,2.014,2.014,0,0,0,1.348.443" transform="translate(247.012 1.881)"/>
          <path id="Trazado_900245" data-name="Trazado 900245" d="M278.731,3.727a5,5,0,0,0-.824-.063,2.2,2.2,0,0,0-2.232,1.4V12.01H274V2.225h1.628l.025,1.131a2.612,2.612,0,0,1,2.334-1.311,1.709,1.709,0,0,1,.741.127Z" transform="translate(251.973 1.881)"/>
          <path id="Trazado_900246" data-name="Trazado 900246" d="M277.059,7.036a5.752,5.752,0,0,1,1.058-3.64,3.649,3.649,0,0,1,5.6-.086l.081-1.085h1.53v9.548a3.978,3.978,0,0,1-1.127,2.993,4.146,4.146,0,0,1-3.023,1.1,5.037,5.037,0,0,1-2.073-.453,3.568,3.568,0,0,1-1.545-1.238l.868-1a3.276,3.276,0,0,0,2.632,1.328,2.557,2.557,0,0,0,1.9-.687,2.622,2.622,0,0,0,.683-1.935v-.841A3.435,3.435,0,0,1,280.9,12.19a3.335,3.335,0,0,1-2.78-1.384,6.042,6.042,0,0,1-1.063-3.77m1.682.19a4.377,4.377,0,0,0,.68,2.6,2.2,2.2,0,0,0,1.9.944,2.445,2.445,0,0,0,2.323-1.438V4.867a2.479,2.479,0,0,0-2.305-1.4,2.224,2.224,0,0,0-1.908.95,4.774,4.774,0,0,0-.687,2.812" transform="translate(254.783 1.881)"/>
          <path id="Trazado_900247" data-name="Trazado 900247" d="M282.448,7.026a5.787,5.787,0,0,1,.566-2.586,4.217,4.217,0,0,1,1.572-1.774,4.3,4.3,0,0,1,2.3-.622,4.129,4.129,0,0,1,3.233,1.382,5.323,5.323,0,0,1,1.236,3.68v.119a5.826,5.826,0,0,1-.549,2.563,4.138,4.138,0,0,1-1.564,1.768,4.328,4.328,0,0,1-2.338.633,4.108,4.108,0,0,1-3.221-1.384,5.289,5.289,0,0,1-1.236-3.661Zm1.682.2a4.186,4.186,0,0,0,.756,2.613,2.557,2.557,0,0,0,4.047-.013,4.573,4.573,0,0,0,.751-2.8,4.182,4.182,0,0,0-.764-2.609,2.431,2.431,0,0,0-2.031-1,2.4,2.4,0,0,0-2,.985,4.543,4.543,0,0,0-.76,2.822" transform="translate(259.739 1.881)"/>
          <path id="Trazado_900248" data-name="Trazado 900248" d="M296.461,9.414a1.234,1.234,0,0,0-.513-1.054,4.89,4.89,0,0,0-1.779-.647,8.278,8.278,0,0,1-2.016-.651,2.845,2.845,0,0,1-1.1-.9,2.165,2.165,0,0,1-.359-1.248,2.54,2.54,0,0,1,1.017-2.035,3.976,3.976,0,0,1,2.6-.831,4.088,4.088,0,0,1,2.7.858,2.73,2.73,0,0,1,1.035,2.2h-1.682a1.514,1.514,0,0,0-.582-1.184,2.189,2.189,0,0,0-1.47-.5,2.285,2.285,0,0,0-1.428.4,1.256,1.256,0,0,0-.516,1.04,1.015,1.015,0,0,0,.48.914,5.911,5.911,0,0,0,1.731.587,9.047,9.047,0,0,1,2.029.668,2.964,2.964,0,0,1,1.154.937,2.293,2.293,0,0,1,.374,1.334,2.505,2.505,0,0,1-1.048,2.1,4.4,4.4,0,0,1-2.722.791,4.924,4.924,0,0,1-2.081-.417,3.377,3.377,0,0,1-1.413-1.161A2.793,2.793,0,0,1,290.357,9h1.672a1.729,1.729,0,0,0,.676,1.334,2.612,2.612,0,0,0,1.659.493,2.708,2.708,0,0,0,1.524-.384,1.185,1.185,0,0,0,.574-1.027" transform="translate(267.012 1.881)"/>
          <path id="Trazado_900249" data-name="Trazado 900249" d="M295.549,1.251a.99.99,0,0,1,.25-.687.927.927,0,0,1,.735-.282.945.945,0,0,1,.741.282.984.984,0,0,1,.253.687.954.954,0,0,1-.253.678.967.967,0,0,1-.741.271.948.948,0,0,1-.735-.271.96.96,0,0,1-.25-.678m1.808,12.38h-1.674V3.847h1.674Z" transform="translate(271.787 0.259)"/>
          <path id="Trazado_900250" data-name="Trazado 900250" d="M303.777,9.414a1.234,1.234,0,0,0-.513-1.054,4.92,4.92,0,0,0-1.779-.647,8.3,8.3,0,0,1-2.017-.651,2.866,2.866,0,0,1-1.1-.9,2.15,2.15,0,0,1-.357-1.248,2.54,2.54,0,0,1,1.017-2.035,3.964,3.964,0,0,1,2.6-.831,4.083,4.083,0,0,1,2.7.858,2.721,2.721,0,0,1,1.037,2.2h-1.682a1.5,1.5,0,0,0-.584-1.184,2.181,2.181,0,0,0-1.469-.5,2.3,2.3,0,0,0-1.43.4,1.259,1.259,0,0,0-.514,1.04,1.015,1.015,0,0,0,.48.914,5.868,5.868,0,0,0,1.732.587,9.081,9.081,0,0,1,2.029.668,2.992,2.992,0,0,1,1.154.937,2.307,2.307,0,0,1,.374,1.334,2.5,2.5,0,0,1-1.05,2.1,4.393,4.393,0,0,1-2.722.791,4.915,4.915,0,0,1-2.079-.417,3.382,3.382,0,0,1-1.415-1.161A2.8,2.8,0,0,1,297.673,9h1.672a1.729,1.729,0,0,0,.676,1.334,2.614,2.614,0,0,0,1.657.493,2.7,2.7,0,0,0,1.524-.384,1.182,1.182,0,0,0,.576-1.027" transform="translate(273.74 1.881)"/>
          <path id="Trazado_900251" data-name="Trazado 900251" d="M309.033,12.01a3.508,3.508,0,0,1-.234-1.031,3.728,3.728,0,0,1-2.785,1.211,3.455,3.455,0,0,1-2.373-.818,2.639,2.639,0,0,1-.927-2.075,2.765,2.765,0,0,1,1.161-2.375,5.489,5.489,0,0,1,3.269-.845h1.628v-.77a1.876,1.876,0,0,0-.524-1.4,2.109,2.109,0,0,0-1.547-.52,2.437,2.437,0,0,0-1.5.451,1.333,1.333,0,0,0-.6,1.094h-1.682a2.313,2.313,0,0,1,.518-1.415,3.552,3.552,0,0,1,1.413-1.081,4.731,4.731,0,0,1,1.956-.4,3.865,3.865,0,0,1,2.649.847,3.047,3.047,0,0,1,1,2.327v4.5a5.53,5.53,0,0,0,.342,2.144v.144Zm-2.776-1.275a2.941,2.941,0,0,0,1.492-.407,2.473,2.473,0,0,0,1.023-1.058V7.262h-1.311q-3.072,0-3.075,1.8a1.521,1.521,0,0,0,.526,1.23,2.009,2.009,0,0,0,1.346.443" transform="translate(278.376 1.881)"/>
          <path id="Trazado_900252" data-name="Trazado 900252" d="M316.67,12.01a3.5,3.5,0,0,1-.236-1.031,3.724,3.724,0,0,1-2.783,1.211,3.456,3.456,0,0,1-2.375-.818,2.645,2.645,0,0,1-.927-2.075,2.767,2.767,0,0,1,1.163-2.375,5.481,5.481,0,0,1,3.269-.845h1.628v-.77a1.87,1.87,0,0,0-.526-1.4,2.1,2.1,0,0,0-1.547-.52,2.435,2.435,0,0,0-1.5.451,1.33,1.33,0,0,0-.607,1.094h-1.682a2.316,2.316,0,0,1,.52-1.415,3.531,3.531,0,0,1,1.411-1.081,4.744,4.744,0,0,1,1.956-.4,3.867,3.867,0,0,1,2.651.847,3.046,3.046,0,0,1,.994,2.327v4.5a5.492,5.492,0,0,0,.344,2.144v.144Zm-2.776-1.275a2.946,2.946,0,0,0,1.491-.407,2.484,2.484,0,0,0,1.023-1.058V7.262H315.1q-3.072,0-3.075,1.8a1.527,1.527,0,0,0,.526,1.23,2.014,2.014,0,0,0,1.348.443" transform="translate(285.397 1.881)"/>
          <path id="Trazado_900253" data-name="Trazado 900253" d="M318.581.9V3.274h1.826V4.568h-1.826v6.076a1.351,1.351,0,0,0,.244.881,1.024,1.024,0,0,0,.833.3,4.021,4.021,0,0,0,.795-.109V13.06a4.916,4.916,0,0,1-1.284.179,2.082,2.082,0,0,1-1.691-.678,2.926,2.926,0,0,1-.57-1.927V4.568h-1.781V3.274h1.781V.9Z" transform="translate(289.79 0.832)"/>
          <path id="Trazado_900254" data-name="Trazado 900254" d="M323.624,3.727a5.017,5.017,0,0,0-.824-.063,2.206,2.206,0,0,0-2.234,1.4V12.01h-1.672V2.225h1.628l.027,1.131a2.606,2.606,0,0,1,2.332-1.311,1.713,1.713,0,0,1,.743.127Z" transform="translate(293.255 1.881)"/>
          <path id="Trazado_900255" data-name="Trazado 900255" d="M328.333,13.888a3.5,3.5,0,0,1-.234-1.031,3.737,3.737,0,0,1-2.787,1.213,3.456,3.456,0,0,1-2.373-.82,2.643,2.643,0,0,1-.925-2.075A2.77,2.77,0,0,1,323.173,8.8a5.492,5.492,0,0,1,3.269-.845h1.628V7.189a1.881,1.881,0,0,0-.524-1.4A2.1,2.1,0,0,0,326,5.271a2.446,2.446,0,0,0-1.5.451,1.341,1.341,0,0,0-.607,1.1h-1.682a2.309,2.309,0,0,1,.52-1.417,3.549,3.549,0,0,1,1.411-1.081,4.741,4.741,0,0,1,1.958-.4,3.863,3.863,0,0,1,2.647.847,3.051,3.051,0,0,1,1,2.328v4.5a5.515,5.515,0,0,0,.344,2.144v.144Zm-2.778-1.275a2.943,2.943,0,0,0,1.493-.407,2.447,2.447,0,0,0,1.021-1.058V9.141h-1.311q-3.072,0-3.073,1.8a1.519,1.519,0,0,0,.524,1.229,2.012,2.012,0,0,0,1.346.443M327.1,0h2.027l-2.424,2.659-1.348-.006Z" transform="translate(296.124)"/>
          <path id="Trazado_900256" data-name="Trazado 900256" d="M333.3,9.414a1.232,1.232,0,0,0-.511-1.054,4.92,4.92,0,0,0-1.779-.647,8.3,8.3,0,0,1-2.018-.651,2.852,2.852,0,0,1-1.1-.9,2.151,2.151,0,0,1-.359-1.248,2.54,2.54,0,0,1,1.017-2.035,3.971,3.971,0,0,1,2.6-.831,4.088,4.088,0,0,1,2.7.858,2.727,2.727,0,0,1,1.037,2.2H333.2a1.508,1.508,0,0,0-.582-1.184,2.183,2.183,0,0,0-1.47-.5,2.292,2.292,0,0,0-1.428.4,1.256,1.256,0,0,0-.516,1.04,1.019,1.019,0,0,0,.48.914,5.907,5.907,0,0,0,1.733.587,9.114,9.114,0,0,1,2.029.668,2.992,2.992,0,0,1,1.154.937,2.308,2.308,0,0,1,.374,1.334,2.507,2.507,0,0,1-1.05,2.1,4.4,4.4,0,0,1-2.722.791,4.908,4.908,0,0,1-2.079-.417,3.382,3.382,0,0,1-1.415-1.161A2.79,2.79,0,0,1,327.2,9h1.672a1.733,1.733,0,0,0,.674,1.334,2.62,2.62,0,0,0,1.659.493,2.7,2.7,0,0,0,1.524-.384,1.185,1.185,0,0,0,.574-1.027" transform="translate(300.889 1.881)"/>
          <rect id="Rectángulo_407575" data-name="Rectángulo 407575" width="4.413" height="1.365" transform="translate(641.692 7.613)"/>
          <path id="Trazado_900257" data-name="Trazado 900257" d="M345.622,8.014a7.694,7.694,0,0,1-1,4.367,4.171,4.171,0,0,1-6.258.031,7.237,7.237,0,0,1-1.05-4.171V6.006a7.477,7.477,0,0,1,1-4.313,4.245,4.245,0,0,1,6.275-.05,7.211,7.211,0,0,1,1.031,4.2Zm-1.67-2.288a6.105,6.105,0,0,0-.6-3.1,2.055,2.055,0,0,0-1.891-.973,2.033,2.033,0,0,0-1.872.967,5.986,5.986,0,0,0-.6,2.975V8.277a6.223,6.223,0,0,0,.62,3.15,2.05,2.05,0,0,0,1.877,1.017,2.028,2.028,0,0,0,1.839-.958,6.031,6.031,0,0,0,.63-3.021Z" transform="translate(310.194 0.259)"/>
          <path id="Trazado_900258" data-name="Trazado 900258" d="M342.867,7.264a1.053,1.053,0,0,1,.257-.724.984.984,0,0,1,.774-.288,1.01,1.01,0,0,1,.781.288,1.025,1.025,0,0,1,.267.724.966.966,0,0,1-.267.7,1.028,1.028,0,0,1-.781.28.929.929,0,0,1-1.031-.977" transform="translate(315.301 5.749)"/>
          <path id="Trazado_900259" data-name="Trazado 900259" d="M354.046,13.63h-8.627v-1.2l4.557-5.066a10.715,10.715,0,0,0,1.4-1.866,3.109,3.109,0,0,0,.386-1.488,2.361,2.361,0,0,0-.626-1.691,2.173,2.173,0,0,0-1.662-.66,2.586,2.586,0,0,0-1.941.71,2.712,2.712,0,0,0-.691,1.975h-1.672A3.883,3.883,0,0,1,346.337,1.4,4.346,4.346,0,0,1,349.47.283a4.163,4.163,0,0,1,2.9.964,3.283,3.283,0,0,1,1.069,2.563q0,1.946-2.478,4.63l-3.526,3.826h6.609Z" transform="translate(317.415 0.26)"/>
          <path id="Trazado_900260" data-name="Trazado 900260" d="M414.257,147.211v6.239h-1.421v-7.984H426v1.745Z" transform="translate(379.644 133.771)"/>
          <path id="Trazado_900261" data-name="Trazado 900261" d="M412.922,156.694a3.511,3.511,0,0,1,1.031-.234,3.731,3.731,0,0,1-1.211-2.785,3.46,3.46,0,0,1,.818-2.375,2.643,2.643,0,0,1,2.075-.925,2.77,2.77,0,0,1,2.375,1.161,5.489,5.489,0,0,1,.845,3.269v1.628h.768a1.888,1.888,0,0,0,1.4-.524,2.125,2.125,0,0,0,.518-1.547,2.449,2.449,0,0,0-.451-1.5,1.338,1.338,0,0,0-1.094-.607v-1.682a2.32,2.32,0,0,1,1.415.52,3.545,3.545,0,0,1,1.081,1.411,4.746,4.746,0,0,1,.4,1.958,3.855,3.855,0,0,1-.847,2.649,3.047,3.047,0,0,1-2.328.994h-4.5a5.524,5.524,0,0,0-2.142.344h-.144Zm1.275-2.776a2.922,2.922,0,0,0,.407,1.492,2.467,2.467,0,0,0,1.06,1.023h2.006V155.12q0-3.072-1.8-3.073a1.531,1.531,0,0,0-1.23.524,2.023,2.023,0,0,0-.442,1.348" transform="translate(379.558 138.285)"/>
          <path id="Trazado_900262" data-name="Trazado 900262" d="M421.117,160.5a5.016,5.016,0,0,0,.063-.824,2.2,2.2,0,0,0-1.4-2.232h-6.943v-1.672h9.782v1.626l-1.131.027a2.609,2.609,0,0,1,1.313,2.334,1.739,1.739,0,0,1-.127.741Z" transform="translate(379.644 143.245)"/>
          <path id="Trazado_900263" data-name="Trazado 900263" d="M419.655,158.826a5.738,5.738,0,0,1,3.638,1.058,3.645,3.645,0,0,1,.086,5.6l1.085.081v1.528h-9.546a3.982,3.982,0,0,1-2.995-1.125,4.157,4.157,0,0,1-1.094-3.025,5.062,5.062,0,0,1,.451-2.071,3.574,3.574,0,0,1,1.24-1.545l1,.868a3.271,3.271,0,0,0-1.326,2.632,2.564,2.564,0,0,0,.685,1.9,2.622,2.622,0,0,0,1.935.683h.843a3.437,3.437,0,0,1-1.157-2.741,3.34,3.34,0,0,1,1.384-2.78,6.042,6.042,0,0,1,3.77-1.062m-.19,1.682a4.391,4.391,0,0,0-2.6.678,2.2,2.2,0,0,0-.946,1.9,2.45,2.45,0,0,0,1.438,2.325h4.467a2.477,2.477,0,0,0,1.4-2.305,2.22,2.22,0,0,0-.948-1.908,4.778,4.778,0,0,0-2.812-.687" transform="translate(377.798 146.056)"/>
          <path id="Trazado_900264" data-name="Trazado 900264" d="M417.906,164.215a5.787,5.787,0,0,1,2.586.564,4.229,4.229,0,0,1,1.772,1.574,4.278,4.278,0,0,1,.624,2.3,4.129,4.129,0,0,1-1.382,3.233,5.327,5.327,0,0,1-3.682,1.234h-.117a5.84,5.84,0,0,1-2.565-.547,4.161,4.161,0,0,1-1.768-1.564,4.327,4.327,0,0,1-.632-2.338,4.112,4.112,0,0,1,1.384-3.223,5.288,5.288,0,0,1,3.661-1.234Zm-.2,1.682a4.171,4.171,0,0,0-2.613.756,2.555,2.555,0,0,0,.013,4.045,4.569,4.569,0,0,0,2.8.753,4.19,4.19,0,0,0,2.609-.764,2.431,2.431,0,0,0,1-2.031,2.4,2.4,0,0,0-.985-2,4.537,4.537,0,0,0-2.82-.76" transform="translate(379.558 151.012)"/>
          <path id="Trazado_900265" data-name="Trazado 900265" d="M422.62,173.913l-1.085.046a3.614,3.614,0,0,1,1.267,2.9,2.8,2.8,0,0,1-1.576,2.793,3.676,3.676,0,0,1,1.14,1.271,3.752,3.752,0,0,1,.436,1.851q0,3.216-3.411,3.273h-6.555v-1.674h6.458a2.251,2.251,0,0,0,1.568-.478,2.11,2.11,0,0,0,.518-1.611,2.207,2.207,0,0,0-.555-1.545,2.246,2.246,0,0,0-1.5-.714h-6.494v-1.682h6.411a1.866,1.866,0,0,0,2.133-2.09,2.238,2.238,0,0,0-1.4-2.252h-7.143v-1.672h9.784Z" transform="translate(379.644 158.476)"/>
          <path id="Trazado_900266" data-name="Trazado 900266" d="M412.922,186.965a3.511,3.511,0,0,1,1.031-.234,3.731,3.731,0,0,1-1.211-2.785,3.459,3.459,0,0,1,.818-2.375,2.643,2.643,0,0,1,2.075-.925,2.77,2.77,0,0,1,2.375,1.161,5.488,5.488,0,0,1,.845,3.269V186.7h.768a1.888,1.888,0,0,0,1.4-.524,2.125,2.125,0,0,0,.518-1.547,2.449,2.449,0,0,0-.451-1.5,1.338,1.338,0,0,0-1.094-.607v-1.682a2.32,2.32,0,0,1,1.415.52,3.545,3.545,0,0,1,1.081,1.411,4.747,4.747,0,0,1,.4,1.958,3.855,3.855,0,0,1-.847,2.649,3.047,3.047,0,0,1-2.328.994h-4.5a5.523,5.523,0,0,0-2.142.344h-.144Zm1.275-2.776a2.922,2.922,0,0,0,.407,1.492,2.466,2.466,0,0,0,1.06,1.023h2.006v-1.313q0-3.072-1.8-3.073a1.531,1.531,0,0,0-1.23.524,2.023,2.023,0,0,0-.442,1.348" transform="translate(379.558 166.122)"/>
          <path id="Trazado_900267" data-name="Trazado 900267" d="M422.62,187.62l-1.231.056a3.561,3.561,0,0,1,1.413,2.931q0,3.1-3.5,3.129h-6.465v-1.674h6.475a2.239,2.239,0,0,0,1.564-.486,1.931,1.931,0,0,0,.5-1.476,2.428,2.428,0,0,0-.432-1.43,2.971,2.971,0,0,0-1.14-.958h-6.972V186.04h9.784Z" transform="translate(379.644 171.082)"/>
          <path id="Trazado_900268" data-name="Trazado 900268" d="M419.655,191.155a5.738,5.738,0,0,1,3.638,1.058,3.645,3.645,0,0,1,.086,5.6l1.085.081v1.528h-9.546a3.982,3.982,0,0,1-2.995-1.125,4.157,4.157,0,0,1-1.094-3.025,5.062,5.062,0,0,1,.451-2.071,3.574,3.574,0,0,1,1.24-1.545l1,.868a3.271,3.271,0,0,0-1.326,2.632,2.564,2.564,0,0,0,.685,1.9,2.622,2.622,0,0,0,1.935.683h.843A3.437,3.437,0,0,1,414.5,195a3.34,3.34,0,0,1,1.384-2.78,6.042,6.042,0,0,1,3.77-1.062m-.19,1.682a4.39,4.39,0,0,0-2.6.678,2.2,2.2,0,0,0-.946,1.9,2.45,2.45,0,0,0,1.438,2.325h4.467a2.477,2.477,0,0,0,1.4-2.305,2.22,2.22,0,0,0-.948-1.908,4.778,4.778,0,0,0-2.812-.687" transform="translate(377.798 175.786)"/>
          <path id="Trazado_900269" data-name="Trazado 900269" d="M412.922,202.948a3.511,3.511,0,0,1,1.031-.234,3.731,3.731,0,0,1-1.211-2.785,3.46,3.46,0,0,1,.818-2.375,2.643,2.643,0,0,1,2.075-.925,2.77,2.77,0,0,1,2.375,1.161,5.489,5.489,0,0,1,.845,3.269v1.628h.768a1.888,1.888,0,0,0,1.4-.524,2.125,2.125,0,0,0,.518-1.547,2.449,2.449,0,0,0-.451-1.5,1.338,1.338,0,0,0-1.094-.607v-1.682a2.32,2.32,0,0,1,1.415.52,3.545,3.545,0,0,1,1.081,1.411,4.746,4.746,0,0,1,.4,1.958,3.855,3.855,0,0,1-.847,2.649,3.047,3.047,0,0,1-2.328.994h-4.5a5.523,5.523,0,0,0-2.142.344h-.144Zm1.275-2.776a2.922,2.922,0,0,0,.407,1.492,2.467,2.467,0,0,0,1.06,1.023h2.006v-1.313q0-3.072-1.8-3.073a1.531,1.531,0,0,0-1.23.524,2.023,2.023,0,0,0-.442,1.348" transform="translate(379.558 180.82)"/>
          <path id="Trazado_900270" data-name="Trazado 900270" d="M419.267,209.471v3.672h-1.584v-3.672h-4.16V207.79h4.16v-3.672h1.584v3.672h3.843v1.682Z" transform="translate(380.276 187.707)"/>
          <path id="Trazado_900271" data-name="Trazado 900271" d="M417.259,217.147v1.826h-1.367v-1.826h-3.056v-1.682h3.056v-6h.987l9.126,5.9v1.783Zm0-5.78v4.1h6.456l-.361-.2Z" transform="translate(379.644 192.628)"/>
          <rect id="Rectángulo_407576" data-name="Rectángulo 407576" width="1.365" height="4.413" transform="translate(797.392 416.935)"/>
          <path id="Trazado_900272" data-name="Trazado 900272" d="M425.062,231.337l-12.226-5.454v-1.755l11.79,5.434v-7.126H426v8.9Z" transform="translate(379.644 204.554)"/>
          <path id="Trazado_900273" data-name="Trazado 900273" d="M420.216,230.507a14.03,14.03,0,0,1,3.924.547,11.456,11.456,0,0,1,3.419,1.634,6.975,6.975,0,0,1,2.171,2.252l-1.1.342a7.234,7.234,0,0,0-3.092-2.165,13.334,13.334,0,0,0-4.657-.925l-.77-.01a13.472,13.472,0,0,0-6.058,1.275,7.234,7.234,0,0,0-2.405,1.826l-1.021-.342a7.161,7.161,0,0,1,2.242-2.3,12.571,12.571,0,0,1,7.352-2.135" transform="translate(377.608 211.974)"/>
          <path id="Trazado_900274" data-name="Trazado 900274" d="M419.421,242.1a5.863,5.863,0,0,1-3.6-1.021,3.275,3.275,0,0,1-1.365-2.768,3.591,3.591,0,0,1,1.129-2.8h-4.709v-1.672h13.545v1.528l-1.087.081a3.451,3.451,0,0,1,1.269,2.841,3.333,3.333,0,0,1-1.332,2.789,5.921,5.921,0,0,1-3.7,1.025Zm.19-1.672a4.319,4.319,0,0,0,2.613-.7,2.271,2.271,0,0,0,.958-1.935,2.46,2.46,0,0,0-1.346-2.28h-4.674a2.467,2.467,0,0,0-1.34,2.3,2.26,2.26,0,0,0,.954,1.912,4.713,4.713,0,0,0,2.835.71" transform="translate(377.843 215.037)"/>
          <path id="Trazado_900275" data-name="Trazado 900275" d="M413.89,245.308a3.557,3.557,0,0,1-1.148-2.866,3.044,3.044,0,0,1,.908-2.382,3.928,3.928,0,0,1,2.691-.827h6.365V240.9h-6.319c-1.486,0-2.225.6-2.225,1.808a2.506,2.506,0,0,0,1.428,2.551h7.116v1.674h-9.784v-1.591Z" transform="translate(379.558 219.998)"/>
          <path id="Trazado_900276" data-name="Trazado 900276" d="M422.62,246.151l-1.231.056a3.558,3.558,0,0,1,1.411,2.929q0,3.1-3.5,3.129h-6.465v-1.674h6.475a2.252,2.252,0,0,0,1.564-.484,1.948,1.948,0,0,0,.5-1.48,2.426,2.426,0,0,0-.432-1.428,2.969,2.969,0,0,0-1.14-.958h-6.972v-1.672h9.784Zm3.816,5.534a2.255,2.255,0,0,1-1.584-.557,1.806,1.806,0,0,1-.6-1.388,2.069,2.069,0,0,1,.09-.643,3.475,3.475,0,0,1,.372-.708,2.97,2.97,0,0,0,.336-.633,1.44,1.44,0,0,0,.061-.447.831.831,0,0,0-.286-.633,1.031,1.031,0,0,0-.728-.261l.063-1.123a2.363,2.363,0,0,1,1.6.547,1.761,1.761,0,0,1,.633,1.39,1.715,1.715,0,0,1-.09.57,4.048,4.048,0,0,1-.353.685,4.2,4.2,0,0,0-.344.666,1.536,1.536,0,0,0-.081.509.8.8,0,0,0,.309.647,1.068,1.068,0,0,0,.712.259Z" transform="translate(379.644 224.906)"/>
          <path id="Trazado_900277" data-name="Trazado 900277" d="M417.906,249.66a5.787,5.787,0,0,1,2.586.566,4.212,4.212,0,0,1,1.772,1.572,4.283,4.283,0,0,1,.624,2.3,4.129,4.129,0,0,1-1.382,3.233,5.329,5.329,0,0,1-3.682,1.236h-.117a5.84,5.84,0,0,1-2.565-.549,4.149,4.149,0,0,1-1.768-1.564,4.327,4.327,0,0,1-.632-2.338,4.108,4.108,0,0,1,1.384-3.221,5.289,5.289,0,0,1,3.661-1.236Zm-.2,1.682a4.183,4.183,0,0,0-2.613.756,2.557,2.557,0,0,0,.013,4.047,4.569,4.569,0,0,0,2.8.751,4.19,4.19,0,0,0,2.609-.764,2.429,2.429,0,0,0,1-2.031,2.4,2.4,0,0,0-.985-2,4.537,4.537,0,0,0-2.82-.76" transform="translate(379.558 229.587)"/>
          <path id="Trazado_900278" data-name="Trazado 900278" d="M420.124,259.695a14.062,14.062,0,0,1-3.866-.526,11.475,11.475,0,0,1-3.411-1.62,7.078,7.078,0,0,1-2.225-2.284l1.021-.351a7.262,7.262,0,0,0,3.315,2.238,14.343,14.343,0,0,0,4.985.864h.29a14.88,14.88,0,0,0,3.53-.4,12.015,12.015,0,0,0,2.926-1.108,6.8,6.8,0,0,0,2.017-1.6l1.023.351a7.114,7.114,0,0,1-2.208,2.277,11.444,11.444,0,0,1-3.409,1.616,14.227,14.227,0,0,1-3.989.537" transform="translate(377.608 234.418)"/>
          <path id="Trazado_900279" data-name="Trazado 900279" d="M403.975,58.191h3.67v1.584h-3.67v4.158h-1.684V59.775h-3.67V58.191h3.67V54.348h1.684Z" transform="translate(366.572 49.978)"/>
          <path id="Trazado_900280" data-name="Trazado 900280" d="M413.041,66.423h-8.627v-1.2l4.557-5.066a10.715,10.715,0,0,0,1.4-1.866,3.109,3.109,0,0,0,.386-1.488,2.361,2.361,0,0,0-.626-1.691,2.173,2.173,0,0,0-1.662-.66,2.586,2.586,0,0,0-1.941.71,2.712,2.712,0,0,0-.691,1.975h-1.672a3.884,3.884,0,0,1,1.171-2.939,4.346,4.346,0,0,1,3.133-1.121,4.163,4.163,0,0,1,2.9.964,3.283,3.283,0,0,1,1.069,2.563q0,1.946-2.478,4.63l-3.526,3.826h6.609Z" transform="translate(371.667 48.809)"/>
          <path id="Trazado_900281" data-name="Trazado 900281" d="M364.7,57.181a4.846,4.846,0,0,1-1.541,3.223,5.059,5.059,0,0,1-3.451,1.136,4.639,4.639,0,0,1-3.737-1.674,6.733,6.733,0,0,1-1.405-4.477V54.125a7.5,7.5,0,0,1,.655-3.229,4.9,4.9,0,0,1,1.858-2.138,5.174,5.174,0,0,1,2.783-.747,4.763,4.763,0,0,1,3.365,1.171,4.9,4.9,0,0,1,1.474,3.242h-1.745a3.773,3.773,0,0,0-.981-2.284,2.971,2.971,0,0,0-2.114-.708,3.106,3.106,0,0,0-2.607,1.23,5.657,5.657,0,0,0-.944,3.5V55.44a5.81,5.81,0,0,0,.895,3.413,2.892,2.892,0,0,0,2.5,1.267,3.346,3.346,0,0,0,2.223-.657,3.639,3.639,0,0,0,1.025-2.282Z" transform="translate(326.061 44.151)"/>
          <path id="Trazado_900282" data-name="Trazado 900282" d="M360.715,54.755a5.786,5.786,0,0,1,.564-2.586,4.221,4.221,0,0,1,1.574-1.774,4.289,4.289,0,0,1,2.3-.622,4.129,4.129,0,0,1,3.233,1.382,5.323,5.323,0,0,1,1.234,3.68v.119a5.825,5.825,0,0,1-.547,2.563,4.15,4.15,0,0,1-1.564,1.768,4.333,4.333,0,0,1-2.338.633,4.11,4.11,0,0,1-3.223-1.384,5.288,5.288,0,0,1-1.234-3.661Zm1.682.2a4.175,4.175,0,0,0,.756,2.613,2.555,2.555,0,0,0,4.045-.013,4.573,4.573,0,0,0,.752-2.8,4.171,4.171,0,0,0-.766-2.609,2.427,2.427,0,0,0-2.029-1,2.4,2.4,0,0,0-2,.985,4.543,4.543,0,0,0-.76,2.822" transform="translate(331.714 45.772)"/>
          <path id="Trazado_900283" data-name="Trazado 900283" d="M368.03,49.954l.052,1.23a3.568,3.568,0,0,1,2.933-1.411q3.1,0,3.129,3.5v6.465H372.47V53.264a2.258,2.258,0,0,0-.484-1.564,1.939,1.939,0,0,0-1.478-.507,2.415,2.415,0,0,0-1.428.434,2.943,2.943,0,0,0-.96,1.14v6.972h-1.672V49.954Z" transform="translate(336.986 45.772)"/>
          <path id="Trazado_900284" data-name="Trazado 900284" d="M374.608,48.634V51h1.826V52.3h-1.826v6.076a1.352,1.352,0,0,0,.244.881,1.024,1.024,0,0,0,.833.3,4.021,4.021,0,0,0,.795-.109v1.349a4.915,4.915,0,0,1-1.284.179,2.082,2.082,0,0,1-1.691-.678,2.926,2.926,0,0,1-.57-1.927V52.3h-1.781V51h1.781V48.634Z" transform="translate(341.312 44.724)"/>
          <path id="Trazado_900285" data-name="Trazado 900285" d="M383.2,57.142a1.229,1.229,0,0,0-.511-1.052,4.883,4.883,0,0,0-1.779-.647,8.3,8.3,0,0,1-2.018-.651,2.851,2.851,0,0,1-1.1-.9,2.154,2.154,0,0,1-.359-1.248,2.539,2.539,0,0,1,1.017-2.035,3.972,3.972,0,0,1,2.6-.833,4.1,4.1,0,0,1,2.7.858,2.73,2.73,0,0,1,1.037,2.2H383.1a1.508,1.508,0,0,0-.582-1.184,2.182,2.182,0,0,0-1.47-.5,2.292,2.292,0,0,0-1.428.4,1.255,1.255,0,0,0-.516,1.039,1.02,1.02,0,0,0,.48.916,6.024,6.024,0,0,0,1.733.587,9.023,9.023,0,0,1,2.029.666,3.014,3.014,0,0,1,1.154.939,2.307,2.307,0,0,1,.374,1.334,2.509,2.509,0,0,1-1.05,2.1,4.4,4.4,0,0,1-2.722.791,4.879,4.879,0,0,1-2.079-.418,3.363,3.363,0,0,1-1.415-1.159,2.79,2.79,0,0,1-.511-1.614h1.672a1.736,1.736,0,0,0,.674,1.334,2.619,2.619,0,0,0,1.658.493,2.688,2.688,0,0,0,1.524-.386,1.182,1.182,0,0,0,.574-1.027" transform="translate(346.779 45.771)"/>
          <path id="Trazado_900286" data-name="Trazado 900286" d="M382.289,48.98a1,1,0,0,1,.25-.687,1.109,1.109,0,0,1,1.478,0,.984.984,0,0,1,.253.687,1.036,1.036,0,0,1-1.732.678.968.968,0,0,1-.25-.678M384.1,61.36h-1.672V51.576H384.1Z" transform="translate(351.553 44.151)"/>
          <path id="Trazado_900287" data-name="Trazado 900287" d="M390.516,57.142a1.229,1.229,0,0,0-.511-1.052,4.884,4.884,0,0,0-1.779-.647,8.3,8.3,0,0,1-2.017-.651,2.851,2.851,0,0,1-1.1-.9,2.154,2.154,0,0,1-.359-1.248,2.539,2.539,0,0,1,1.017-2.035,3.972,3.972,0,0,1,2.6-.833,4.1,4.1,0,0,1,2.7.858,2.73,2.73,0,0,1,1.037,2.2h-1.684a1.508,1.508,0,0,0-.582-1.184,2.182,2.182,0,0,0-1.47-.5,2.292,2.292,0,0,0-1.428.4,1.255,1.255,0,0,0-.516,1.039,1.02,1.02,0,0,0,.48.916,6.024,6.024,0,0,0,1.733.587,9.023,9.023,0,0,1,2.029.666,3.013,3.013,0,0,1,1.154.939,2.307,2.307,0,0,1,.374,1.334,2.509,2.509,0,0,1-1.05,2.1,4.4,4.4,0,0,1-2.722.791,4.88,4.88,0,0,1-2.079-.418,3.364,3.364,0,0,1-1.415-1.159,2.791,2.791,0,0,1-.511-1.614h1.672a1.736,1.736,0,0,0,.674,1.334,2.62,2.62,0,0,0,1.659.493,2.688,2.688,0,0,0,1.524-.386,1.182,1.182,0,0,0,.574-1.027" transform="translate(353.507 45.771)"/>
          <path id="Trazado_900288" data-name="Trazado 900288" d="M395.775,59.739a3.5,3.5,0,0,1-.236-1.031,3.724,3.724,0,0,1-2.783,1.211,3.456,3.456,0,0,1-2.375-.818,2.645,2.645,0,0,1-.927-2.075,2.767,2.767,0,0,1,1.163-2.375,5.481,5.481,0,0,1,3.269-.845h1.628v-.77a1.87,1.87,0,0,0-.526-1.4,2.1,2.1,0,0,0-1.547-.52,2.435,2.435,0,0,0-1.5.451,1.33,1.33,0,0,0-.607,1.094h-1.682a2.315,2.315,0,0,1,.52-1.415,3.532,3.532,0,0,1,1.411-1.081,4.745,4.745,0,0,1,1.956-.4,3.867,3.867,0,0,1,2.651.847,3.046,3.046,0,0,1,.994,2.327v4.5a5.491,5.491,0,0,0,.344,2.144v.144ZM393,58.464a2.946,2.946,0,0,0,1.492-.407A2.484,2.484,0,0,0,395.514,57V54.991H394.2q-3.072,0-3.075,1.8a1.527,1.527,0,0,0,.526,1.23,2.014,2.014,0,0,0,1.348.443" transform="translate(358.142 45.772)"/>
          <path id="Trazado_900289" data-name="Trazado 900289" d="M378.476,59.871V61.29h-.309a4.418,4.418,0,0,0-3.11,1.158,4.814,4.814,0,0,0-1.338,3.156,3.572,3.572,0,0,1,2.839-1.192,3.412,3.412,0,0,1,2.745,1.211,5.314,5.314,0,0,1-.083,6.385,3.813,3.813,0,0,1-2.97,1.221,3.755,3.755,0,0,1-3.064-1.451,5.741,5.741,0,0,1-1.179-3.739v-.643a8.659,8.659,0,0,1,1.553-5.555,5.691,5.691,0,0,1,4.615-1.968Zm-2.2,5.932a2.816,2.816,0,0,0-2.586,1.808v.616a4.326,4.326,0,0,0,.731,2.622,2.2,2.2,0,0,0,1.827.994,2.129,2.129,0,0,0,1.778-.833,3.99,3.99,0,0,0-.01-4.371,2.1,2.1,0,0,0-1.741-.837" transform="translate(342.1 55.057)"/>
          <line id="Línea_1539" data-name="Línea 1539" x1="87.317" transform="translate(674.458 109.287)" fill="none" stroke="#000" stroke-miterlimit="10" stroke-width="0.75"/>
          <line id="Línea_1540" data-name="Línea 1540" x2="44.185" transform="translate(774.978 32.087)" fill="none" stroke="#9d9d9c" stroke-miterlimit="10" stroke-width="0.75"/>
          <line id="Línea_1541" data-name="Línea 1541" y1="232.965" transform="translate(797.071 32.089)" fill="none" stroke="#9d9d9c" stroke-miterlimit="10" stroke-width="0.75"/>
          <line id="Línea_1542" data-name="Línea 1542" x2="44.185" transform="translate(695.675 32.087)" fill="none" stroke="#9d9d9c" stroke-miterlimit="10" stroke-width="0.75"/>
          <line id="Línea_1543" data-name="Línea 1543" y1="48.892" transform="translate(717.767 32.088)" fill="none" stroke="#9d9d9c" stroke-miterlimit="10" stroke-width="0.75"/>
          <line id="Línea_1544" data-name="Línea 1544" x2="44.185" transform="translate(695.675 182.774)" fill="none" stroke="#9d9d9c" stroke-miterlimit="10" stroke-width="0.75"/>
          <line id="Línea_1545" data-name="Línea 1545" y2="48.892" transform="translate(717.767 133.881)" fill="none" stroke="#9d9d9c" stroke-miterlimit="10" stroke-width="0.75"/>
          <line id="Línea_1546" data-name="Línea 1546" x2="44.185" transform="translate(774.978 718.598)" fill="none" stroke="#9d9d9c" stroke-miterlimit="10" stroke-width="0.75"/>
          <line id="Línea_1547" data-name="Línea 1547" y2="209.567" transform="translate(797.071 509.029)" fill="none" stroke="#9d9d9c" stroke-miterlimit="10" stroke-width="0.75"/>
          <path id="Trazado_900290" data-name="Trazado 900290" d="M289.214,374.042,274.349,397.1l-17.417-22.613" transform="translate(236.275 343.969)" fill="none" stroke="#9d9d9c" stroke-miterlimit="10" stroke-width="0.5"/>
          <path id="Trazado_900291" data-name="Trazado 900291" d="M121.984,57.319V95.736L105.751,65.708" transform="translate(97.249 52.711)" fill="none" stroke="#9d9d9c" stroke-miterlimit="10" stroke-width="0.5"/>
          <path id="Trazado_900292" data-name="Trazado 900292" d="M124.963,394.145c5.11-12.159,5.947-20.025,5.947-20.025" transform="translate(114.916 344.041)" fill="none" stroke="#9d9d9c" stroke-miterlimit="10" stroke-width="0.5"/>
          <path id="Trazado_900293" data-name="Trazado 900293" d="M239.993,394.145c5.11-12.159,5.947-20.025,5.947-20.025" transform="translate(220.698 344.041)" fill="none" stroke="#9d9d9c" stroke-miterlimit="10" stroke-width="0.5"/>
          <path id="Trazado_900294" data-name="Trazado 900294" d="M205.4,394.145c5.11-12.159,5.947-20.025,5.947-20.025" transform="translate(188.885 344.041)" fill="none" stroke="#9d9d9c" stroke-miterlimit="10" stroke-width="0.5"/>
          <path id="Trazado_900295" data-name="Trazado 900295" d="M104.129,396.065c5.108-12.159,5.947-20.025,5.947-20.025" transform="translate(95.757 345.806)" fill="none" stroke="#9d9d9c" stroke-miterlimit="10" stroke-width="0.5"/>
          <path id="Trazado_900296" data-name="Trazado 900296" d="M113.445,393.354c-6.9-9.348-5.947-17.313-5.947-17.313" transform="translate(98.813 345.807)" fill="none" stroke="#9d9d9c" stroke-miterlimit="10" stroke-width="0.5"/>
          <path id="Trazado_900297" data-name="Trazado 900297" d="M193.738,393.354c-6.9-9.348-5.947-17.313-5.947-17.313" transform="translate(172.651 345.807)" fill="none" stroke="#9d9d9c" stroke-miterlimit="10" stroke-width="0.5"/>
          <path id="Trazado_900298" data-name="Trazado 900298" d="M229.023,393.354c-6.9-9.348-5.947-17.313-5.947-17.313" transform="translate(205.099 345.807)" fill="none" stroke="#9d9d9c" stroke-miterlimit="10" stroke-width="0.5"/>
          <path id="Trazado_900299" data-name="Trazado 900299" d="M91.054,391.08a27.92,27.92,0,0,1-2.95-13.627" transform="translate(80.996 347.106)" fill="none" stroke="#9d9d9c" stroke-miterlimit="10" stroke-width="0.5"/>
          <path id="Trazado_900300" data-name="Trazado 900300" d="M275.154,338.544a6.879,6.879,0,1,1-6.88-6.88A6.88,6.88,0,0,1,275.154,338.544Z" transform="translate(240.38 304.998)" fill="none" stroke="#000" stroke-miterlimit="10" stroke-width="0.664"/>
          <line id="Línea_1548" data-name="Línea 1548" x2="7.371" transform="translate(504.968 643.542)" fill="none" stroke="#000" stroke-miterlimit="10" stroke-width="0.75"/>
          <line id="Línea_1549" data-name="Línea 1549" x2="3.532" transform="translate(506.888 633.08)" fill="none" stroke="#000" stroke-miterlimit="10" stroke-width="0.75"/>
          <line id="Línea_1550" data-name="Línea 1550" x2="3.532" transform="translate(506.888 652.59)" fill="none" stroke="#000" stroke-miterlimit="10" stroke-width="0.75"/>
          <line id="Línea_1551" data-name="Línea 1551" y1="18.678" transform="translate(508.654 633.809)" fill="none" stroke="#000" stroke-miterlimit="10" stroke-width="0.75"/>
          <path id="Trazado_900301" data-name="Trazado 900301" d="M122.631,458.744a6.879,6.879,0,1,1-6.88-6.88A6.88,6.88,0,0,1,122.631,458.744Z" transform="translate(100.12 415.534)" fill="none" stroke="#000" stroke-miterlimit="10" stroke-width="0.664"/>
          <line id="Línea_1552" data-name="Línea 1552" x2="7.371" transform="translate(212.186 874.277)" fill="none" stroke="#000" stroke-miterlimit="10" stroke-width="0.75"/>
          <line id="Línea_1553" data-name="Línea 1553" y1="4.885" transform="translate(215.872 871.953)" fill="none" stroke="#000" stroke-miterlimit="10" stroke-width="0.75"/>
          <line id="Línea_1554" data-name="Línea 1554" y2="134.057" transform="translate(321.617 299.877)" fill="none" stroke="#000" stroke-miterlimit="10" stroke-width="0.75"/>
          <path id="Trazado_900302" data-name="Trazado 900302" d="M169.862,232.254l4.839-8.383-4.839,1.92-4.839-1.92Z" transform="translate(151.755 205.872)"/>
          <path id="Trazado_900303" data-name="Trazado 900303" d="M169.862,153.493l4.839,8.383-4.839-1.92-4.839,1.92Z" transform="translate(151.755 141.152)"/>
          <line id="Línea_1555" data-name="Línea 1555" y2="30.193" transform="translate(504.968 587.709)" fill="none" stroke="#000" stroke-miterlimit="10" stroke-width="0.75"/>
          <path id="Trazado_900304" data-name="Trazado 900304" d="M265.377,328.09l4.839-8.383-4.839,1.92-4.839-1.92Z" transform="translate(239.591 294.003)"/>
          <path id="Trazado_900305" data-name="Trazado 900305" d="M265.377,302.8l4.839,8.383-4.839-1.92-4.839,1.92Z" transform="translate(239.591 278.451)"/>
          <line id="Línea_1556" data-name="Línea 1556" x2="133.481" transform="translate(300.639 891.009)" fill="none" stroke="#000" stroke-miterlimit="10" stroke-width="0.75"/>
          <line id="Línea_1557" data-name="Línea 1557" x2="19.641" transform="translate(515.568 871.195)" fill="none" stroke="#000" stroke-miterlimit="10" stroke-width="0.75"/>
          <line id="Línea_1558" data-name="Línea 1558" y1="5.031" transform="translate(535.208 868.679)" fill="none" stroke="#000" stroke-miterlimit="10" stroke-width="0.75"/>
          <line id="Línea_1559" data-name="Línea 1559" y1="5.031" transform="translate(515.568 868.679)" fill="none" stroke="#000" stroke-miterlimit="10" stroke-width="0.75"/>
          <line id="Línea_1560" data-name="Línea 1560" y1="13.038" transform="translate(531.759 864.676)" fill="none" stroke="#000" stroke-miterlimit="10" stroke-width="0.75"/>
          <path id="Trazado_900306" data-name="Trazado 900306" d="M232.351,466.482l-8.383-4.839,1.92,4.839-1.92,4.839Z" transform="translate(205.961 424.527)"/>
          <path id="Trazado_900307" data-name="Trazado 900307" d="M153.248,466.482l8.383-4.839-1.92,4.839,1.92,4.839Z" transform="translate(140.927 424.527)"/>
          <line id="Línea_1561" data-name="Línea 1561" x2="75.807" y2="9.961" transform="translate(639.305 385.331)" fill="none" stroke="#9d9d9c" stroke-miterlimit="10" stroke-width="0.5"/>
          <line id="Línea_1562" data-name="Línea 1562" x1="75.807" y2="9.961" transform="translate(38.788 385.331)" fill="none" stroke="#9d9d9c" stroke-miterlimit="10" stroke-width="0.5"/>
          <line id="Línea_1563" data-name="Línea 1563" x1="17.39" y1="32.203" transform="translate(133.846 167.628)" fill="none" stroke="#9d9d9c" stroke-miterlimit="10" stroke-width="0.5"/>
          <line id="Línea_1564" data-name="Línea 1564" x1="63.76" y1="64.95" transform="translate(193.905 24.991)" fill="none" stroke="#9d9d9c" stroke-miterlimit="10" stroke-width="0.5"/>
          <line id="Línea_1565" data-name="Línea 1565" x1="18.403" y1="35.33" transform="translate(288.919 22.135)" fill="none" stroke="#9d9d9c" stroke-miterlimit="10" stroke-width="0.5"/>
          <line id="Línea_1566" data-name="Línea 1566" y1="30.71" x2="23.448" transform="translate(442.52 28.366)" fill="none" stroke="#9d9d9c" stroke-miterlimit="10" stroke-width="0.5"/>
          <line id="Línea_1567" data-name="Línea 1567" y1="70.248" x2="80.88" transform="translate(491.785 21.095)" fill="none" stroke="#9d9d9c" stroke-miterlimit="10" stroke-width="0.5"/>
          <line id="Línea_1568" data-name="Línea 1568" y1="535.824" x2="95.786" transform="translate(585.175 182.774)" fill="none" stroke="#9d9d9c" stroke-miterlimit="10" stroke-width="0.75"/>
          <line id="Línea_1569" data-name="Línea 1569" x1="97.925" y1="536.331" transform="translate(70.157 182.773)" fill="none" stroke="#9d9d9c" stroke-miterlimit="10" stroke-width="0.75"/>
          <line id="Línea_1570" data-name="Línea 1570" x1="298.15" y2="151.687" transform="translate(70.157 33.65)" fill="none" stroke="#9d9d9c" stroke-miterlimit="10" stroke-width="0.75"/>
          <line id="Línea_1571" data-name="Línea 1571" x2="312.653" y2="149.124" transform="translate(368.308 33.65)" fill="none" stroke="#9d9d9c" stroke-miterlimit="10" stroke-width="0.75"/>
          <path id="Trazado_900308" data-name="Trazado 900308" d="M36.548,166.654S54.819,89.187,200.689,94.132C301.449,97.547,334.7,17.53,334.7,17.53" transform="translate(33.61 16.121)" fill="none" stroke="#9d9d9c" stroke-miterlimit="10" stroke-width="0.75" stroke-dasharray="5.164 2.066"/>
          <path id="Trazado_900309" data-name="Trazado 900309" d="M108.3,391.789a7.237,7.237,0,1,1-7.237-7.237,7.237,7.237,0,0,1,7.237,7.237" transform="translate(86.284 353.634)"/>
          <path id="Trazado_900310" data-name="Trazado 900310" d="M128.472,391.789a7.237,7.237,0,1,1-7.237-7.237,7.237,7.237,0,0,1,7.237,7.237" transform="translate(104.833 353.634)"/>
          <path id="Trazado_900311" data-name="Trazado 900311" d="M208.837,389.219a7.237,7.237,0,1,1-7.237-7.237,7.237,7.237,0,0,1,7.237,7.237" transform="translate(178.736 351.271)"/>
          <path id="Trazado_900312" data-name="Trazado 900312" d="M243.776,389.219a7.237,7.237,0,1,1-7.237-7.237,7.237,7.237,0,0,1,7.237,7.237" transform="translate(210.866 351.271)"/>
          <line id="Línea_1572" data-name="Línea 1572" x2="2.154" y2="39.546" transform="translate(397.258 681.282)" fill="none" stroke="#000" stroke-miterlimit="10" stroke-width="1"/>
          <line id="Línea_1573" data-name="Línea 1573" x2="5.546" y2="39.335" transform="translate(460.691 681.282)" fill="none" stroke="#000" stroke-miterlimit="10" stroke-width="1"/>
          <path id="Trazado_900313" data-name="Trazado 900313" d="M256.932,467.952V291.209L272.38,273.4l16.835,18.229V466.595" transform="translate(236.275 251.417)" fill="none" stroke="#000" stroke-miterlimit="10" stroke-width="1"/>
          <line id="Línea_1574" data-name="Línea 1574" x1="4.392" y2="43.452" transform="translate(360.395 679.353)" fill="none" stroke="#000" stroke-miterlimit="10" stroke-width="1"/>
          <line id="Línea_1575" data-name="Línea 1575" x1="3.463" y2="41.264" transform="translate(427.711 679.353)" fill="none" stroke="#000" stroke-miterlimit="10" stroke-width="1"/>
          <line id="Línea_1576" data-name="Línea 1576" x2="35.171" y2="15.512" transform="translate(363.515 691.945)" fill="none" stroke="#000" stroke-miterlimit="10" stroke-width="1"/>
          <line id="Línea_1577" data-name="Línea 1577" x2="35.171" y2="15.512" transform="translate(429.821 691.945)" fill="none" stroke="#000" stroke-miterlimit="10" stroke-width="1"/>
          <line id="Línea_1578" data-name="Línea 1578" y2="684.362" transform="translate(368.308 33.65)" fill="none" stroke="#9d9d9c" stroke-miterlimit="10" stroke-width="1"/>
          <rect id="Rectángulo_407577" data-name="Rectángulo 407577" width="610.803" height="536.331" transform="translate(70.158 182.773)" fill="none" stroke="#9d9d9c" stroke-miterlimit="10" stroke-width="1"/>
          <path id="Trazado_900314" data-name="Trazado 900314" d="M36.047,166.654S109.38,335.982,136.367,710.8c0,0,123.286-22.317,209.88,0,0,0,27.466-14.917,66.409-2.021,0,0,59.788-15.656,138.526-.328,0,0,20.927-311.455,96.631-541.794,0,0-50.1-12.946-120.219-59.149S401.952,17.53,337.106,17.53s-137.4,52.687-170.224,85.516S113.127,156.5,36.047,166.654Z" transform="translate(33.149 16.121)" fill="none" stroke="#000" stroke-miterlimit="10" stroke-width="1"/>
          <path id="Trazado_900315" data-name="Trazado 900315" d="M291.233,422.432,238.448,321.421l47.827,25.08" transform="translate(219.277 295.579)" fill="none" stroke="#9d9d9c" stroke-miterlimit="10" stroke-width="0.5"/>
          <line id="Línea_1579" data-name="Línea 1579" y2="84.503" transform="translate(225.814 828.943)" fill="none" stroke="#9d9d9c" stroke-miterlimit="10" stroke-width="0.75"/>
          <rect id="Rectángulo_407578" data-name="Rectángulo 407578" width="345.115" height="84.503" transform="translate(206.265 828.943)" fill="none" stroke="#000" stroke-miterlimit="10" stroke-width="1"/>
        </g>
      </g>
    </g>
  </g>
</svg>
