<svg xmlns="http://www.w3.org/2000/svg" xmlns:xlink="http://www.w3.org/1999/xlink" width="819.696" height="780" viewBox="0 0 819.696 780">
  <defs>
    <clipPath id="clip-path">
      <rect id="Rectángulo_407519" data-name="Rectángulo 407519" width="819.696" height="730.923" fill="none"/>
    </clipPath>
  </defs>
  <g id="Grupo_1114375" data-name="Grupo 1114375" transform="translate(-390.304 -3802)">
    <g id="Grupo_1114215" data-name="Grupo 1114215" transform="translate(228 1460)">
      <text id="_Medida_-_Centímetro" data-name="*Medida - Centímetro" transform="translate(287.051 3103)" fill="#12263f" font-size="16" font-family="Roboto-Medium, Roboto" font-weight="500"><tspan x="-76.711" y="15">*Medida - Centímetro</tspan></text>
      <text id="_P_Contorno_de_pecho" data-name="*P = Contorno de pecho" transform="translate(484.051 3103)" fill="#12263f" font-size="16" font-family="Roboto-Medium, Roboto" font-weight="500"><tspan x="-85.023" y="15">*P = Contorno de pecho</tspan></text>
      <text id="_Costura_-_No_incluida" data-name="*Costura - No incluida" transform="translate(695.051 3103)" fill="#12263f" font-size="16" font-family="Roboto-Medium, Roboto" font-weight="500"><tspan x="-78.461" y="15">*Costura - No incluida</tspan></text>
    </g>
    <g id="Grupo_1114213" data-name="Grupo 1114213" transform="translate(390.304 3802)">
      <path id="Trazado_899786" data-name="Trazado 899786" d="M40.014,405.793,13.964,391.858l26.049,33.2" transform="translate(8.919 250.291)" fill="none" stroke="#9d9d9c" stroke-miterlimit="10" stroke-width="0.75"/>
      <line id="Línea_1442" data-name="Línea 1442" x2="328.32" transform="translate(48.933 656.085)" fill="none" stroke="#9d9d9c" stroke-miterlimit="10" stroke-width="0.75"/>
      <g id="Grupo_1114212" data-name="Grupo 1114212">
        <g id="Grupo_1114211" data-name="Grupo 1114211" clip-path="url(#clip-path)">
          <path id="Trazado_899787" data-name="Trazado 899787" d="M29.86,234.471s1.085-.914,3.125-2.365" transform="translate(19.072 148.253)" fill="none" stroke="#9d9d9c" stroke-miterlimit="10" stroke-width="0.75"/>
          <path id="Trazado_899788" data-name="Trazado 899788" d="M33.33,237.705c15.45-10.168,60.481-33.279,111.44.955" transform="translate(21.289 140.905)" fill="none" stroke="#9d9d9c" stroke-miterlimit="10" stroke-width="0.75" stroke-dasharray="4.717 1.886"/>
          <path id="Trazado_899789" data-name="Trazado 899789" d="M101.794,231.981q1.652,1.165,3.312,2.412s1.188-.885,3.381-2.3" transform="translate(65.019 148.173)" fill="none" stroke="#9d9d9c" stroke-miterlimit="10" stroke-width="0.75"/>
          <path id="Trazado_899790" data-name="Trazado 899790" d="M107.205,238.066c18.075-10.976,67.157-36.083,113.857,5.6,0,0,39.942,61.624,87.611,0" transform="translate(68.475 140.838)" fill="none" stroke="#9d9d9c" stroke-miterlimit="10" stroke-width="0.75" stroke-dasharray="5.099 2.04"/>
          <path id="Trazado_899791" data-name="Trazado 899791" d="M230.148,289.041c81.093,90.822,151.833-70.269,96.716-139.576" transform="translate(147.003 95.468)" fill="none" stroke="#9d9d9c" stroke-miterlimit="10" stroke-width="0.75" stroke-dasharray="5.044 2.018"/>
          <path id="Trazado_899792" data-name="Trazado 899792" d="M289.519,151.242q-1.155-1.664-2.386-3.332s.88-1.185,2.3-3.384" transform="translate(183.401 92.313)" fill="none" stroke="#9d9d9c" stroke-miterlimit="10" stroke-width="0.75"/>
          <path id="Trazado_899793" data-name="Trazado 899793" d="M292.55,195.041c10.957-18.046,32.612-83.02-6.386-133.825" transform="translate(182.782 39.101)" fill="none" stroke="#9d9d9c" stroke-miterlimit="10" stroke-width="0.75" stroke-dasharray="4.861 1.945"/>
          <path id="Trazado_899794" data-name="Trazado 899794" d="M174.166,231.166s-1.013-1.093-2.615-3.143" transform="translate(109.575 145.645)" fill="none" stroke="#9d9d9c" stroke-miterlimit="10" stroke-width="0.75"/>
          <path id="Trazado_899795" data-name="Trazado 899795" d="M176.541,268.682c-11.3-15.627-32.1-59.492,5.441-108.6" transform="translate(102.532 102.252)" fill="none" stroke="#9d9d9c" stroke-miterlimit="10" stroke-width="0.75" stroke-dasharray="5.223 2.089"/>
          <path id="Trazado_899796" data-name="Trazado 899796" d="M174.158,161.206q1.249-1.585,2.586-3.179s-.962-1.137-2.5-3.241" transform="translate(111.24 98.866)" fill="none" stroke="#9d9d9c" stroke-miterlimit="10" stroke-width="0.75"/>
          <path id="Trazado_899797" data-name="Trazado 899797" d="M181.2,198.7c-11.2-16.453-38.677-70.154,2.189-117" transform="translate(103.305 52.184)" fill="none" stroke="#9d9d9c" stroke-miterlimit="10" stroke-width="0.75" stroke-dasharray="5.164 2.066"/>
          <line id="Línea_1443" data-name="Línea 1443" y2="271.575" transform="translate(377.254 384.509)" fill="none" stroke="#9d9d9c" stroke-miterlimit="10" stroke-width="1"/>
          <line id="Línea_1444" data-name="Línea 1444" y2="291.299" transform="translate(170.16 383.971)" fill="none" stroke="#9d9d9c" stroke-miterlimit="10" stroke-width="0.75"/>
          <line id="Línea_1445" data-name="Línea 1445" y2="298.57" transform="translate(468.945 85.401)" fill="none" stroke="#9d9d9c" stroke-miterlimit="10" stroke-width="0.5"/>
          <line id="Línea_1446" data-name="Línea 1446" x1="42.81" transform="translate(415.315 99.679)" fill="none" stroke="#9d9d9c" stroke-miterlimit="10" stroke-width="0.5"/>
          <line id="Línea_1447" data-name="Línea 1447" y2="299.603" transform="translate(289.539 84.907)" fill="none" stroke="#9d9d9c" stroke-miterlimit="10" stroke-width="0.5"/>
          <path id="Trazado_899798" data-name="Trazado 899798" d="M110.062,268.489S58.9,272.058,30.615,235.167" transform="translate(19.555 150.208)" fill="none" stroke="#9d9d9c" stroke-miterlimit="10" stroke-width="0.75"/>
          <path id="Trazado_899799" data-name="Trazado 899799" d="M131.731,269.761s31.862-.111,73.667-35.123" transform="translate(84.141 149.87)" fill="none" stroke="#9d9d9c" stroke-miterlimit="10" stroke-width="0.75"/>
          <path id="Trazado_899800" data-name="Trazado 899800" d="M384.125,263.124s68.868,1.24,89.786-28.814" transform="translate(245.352 149.661)" fill="none" stroke="#9d9d9c" stroke-miterlimit="10" stroke-width="0.75"/>
          <path id="Trazado_899801" data-name="Trazado 899801" d="M360.98,261.921s-51.974-.157-74.816-27.611" transform="translate(182.782 149.661)" fill="none" stroke="#9d9d9c" stroke-miterlimit="10" stroke-width="0.75"/>
          <path id="Trazado_899802" data-name="Trazado 899802" d="M133.15,193.221l-3.641,6.307h7.283Z" transform="translate(82.721 123.416)"/>
          <path id="Trazado_899803" data-name="Trazado 899803" d="M325.512,199.1l-3.641,6.307h7.283Z" transform="translate(205.589 127.169)"/>
          <path id="Trazado_899804" data-name="Trazado 899804" d="M79.178,127.777l-4.131,7.156h8.262Z" transform="translate(47.935 81.615)"/>
          <path id="Trazado_899805" data-name="Trazado 899805" d="M46.776,127.777l-4.131,7.156h8.262Z" transform="translate(27.238 81.615)"/>
          <path id="Trazado_899806" data-name="Trazado 899806" d="M111.024,89.942,106.893,97.1h8.262Z" transform="translate(68.276 57.449)"/>
          <path id="Trazado_899807" data-name="Trazado 899807" d="M250.462,62.437l7.156,4.131-1.639-4.131,1.639-4.131Z" transform="translate(159.978 37.242)"/>
          <path id="Trazado_899808" data-name="Trazado 899808" d="M187.919,247.51l-37.9-45.077,72.429,22.537" transform="translate(95.822 129.3)" fill="none" stroke="#9d9d9c" stroke-miterlimit="10" stroke-width="0.75"/>
          <path id="Trazado_899809" data-name="Trazado 899809" d="M297.617,254.81l49.206-52.6-78.59,24.125" transform="translate(171.328 129.161)" fill="none" stroke="#9d9d9c" stroke-miterlimit="10" stroke-width="0.75"/>
          <path id="Trazado_899810" data-name="Trazado 899810" d="M230.595,235.713c5.272,1.5,20.112,14.375,40.226,3.153" transform="translate(147.288 150.557)" fill="none" stroke="#9d9d9c" stroke-miterlimit="10" stroke-width="0.75" stroke-dasharray="5.23 2.092"/>
          <path id="Trazado_899811" data-name="Trazado 899811" d="M255.958,238.082a36.4,36.4,0,0,0,2.956-2.837,23.608,23.608,0,0,0,2.919,2.863" transform="translate(163.488 150.258)" fill="none" stroke="#9d9d9c" stroke-miterlimit="10" stroke-width="0.75"/>
          <path id="Trazado_899812" data-name="Trazado 899812" d="M260.632,239.426c5.1,3.276,23.575,9.89,41.838-4.485" transform="translate(166.474 150.064)" fill="none" stroke="#9d9d9c" stroke-miterlimit="10" stroke-width="0.75" stroke-dasharray="5.662 2.265"/>
          <path id="Trazado_899813" data-name="Trazado 899813" d="M248.121,238.034l-3.641,6.308h7.283Z" transform="translate(156.156 152.04)"/>
          <path id="Trazado_899814" data-name="Trazado 899814" d="M274.577,238.034l-3.641,6.308h7.283Z" transform="translate(173.055 152.04)"/>
          <line id="Línea_1448" data-name="Línea 1448" y1="28.807" x2="28.987" transform="translate(289.539 355.701)" fill="none" stroke="#9d9d9c" stroke-miterlimit="10" stroke-width="0.75"/>
          <line id="Línea_1449" data-name="Línea 1449" x1="29.923" y1="27.713" transform="translate(439.022 356.259)" fill="none" stroke="#9d9d9c" stroke-miterlimit="10" stroke-width="0.75"/>
          <line id="Línea_1450" data-name="Línea 1450" x2="670.331" transform="translate(48.933 383.971)" fill="none" stroke="#9d9d9c" stroke-miterlimit="10" stroke-width="0.75"/>
          <path id="Trazado_899815" data-name="Trazado 899815" d="M106.577,114c-17.033,23.727-36.85,12.8-44.151,4.164" transform="translate(39.873 72.815)" fill="none" stroke="#9d9d9c" stroke-miterlimit="10" stroke-width="0.5" stroke-dasharray="4.896 1.958"/>
          <path id="Trazado_899816" data-name="Trazado 899816" d="M63.777,117.05a37.878,37.878,0,0,1-2.73-3.05q-1.232,1.75-2.507,3.246" transform="translate(37.391 72.815)" fill="none" stroke="#9d9d9c" stroke-miterlimit="10" stroke-width="0.5"/>
          <path id="Trazado_899817" data-name="Trazado 899817" d="M74.658,120.04c-17.284,18.465-37.463,2.609-44.8-6.693" transform="translate(19.072 72.398)" fill="none" stroke="#9d9d9c" stroke-miterlimit="10" stroke-width="0.5" stroke-dasharray="4.937 1.975"/>
          <line id="Línea_1451" data-name="Línea 1451" y1="100.838" transform="translate(146.599 84.907)" fill="none" stroke="#9d9d9c" stroke-miterlimit="10" stroke-width="0.75"/>
          <path id="Trazado_899818" data-name="Trazado 899818" d="M70.383,93.442h54.283L101.495,126.06" transform="translate(44.956 59.685)" fill="none" stroke="#9d9d9c" stroke-miterlimit="10" stroke-width="0.5"/>
          <path id="Trazado_899819" data-name="Trazado 899819" d="M439.229,51.772,461.584,39.08l-23.16,21.359" transform="translate(280.035 24.962)" fill="none" stroke="#9d9d9c" stroke-miterlimit="10" stroke-width="0.5"/>
          <path id="Trazado_899820" data-name="Trazado 899820" d="M438.915,46.825,467.831,89.39l-28.26,42.564" transform="translate(280.349 29.909)" fill="none" stroke="#9d9d9c" stroke-miterlimit="10" stroke-width="0.5"/>
          <path id="Trazado_899821" data-name="Trazado 899821" d="M375.164,41.173l24.448-24.391L385.422,49.6" transform="translate(239.629 10.72)" fill="none" stroke="#9d9d9c" stroke-miterlimit="10" stroke-width="0.5"/>
          <path id="Trazado_899822" data-name="Trazado 899822" d="M176.685,59.524,219.921,39.74l-43.236,66.734" transform="translate(112.854 25.383)" fill="none" stroke="#9d9d9c" stroke-miterlimit="10" stroke-width="0.5"/>
          <path id="Trazado_899823" data-name="Trazado 899823" d="M291.692,71.536,277.454,37.811,278.8,76.165" transform="translate(177.219 24.151)" fill="none" stroke="#9d9d9c" stroke-miterlimit="10" stroke-width="0.5"/>
          <path id="Trazado_899824" data-name="Trazado 899824" d="M287.753,52.114l42.8,19.717-44.387-4.8" transform="translate(182.781 33.287)" fill="none" stroke="#9d9d9c" stroke-miterlimit="10" stroke-width="0.5"/>
          <path id="Trazado_899825" data-name="Trazado 899825" d="M385.422,40.093,375.267,64.237l-.1-32.57" transform="translate(239.628 20.227)" fill="none" stroke="#9d9d9c" stroke-miterlimit="10" stroke-width="0.5"/>
          <path id="Trazado_899826" data-name="Trazado 899826" d="M29.667,51.64V152.76H127.5L95.7,122.081" transform="translate(18.949 32.984)" fill="none" stroke="#9d9d9c" stroke-miterlimit="10" stroke-width="0.5"/>
          <path id="Trazado_899827" data-name="Trazado 899827" d="M6.531,88.823s6.876,31.76,38,40.187" transform="translate(4.172 56.734)" fill="none" stroke="#9d9d9c" stroke-miterlimit="10" stroke-width="0.5"/>
          <path id="Trazado_899828" data-name="Trazado 899828" d="M8.146,87.844s2.937-29.115,35.428-35.729" transform="translate(5.203 33.287)" fill="none" stroke="#9d9d9c" stroke-miterlimit="10" stroke-width="0.5"/>
          <path id="Trazado_899829" data-name="Trazado 899829" d="M29.765,63.189s.646-19.206,22.1-28.414" transform="translate(19.012 22.212)" fill="none" stroke="#9d9d9c" stroke-miterlimit="10" stroke-width="0.5"/>
          <path id="Trazado_899830" data-name="Trazado 899830" d="M99.983,63.347s2.486-13.311-27-29.591" transform="translate(46.616 21.561)" fill="none" stroke="#9d9d9c" stroke-miterlimit="10" stroke-width="0.5"/>
          <path id="Trazado_899831" data-name="Trazado 899831" d="M341.5,21.9S282.174,41.5,278.277,86.329" transform="translate(177.744 13.988)" fill="none" stroke="#9d9d9c" stroke-miterlimit="10" stroke-width="0.5"/>
          <path id="Trazado_899832" data-name="Trazado 899832" d="M399.573,40.456S390.826,14.9,336.949,18.2" transform="translate(215.22 11.437)" fill="none" stroke="#9d9d9c" stroke-miterlimit="10" stroke-width="0.5"/>
          <path id="Trazado_899833" data-name="Trazado 899833" d="M426.063,83.311s12.1-3.925,21.717-27.288" transform="translate(272.139 35.784)" fill="none" stroke="#9d9d9c" stroke-miterlimit="10" stroke-width="0.5"/>
          <path id="Trazado_899834" data-name="Trazado 899834" d="M382.057,74.331s-5.075-8.51-6.83-22.788" transform="translate(239.669 32.922)" fill="none" stroke="#9d9d9c" stroke-miterlimit="10" stroke-width="0.5"/>
          <path id="Trazado_899835" data-name="Trazado 899835" d="M90.038,62.916s13.606-22.342,47.656-28.486" transform="translate(57.51 21.991)" fill="none" stroke="#9d9d9c" stroke-miterlimit="10" stroke-width="0.5"/>
          <path id="Trazado_899836" data-name="Trazado 899836" d="M213.465,113.544s-7.128-51.166-67.824-76.158" transform="translate(93.025 23.88)" fill="none" stroke="#9d9d9c" stroke-miterlimit="10" stroke-width="0.5"/>
          <line id="Línea_1452" data-name="Línea 1452" x2="669.682" transform="translate(48.778 85.401)" fill="none" stroke="#9d9d9c" stroke-miterlimit="10" stroke-width="1"/>
          <path id="Trazado_899837" data-name="Trazado 899837" d="M29.86,165.449V655.056H155.549l201.836-19.267H700.191V56.439S623.184,61.863,596.1,31.776L436.949,80.02s10.517,66.465,11.733,109.846,1.19,173.81-90.5,173.011c-77.836-.68-98.457-102.937-83.718-184.342,10.229-56.489,12.954-61.407,12.954-61.407L127.525,64.611S124.8,147.621,29.86,165.449Z" transform="translate(19.072 20.296)" fill="none" stroke="#000" stroke-linecap="round" stroke-linejoin="round" stroke-width="1"/>
          <line id="Línea_1453" data-name="Línea 1453" x1="255.724" transform="translate(464.195 161.862)" fill="none" stroke="#000" stroke-miterlimit="10" stroke-width="0.75"/>
          <line id="Línea_1454" data-name="Línea 1454" y1="16.104" x2="100.466" transform="translate(465.771 161.863)" fill="none" stroke="#000" stroke-miterlimit="10" stroke-width="0.75"/>
          <path id="Trazado_899838" data-name="Trazado 899838" d="M298.392,114.877l-36.344-9.518,34.769-6.586" transform="translate(167.378 63.09)" fill="none" stroke="#9d9d9c" stroke-miterlimit="10" stroke-width="0.5"/>
          <path id="Trazado_899839" data-name="Trazado 899839" d="M370.657,99.694l-18.169,35.388-3.74-35.932" transform="translate(222.757 63.33)" fill="none" stroke="#9d9d9c" stroke-miterlimit="10" stroke-width="0.5"/>
          <path id="Trazado_899840" data-name="Trazado 899840" d="M283.265,107.986s66.754-53.183,127.862,0c64.3,55.964,127.862,0,127.862,0" transform="translate(180.93 53.876)" fill="none" stroke="#9d9d9c" stroke-miterlimit="10" stroke-width="0.75" stroke-dasharray="5.044 2.018"/>
          <path id="Trazado_899841" data-name="Trazado 899841" d="M243.657,435.342h3.133v1.35h-3.133v3.551H242.22v-3.551h-3.133v-1.35h3.133v-3.281h1.437Z" transform="translate(152.712 275.97)"/>
          <path id="Trazado_899842" data-name="Trazado 899842" d="M245.314,436.487l.572-5.6h5.757V432.2H247.1l-.339,3.064a3.626,3.626,0,0,1,1.875-.487,3.1,3.1,0,0,1,2.44,1.014,3.977,3.977,0,0,1,.9,2.745,3.841,3.841,0,0,1-.937,2.737,3.418,3.418,0,0,1-2.62,1,3.55,3.55,0,0,1-2.432-.826,3.292,3.292,0,0,1-1.073-2.284h1.35a2.263,2.263,0,0,0,.688,1.454,2.13,2.13,0,0,0,1.467.49,1.926,1.926,0,0,0,1.563-.678,2.845,2.845,0,0,0,.565-1.875,2.6,2.6,0,0,0-.613-1.811,2.088,2.088,0,0,0-1.632-.683,2.36,2.36,0,0,0-1.467.408l-.379.31Z" transform="translate(156.433 275.218)"/>
          <path id="Trazado_899843" data-name="Trazado 899843" d="M228.949,432.533v4.4h-1.483V425.693h4.146a4.168,4.168,0,0,1,2.891.944,3.191,3.191,0,0,1,1.046,2.492,3.149,3.149,0,0,1-1.023,2.52,4.348,4.348,0,0,1-2.93.883Zm0-1.211h2.663a2.66,2.66,0,0,0,1.821-.56,2.047,2.047,0,0,0,.634-1.621,2.119,2.119,0,0,0-.634-1.609,2.481,2.481,0,0,0-1.735-.624h-2.748Z" transform="translate(145.289 271.903)"/>
          <path id="Trazado_899844" data-name="Trazado 899844" d="M235.023,448.768h-7.364v-1.026l3.892-4.325a9.171,9.171,0,0,0,1.191-1.593,2.649,2.649,0,0,0,.329-1.27,2.018,2.018,0,0,0-.534-1.444,1.854,1.854,0,0,0-1.419-.562,2.213,2.213,0,0,0-1.657.6,2.318,2.318,0,0,0-.59,1.686h-1.427a3.314,3.314,0,0,1,1-2.507,3.707,3.707,0,0,1,2.676-.957,3.566,3.566,0,0,1,2.478.821,2.806,2.806,0,0,1,.913,2.189q0,1.659-2.116,3.951l-3.012,3.266h5.642Z" transform="translate(145.275 279.365)"/>
          <line id="Línea_1455" data-name="Línea 1455" x1="21.571" transform="translate(365.653 712.063)"/>
          <line id="Línea_1456" data-name="Línea 1456" x1="21.571" transform="translate(365.653 712.063)" fill="none" stroke="#000" stroke-miterlimit="10" stroke-width="0.75"/>
          <path id="Trazado_899845" data-name="Trazado 899845" d="M10.863,380.458H6.154L5.095,383.4H3.566l4.293-11.238h1.3l4.3,11.238H11.935ZM6.6,379.247h3.822L8.507,373.99Z" transform="translate(2.278 237.711)"/>
          <path id="Trazado_899846" data-name="Trazado 899846" d="M10.015,383.93v1.211H9.751a3.765,3.765,0,0,0-2.655.99,4.1,4.1,0,0,0-1.142,2.692,3.049,3.049,0,0,1,2.424-1.018,2.913,2.913,0,0,1,2.343,1.034,4.536,4.536,0,0,1-.07,5.45,3.255,3.255,0,0,1-2.535,1.042A3.206,3.206,0,0,1,5.5,394.093,4.9,4.9,0,0,1,4.494,390.9v-.549A7.4,7.4,0,0,1,5.82,385.61a4.863,4.863,0,0,1,3.94-1.68Zm-1.876,5.064a2.4,2.4,0,0,0-2.207,1.544v.526a3.693,3.693,0,0,0,.624,2.239,1.874,1.874,0,0,0,1.56.849,1.816,1.816,0,0,0,1.517-.71,3.407,3.407,0,0,0-.008-3.731,1.792,1.792,0,0,0-1.486-.716" transform="translate(2.87 245.228)"/>
          <line id="Línea_1457" data-name="Línea 1457" x1="21.571" transform="translate(0 624.335)"/>
          <line id="Línea_1458" data-name="Línea 1458" x1="21.571" transform="translate(0 624.335)" fill="none" stroke="#000" stroke-miterlimit="10" stroke-width="0.75"/>
          <path id="Trazado_899847" data-name="Trazado 899847" d="M93.913,257.656v4.4H92.43V250.814h4.146a4.169,4.169,0,0,1,2.891.946,3.19,3.19,0,0,1,1.046,2.491,3.155,3.155,0,0,1-1.023,2.522,4.347,4.347,0,0,1-2.93.883Zm0-1.213h2.663a2.668,2.668,0,0,0,1.821-.559,2.047,2.047,0,0,0,.634-1.621,2.119,2.119,0,0,0-.634-1.609,2.473,2.473,0,0,0-1.735-.624H93.913Z" transform="translate(59.038 160.203)"/>
          <path id="Trazado_899848" data-name="Trazado 899848" d="M110.5,260.528h3.133v1.35H110.5v3.551h-1.437v-3.551h-3.133v-1.35h3.133v-3.281H110.5Z" transform="translate(67.658 164.312)"/>
          <path id="Trazado_899849" data-name="Trazado 899849" d="M112.153,261.674l.572-5.6h5.757v1.321h-4.546l-.339,3.064a3.625,3.625,0,0,1,1.875-.487,3.1,3.1,0,0,1,2.44,1.014,3.977,3.977,0,0,1,.9,2.745,3.841,3.841,0,0,1-.937,2.737,3.418,3.418,0,0,1-2.62,1,3.551,3.551,0,0,1-2.432-.826,3.293,3.293,0,0,1-1.073-2.284h1.35a2.263,2.263,0,0,0,.688,1.454,2.13,2.13,0,0,0,1.467.49,1.926,1.926,0,0,0,1.563-.678,2.845,2.845,0,0,0,.565-1.875,2.6,2.6,0,0,0-.613-1.811,2.088,2.088,0,0,0-1.632-.683,2.36,2.36,0,0,0-1.467.408l-.379.31Z" transform="translate(71.379 163.56)"/>
          <path id="Trazado_899850" data-name="Trazado 899850" d="M443.731,200.945a10.7,10.7,0,0,1-3.407,7.124,11.164,11.164,0,0,1-7.622,2.507,10.248,10.248,0,0,1-8.262-3.7q-3.107-3.7-3.107-9.89v-2.8a16.556,16.556,0,0,1,1.449-7.133,10.8,10.8,0,0,1,4.107-4.725,11.427,11.427,0,0,1,6.153-1.649,10.516,10.516,0,0,1,7.433,2.588,10.842,10.842,0,0,1,3.256,7.163h-3.858a8.363,8.363,0,0,0-2.166-5.051,6.558,6.558,0,0,0-4.665-1.563,6.863,6.863,0,0,0-5.765,2.72q-2.089,2.719-2.088,7.738V197.1a12.818,12.818,0,0,0,1.98,7.54,6.384,6.384,0,0,0,5.534,2.8,7.385,7.385,0,0,0,4.9-1.449q1.708-1.45,2.266-5.046Z" transform="translate(269.118 115.409)" fill="#9d9d9c"/>
          <path id="Trazado_899851" data-name="Trazado 899851" d="M461.538,202.408H449.351l-2.737,7.614h-3.956l11.109-29.092h3.356l11.129,29.092h-3.935Zm-11.029-3.137H460.4l-4.956-13.608Z" transform="translate(282.739 115.565)" fill="#9d9d9c"/>
          <path id="Trazado_899852" data-name="Trazado 899852" d="M35.592,200.945a10.7,10.7,0,0,1-3.407,7.124,11.164,11.164,0,0,1-7.622,2.507,10.248,10.248,0,0,1-8.262-3.7q-3.107-3.7-3.107-9.89v-2.8a16.557,16.557,0,0,1,1.449-7.133,10.8,10.8,0,0,1,4.107-4.725,11.427,11.427,0,0,1,6.153-1.649,10.516,10.516,0,0,1,7.433,2.588,10.842,10.842,0,0,1,3.256,7.163H31.735a8.362,8.362,0,0,0-2.166-5.051,6.558,6.558,0,0,0-4.665-1.563,6.863,6.863,0,0,0-5.765,2.72q-2.089,2.719-2.088,7.738V197.1a12.818,12.818,0,0,0,1.98,7.54,6.384,6.384,0,0,0,5.534,2.8,7.385,7.385,0,0,0,4.9-1.449q1.708-1.45,2.266-5.046Z" transform="translate(8.427 115.409)" fill="#9d9d9c"/>
          <path id="Trazado_899853" data-name="Trazado 899853" d="M52.282,197.173H40.074v12.848H36.238V180.928H54.26v3.138H40.074v9.97H52.282Z" transform="translate(23.146 115.564)" fill="#9d9d9c"/>
          <path id="Trazado_899854" data-name="Trazado 899854" d="M99.928,263.394l-4.656,10.435h-1.5l4.639-10.065H92.332v-1.173h7.6Z" transform="translate(58.975 167.725)"/>
          <line id="Línea_1459" data-name="Línea 1459" x1="21.571" transform="translate(144.365 425.483)"/>
          <line id="Línea_1460" data-name="Línea 1460" x1="21.571" transform="translate(144.365 425.483)" fill="none" stroke="#000" stroke-miterlimit="10" stroke-width="0.75"/>
          <path id="Trazado_899855" data-name="Trazado 899855" d="M349.1,250.162v4.4h-1.481v-11.24h4.144a4.17,4.17,0,0,1,2.892.942,3.2,3.2,0,0,1,1.044,2.494,3.148,3.148,0,0,1-1.023,2.519,4.334,4.334,0,0,1-2.928.885Zm0-1.213h2.663a2.659,2.659,0,0,0,1.822-.56,2.048,2.048,0,0,0,.633-1.619,2.124,2.124,0,0,0-.633-1.609,2.489,2.489,0,0,0-1.737-.626H349.1Z" transform="translate(222.035 155.417)"/>
          <path id="Trazado_899856" data-name="Trazado 899856" d="M365.683,253.035h3.135v1.352h-3.135v3.55h-1.436v-3.55h-3.135v-1.352h3.135v-3.281h1.436Z" transform="translate(230.654 159.526)"/>
          <path id="Trazado_899857" data-name="Trazado 899857" d="M372.357,248.573v1.211h-.264a3.771,3.771,0,0,0-2.655.988,4.105,4.105,0,0,0-1.142,2.694,3.045,3.045,0,0,1,2.424-1.019,2.914,2.914,0,0,1,2.343,1.036,4.534,4.534,0,0,1-.07,5.449,3.255,3.255,0,0,1-2.535,1.042,3.206,3.206,0,0,1-2.615-1.239,4.895,4.895,0,0,1-1.006-3.192V255a7.388,7.388,0,0,1,1.326-4.742,4.858,4.858,0,0,1,3.94-1.68Zm-1.876,5.064a2.4,2.4,0,0,0-2.207,1.544v.526a3.694,3.694,0,0,0,.624,2.239,1.876,1.876,0,0,0,1.56.847,1.816,1.816,0,0,0,1.517-.71,3.406,3.406,0,0,0-.008-3.731,1.8,1.8,0,0,0-1.486-.714" transform="translate(234.309 158.771)"/>
          <path id="Trazado_899858" data-name="Trazado 899858" d="M355.117,255.9l-4.656,10.437h-1.5l4.639-10.065H347.52V255.1h7.6Z" transform="translate(221.971 162.938)"/>
          <line id="Línea_1461" data-name="Línea 1461" x1="21.571" transform="translate(562.55 413.205)"/>
          <line id="Línea_1462" data-name="Línea 1462" x1="21.571" transform="translate(562.55 413.205)" fill="none" stroke="#000" stroke-miterlimit="10" stroke-width="0.75"/>
          <path id="Trazado_899859" data-name="Trazado 899859" d="M479.583,148.592v4.4H478.1V141.752h4.144a4.17,4.17,0,0,1,2.892.944,3.2,3.2,0,0,1,1.044,2.492,3.149,3.149,0,0,1-1.023,2.52,4.342,4.342,0,0,1-2.928.883Zm0-1.211h2.663a2.668,2.668,0,0,0,1.822-.56,2.052,2.052,0,0,0,.633-1.621,2.124,2.124,0,0,0-.633-1.609,2.488,2.488,0,0,0-1.737-.624h-2.748Z" transform="translate(305.378 90.541)"/>
          <path id="Trazado_899860" data-name="Trazado 899860" d="M493.259,151.466h3.135v1.35h-3.135v3.551h-1.436v-3.551h-3.135v-1.35h3.135v-3.281h1.436Z" transform="translate(312.14 94.65)"/>
          <path id="Trazado_899861" data-name="Trazado 899861" d="M499.9,153.366a3.487,3.487,0,0,1-1.07.857,2.89,2.89,0,0,1-1.362.324,3.007,3.007,0,0,1-1.694-.479,3.1,3.1,0,0,1-1.114-1.349,4.558,4.558,0,0,1-.395-1.916,4.666,4.666,0,0,1,.429-2.032,3.154,3.154,0,0,1,1.216-1.381,3.465,3.465,0,0,1,1.837-.479,3.136,3.136,0,0,1,2.629,1.247,5.442,5.442,0,0,1,.962,3.4v.418a7.271,7.271,0,0,1-1.3,4.79,4.983,4.983,0,0,1-3.913,1.549h-.279V157.1h.3a3.4,3.4,0,0,0,3.751-3.736m-2.2,0a2.209,2.209,0,0,0,1.324-.441,2.6,2.6,0,0,0,.883-1.088v-.57a3.937,3.937,0,0,0-.61-2.286,1.865,1.865,0,0,0-3.058-.157,2.977,2.977,0,0,0-.57,1.9,3.1,3.1,0,0,0,.552,1.9,1.745,1.745,0,0,0,1.478.744" transform="translate(315.7 93.838)"/>
          <path id="Trazado_899862" data-name="Trazado 899862" d="M483.783,153.523v1.211h-.264a3.762,3.762,0,0,0-2.655.99,4.1,4.1,0,0,0-1.142,2.692,3.049,3.049,0,0,1,2.424-1.018,2.907,2.907,0,0,1,2.342,1.034,4.533,4.533,0,0,1-.069,5.45,3.256,3.256,0,0,1-2.537,1.042,3.2,3.2,0,0,1-2.614-1.239,4.9,4.9,0,0,1-1.006-3.192v-.549a7.4,7.4,0,0,1,1.326-4.742,4.863,4.863,0,0,1,3.939-1.68Zm-1.876,5.064a2.4,2.4,0,0,0-2.207,1.544v.526a3.694,3.694,0,0,0,.624,2.239,1.871,1.871,0,0,0,1.558.849,1.814,1.814,0,0,0,1.517-.71,3.4,3.4,0,0,0-.007-3.731,1.794,1.794,0,0,0-1.486-.716" transform="translate(305.48 98.06)"/>
          <line id="Línea_1463" data-name="Línea 1463" x1="21.571" transform="translate(776.377 246.76)"/>
          <line id="Línea_1464" data-name="Línea 1464" x1="21.571" transform="translate(776.377 246.76)" fill="none" stroke="#000" stroke-miterlimit="10" stroke-width="0.75"/>
          <path id="Trazado_899863" data-name="Trazado 899863" d="M468.15,71.427v4.4h-1.481V64.587h4.144a4.17,4.17,0,0,1,2.892.942,3.2,3.2,0,0,1,1.044,2.494,3.148,3.148,0,0,1-1.023,2.519,4.334,4.334,0,0,1-2.928.885Zm0-1.213h2.663a2.66,2.66,0,0,0,1.822-.56,2.048,2.048,0,0,0,.633-1.619,2.124,2.124,0,0,0-.633-1.609A2.489,2.489,0,0,0,470.9,65.8H468.15Z" transform="translate(298.076 41.254)"/>
          <path id="Trazado_899864" data-name="Trazado 899864" d="M466.342,40.186a6.556,6.556,0,0,1-.855,3.73,3.559,3.559,0,0,1-5.342.025,6.178,6.178,0,0,1-.9-3.561V38.472a6.4,6.4,0,0,1,.855-3.682,3.629,3.629,0,0,1,5.359-.043,6.169,6.169,0,0,1,.88,3.587Zm-1.427-1.953a5.22,5.22,0,0,0-.511-2.643,1.753,1.753,0,0,0-1.613-.829,1.732,1.732,0,0,0-1.6.826,5.1,5.1,0,0,0-.518,2.54v2.284A5.324,5.324,0,0,0,461.2,43.1a1.754,1.754,0,0,0,1.6.867,1.725,1.725,0,0,0,1.57-.818,5.128,5.128,0,0,0,.538-2.578Z" transform="translate(293.336 21.453)"/>
          <path id="Trazado_899865" data-name="Trazado 899865" d="M464.8,40.418a.9.9,0,0,1,.22-.616.835.835,0,0,1,.66-.246.857.857,0,0,1,.667.246.874.874,0,0,1,.228.616.82.82,0,0,1-.228.595.872.872,0,0,1-.667.239.793.793,0,0,1-.88-.834" transform="translate(296.883 25.266)"/>
          <path id="Trazado_899866" data-name="Trazado 899866" d="M469.389,38.665h1.073a2.364,2.364,0,0,0,1.591-.531,1.785,1.785,0,0,0,.578-1.4,1.744,1.744,0,0,0-1.97-1.976,2.051,2.051,0,0,0-1.476.528,1.849,1.849,0,0,0-.552,1.4H467.2a2.866,2.866,0,0,1,.978-2.22,3.553,3.553,0,0,1,2.479-.883,3.515,3.515,0,0,1,2.494.841,3.04,3.04,0,0,1,.9,2.34,2.465,2.465,0,0,1-.475,1.419,2.882,2.882,0,0,1-1.295,1.027,2.767,2.767,0,0,1,1.434.973,2.691,2.691,0,0,1,.5,1.658,3.064,3.064,0,0,1-.988,2.4,3.7,3.7,0,0,1-2.571.888,3.8,3.8,0,0,1-2.573-.857,2.842,2.842,0,0,1-.993-2.261h1.435a1.837,1.837,0,0,0,.58,1.421,2.2,2.2,0,0,0,1.55.531,2.16,2.16,0,0,0,1.583-.539,2.082,2.082,0,0,0,.549-1.552,1.888,1.888,0,0,0-.6-1.5,2.616,2.616,0,0,0-1.737-.541h-1.073Z" transform="translate(298.354 21.453)"/>
          <path id="Trazado_899867" data-name="Trazado 899867" d="M468.614,87.623H467.18V78.1L464.3,79.163v-1.3l4.09-1.537h.225Z" transform="translate(296.562 48.754)"/>
          <path id="Trazado_899868" data-name="Trazado 899868" d="M475.72,83.828h1.558v1.165H475.72V87.6h-1.435v-2.61h-5.119v-.841l5.034-7.791h1.521Zm-4.933,0h3.5V78.317l-.172.308Z" transform="translate(299.67 48.775)"/>
          <line id="Línea_1465" data-name="Línea 1465" x1="21.571" transform="translate(757.64 120.306)"/>
          <line id="Línea_1466" data-name="Línea 1466" x1="21.571" transform="translate(757.64 120.306)" fill="none" stroke="#000" stroke-miterlimit="10" stroke-width="0.75"/>
          <path id="Trazado_899869" data-name="Trazado 899869" d="M401.243,8.3h-4.708l-1.059,2.942h-1.529L398.24,0h1.3l4.3,11.24h-1.521Zm-4.261-1.211h3.82L398.888,1.83Z" transform="translate(251.626)"/>
          <path id="Trazado_899870" data-name="Trazado 899870" d="M396.982,16.759h1.072a2.358,2.358,0,0,0,1.591-.531,1.786,1.786,0,0,0,.58-1.4,1.744,1.744,0,0,0-1.97-1.976,2.055,2.055,0,0,0-1.478.528,1.849,1.849,0,0,0-.552,1.4H394.8a2.865,2.865,0,0,1,.977-2.22,3.56,3.56,0,0,1,2.481-.883,3.518,3.518,0,0,1,2.494.841,3.045,3.045,0,0,1,.9,2.34,2.475,2.475,0,0,1-.474,1.419,2.882,2.882,0,0,1-1.295,1.027,2.755,2.755,0,0,1,1.432.973,2.692,2.692,0,0,1,.5,1.658,3.063,3.063,0,0,1-.987,2.4,3.7,3.7,0,0,1-2.571.888,3.8,3.8,0,0,1-2.574-.857,2.847,2.847,0,0,1-.993-2.261h1.436a1.843,1.843,0,0,0,.58,1.421,2.208,2.208,0,0,0,1.552.531,2.163,2.163,0,0,0,1.583-.539,2.081,2.081,0,0,0,.547-1.552,1.888,1.888,0,0,0-.6-1.5,2.621,2.621,0,0,0-1.739-.541h-1.072Z" transform="translate(252.104 7.461)"/>
          <line id="Línea_1467" data-name="Línea 1467" x1="21.571" transform="translate(639.728 14.465)"/>
          <line id="Línea_1468" data-name="Línea 1468" x1="21.571" transform="translate(639.728 14.465)" fill="none" stroke="#000" stroke-miterlimit="10" stroke-width="0.75"/>
          <path id="Trazado_899871" data-name="Trazado 899871" d="M327.792,65.117h-4.71l-1.059,2.942h-1.529l4.293-11.238h1.3l4.3,11.238h-1.521Zm-4.262-1.211h3.822l-1.916-5.257Z" transform="translate(204.71 36.293)"/>
          <path id="Trazado_899872" data-name="Trazado 899872" d="M324.322,25.38V14.142H328a4.261,4.261,0,0,1,2.751.757,2.724,2.724,0,0,1,.923,2.239,2.288,2.288,0,0,1-.447,1.391,2.916,2.916,0,0,1-1.219.939,2.587,2.587,0,0,1,1.437.968,2.771,2.771,0,0,1,.531,1.7,3.012,3.012,0,0,1-.982,2.379,4.059,4.059,0,0,1-2.771.864Zm1.483-6.447h2.237a2.34,2.34,0,0,0,1.555-.485,1.635,1.635,0,0,0,.585-1.324,1.6,1.6,0,0,0-.541-1.349A2.65,2.65,0,0,0,328,15.353h-2.193Zm0,1.19v4.046h2.447a2.363,2.363,0,0,0,1.632-.536,1.891,1.891,0,0,0,.6-1.48q0-2.03-2.207-2.03Z" transform="translate(207.154 9.033)"/>
          <path id="Trazado_899873" data-name="Trazado 899873" d="M356.466,136.235H349.1V135.21l3.89-4.325a9.086,9.086,0,0,0,1.191-1.593,2.649,2.649,0,0,0,.329-1.27,2.018,2.018,0,0,0-.534-1.444,1.854,1.854,0,0,0-1.419-.562,2.213,2.213,0,0,0-1.657.6,2.318,2.318,0,0,0-.59,1.686h-1.427a3.309,3.309,0,0,1,1-2.507,3.7,3.7,0,0,1,2.674-.957,3.561,3.561,0,0,1,2.478.821,2.806,2.806,0,0,1,.913,2.189q0,1.659-2.116,3.951l-3.01,3.266h5.642Z" transform="translate(222.843 79.741)"/>
          <path id="Trazado_899874" data-name="Trazado 899874" d="M128.087,40.327V29.089h3.676a4.261,4.261,0,0,1,2.751.757,2.724,2.724,0,0,1,.923,2.239,2.288,2.288,0,0,1-.447,1.391,2.916,2.916,0,0,1-1.219.939,2.587,2.587,0,0,1,1.437.968,2.771,2.771,0,0,1,.531,1.7,3.013,3.013,0,0,1-.982,2.379,4.059,4.059,0,0,1-2.771.864Zm1.483-6.447h2.237a2.34,2.34,0,0,0,1.555-.485,1.635,1.635,0,0,0,.585-1.324,1.6,1.6,0,0,0-.541-1.349,2.65,2.65,0,0,0-1.644-.423H129.57Zm0,1.19v4.046h2.447a2.363,2.363,0,0,0,1.632-.536,1.892,1.892,0,0,0,.6-1.48q0-2.03-2.207-2.03Z" transform="translate(81.813 18.58)"/>
          <path id="Trazado_899875" data-name="Trazado 899875" d="M54.192,36.276h-4.71l-1.059,2.942H46.895l4.293-11.238h1.3l4.3,11.238H55.264ZM49.93,35.065h3.822l-1.916-5.257Z" transform="translate(29.953 17.871)"/>
          <rect id="Rectángulo_407517" data-name="Rectángulo 407517" width="3.767" height="1.165" transform="translate(87.233 51.733)"/>
          <path id="Trazado_899876" data-name="Trazado 899876" d="M63.355,34.484a6.556,6.556,0,0,1-.855,3.73,3.559,3.559,0,0,1-5.342.025,6.179,6.179,0,0,1-.9-3.561V32.77a6.4,6.4,0,0,1,.855-3.682,3.629,3.629,0,0,1,5.359-.043,6.168,6.168,0,0,1,.88,3.587Zm-1.427-1.953a5.22,5.22,0,0,0-.511-2.643,1.753,1.753,0,0,0-1.613-.829,1.732,1.732,0,0,0-1.6.826,5.1,5.1,0,0,0-.518,2.54v2.284a5.324,5.324,0,0,0,.529,2.691,1.754,1.754,0,0,0,1.6.867,1.725,1.725,0,0,0,1.57-.818,5.129,5.129,0,0,0,.538-2.578Z" transform="translate(35.936 17.811)"/>
          <path id="Trazado_899877" data-name="Trazado 899877" d="M61.815,34.717a.9.9,0,0,1,.22-.618.84.84,0,0,1,.66-.246.862.862,0,0,1,.667.246.878.878,0,0,1,.228.618.825.825,0,0,1-.228.595.878.878,0,0,1-.667.239.793.793,0,0,1-.88-.834" transform="translate(39.483 21.623)"/>
          <path id="Trazado_899878" data-name="Trazado 899878" d="M64.8,33.583l.572-5.6h5.757V29.3H66.585l-.339,3.064a3.625,3.625,0,0,1,1.875-.487,3.1,3.1,0,0,1,2.44,1.014,3.977,3.977,0,0,1,.9,2.745,3.841,3.841,0,0,1-.937,2.737,3.418,3.418,0,0,1-2.62,1,3.551,3.551,0,0,1-2.432-.826A3.292,3.292,0,0,1,64.4,36.263h1.35a2.263,2.263,0,0,0,.688,1.454,2.13,2.13,0,0,0,1.467.49,1.926,1.926,0,0,0,1.563-.678,2.845,2.845,0,0,0,.565-1.875,2.6,2.6,0,0,0-.613-1.811,2.088,2.088,0,0,0-1.632-.683,2.36,2.36,0,0,0-1.467.408l-.379.31Z" transform="translate(41.135 17.871)"/>
          <rect id="Rectángulo_407518" data-name="Rectángulo 407518" width="3.767" height="1.165" transform="translate(187.887 152.092)"/>
          <path id="Trazado_899879" data-name="Trazado 899879" d="M124.777,95.726a6.543,6.543,0,0,1-.855,3.73,3.559,3.559,0,0,1-5.342.025,6.191,6.191,0,0,1-.9-3.561V94.012a6.4,6.4,0,0,1,.857-3.682,3.071,3.071,0,0,1,2.688-1.2,3.1,3.1,0,0,1,2.671,1.16,6.169,6.169,0,0,1,.878,3.587Zm-1.427-1.953a5.24,5.24,0,0,0-.51-2.643,1.757,1.757,0,0,0-1.613-.829,1.734,1.734,0,0,0-1.6.826,5.106,5.106,0,0,0-.516,2.54v2.284a5.326,5.326,0,0,0,.528,2.691,1.755,1.755,0,0,0,1.6.867,1.726,1.726,0,0,0,1.572-.818,5.131,5.131,0,0,0,.536-2.578Z" transform="translate(75.168 56.928)"/>
          <path id="Trazado_899880" data-name="Trazado 899880" d="M123.237,95.96a.9.9,0,0,1,.221-.618.837.837,0,0,1,.659-.246.864.864,0,0,1,.669.246.885.885,0,0,1,.228.618.832.832,0,0,1-.228.595.879.879,0,0,1-.669.239.851.851,0,0,1-.659-.239.841.841,0,0,1-.221-.595" transform="translate(78.715 60.741)"/>
          <path id="Trazado_899881" data-name="Trazado 899881" d="M127.826,94.205H128.9a2.358,2.358,0,0,0,1.591-.531,1.786,1.786,0,0,0,.58-1.4A1.744,1.744,0,0,0,129.1,90.3a2.055,2.055,0,0,0-1.478.528,1.849,1.849,0,0,0-.552,1.4h-1.427a2.865,2.865,0,0,1,.977-2.22,3.56,3.56,0,0,1,2.481-.883,3.518,3.518,0,0,1,2.494.841,3.044,3.044,0,0,1,.9,2.34,2.475,2.475,0,0,1-.474,1.419,2.883,2.883,0,0,1-1.295,1.027,2.756,2.756,0,0,1,1.432.973,2.692,2.692,0,0,1,.5,1.658,3.063,3.063,0,0,1-.987,2.4,3.7,3.7,0,0,1-2.571.888,3.8,3.8,0,0,1-2.574-.857,2.848,2.848,0,0,1-.993-2.261h1.436a1.843,1.843,0,0,0,.58,1.421,2.208,2.208,0,0,0,1.552.531,2.163,2.163,0,0,0,1.583-.539,2.082,2.082,0,0,0,.547-1.552,1.888,1.888,0,0,0-.6-1.5,2.621,2.621,0,0,0-1.739-.541h-1.072Z" transform="translate(80.186 56.928)"/>
          <path id="Trazado_899882" data-name="Trazado 899882" d="M11.463,87H6.755L5.7,89.939H4.167L8.46,78.7h1.3l4.3,11.24H12.536ZM7.2,85.787h3.82L9.108,80.529Z" transform="translate(2.662 50.267)"/>
          <path id="Trazado_899883" data-name="Trazado 899883" d="M326.945,68.59V69.8h-.264a3.765,3.765,0,0,0-2.655.988,4.105,4.105,0,0,0-1.142,2.694,3.043,3.043,0,0,1,2.424-1.019A2.913,2.913,0,0,1,327.65,73.5a4.531,4.531,0,0,1-.069,5.449,3.256,3.256,0,0,1-2.537,1.042,3.206,3.206,0,0,1-2.615-1.239,4.9,4.9,0,0,1-1-3.192v-.547a7.4,7.4,0,0,1,1.324-4.742,4.864,4.864,0,0,1,3.941-1.68Zm-1.876,5.064a2.409,2.409,0,0,0-2.209,1.544v.526a3.683,3.683,0,0,0,.626,2.239,1.871,1.871,0,0,0,1.558.847,1.814,1.814,0,0,0,1.517-.71,3.406,3.406,0,0,0-.008-3.731,1.792,1.792,0,0,0-1.485-.714" transform="translate(205.303 43.811)"/>
          <line id="Línea_1469" data-name="Línea 1469" x1="21.571" transform="translate(519.361 107.577)"/>
          <line id="Línea_1470" data-name="Línea 1470" x1="21.571" transform="translate(519.361 107.577)" fill="none" stroke="#000" stroke-miterlimit="10" stroke-width="0.75"/>
          <path id="Trazado_899884" data-name="Trazado 899884" d="M255,102.289h-4.71l-1.059,2.942H247.7l4.293-11.238h1.3l4.3,11.238h-1.521Zm-4.262-1.211h3.82l-1.914-5.257Z" transform="translate(158.214 60.036)"/>
          <path id="Trazado_899885" data-name="Trazado 899885" d="M254.149,105.762v1.211h-.264a3.771,3.771,0,0,0-2.655.988,4.105,4.105,0,0,0-1.142,2.694,3.045,3.045,0,0,1,2.424-1.019,2.914,2.914,0,0,1,2.343,1.036,4.534,4.534,0,0,1-.07,5.449,3.255,3.255,0,0,1-2.535,1.042,3.206,3.206,0,0,1-2.615-1.239,4.895,4.895,0,0,1-1.006-3.192v-.547a7.388,7.388,0,0,1,1.326-4.742,4.858,4.858,0,0,1,3.939-1.68Zm-1.876,5.064a2.4,2.4,0,0,0-2.207,1.544v.526a3.693,3.693,0,0,0,.624,2.239,1.876,1.876,0,0,0,1.56.847,1.816,1.816,0,0,0,1.517-.71,3.406,3.406,0,0,0-.008-3.731,1.8,1.8,0,0,0-1.486-.714" transform="translate(158.806 67.553)"/>
          <line id="Línea_1471" data-name="Línea 1471" x1="21.571" transform="translate(400.069 168.492)"/>
          <line id="Línea_1472" data-name="Línea 1472" x1="21.571" transform="translate(400.069 168.492)" fill="none" stroke="#000" stroke-miterlimit="10" stroke-width="0.75"/>
          <path id="Trazado_899886" data-name="Trazado 899886" d="M214.827,31.055h-4.71L209.059,34H207.53l4.293-11.238h1.3L217.42,34H215.9Zm-4.262-1.211h3.822l-1.916-5.257Z" transform="translate(132.556 14.536)"/>
          <path id="Trazado_899887" data-name="Trazado 899887" d="M224.135,32.437h3.133v1.35h-3.133v3.551H222.7V33.788h-3.133v-1.35H222.7V29.157h1.437Z" transform="translate(140.243 18.623)"/>
          <path id="Trazado_899888" data-name="Trazado 899888" d="M229.783,39.24h-1.436V29.722l-2.881,1.057v-1.3l4.092-1.537h.225Z" transform="translate(144.013 17.85)"/>
          <path id="Trazado_899889" data-name="Trazado 899889" d="M210.564,39.518h1.073a2.357,2.357,0,0,0,1.591-.533,1.78,1.78,0,0,0,.578-1.4,1.745,1.745,0,0,0-1.97-1.976,2.045,2.045,0,0,0-1.476.529,1.847,1.847,0,0,0-.552,1.4H208.38a2.871,2.871,0,0,1,.978-2.22,3.553,3.553,0,0,1,2.479-.883,3.509,3.509,0,0,1,2.494.842,3.036,3.036,0,0,1,.9,2.338,2.466,2.466,0,0,1-.475,1.421,2.879,2.879,0,0,1-1.295,1.026,2.776,2.776,0,0,1,1.434.973,2.7,2.7,0,0,1,.5,1.658,3.066,3.066,0,0,1-.988,2.4,3.7,3.7,0,0,1-2.571.887,3.8,3.8,0,0,1-2.573-.855,2.844,2.844,0,0,1-.993-2.263h1.436a1.837,1.837,0,0,0,.58,1.421,2.2,2.2,0,0,0,1.55.533,2.161,2.161,0,0,0,1.583-.541,2.078,2.078,0,0,0,.549-1.55,1.892,1.892,0,0,0-.6-1.506,2.626,2.626,0,0,0-1.737-.541h-1.073Z" transform="translate(133.035 21.997)"/>
          <line id="Línea_1473" data-name="Línea 1473" x1="21.571" transform="translate(334.242 51.758)"/>
          <line id="Línea_1474" data-name="Línea 1474" x1="21.571" transform="translate(334.242 51.758)" fill="none" stroke="#000" stroke-miterlimit="10" stroke-width="0.75"/>
          <path id="Trazado_899890" data-name="Trazado 899890" d="M383.816,73.466v4.4h-1.483V66.626h4.146a4.169,4.169,0,0,1,2.891.944,3.191,3.191,0,0,1,1.045,2.492,3.149,3.149,0,0,1-1.023,2.52,4.347,4.347,0,0,1-2.93.883Zm0-1.211h2.663a2.66,2.66,0,0,0,1.821-.56,2.047,2.047,0,0,0,.634-1.621,2.119,2.119,0,0,0-.634-1.609,2.481,2.481,0,0,0-1.735-.624h-2.748Z" transform="translate(244.208 42.556)"/>
          <path id="Trazado_899891" data-name="Trazado 899891" d="M398.426,76.29h3.133v1.35h-3.133v3.551h-1.437V77.64h-3.133V76.29h3.133V73.009h1.437Z" transform="translate(251.568 46.633)"/>
          <path id="Trazado_899892" data-name="Trazado 899892" d="M401.684,76.815h1.073a2.364,2.364,0,0,0,1.591-.531,1.785,1.785,0,0,0,.578-1.4,1.744,1.744,0,0,0-1.97-1.976,2.051,2.051,0,0,0-1.476.528,1.849,1.849,0,0,0-.552,1.4H399.5a2.866,2.866,0,0,1,.978-2.22,3.553,3.553,0,0,1,2.479-.883,3.515,3.515,0,0,1,2.494.841,3.039,3.039,0,0,1,.9,2.34,2.465,2.465,0,0,1-.475,1.419,2.883,2.883,0,0,1-1.295,1.027,2.767,2.767,0,0,1,1.434.973,2.692,2.692,0,0,1,.5,1.658,3.064,3.064,0,0,1-.988,2.4,3.7,3.7,0,0,1-2.571.888,3.8,3.8,0,0,1-2.573-.857,2.842,2.842,0,0,1-.993-2.261h1.435a1.837,1.837,0,0,0,.58,1.421,2.2,2.2,0,0,0,1.55.531,2.16,2.16,0,0,0,1.583-.539,2.082,2.082,0,0,0,.549-1.552,1.889,1.889,0,0,0-.6-1.5,2.617,2.617,0,0,0-1.737-.541h-1.073Z" transform="translate(255.109 45.821)"/>
          <path id="Trazado_899893" data-name="Trazado 899893" d="M405.053,78.57a.9.9,0,0,1,.22-.618.84.84,0,0,1,.66-.246.862.862,0,0,1,.667.246.878.878,0,0,1,.228.618.825.825,0,0,1-.228.595.878.878,0,0,1-.667.239.793.793,0,0,1-.88-.834" transform="translate(258.72 49.633)"/>
          <path id="Trazado_899894" data-name="Trazado 899894" d="M414.872,72.635,410.216,83.07h-1.5l4.639-10.065h-6.083V71.832h7.6Z" transform="translate(260.14 45.881)"/>
          <path id="Trazado_899895" data-name="Trazado 899895" d="M419.485,75.341h-6.439V74.1h6.439Zm0,3.2h-6.439V77.309h6.439Z" transform="translate(263.825 47.328)"/>
          <path id="Trazado_899896" data-name="Trazado 899896" d="M425.054,80.129h-4.71l-1.059,2.942h-1.529l4.294-11.238h1.3l4.3,11.238h-1.521Zm-4.262-1.211h3.822L422.7,73.661Z" transform="translate(266.834 45.881)"/>
          <path id="Trazado_899897" data-name="Trazado 899897" d="M387.182,89.7h-7.364V88.675l3.892-4.325a9.063,9.063,0,0,0,1.19-1.593,2.652,2.652,0,0,0,.331-1.27,2.019,2.019,0,0,0-.536-1.444,1.854,1.854,0,0,0-1.419-.562,2.216,2.216,0,0,0-1.657.6,2.317,2.317,0,0,0-.588,1.686H379.6a3.315,3.315,0,0,1,1-2.507,3.705,3.705,0,0,1,2.674-.957,3.568,3.568,0,0,1,2.479.821,2.81,2.81,0,0,1,.911,2.189q0,1.659-2.116,3.951l-3.01,3.266h5.642Z" transform="translate(242.463 50.018)"/>
          <path id="Trazado_899898" data-name="Trazado 899898" d="M392.215,84.907a6.557,6.557,0,0,1-.855,3.73,3.559,3.559,0,0,1-5.342.025,6.192,6.192,0,0,1-.9-3.561V83.193a6.388,6.388,0,0,1,.857-3.682,3.068,3.068,0,0,1,2.686-1.2,3.107,3.107,0,0,1,2.673,1.16,6.17,6.17,0,0,1,.878,3.587Zm-1.427-1.953a5.22,5.22,0,0,0-.511-2.643,1.753,1.753,0,0,0-1.613-.829,1.733,1.733,0,0,0-1.6.826,5.1,5.1,0,0,0-.518,2.54v2.284a5.324,5.324,0,0,0,.529,2.691,1.755,1.755,0,0,0,1.6.867,1.727,1.727,0,0,0,1.572-.818,5.131,5.131,0,0,0,.536-2.578Z" transform="translate(245.988 50.018)"/>
          <line id="Línea_1475" data-name="Línea 1475" x1="21.571" transform="translate(619.437 123.648)"/>
          <line id="Línea_1476" data-name="Línea 1476" x1="21.571" transform="translate(619.437 123.648)" fill="none" stroke="#000" stroke-miterlimit="10" stroke-width="0.75"/>
          <line id="Línea_1477" data-name="Línea 1477" y1="37.72" transform="translate(719.622 693.203)" fill="none" stroke="#9d9d9c" stroke-miterlimit="10" stroke-width="0.75"/>
          <line id="Línea_1478" data-name="Línea 1478" x1="290.493" transform="translate(429.129 712.063)" fill="none" stroke="#9d9d9c" stroke-miterlimit="10" stroke-width="0.75"/>
          <line id="Línea_1479" data-name="Línea 1479" x2="37.72" transform="translate(781.977 384.793)" fill="none" stroke="#9d9d9c" stroke-miterlimit="10" stroke-width="0.75"/>
          <line id="Línea_1480" data-name="Línea 1480" y1="112.056" transform="translate(800.837 272.736)" fill="none" stroke="#9d9d9c" stroke-miterlimit="10" stroke-width="0.75"/>
          <line id="Línea_1481" data-name="Línea 1481" x2="37.72" transform="translate(781.977 84.452)" fill="none" stroke="#9d9d9c" stroke-miterlimit="10" stroke-width="0.75"/>
          <line id="Línea_1482" data-name="Línea 1482" y2="133.894" transform="translate(800.837 84.452)" fill="none" stroke="#9d9d9c" stroke-miterlimit="10" stroke-width="0.75"/>
          <line id="Línea_1483" data-name="Línea 1483" y1="37.72" transform="translate(48.933 693.203)" fill="none" stroke="#9d9d9c" stroke-miterlimit="10" stroke-width="0.75"/>
          <line id="Línea_1484" data-name="Línea 1484" x2="290.493" transform="translate(48.933 712.063)" fill="none" stroke="#9d9d9c" stroke-miterlimit="10" stroke-width="0.75"/>
        </g>
      </g>
    </g>
  </g>
</svg>
