<svg xmlns="http://www.w3.org/2000/svg" xmlns:xlink="http://www.w3.org/1999/xlink" width="609.832" height="908.053" viewBox="0 0 609.832 908.053">
  <defs>
    <clipPath id="clip-path">
      <rect id="Rectángulo_407593" data-name="Rectángulo 407593" width="609.832" height="869.053" fill="none"/>
    </clipPath>
  </defs>
  <g id="Grupo_1114376" data-name="Grupo 1114376" transform="translate(-495.168 -13454.969)">
    <g id="Grupo_1114292" data-name="Grupo 1114292" transform="translate(228 11241.021)">
      <text id="_Medida_-_Centímetro" data-name="*Medida - Centímetro" transform="translate(287.051 3103)" fill="#12263f" font-size="16" font-family="Roboto-Medium, Roboto" font-weight="500"><tspan x="-76.711" y="15">*Medida - Centímetro</tspan></text>
      <text id="_P_Contorno_de_pecho" data-name="*P = Contorno de pecho" transform="translate(484.051 3103)" fill="#12263f" font-size="16" font-family="Roboto-Medium, Roboto" font-weight="500"><tspan x="-85.023" y="15">*P = Contorno de pecho</tspan></text>
      <text id="_Costura_-_No_incluida" data-name="*Costura - No incluida" transform="translate(695.051 3103)" fill="#12263f" font-size="16" font-family="Roboto-Medium, Roboto" font-weight="500"><tspan x="-78.461" y="15">*Costura - No incluida</tspan></text>
    </g>
    <g id="Grupo_1114289" data-name="Grupo 1114289" transform="translate(495.168 13454.969)">
      <g id="Grupo_1114288" data-name="Grupo 1114288" clip-path="url(#clip-path)">
        <path id="Trazado_900489" data-name="Trazado 900489" d="M231.969,537.573s14.319-8.077,22.683-29.208" transform="translate(148.238 324.867)" fill="none" stroke="#9d9d9c" stroke-miterlimit="10" stroke-width="0.5"/>
        <path id="Trazado_900490" data-name="Trazado 900490" d="M221.206,537.611A43.159,43.159,0,0,1,198.523,508.4" transform="translate(126.865 324.891)" fill="none" stroke="#9d9d9c" stroke-miterlimit="10" stroke-width="0.5"/>
        <path id="Trazado_900491" data-name="Trazado 900491" d="M147.94,539.656s-25.671-7.318-32.717-31.253" transform="translate(73.632 324.891)" fill="none" stroke="#9d9d9c" stroke-miterlimit="10" stroke-width="0.5"/>
        <path id="Trazado_900492" data-name="Trazado 900492" d="M154.47,539.656s28.778-7.318,35.823-31.253" transform="translate(98.713 324.891)" fill="none" stroke="#9d9d9c" stroke-miterlimit="10" stroke-width="0.5"/>
        <path id="Trazado_900493" data-name="Trazado 900493" d="M369.326,441.2H361.96v-1.028l3.893-4.324a9.127,9.127,0,0,0,1.19-1.593,2.658,2.658,0,0,0,.331-1.272,2.022,2.022,0,0,0-.536-1.444,1.86,1.86,0,0,0-1.419-.562,2.211,2.211,0,0,0-1.657.606,2.315,2.315,0,0,0-.588,1.687h-1.429a3.319,3.319,0,0,1,1-2.509,3.706,3.706,0,0,1,2.675-.957,3.561,3.561,0,0,1,2.48.823,2.805,2.805,0,0,1,.911,2.188q0,1.662-2.116,3.953l-3.011,3.265h5.643Z" transform="translate(231.17 274.664)"/>
        <path id="Trazado_900494" data-name="Trazado 900494" d="M367.85,435.506l.572-5.606h5.758v1.321h-4.545l-.341,3.065a3.648,3.648,0,0,1,1.877-.487,3.1,3.1,0,0,1,2.441,1.016,3.982,3.982,0,0,1,.9,2.745,3.847,3.847,0,0,1-.938,2.737,3.421,3.421,0,0,1-2.621,1,3.554,3.554,0,0,1-2.432-.826,3.293,3.293,0,0,1-1.074-2.285H368.8a2.272,2.272,0,0,0,.688,1.455,2.134,2.134,0,0,0,1.467.49,1.928,1.928,0,0,0,1.564-.68,2.833,2.833,0,0,0,.567-1.875,2.611,2.611,0,0,0-.615-1.811,2.089,2.089,0,0,0-1.632-.683,2.345,2.345,0,0,0-1.465.41l-.38.31Z" transform="translate(234.815 274.724)"/>
        <path id="Trazado_900495" data-name="Trazado 900495" d="M249.647,495.41h-1.436v-9.521l-2.88,1.059v-1.3l4.091-1.537h.225Z" transform="translate(156.777 309.369)"/>
        <path id="Trazado_900496" data-name="Trazado 900496" d="M250.626,490.886a.893.893,0,0,1,.221-.618.831.831,0,0,1,.659-.246.858.858,0,0,1,.669.246.883.883,0,0,1,.228.618.826.826,0,0,1-.228.593.874.874,0,0,1-.669.241.846.846,0,0,1-.659-.241.835.835,0,0,1-.221-.593" transform="translate(160.161 313.145)"/>
        <path id="Trazado_900497" data-name="Trazado 900497" d="M253.613,489.753l.572-5.606h5.76v1.321H255.4l-.341,3.065a3.648,3.648,0,0,1,1.877-.487,3.1,3.1,0,0,1,2.44,1.016,3.982,3.982,0,0,1,.9,2.745,3.84,3.84,0,0,1-.938,2.737,3.42,3.42,0,0,1-2.619,1,3.556,3.556,0,0,1-2.434-.826,3.292,3.292,0,0,1-1.072-2.285h1.351a2.271,2.271,0,0,0,.687,1.455,2.134,2.134,0,0,0,1.469.49,1.924,1.924,0,0,0,1.562-.68,2.834,2.834,0,0,0,.567-1.875,2.611,2.611,0,0,0-.615-1.811,2.084,2.084,0,0,0-1.632-.683,2.344,2.344,0,0,0-1.465.41l-.38.31Z" transform="translate(161.814 309.39)"/>
        <path id="Trazado_900498" data-name="Trazado 900498" d="M4.317,522.341H2.881v-9.519L0,513.879v-1.3l4.093-1.537h.225Z" transform="translate(0 326.579)"/>
        <path id="Trazado_900499" data-name="Trazado 900499" d="M5.3,517.817a.9.9,0,0,1,.22-.618.84.84,0,0,1,.661-.246.863.863,0,0,1,.667.246.878.878,0,0,1,.228.618.825.825,0,0,1-.228.6.878.878,0,0,1-.667.239.794.794,0,0,1-.88-.834" transform="translate(3.384 330.355)"/>
        <path id="Trazado_900500" data-name="Trazado 900500" d="M8.283,516.684l.572-5.605h5.758V512.4H10.066l-.339,3.065a3.627,3.627,0,0,1,1.875-.487,3.1,3.1,0,0,1,2.441,1.015,3.978,3.978,0,0,1,.9,2.745,3.842,3.842,0,0,1-.938,2.737,3.419,3.419,0,0,1-2.621,1,3.551,3.551,0,0,1-2.432-.826,3.293,3.293,0,0,1-1.074-2.285H9.232a2.263,2.263,0,0,0,.688,1.454,2.13,2.13,0,0,0,1.467.49,1.927,1.927,0,0,0,1.564-.678,2.845,2.845,0,0,0,.565-1.875,2.6,2.6,0,0,0-.613-1.811,2.088,2.088,0,0,0-1.632-.683,2.361,2.361,0,0,0-1.467.408l-.379.31Z" transform="translate(5.036 326.6)"/>
        <path id="Trazado_900501" data-name="Trazado 900501" d="M4.317,282.028H2.881v-9.52L0,273.565v-1.3l4.093-1.537h.225Z" transform="translate(0 173.009)"/>
        <path id="Trazado_900502" data-name="Trazado 900502" d="M5.3,277.5a.9.9,0,0,1,.22-.618.841.841,0,0,1,.661-.246.863.863,0,0,1,.667.246.878.878,0,0,1,.228.618.825.825,0,0,1-.228.6.878.878,0,0,1-.667.239.794.794,0,0,1-.88-.834" transform="translate(3.384 176.784)"/>
        <path id="Trazado_900503" data-name="Trazado 900503" d="M8.283,276.371l.572-5.605h5.758v1.321H10.066l-.339,3.065a3.626,3.626,0,0,1,1.875-.487,3.1,3.1,0,0,1,2.441,1.015,3.977,3.977,0,0,1,.9,2.745,3.842,3.842,0,0,1-.938,2.737,3.419,3.419,0,0,1-2.621,1,3.551,3.551,0,0,1-2.432-.826,3.293,3.293,0,0,1-1.074-2.285H9.232A2.264,2.264,0,0,0,9.92,280.5a2.13,2.13,0,0,0,1.467.49,1.927,1.927,0,0,0,1.564-.679,2.845,2.845,0,0,0,.565-1.875,2.6,2.6,0,0,0-.613-1.811,2.089,2.089,0,0,0-1.632-.683,2.36,2.36,0,0,0-1.467.408l-.379.31Z" transform="translate(5.036 173.03)"/>
        <path id="Trazado_900504" data-name="Trazado 900504" d="M35.815,174.507l.572-5.606h5.76v1.321H37.6l-.341,3.065a3.632,3.632,0,0,1,1.877-.487,3.1,3.1,0,0,1,2.441,1.016,3.98,3.98,0,0,1,.9,2.744,3.835,3.835,0,0,1-.938,2.737,3.415,3.415,0,0,1-2.619,1,3.556,3.556,0,0,1-2.434-.826,3.292,3.292,0,0,1-1.072-2.285h1.351a2.271,2.271,0,0,0,.687,1.455,2.143,2.143,0,0,0,1.469.49,1.925,1.925,0,0,0,1.562-.68,2.834,2.834,0,0,0,.567-1.875,2.605,2.605,0,0,0-.615-1.811,2.084,2.084,0,0,0-1.632-.684,2.345,2.345,0,0,0-1.465.41l-.38.308Z" transform="translate(22.632 107.935)"/>
        <path id="Trazado_900505" data-name="Trazado 900505" d="M40.8,213.689a3.512,3.512,0,0,1-1.07.857,2.89,2.89,0,0,1-1.362.325,3.008,3.008,0,0,1-1.695-.479,3.1,3.1,0,0,1-1.115-1.349,4.567,4.567,0,0,1-.4-1.918,4.665,4.665,0,0,1,.429-2.031,3.145,3.145,0,0,1,1.216-1.382,3.465,3.465,0,0,1,1.837-.479,3.14,3.14,0,0,1,2.629,1.246,5.452,5.452,0,0,1,.962,3.4v.418a7.262,7.262,0,0,1-1.3,4.791,4.984,4.984,0,0,1-3.914,1.549h-.279v-1.213h.3a3.4,3.4,0,0,0,3.752-3.737m-2.2,0a2.209,2.209,0,0,0,1.324-.441,2.608,2.608,0,0,0,.883-1.088v-.57a3.934,3.934,0,0,0-.61-2.286,1.865,1.865,0,0,0-3.058-.157,2.977,2.977,0,0,0-.57,1.9,3.092,3.092,0,0,0,.552,1.895,1.747,1.747,0,0,0,1.478.746" transform="translate(22.469 132.431)"/>
        <path id="Trazado_900506" data-name="Trazado 900506" d="M40.8,262.29a3.483,3.483,0,0,1-1.07.856,2.891,2.891,0,0,1-1.362.326,3.008,3.008,0,0,1-1.695-.479,3.114,3.114,0,0,1-1.115-1.349,4.572,4.572,0,0,1-.4-1.918,4.677,4.677,0,0,1,.429-2.032,3.14,3.14,0,0,1,1.216-1.38,3.465,3.465,0,0,1,1.837-.479,3.14,3.14,0,0,1,2.629,1.246,5.449,5.449,0,0,1,.962,3.4v.416q0,3.282-1.3,4.791a4.985,4.985,0,0,1-3.914,1.551h-.279v-1.215h.3a3.93,3.93,0,0,0,2.718-.92A3.945,3.945,0,0,0,40.8,262.29m-2.2,0a2.209,2.209,0,0,0,1.324-.441,2.6,2.6,0,0,0,.883-1.09v-.569a3.93,3.93,0,0,0-.61-2.287,1.865,1.865,0,0,0-3.058-.157,2.977,2.977,0,0,0-.57,1.9,3.1,3.1,0,0,0,.552,1.895,1.747,1.747,0,0,0,1.478.746" transform="translate(22.469 163.489)"/>
        <path id="Trazado_900507" data-name="Trazado 900507" d="M40.8,311.989a3.487,3.487,0,0,1-1.07.857,2.89,2.89,0,0,1-1.362.325,3.008,3.008,0,0,1-1.695-.479,3.1,3.1,0,0,1-1.115-1.349,4.559,4.559,0,0,1-.4-1.916,4.667,4.667,0,0,1,.429-2.032,3.154,3.154,0,0,1,1.216-1.382,3.466,3.466,0,0,1,1.837-.479,3.14,3.14,0,0,1,2.629,1.246,5.452,5.452,0,0,1,.962,3.4v.418a7.262,7.262,0,0,1-1.3,4.791,4.984,4.984,0,0,1-3.914,1.549h-.279v-1.213h.3a3.938,3.938,0,0,0,2.718-.92,3.95,3.95,0,0,0,1.034-2.818m-2.2,0a2.209,2.209,0,0,0,1.324-.441,2.6,2.6,0,0,0,.883-1.088v-.57a3.937,3.937,0,0,0-.61-2.286,1.865,1.865,0,0,0-3.058-.157,2.977,2.977,0,0,0-.57,1.9,3.1,3.1,0,0,0,.552,1.9,1.745,1.745,0,0,0,1.478.744" transform="translate(22.469 195.249)"/>
        <path id="Trazado_900508" data-name="Trazado 900508" d="M40.8,361.052a3.483,3.483,0,0,1-1.07.856,2.892,2.892,0,0,1-1.362.326,3.008,3.008,0,0,1-1.695-.479,3.114,3.114,0,0,1-1.115-1.349,4.572,4.572,0,0,1-.4-1.918,4.677,4.677,0,0,1,.429-2.032,3.141,3.141,0,0,1,1.216-1.38,3.466,3.466,0,0,1,1.837-.479,3.14,3.14,0,0,1,2.629,1.246,5.449,5.449,0,0,1,.962,3.4v.416q0,3.282-1.3,4.791A4.985,4.985,0,0,1,37.022,366h-.279v-1.215h.3a3.93,3.93,0,0,0,2.718-.92,3.946,3.946,0,0,0,1.034-2.816m-2.2,0a2.209,2.209,0,0,0,1.324-.441,2.6,2.6,0,0,0,.883-1.09v-.569a3.93,3.93,0,0,0-.61-2.286,1.865,1.865,0,0,0-3.058-.157,2.977,2.977,0,0,0-.57,1.9,3.1,3.1,0,0,0,.552,1.895,1.747,1.747,0,0,0,1.478.746" transform="translate(22.469 226.602)"/>
        <path id="Trazado_900509" data-name="Trazado 900509" d="M40.8,410.638a3.482,3.482,0,0,1-1.07.856,2.892,2.892,0,0,1-1.362.326,3.009,3.009,0,0,1-1.695-.479,3.114,3.114,0,0,1-1.115-1.349,4.572,4.572,0,0,1-.4-1.918,4.677,4.677,0,0,1,.429-2.032,3.14,3.14,0,0,1,1.216-1.38,3.466,3.466,0,0,1,1.837-.479,3.14,3.14,0,0,1,2.629,1.246,5.449,5.449,0,0,1,.962,3.4v.416q0,3.282-1.3,4.791a4.985,4.985,0,0,1-3.914,1.551h-.279v-1.215h.3a3.93,3.93,0,0,0,2.718-.919,3.945,3.945,0,0,0,1.034-2.816m-2.2,0a2.209,2.209,0,0,0,1.324-.441,2.6,2.6,0,0,0,.883-1.09v-.569a3.93,3.93,0,0,0-.61-2.286,1.865,1.865,0,0,0-3.058-.157,2.977,2.977,0,0,0-.57,1.9,3.1,3.1,0,0,0,.552,1.895,1.747,1.747,0,0,0,1.478.746" transform="translate(22.469 258.29)"/>
        <path id="Trazado_900510" data-name="Trazado 900510" d="M267.11,523.489h-1.436v-9.521l-2.881,1.059v-1.3l4.093-1.537h.225Z" transform="translate(167.936 327.313)"/>
        <path id="Trazado_900511" data-name="Trazado 900511" d="M268.088,518.964a.9.9,0,0,1,.22-.618.835.835,0,0,1,.661-.246.857.857,0,0,1,.667.246.875.875,0,0,1,.228.618.819.819,0,0,1-.228.593.873.873,0,0,1-.667.241.851.851,0,0,1-.661-.241.841.841,0,0,1-.22-.593" transform="translate(171.32 331.088)"/>
        <path id="Trazado_900512" data-name="Trazado 900512" d="M271.076,517.831l.572-5.606h5.758v1.321h-4.547l-.339,3.065a3.642,3.642,0,0,1,1.875-.487,3.105,3.105,0,0,1,2.441,1.016,3.976,3.976,0,0,1,.9,2.745,3.847,3.847,0,0,1-.938,2.737,3.424,3.424,0,0,1-2.621,1,3.551,3.551,0,0,1-2.432-.826,3.293,3.293,0,0,1-1.074-2.285h1.351a2.273,2.273,0,0,0,.688,1.456,2.131,2.131,0,0,0,1.467.49,1.928,1.928,0,0,0,1.564-.68,2.842,2.842,0,0,0,.565-1.875,2.61,2.61,0,0,0-.613-1.811,2.089,2.089,0,0,0-1.632-.683,2.349,2.349,0,0,0-1.467.41l-.379.31Z" transform="translate(172.972 327.333)"/>
        <path id="Trazado_900513" data-name="Trazado 900513" d="M186.578,439.175h-1.434v-9.521l-2.881,1.059v-1.3l4.091-1.537h.225Z" transform="translate(116.473 273.433)"/>
        <path id="Trazado_900514" data-name="Trazado 900514" d="M187.558,434.651a.9.9,0,0,1,.22-.618.832.832,0,0,1,.661-.246.857.857,0,0,1,.667.246.875.875,0,0,1,.228.618.819.819,0,0,1-.228.593.872.872,0,0,1-.667.241.8.8,0,0,1-.88-.834" transform="translate(119.857 277.208)"/>
        <path id="Trazado_900515" data-name="Trazado 900515" d="M190.544,433.517l.574-5.605h5.758v1.321h-4.547l-.341,3.065a3.652,3.652,0,0,1,1.877-.487,3.1,3.1,0,0,1,2.441,1.016,3.975,3.975,0,0,1,.9,2.745,3.847,3.847,0,0,1-.938,2.737,3.426,3.426,0,0,1-2.621,1,3.555,3.555,0,0,1-2.434-.826,3.292,3.292,0,0,1-1.072-2.285h1.351a2.264,2.264,0,0,0,.688,1.455,2.128,2.128,0,0,0,1.467.49,1.925,1.925,0,0,0,1.562-.68,2.834,2.834,0,0,0,.567-1.875,2.61,2.61,0,0,0-.613-1.811,2.088,2.088,0,0,0-1.632-.684,2.346,2.346,0,0,0-1.467.41l-.38.31Z" transform="translate(121.51 273.453)"/>
        <path id="Trazado_900516" data-name="Trazado 900516" d="M230.062,444.356h-1.436v-9.521l-2.88,1.059v-1.3l4.091-1.537h.225Z" transform="translate(144.261 276.743)"/>
        <path id="Trazado_900517" data-name="Trazado 900517" d="M235.479,444.356h-1.436v-9.521l-2.88,1.059v-1.3l4.091-1.537h.225Z" transform="translate(147.723 276.743)"/>
        <path id="Trazado_900518" data-name="Trazado 900518" d="M154.8,336.483h1.56v1.165H154.8v2.611h-1.436v-2.611h-5.119v-.841l5.034-7.792H154.8Zm-4.934,0h3.5v-5.512l-.17.308Z" transform="translate(94.735 210.255)"/>
        <path id="Trazado_900519" data-name="Trazado 900519" d="M221.98,340.318h-7.366v-1.026l3.893-4.326a9.148,9.148,0,0,0,1.19-1.593,2.65,2.65,0,0,0,.329-1.27,2.011,2.011,0,0,0-.534-1.444,1.854,1.854,0,0,0-1.419-.562,2.214,2.214,0,0,0-1.657.6,2.325,2.325,0,0,0-.59,1.687H214.4a3.311,3.311,0,0,1,1-2.508,3.7,3.7,0,0,1,2.675-.959,3.569,3.569,0,0,1,2.48.823,2.816,2.816,0,0,1,.911,2.19q0,1.659-2.116,3.952l-3.013,3.267h5.645Z" transform="translate(137.008 210.195)"/>
        <path id="Trazado_900520" data-name="Trazado 900520" d="M220.054,335.755a.9.9,0,0,1,.221-.618.837.837,0,0,1,.659-.246.864.864,0,0,1,.669.246.885.885,0,0,1,.228.618.832.832,0,0,1-.228.6.879.879,0,0,1-.669.239.851.851,0,0,1-.659-.239.841.841,0,0,1-.221-.6" transform="translate(140.624 214.01)"/>
        <path id="Trazado_900521" data-name="Trazado 900521" d="M223.041,334.623l.572-5.606h5.76v1.321h-4.547l-.341,3.065a3.632,3.632,0,0,1,1.877-.487,3.1,3.1,0,0,1,2.441,1.015,3.985,3.985,0,0,1,.9,2.745,3.834,3.834,0,0,1-.938,2.737,3.415,3.415,0,0,1-2.619,1,3.555,3.555,0,0,1-2.434-.826,3.292,3.292,0,0,1-1.072-2.285h1.351a2.262,2.262,0,0,0,.687,1.454,2.135,2.135,0,0,0,1.469.49,1.923,1.923,0,0,0,1.562-.679,2.837,2.837,0,0,0,.567-1.875,2.605,2.605,0,0,0-.615-1.811,2.084,2.084,0,0,0-1.632-.683,2.355,2.355,0,0,0-1.465.408l-.38.31Z" transform="translate(142.277 210.256)"/>
        <path id="Trazado_900522" data-name="Trazado 900522" d="M161.1,155.312h-7.366v-1.026l3.893-4.325a9.211,9.211,0,0,0,1.19-1.593,2.654,2.654,0,0,0,.329-1.27,2.009,2.009,0,0,0-.534-1.444,1.855,1.855,0,0,0-1.419-.564,2.208,2.208,0,0,0-1.657.606,2.323,2.323,0,0,0-.59,1.687h-1.429a3.317,3.317,0,0,1,1-2.509,3.708,3.708,0,0,1,2.675-.957,3.561,3.561,0,0,1,2.48.823,2.813,2.813,0,0,1,.911,2.188q0,1.662-2.116,3.953l-3.013,3.267H161.1Z" transform="translate(98.106 91.968)"/>
        <path id="Trazado_900523" data-name="Trazado 900523" d="M159.179,150.749a.893.893,0,0,1,.221-.618.837.837,0,0,1,.659-.246.864.864,0,0,1,.669.246.883.883,0,0,1,.228.618.832.832,0,0,1-.228.595.879.879,0,0,1-.669.239.851.851,0,0,1-.659-.239.841.841,0,0,1-.221-.595" transform="translate(101.722 95.783)"/>
        <path id="Trazado_900524" data-name="Trazado 900524" d="M162.166,149.616l.572-5.606h5.76v1.321h-4.547l-.341,3.065a3.632,3.632,0,0,1,1.877-.487,3.1,3.1,0,0,1,2.441,1.016,3.98,3.98,0,0,1,.9,2.744,3.835,3.835,0,0,1-.938,2.737,3.415,3.415,0,0,1-2.619,1,3.556,3.556,0,0,1-2.434-.826,3.292,3.292,0,0,1-1.072-2.285h1.351a2.271,2.271,0,0,0,.687,1.455,2.143,2.143,0,0,0,1.469.49,1.925,1.925,0,0,0,1.562-.68,2.834,2.834,0,0,0,.567-1.875,2.605,2.605,0,0,0-.615-1.811,2.084,2.084,0,0,0-1.632-.683,2.345,2.345,0,0,0-1.465.41l-.38.308Z" transform="translate(103.375 92.028)"/>
        <path id="Trazado_900525" data-name="Trazado 900525" d="M250.32,77.7h1.074a2.357,2.357,0,0,0,1.592-.533,1.779,1.779,0,0,0,.579-1.4,1.744,1.744,0,0,0-1.97-1.977,2.047,2.047,0,0,0-1.477.528,1.848,1.848,0,0,0-.552,1.4h-1.429a2.866,2.866,0,0,1,.979-2.219,3.554,3.554,0,0,1,2.48-.885,3.517,3.517,0,0,1,2.495.842,3.036,3.036,0,0,1,.9,2.339,2.467,2.467,0,0,1-.475,1.421,2.868,2.868,0,0,1-1.295,1.026,2.787,2.787,0,0,1,1.434.974,2.7,2.7,0,0,1,.5,1.66,3.069,3.069,0,0,1-.987,2.4,3.71,3.71,0,0,1-2.573.888,3.8,3.8,0,0,1-2.573-.857,2.844,2.844,0,0,1-.993-2.264h1.436a1.839,1.839,0,0,0,.58,1.423A2.2,2.2,0,0,0,251.6,83a2.167,2.167,0,0,0,1.583-.539,2.085,2.085,0,0,0,.549-1.552,1.887,1.887,0,0,0-.6-1.5,2.626,2.626,0,0,0-1.737-.543H250.32Z" transform="translate(158.505 46.403)"/>
        <path id="Trazado_900526" data-name="Trazado 900526" d="M253.688,79.447a.9.9,0,0,1,.218-.618.84.84,0,0,1,.661-.246.863.863,0,0,1,.667.246.875.875,0,0,1,.228.618.825.825,0,0,1-.228.595.878.878,0,0,1-.667.239.855.855,0,0,1-.661-.239.846.846,0,0,1-.218-.595" transform="translate(162.117 50.218)"/>
        <path id="Trazado_900527" data-name="Trazado 900527" d="M256.676,78.314l.572-5.606h5.758v1.321h-4.547l-.339,3.065a3.626,3.626,0,0,1,1.875-.487,3.1,3.1,0,0,1,2.44,1.016,3.973,3.973,0,0,1,.9,2.744A3.842,3.842,0,0,1,262.4,83.1a3.419,3.419,0,0,1-2.621,1,3.551,3.551,0,0,1-2.432-.826,3.293,3.293,0,0,1-1.074-2.285h1.351a2.272,2.272,0,0,0,.688,1.455,2.138,2.138,0,0,0,1.467.49,1.928,1.928,0,0,0,1.564-.68,2.842,2.842,0,0,0,.565-1.875,2.6,2.6,0,0,0-.613-1.811,2.089,2.089,0,0,0-1.632-.683,2.35,2.35,0,0,0-1.467.41l-.379.308Z" transform="translate(163.77 46.463)"/>
        <path id="Trazado_900528" data-name="Trazado 900528" d="M254.4,33.777h1.56v1.165H254.4v2.611h-1.436V34.942h-5.119V34.1l5.033-7.79H254.4Zm-4.934,0h3.5V28.265l-.171.308Z" transform="translate(158.382 16.814)"/>
        <path id="Trazado_900529" data-name="Trazado 900529" d="M253.688,33.05a.9.9,0,0,1,.218-.618.84.84,0,0,1,.661-.246.863.863,0,0,1,.667.246.875.875,0,0,1,.228.618.825.825,0,0,1-.228.595.878.878,0,0,1-.667.239.855.855,0,0,1-.661-.239.846.846,0,0,1-.218-.595" transform="translate(162.117 20.568)"/>
        <path id="Trazado_900530" data-name="Trazado 900530" d="M262.963,29.3a2.608,2.608,0,0,1-.444,1.5,3.019,3.019,0,0,1-1.2,1.026,3.222,3.222,0,0,1,1.392,1.1,2.778,2.778,0,0,1,.515,1.646,2.937,2.937,0,0,1-.985,2.323,4.313,4.313,0,0,1-5.188,0,2.951,2.951,0,0,1-.977-2.319,2.86,2.86,0,0,1,.5-1.646,3.09,3.09,0,0,1,1.378-1.111,2.948,2.948,0,0,1-1.182-1.028,2.642,2.642,0,0,1-.433-1.49,2.907,2.907,0,0,1,.911-2.255,3.874,3.874,0,0,1,4.8,0,2.9,2.9,0,0,1,.915,2.255M261.8,34.548a2.076,2.076,0,0,0-.6-1.537,2.126,2.126,0,0,0-1.564-.595,2.013,2.013,0,0,0-2.131,2.132,2,2,0,0,0,.567,1.5,2.535,2.535,0,0,0,3.155,0,1.992,1.992,0,0,0,.572-1.5m-2.147-7.158a1.846,1.846,0,0,0-1.364.521,2.16,2.16,0,0,0-.007,2.8,2.038,2.038,0,0,0,2.74,0,2.113,2.113,0,0,0-.02-2.783,1.815,1.815,0,0,0-1.351-.541" transform="translate(163.643 16.754)"/>
        <path id="Trazado_900531" data-name="Trazado 900531" d="M114.713,32.777l-4.655,10.439h-1.5L113.2,33.148h-6.082V31.974h7.6Z" transform="translate(68.452 20.433)"/>
        <path id="Trazado_900532" data-name="Trazado 900532" d="M112.849,38.713a.9.9,0,0,1,.22-.618.838.838,0,0,1,.661-.246.863.863,0,0,1,.667.246.875.875,0,0,1,.228.618.825.825,0,0,1-.228.595.878.878,0,0,1-.667.239.794.794,0,0,1-.88-.834" transform="translate(72.115 24.187)"/>
        <path id="Trazado_900533" data-name="Trazado 900533" d="M115.835,37.58l.574-5.606h5.758V33.3H117.62l-.341,3.065a3.636,3.636,0,0,1,1.877-.487,3.1,3.1,0,0,1,2.441,1.016,3.973,3.973,0,0,1,.9,2.744,3.842,3.842,0,0,1-.938,2.737,3.421,3.421,0,0,1-2.621,1,3.556,3.556,0,0,1-2.434-.826,3.292,3.292,0,0,1-1.072-2.285h1.351a2.264,2.264,0,0,0,.688,1.455,2.135,2.135,0,0,0,1.467.49,1.925,1.925,0,0,0,1.562-.68,2.834,2.834,0,0,0,.567-1.875,2.6,2.6,0,0,0-.613-1.811,2.089,2.089,0,0,0-1.632-.683,2.347,2.347,0,0,0-1.467.41l-.38.308Z" transform="translate(73.768 20.433)"/>
        <path id="Trazado_900534" data-name="Trazado 900534" d="M88.172,63.534h1.074A2.357,2.357,0,0,0,90.837,63a1.779,1.779,0,0,0,.579-1.4,1.744,1.744,0,0,0-1.97-1.977,2.047,2.047,0,0,0-1.477.528,1.848,1.848,0,0,0-.552,1.4H85.987a2.866,2.866,0,0,1,.979-2.219,3.555,3.555,0,0,1,2.48-.885,3.517,3.517,0,0,1,2.495.842,3.036,3.036,0,0,1,.9,2.339,2.467,2.467,0,0,1-.475,1.421,2.869,2.869,0,0,1-1.295,1.026,2.787,2.787,0,0,1,1.434.974,2.7,2.7,0,0,1,.5,1.66,3.069,3.069,0,0,1-.987,2.4A3.71,3.71,0,0,1,89.454,70a3.8,3.8,0,0,1-2.573-.857,2.844,2.844,0,0,1-.993-2.264h1.436a1.839,1.839,0,0,0,.58,1.423,2.2,2.2,0,0,0,1.551.531,2.167,2.167,0,0,0,1.583-.539,2.085,2.085,0,0,0,.549-1.552,1.887,1.887,0,0,0-.6-1.5,2.626,2.626,0,0,0-1.737-.543H88.172Z" transform="translate(54.885 37.354)"/>
        <path id="Trazado_900535" data-name="Trazado 900535" d="M93.2,91.446H91.763v-9.52l-2.88,1.057v-1.3l4.091-1.537H93.2Z" transform="translate(56.8 51.219)"/>
        <path id="Trazado_900536" data-name="Trazado 900536" d="M94.178,86.921A.893.893,0,0,1,94.4,86.3a.837.837,0,0,1,.659-.246.864.864,0,0,1,.669.246.883.883,0,0,1,.228.618.832.832,0,0,1-.228.595.879.879,0,0,1-.669.239.851.851,0,0,1-.659-.239.841.841,0,0,1-.221-.595" transform="translate(60.184 54.994)"/>
        <path id="Trazado_900537" data-name="Trazado 900537" d="M97.165,85.788l.572-5.606h5.76V81.5H98.95l-.341,3.065a3.632,3.632,0,0,1,1.877-.487,3.1,3.1,0,0,1,2.441,1.016,3.98,3.98,0,0,1,.9,2.744,3.835,3.835,0,0,1-.938,2.737,3.415,3.415,0,0,1-2.619,1,3.556,3.556,0,0,1-2.434-.826,3.292,3.292,0,0,1-1.072-2.285h1.351a2.271,2.271,0,0,0,.687,1.455,2.143,2.143,0,0,0,1.469.49,1.925,1.925,0,0,0,1.562-.68,2.834,2.834,0,0,0,.567-1.875,2.605,2.605,0,0,0-.615-1.811,2.084,2.084,0,0,0-1.632-.683,2.345,2.345,0,0,0-1.465.41l-.38.308Z" transform="translate(61.837 51.24)"/>
        <path id="Trazado_900538" data-name="Trazado 900538" d="M104.71,105.03h-1.436V95.51l-2.881,1.057v-1.3l4.093-1.537h.225Z" transform="translate(64.155 59.9)"/>
        <path id="Trazado_900539" data-name="Trazado 900539" d="M105.688,100.5a.9.9,0,0,1,.218-.618.84.84,0,0,1,.661-.246.863.863,0,0,1,.667.246.875.875,0,0,1,.228.618.825.825,0,0,1-.228.595.878.878,0,0,1-.667.239.855.855,0,0,1-.661-.239.846.846,0,0,1-.218-.595" transform="translate(67.539 63.675)"/>
        <path id="Trazado_900540" data-name="Trazado 900540" d="M114.963,96.76a2.607,2.607,0,0,1-.444,1.5,3.019,3.019,0,0,1-1.2,1.026,3.223,3.223,0,0,1,1.392,1.1,2.779,2.779,0,0,1,.515,1.646,2.937,2.937,0,0,1-.985,2.323,4.313,4.313,0,0,1-5.188,0,2.951,2.951,0,0,1-.977-2.319,2.86,2.86,0,0,1,.5-1.646,3.09,3.09,0,0,1,1.378-1.111,2.949,2.949,0,0,1-1.182-1.028,2.642,2.642,0,0,1-.433-1.49,2.907,2.907,0,0,1,.911-2.255,3.874,3.874,0,0,1,4.8,0,2.9,2.9,0,0,1,.915,2.255M113.8,102a2.076,2.076,0,0,0-.6-1.537,2.126,2.126,0,0,0-1.564-.595A2.013,2.013,0,0,0,109.5,102a2,2,0,0,0,.567,1.5,2.535,2.535,0,0,0,3.155,0,1.992,1.992,0,0,0,.572-1.5m-2.147-7.158a1.846,1.846,0,0,0-1.364.521,2.16,2.16,0,0,0-.007,2.8,2.038,2.038,0,0,0,2.74,0,2.113,2.113,0,0,0-.02-2.783,1.815,1.815,0,0,0-1.351-.541" transform="translate(69.065 59.86)"/>
        <path id="Trazado_900541" data-name="Trazado 900541" d="M254.4,58.485h1.56V59.65H254.4v2.611h-1.436V59.65h-5.119v-.841l5.033-7.79H254.4Zm-4.934,0h3.5V52.973l-.171.308Z" transform="translate(158.382 32.603)"/>
        <path id="Trazado_900542" data-name="Trazado 900542" d="M83.158,130.08H77.05v-.852l3.227-3.585a7.7,7.7,0,0,0,.99-1.323,2.2,2.2,0,0,0,.272-1.052,1.672,1.672,0,0,0-.443-1.2,1.543,1.543,0,0,0-1.178-.467,1.823,1.823,0,0,0-1.372.5,1.913,1.913,0,0,0-.49,1.4H76.871a2.75,2.75,0,0,1,.829-2.08,3.077,3.077,0,0,1,2.218-.795,2.949,2.949,0,0,1,2.055.682,2.326,2.326,0,0,1,.756,1.816,5.329,5.329,0,0,1-1.754,3.278l-2.5,2.708h4.679Z" transform="translate(49.124 77.087)"/>
        <path id="Trazado_900543" data-name="Trazado 900543" d="M81.563,126.3a.739.739,0,0,1,.18-.511.7.7,0,0,1,.547-.2.709.709,0,0,1,.554.2.722.722,0,0,1,.188.511.687.687,0,0,1-.188.493.73.73,0,0,1-.554.2.715.715,0,0,1-.547-.2.7.7,0,0,1-.18-.493" transform="translate(52.122 80.25)"/>
        <path id="Trazado_900544" data-name="Trazado 900544" d="M84.04,125.355l.474-4.648H89.29V121.8H85.518l-.282,2.542a3.02,3.02,0,0,1,1.557-.4,2.573,2.573,0,0,1,2.023.841,3.3,3.3,0,0,1,.749,2.277,3.184,3.184,0,0,1-.779,2.27,2.832,2.832,0,0,1-2.173.829,2.944,2.944,0,0,1-2.016-.685,2.739,2.739,0,0,1-.89-1.9h1.119a1.9,1.9,0,0,0,.57,1.208,1.779,1.779,0,0,0,1.216.406,1.6,1.6,0,0,0,1.3-.564,2.348,2.348,0,0,0,.47-1.555,2.161,2.161,0,0,0-.508-1.5A1.73,1.73,0,0,0,86.518,125a1.95,1.95,0,0,0-1.216.339l-.315.256Z" transform="translate(53.492 77.137)"/>
        <path id="Trazado_900545" data-name="Trazado 900545" d="M152.717,188.761V177.519h3.676a4.262,4.262,0,0,1,2.752.757,2.729,2.729,0,0,1,.923,2.239,2.29,2.29,0,0,1-.447,1.393,2.917,2.917,0,0,1-1.219.939,2.588,2.588,0,0,1,1.437.969,2.772,2.772,0,0,1,.531,1.7,3.01,3.01,0,0,1-.982,2.378,4.052,4.052,0,0,1-2.772.865Zm1.483-6.448h2.237a2.332,2.332,0,0,0,1.555-.487,1.63,1.63,0,0,0,.585-1.323,1.607,1.607,0,0,0-.541-1.351,2.662,2.662,0,0,0-1.644-.421H154.2Zm0,1.19v4.045h2.447a2.356,2.356,0,0,0,1.632-.536,1.886,1.886,0,0,0,.6-1.478q0-2.031-2.208-2.031Z" transform="translate(97.593 113.442)"/>
        <path id="Trazado_900546" data-name="Trazado 900546" d="M163.837,187.7a2.986,2.986,0,0,1-.2-.88,3.18,3.18,0,0,1-2.377,1.034,2.951,2.951,0,0,1-2.027-.7,2.258,2.258,0,0,1-.792-1.772,2.362,2.362,0,0,1,.993-2.027,4.679,4.679,0,0,1,2.791-.721h1.39v-.657a1.6,1.6,0,0,0-.449-1.192,1.8,1.8,0,0,0-1.321-.444,2.079,2.079,0,0,0-1.28.385,1.136,1.136,0,0,0-.518.934H158.61a1.977,1.977,0,0,1,.444-1.208,3.015,3.015,0,0,1,1.2-.923,4.051,4.051,0,0,1,1.67-.339,3.3,3.3,0,0,1,2.264.723,2.6,2.6,0,0,1,.849,1.986v3.845a4.688,4.688,0,0,0,.293,1.831v.123Zm-2.37-1.088a2.515,2.515,0,0,0,1.274-.348,2.121,2.121,0,0,0,.874-.9v-1.714h-1.121q-2.623,0-2.626,1.536a1.3,1.3,0,0,0,.449,1.051,1.72,1.72,0,0,0,1.151.379" transform="translate(101.25 114.508)"/>
        <path id="Trazado_900547" data-name="Trazado 900547" d="M168.834,185.479a1.052,1.052,0,0,0-.436-.9,4.2,4.2,0,0,0-1.519-.552,7.086,7.086,0,0,1-1.723-.556,2.435,2.435,0,0,1-.941-.772,1.836,1.836,0,0,1-.306-1.065,2.168,2.168,0,0,1,.869-1.737,3.391,3.391,0,0,1,2.219-.71,3.491,3.491,0,0,1,2.3.733,2.328,2.328,0,0,1,.885,1.877h-1.437a1.288,1.288,0,0,0-.5-1.011,1.863,1.863,0,0,0-1.256-.425,1.957,1.957,0,0,0-1.219.339,1.073,1.073,0,0,0-.441.888.87.87,0,0,0,.41.78,5.044,5.044,0,0,0,1.48.5,7.779,7.779,0,0,1,1.732.57,2.555,2.555,0,0,1,.985.8,1.97,1.97,0,0,1,.32,1.139,2.141,2.141,0,0,1-.9,1.795,3.754,3.754,0,0,1-2.324.675,4.191,4.191,0,0,1-1.775-.356,2.888,2.888,0,0,1-1.208-.992,2.383,2.383,0,0,1-.436-1.378h1.428a1.48,1.48,0,0,0,.575,1.139,2.237,2.237,0,0,0,1.416.421,2.309,2.309,0,0,0,1.3-.328,1.011,1.011,0,0,0,.49-.877" transform="translate(104.562 114.508)"/>
        <path id="Trazado_900548" data-name="Trazado 900548" d="M172.416,187.849a3.651,3.651,0,0,1-2.763-1.115,4.139,4.139,0,0,1-1.067-2.985v-.262a4.989,4.989,0,0,1,.477-2.219,3.679,3.679,0,0,1,1.328-1.529,3.332,3.332,0,0,1,1.849-.552,3.127,3.127,0,0,1,2.532,1.074,4.646,4.646,0,0,1,.9,3.072v.595h-5.66a2.964,2.964,0,0,0,.721,2,2.269,2.269,0,0,0,1.755.761,2.479,2.479,0,0,0,1.282-.31,3.2,3.2,0,0,0,.92-.818l.872.68a3.505,3.505,0,0,1-3.15,1.613m-.177-7.489a1.907,1.907,0,0,0-1.452.629,3.071,3.071,0,0,0-.724,1.764h4.184v-.107a2.736,2.736,0,0,0-.587-1.688,1.8,1.8,0,0,0-1.421-.6" transform="translate(107.734 114.508)"/>
        <path id="Trazado_900549" data-name="Trazado 900549" d="M176.1,184.755a4.882,4.882,0,0,1,.911-3.093,3.1,3.1,0,0,1,4.709-.166v-4.355h1.429V189h-1.313l-.07-.9a2.907,2.907,0,0,1-2.385,1.052,2.853,2.853,0,0,1-2.367-1.192,4.935,4.935,0,0,1-.915-3.1Zm1.428.162a3.7,3.7,0,0,0,.585,2.223,1.9,1.9,0,0,0,1.623.8,2.085,2.085,0,0,0,1.985-1.219v-3.837a2.1,2.1,0,0,0-1.97-1.182,1.911,1.911,0,0,0-1.637.811,4.093,4.093,0,0,0-.585,2.4" transform="translate(112.533 113.201)"/>
        <path id="Trazado_900550" data-name="Trazado 900550" d="M185.357,187.849a3.651,3.651,0,0,1-2.763-1.115,4.139,4.139,0,0,1-1.067-2.985v-.262a4.989,4.989,0,0,1,.477-2.219,3.679,3.679,0,0,1,1.328-1.529,3.332,3.332,0,0,1,1.849-.552,3.127,3.127,0,0,1,2.532,1.074,4.646,4.646,0,0,1,.9,3.072v.595h-5.66a2.964,2.964,0,0,0,.721,2,2.269,2.269,0,0,0,1.755.761,2.479,2.479,0,0,0,1.282-.31,3.2,3.2,0,0,0,.92-.818l.872.68a3.505,3.505,0,0,1-3.15,1.613m-.177-7.489a1.907,1.907,0,0,0-1.452.629,3.072,3.072,0,0,0-.724,1.764h4.184v-.107a2.736,2.736,0,0,0-.587-1.688,1.8,1.8,0,0,0-1.421-.6" transform="translate(116.003 114.508)"/>
        <path id="Trazado_900551" data-name="Trazado 900551" d="M192.744,186.684a2.047,2.047,0,0,0,1.334-.464,1.626,1.626,0,0,0,.634-1.157h1.351a2.586,2.586,0,0,1-.493,1.367,3.271,3.271,0,0,1-1.218,1.034,3.5,3.5,0,0,1-1.608.385,3.443,3.443,0,0,1-2.714-1.137,4.538,4.538,0,0,1-1.008-3.116v-.239a5.035,5.035,0,0,1,.447-2.17,3.41,3.41,0,0,1,1.285-1.474,3.65,3.65,0,0,1,1.982-.526,3.355,3.355,0,0,1,2.336.841,3.012,3.012,0,0,1,.992,2.185h-1.351a1.966,1.966,0,0,0-.615-1.331,1.908,1.908,0,0,0-1.362-.521,2,2,0,0,0-1.687.783,3.688,3.688,0,0,0-.6,2.267v.269a3.615,3.615,0,0,0,.593,2.224,2.012,2.012,0,0,0,1.7.78" transform="translate(120.793 114.508)"/>
        <path id="Trazado_900552" data-name="Trazado 900552" d="M199.548,187.7a3,3,0,0,1-.2-.88,3.183,3.183,0,0,1-2.378,1.034,2.95,2.95,0,0,1-2.026-.7,2.253,2.253,0,0,1-.792-1.772,2.361,2.361,0,0,1,.992-2.027,4.686,4.686,0,0,1,2.791-.721h1.39v-.657a1.6,1.6,0,0,0-.447-1.192,1.8,1.8,0,0,0-1.321-.444,2.081,2.081,0,0,0-1.282.385,1.138,1.138,0,0,0-.516.934h-1.436a1.975,1.975,0,0,1,.443-1.208,3.032,3.032,0,0,1,1.206-.923,4.04,4.04,0,0,1,1.67-.339,3.3,3.3,0,0,1,2.262.723,2.6,2.6,0,0,1,.851,1.986v3.845a4.722,4.722,0,0,0,.292,1.831v.123Zm-2.37-1.088a2.511,2.511,0,0,0,1.274-.348,2.111,2.111,0,0,0,.874-.9v-1.714h-1.119q-2.623,0-2.626,1.536a1.3,1.3,0,0,0,.449,1.051,1.715,1.715,0,0,0,1.149.379" transform="translate(124.071 114.508)"/>
        <path id="Trazado_900553" data-name="Trazado 900553" d="M200.892,179.341l.038.926a3.084,3.084,0,0,1,2.478-1.08,2.39,2.39,0,0,1,2.386,1.342,3.152,3.152,0,0,1,1.085-.972,3.2,3.2,0,0,1,1.578-.37q2.749,0,2.795,2.911v5.6h-1.428v-5.514a1.914,1.914,0,0,0-.41-1.339,1.8,1.8,0,0,0-1.374-.444,1.89,1.89,0,0,0-1.319.475,1.918,1.918,0,0,0-.61,1.277V187.7h-1.436v-5.474a1.6,1.6,0,0,0-1.785-1.823,1.913,1.913,0,0,0-1.923,1.2v6.1h-1.428v-8.354Z" transform="translate(127.515 114.508)"/>
        <path id="Trazado_900554" data-name="Trazado 900554" d="M208.006,178.251a.844.844,0,0,1,.213-.585.793.793,0,0,1,.629-.241.806.806,0,0,1,.631.241.839.839,0,0,1,.216.585.845.845,0,1,1-1.69,0m1.544,10.57h-1.429v-8.354h1.429Z" transform="translate(132.925 113.382)"/>
        <path id="Trazado_900555" data-name="Trazado 900555" d="M215.342,185.479a1.052,1.052,0,0,0-.436-.9,4.2,4.2,0,0,0-1.519-.552,7.086,7.086,0,0,1-1.723-.556,2.435,2.435,0,0,1-.941-.772,1.836,1.836,0,0,1-.307-1.065,2.168,2.168,0,0,1,.869-1.737,3.391,3.391,0,0,1,2.219-.71,3.491,3.491,0,0,1,2.3.733,2.328,2.328,0,0,1,.885,1.877h-1.437a1.288,1.288,0,0,0-.5-1.011,1.863,1.863,0,0,0-1.256-.425,1.957,1.957,0,0,0-1.219.339,1.073,1.073,0,0,0-.441.888.87.87,0,0,0,.41.78,5.045,5.045,0,0,0,1.48.5,7.779,7.779,0,0,1,1.732.57,2.555,2.555,0,0,1,.985.8,1.97,1.97,0,0,1,.32,1.139,2.141,2.141,0,0,1-.9,1.795,3.754,3.754,0,0,1-2.324.675,4.191,4.191,0,0,1-1.775-.356,2.887,2.887,0,0,1-1.208-.992,2.383,2.383,0,0,1-.436-1.378h1.428a1.48,1.48,0,0,0,.575,1.139,2.237,2.237,0,0,0,1.416.421,2.309,2.309,0,0,0,1.3-.328,1.011,1.011,0,0,0,.49-.877" transform="translate(134.283 114.508)"/>
        <path id="Trazado_900556" data-name="Trazado 900556" d="M220.568,187.7a2.987,2.987,0,0,1-.2-.88,3.18,3.18,0,0,1-2.377,1.034,2.951,2.951,0,0,1-2.027-.7,2.258,2.258,0,0,1-.792-1.772,2.362,2.362,0,0,1,.993-2.027,4.679,4.679,0,0,1,2.791-.721h1.39v-.657a1.6,1.6,0,0,0-.449-1.192,1.8,1.8,0,0,0-1.321-.444,2.08,2.08,0,0,0-1.28.385,1.136,1.136,0,0,0-.518.934h-1.436a1.977,1.977,0,0,1,.444-1.208,3.015,3.015,0,0,1,1.2-.923,4.051,4.051,0,0,1,1.67-.339,3.3,3.3,0,0,1,2.264.723,2.6,2.6,0,0,1,.849,1.986v3.845a4.689,4.689,0,0,0,.293,1.831v.123Zm-2.37-1.088a2.515,2.515,0,0,0,1.274-.348,2.121,2.121,0,0,0,.874-.9v-1.714h-1.121q-2.623,0-2.626,1.536a1.3,1.3,0,0,0,.449,1.051,1.72,1.72,0,0,0,1.151.379" transform="translate(137.503 114.508)"/>
        <path id="Trazado_900557" data-name="Trazado 900557" d="M163.782,190.918l.039.926a3.079,3.079,0,0,1,2.478-1.08,2.386,2.386,0,0,1,2.385,1.342,3.165,3.165,0,0,1,1.085-.972,3.2,3.2,0,0,1,1.58-.37q2.746,0,2.795,2.911v5.6h-1.429v-5.514a1.922,1.922,0,0,0-.408-1.339,1.8,1.8,0,0,0-1.375-.444,1.9,1.9,0,0,0-1.319.475,1.933,1.933,0,0,0-.61,1.277v5.545h-1.436V193.8a1.594,1.594,0,0,0-1.783-1.823,1.91,1.91,0,0,0-1.923,1.2v6.1h-1.429v-8.354Z" transform="translate(103.8 121.906)"/>
        <path id="Trazado_900558" data-name="Trazado 900558" d="M176.142,199.272a2.988,2.988,0,0,1-.2-.88,3.18,3.18,0,0,1-2.377,1.034,2.951,2.951,0,0,1-2.027-.7,2.258,2.258,0,0,1-.792-1.772,2.362,2.362,0,0,1,.993-2.028,4.68,4.68,0,0,1,2.791-.721h1.39v-.657a1.6,1.6,0,0,0-.449-1.192,1.8,1.8,0,0,0-1.321-.444,2.08,2.08,0,0,0-1.28.385,1.136,1.136,0,0,0-.518.934h-1.436a1.977,1.977,0,0,1,.444-1.208,3.016,3.016,0,0,1,1.2-.923,4.051,4.051,0,0,1,1.67-.339,3.3,3.3,0,0,1,2.264.723,2.6,2.6,0,0,1,.849,1.987v3.845a4.69,4.69,0,0,0,.293,1.831v.123Zm-2.37-1.088a2.515,2.515,0,0,0,1.274-.348,2.121,2.121,0,0,0,.874-.9v-1.714H174.8q-2.623,0-2.626,1.536a1.3,1.3,0,0,0,.449,1.051,1.72,1.72,0,0,0,1.151.379" transform="translate(109.113 121.906)"/>
        <path id="Trazado_900559" data-name="Trazado 900559" d="M181.138,197.056a1.053,1.053,0,0,0-.438-.9,4.176,4.176,0,0,0-1.519-.552,7.071,7.071,0,0,1-1.721-.556,2.429,2.429,0,0,1-.942-.772,1.848,1.848,0,0,1-.307-1.065,2.168,2.168,0,0,1,.869-1.737,3.4,3.4,0,0,1,2.221-.71,3.491,3.491,0,0,1,2.3.733,2.331,2.331,0,0,1,.883,1.877h-1.436a1.293,1.293,0,0,0-.5-1.011,1.869,1.869,0,0,0-1.256-.424,1.951,1.951,0,0,0-1.219.339,1.073,1.073,0,0,0-.441.888.867.867,0,0,0,.41.78,5.046,5.046,0,0,0,1.478.5,7.726,7.726,0,0,1,1.732.57,2.531,2.531,0,0,1,.985.8,1.958,1.958,0,0,1,.32,1.139,2.139,2.139,0,0,1-.895,1.795,3.754,3.754,0,0,1-2.324.675,4.2,4.2,0,0,1-1.777-.356,2.883,2.883,0,0,1-1.206-.992,2.385,2.385,0,0,1-.438-1.378h1.428a1.476,1.476,0,0,0,.577,1.139,2.23,2.23,0,0,0,1.416.421,2.312,2.312,0,0,0,1.3-.328,1.011,1.011,0,0,0,.49-.877" transform="translate(112.424 121.906)"/>
        <path id="Trazado_900560" data-name="Trazado 900560" d="M184.609,198.261a2.047,2.047,0,0,0,1.334-.464,1.626,1.626,0,0,0,.634-1.157h1.351a2.586,2.586,0,0,1-.493,1.367,3.272,3.272,0,0,1-1.218,1.034,3.5,3.5,0,0,1-1.608.385,3.443,3.443,0,0,1-2.714-1.137,4.538,4.538,0,0,1-1.008-3.116v-.239a5.035,5.035,0,0,1,.447-2.17,3.41,3.41,0,0,1,1.285-1.473,3.65,3.65,0,0,1,1.982-.526,3.356,3.356,0,0,1,2.336.841,3.012,3.012,0,0,1,.992,2.185h-1.351a1.965,1.965,0,0,0-.615-1.331,1.908,1.908,0,0,0-1.362-.521,2,2,0,0,0-1.687.783,3.688,3.688,0,0,0-.6,2.267v.269a3.615,3.615,0,0,0,.593,2.224,2.012,2.012,0,0,0,1.7.78" transform="translate(115.594 121.906)"/>
        <path id="Trazado_900561" data-name="Trazado 900561" d="M191.333,198.386a3.032,3.032,0,0,1-2.447.98,2.6,2.6,0,0,1-2.034-.775,3.354,3.354,0,0,1-.706-2.3v-5.435h1.428v5.4q0,1.9,1.544,1.9a2.14,2.14,0,0,0,2.178-1.219v-6.076h1.429v8.354h-1.359Z" transform="translate(118.955 121.966)"/>
        <rect id="Rectángulo_407591" data-name="Rectángulo 407591" width="1.429" height="11.858" transform="translate(313.97 309.32)"/>
        <path id="Trazado_900562" data-name="Trazado 900562" d="M193.827,189.828a.856.856,0,0,1,.213-.587.8.8,0,0,1,.629-.239.813.813,0,0,1,.634.239.849.849,0,0,1,.215.587.846.846,0,1,1-1.691,0m1.546,10.57h-1.428v-8.354h1.428Z" transform="translate(123.864 120.78)"/>
        <path id="Trazado_900563" data-name="Trazado 900563" d="M197.515,190.918l.046,1.051a3.039,3.039,0,0,1,2.5-1.2q2.648,0,2.672,2.988v5.52h-1.429v-5.528a1.92,1.92,0,0,0-.413-1.336,1.657,1.657,0,0,0-1.264-.433,2.072,2.072,0,0,0-1.219.37,2.523,2.523,0,0,0-.818.974v5.953h-1.428v-8.354Z" transform="translate(125.357 121.906)"/>
        <path id="Trazado_900564" data-name="Trazado 900564" d="M206.737,199.272a2.986,2.986,0,0,1-.2-.88,3.18,3.18,0,0,1-2.377,1.034,2.951,2.951,0,0,1-2.027-.7,2.258,2.258,0,0,1-.792-1.772,2.362,2.362,0,0,1,.993-2.028,4.68,4.68,0,0,1,2.791-.721h1.39v-.657a1.6,1.6,0,0,0-.449-1.192,1.8,1.8,0,0,0-1.321-.444,2.08,2.08,0,0,0-1.28.385,1.136,1.136,0,0,0-.518.934H201.51a1.977,1.977,0,0,1,.444-1.208,3.016,3.016,0,0,1,1.2-.923,4.051,4.051,0,0,1,1.67-.339,3.3,3.3,0,0,1,2.264.723,2.6,2.6,0,0,1,.849,1.987v3.845a4.689,4.689,0,0,0,.293,1.831v.123Zm-2.368-1.088a2.514,2.514,0,0,0,1.272-.348,2.121,2.121,0,0,0,.874-.9v-1.714h-1.121q-2.623,0-2.626,1.536a1.3,1.3,0,0,0,.449,1.051,1.721,1.721,0,0,0,1.152.379" transform="translate(128.665 121.906)"/>
        <path id="Trazado_900565" data-name="Trazado 900565" d="M207.388,201.3H206.16l4.693-12.208h1.221Z" transform="translate(131.745 120.84)"/>
        <path id="Trazado_900566" data-name="Trazado 900566" d="M174.942,209.838a2.052,2.052,0,0,0,1.336-.464,1.629,1.629,0,0,0,.633-1.157h1.351a2.6,2.6,0,0,1-.492,1.367,3.272,3.272,0,0,1-1.218,1.034,3.5,3.5,0,0,1-1.61.385,3.437,3.437,0,0,1-2.713-1.137,4.538,4.538,0,0,1-1.01-3.116v-.239a5.011,5.011,0,0,1,.449-2.17,3.4,3.4,0,0,1,1.285-1.473,3.645,3.645,0,0,1,1.98-.526,3.353,3.353,0,0,1,2.336.841,3.006,3.006,0,0,1,.992,2.185h-1.351a1.971,1.971,0,0,0-.613-1.331,1.91,1.91,0,0,0-1.364-.521,2,2,0,0,0-1.687.783,3.688,3.688,0,0,0-.6,2.267v.269a3.6,3.6,0,0,0,.595,2.224,2.007,2.007,0,0,0,1.7.78" transform="translate(109.417 129.304)"/>
        <rect id="Rectángulo_407592" data-name="Rectángulo 407592" width="1.428" height="11.858" transform="translate(289.409 328.295)"/>
        <path id="Trazado_900567" data-name="Trazado 900567" d="M184.089,212.155a2.984,2.984,0,0,1-.2-.88,3.191,3.191,0,0,1-2.38,1.036,2.95,2.95,0,0,1-2.026-.7,2.257,2.257,0,0,1-.79-1.772,2.366,2.366,0,0,1,.99-2.028,4.69,4.69,0,0,1,2.791-.721h1.39v-.656a1.606,1.606,0,0,0-.447-1.193,1.8,1.8,0,0,0-1.319-.444,2.088,2.088,0,0,0-1.282.385,1.145,1.145,0,0,0-.518.936h-1.436a1.972,1.972,0,0,1,.444-1.21,3.03,3.03,0,0,1,1.2-.923,4.048,4.048,0,0,1,1.672-.339,3.3,3.3,0,0,1,2.26.723,2.606,2.606,0,0,1,.851,1.988V210.2a4.708,4.708,0,0,0,.293,1.831v.123Zm-2.372-1.088a2.512,2.512,0,0,0,1.275-.347,2.089,2.089,0,0,0,.872-.9V208.1h-1.119q-2.623,0-2.624,1.537a1.3,1.3,0,0,0,.447,1.049,1.718,1.718,0,0,0,1.149.379m1.321-10.77h1.731l-2.07,2.27-1.151,0Z" transform="translate(114.192 127.998)"/>
        <path id="Trazado_900568" data-name="Trazado 900568" d="M189.085,208.633a1.052,1.052,0,0,0-.436-.9,4.2,4.2,0,0,0-1.519-.552,7.083,7.083,0,0,1-1.723-.556,2.435,2.435,0,0,1-.941-.772,1.836,1.836,0,0,1-.306-1.065,2.168,2.168,0,0,1,.869-1.737,3.391,3.391,0,0,1,2.219-.71,3.491,3.491,0,0,1,2.3.733,2.328,2.328,0,0,1,.885,1.877H189a1.288,1.288,0,0,0-.5-1.011,1.864,1.864,0,0,0-1.255-.424,1.957,1.957,0,0,0-1.219.339,1.073,1.073,0,0,0-.441.888.87.87,0,0,0,.41.78,5.043,5.043,0,0,0,1.48.5,7.781,7.781,0,0,1,1.732.57,2.555,2.555,0,0,1,.985.8,1.97,1.97,0,0,1,.32,1.139,2.141,2.141,0,0,1-.9,1.795,3.754,3.754,0,0,1-2.324.675,4.191,4.191,0,0,1-1.775-.356,2.887,2.887,0,0,1-1.208-.992,2.383,2.383,0,0,1-.436-1.378H185.3a1.48,1.48,0,0,0,.575,1.139,2.237,2.237,0,0,0,1.416.421,2.309,2.309,0,0,0,1.3-.328,1.011,1.011,0,0,0,.49-.877" transform="translate(117.503 129.304)"/>
        <path id="Trazado_900569" data-name="Trazado 900569" d="M189.064,201.405a.859.859,0,0,1,.213-.587.8.8,0,0,1,.629-.239.813.813,0,0,1,.634.239.846.846,0,0,1,.216.587.884.884,0,0,1-1.48.579.827.827,0,0,1-.213-.579m1.546,10.57h-1.428v-8.354h1.428Z" transform="translate(120.82 128.178)"/>
        <path id="Trazado_900570" data-name="Trazado 900570" d="M194.9,209.838a2.052,2.052,0,0,0,1.336-.464,1.629,1.629,0,0,0,.633-1.157h1.351a2.6,2.6,0,0,1-.492,1.367,3.272,3.272,0,0,1-1.218,1.034,3.5,3.5,0,0,1-1.61.385,3.437,3.437,0,0,1-2.713-1.137,4.539,4.539,0,0,1-1.01-3.116v-.239a5.011,5.011,0,0,1,.449-2.17,3.4,3.4,0,0,1,1.285-1.473,3.645,3.645,0,0,1,1.98-.526,3.353,3.353,0,0,1,2.336.841,3.006,3.006,0,0,1,.992,2.185h-1.351a1.971,1.971,0,0,0-.613-1.331,1.909,1.909,0,0,0-1.364-.521,2,2,0,0,0-1.687.783,3.688,3.688,0,0,0-.6,2.267v.269a3.6,3.6,0,0,0,.595,2.224,2.007,2.007,0,0,0,1.7.78" transform="translate(122.168 129.304)"/>
        <path id="Trazado_900571" data-name="Trazado 900571" d="M201.7,210.849a2.986,2.986,0,0,1-.2-.88A3.18,3.18,0,0,1,199.123,211a2.951,2.951,0,0,1-2.027-.7,2.258,2.258,0,0,1-.792-1.772,2.362,2.362,0,0,1,.993-2.028,4.679,4.679,0,0,1,2.791-.721h1.39v-.657a1.6,1.6,0,0,0-.449-1.192,1.8,1.8,0,0,0-1.321-.444,2.079,2.079,0,0,0-1.28.385,1.136,1.136,0,0,0-.518.934h-1.436a1.977,1.977,0,0,1,.444-1.208,3.016,3.016,0,0,1,1.2-.923,4.052,4.052,0,0,1,1.67-.339,3.3,3.3,0,0,1,2.264.723,2.6,2.6,0,0,1,.849,1.987V208.9a4.689,4.689,0,0,0,.293,1.831v.123Zm-2.37-1.088a2.515,2.515,0,0,0,1.274-.347,2.121,2.121,0,0,0,.874-.9V206.8h-1.121q-2.623,0-2.626,1.536a1.3,1.3,0,0,0,.449,1.051,1.72,1.72,0,0,0,1.151.379" transform="translate(125.447 129.304)"/>
        <path id="Trazado_900572" data-name="Trazado 900572" d="M253.436,340.318h-7.367v-1.026l3.891-4.326a9.086,9.086,0,0,0,1.192-1.593,2.65,2.65,0,0,0,.329-1.27,2.019,2.019,0,0,0-.534-1.444,1.854,1.854,0,0,0-1.419-.562,2.214,2.214,0,0,0-1.657.6,2.318,2.318,0,0,0-.59,1.687h-1.428a3.31,3.31,0,0,1,1-2.508,3.7,3.7,0,0,1,2.675-.959,3.562,3.562,0,0,1,2.478.823,2.807,2.807,0,0,1,.913,2.19q0,1.659-2.116,3.952l-3.011,3.267h5.645Z" transform="translate(157.11 210.195)"/>
        <path id="Trazado_900573" data-name="Trazado 900573" d="M251.51,335.755a.9.9,0,0,1,.22-.618.841.841,0,0,1,.661-.246.863.863,0,0,1,.667.246.878.878,0,0,1,.228.618.825.825,0,0,1-.228.6.878.878,0,0,1-.667.239.794.794,0,0,1-.88-.834" transform="translate(160.726 214.01)"/>
        <path id="Trazado_900574" data-name="Trazado 900574" d="M260.174,336.483h1.56v1.167h-1.56v2.609h-1.436V337.65H253.62v-.843l5.033-7.79h1.521Zm-4.933,0h3.5v-5.512l-.17.308Z" transform="translate(162.074 210.256)"/>
        <path id="Trazado_900575" data-name="Trazado 900575" d="M296.533,241.437h-7.366v-1.026l3.891-4.325a9.147,9.147,0,0,0,1.192-1.593,2.655,2.655,0,0,0,.329-1.27,2.016,2.016,0,0,0-.534-1.444,1.855,1.855,0,0,0-1.419-.564,2.208,2.208,0,0,0-1.657.606,2.316,2.316,0,0,0-.59,1.687h-1.428a3.316,3.316,0,0,1,1-2.509,3.71,3.71,0,0,1,2.675-.957,3.554,3.554,0,0,1,2.478.823,2.8,2.8,0,0,1,.913,2.188q0,1.662-2.116,3.953l-3.011,3.267h5.643Z" transform="translate(184.652 147.006)"/>
        <path id="Trazado_900576" data-name="Trazado 900576" d="M307.039,339.565h1.074a2.365,2.365,0,0,0,1.591-.531,1.785,1.785,0,0,0,.579-1.4,1.744,1.744,0,0,0-1.97-1.977,2.054,2.054,0,0,0-1.477.528,1.849,1.849,0,0,0-.552,1.4h-1.429a2.867,2.867,0,0,1,.978-2.221,3.555,3.555,0,0,1,2.48-.885,3.517,3.517,0,0,1,2.495.842,3.04,3.04,0,0,1,.9,2.341,2.466,2.466,0,0,1-.475,1.419,2.883,2.883,0,0,1-1.295,1.028,2.767,2.767,0,0,1,1.434.974,2.692,2.692,0,0,1,.5,1.659,3.069,3.069,0,0,1-.987,2.4,3.7,3.7,0,0,1-2.573.888,3.8,3.8,0,0,1-2.573-.857,2.843,2.843,0,0,1-.993-2.262h1.436a1.838,1.838,0,0,0,.58,1.421,2.2,2.2,0,0,0,1.55.531,2.161,2.161,0,0,0,1.583-.539,2.083,2.083,0,0,0,.549-1.552,1.889,1.889,0,0,0-.6-1.5,2.617,2.617,0,0,0-1.737-.541h-1.074Z" transform="translate(194.751 213.749)"/>
        <path id="Trazado_900577" data-name="Trazado 900577" d="M146.236,444.356H144.8v-9.521l-2.881,1.059v-1.3l4.093-1.537h.225Z" transform="translate(90.692 276.743)"/>
        <path id="Trazado_900578" data-name="Trazado 900578" d="M151.653,444.356h-1.436v-9.521l-2.881,1.059v-1.3l4.093-1.537h.225Z" transform="translate(94.154 276.743)"/>
        <path id="Trazado_900579" data-name="Trazado 900579" d="M144.262,534.531h-1.436v-9.521l-2.88,1.059v-1.3l4.091-1.537h.225Z" transform="translate(89.431 334.369)"/>
        <path id="Trazado_900580" data-name="Trazado 900580" d="M149.679,534.531h-1.436v-9.521l-2.88,1.059v-1.3l4.091-1.537h.225Z" transform="translate(92.893 334.369)"/>
        <path id="Trazado_900581" data-name="Trazado 900581" d="M226.148,526.261a2.6,2.6,0,0,1-.444,1.5,3.023,3.023,0,0,1-1.2,1.028,3.2,3.2,0,0,1,1.393,1.1,2.774,2.774,0,0,1,.515,1.644,2.942,2.942,0,0,1-.985,2.324,4.322,4.322,0,0,1-5.189,0,2.954,2.954,0,0,1-.977-2.321,2.868,2.868,0,0,1,.5-1.644,3.1,3.1,0,0,1,1.378-1.113,2.924,2.924,0,0,1-1.182-1.028,2.639,2.639,0,0,1-.433-1.49,2.909,2.909,0,0,1,.911-2.254,3.868,3.868,0,0,1,4.8,0,2.9,2.9,0,0,1,.915,2.254m-1.165,5.243a2.068,2.068,0,0,0-.6-1.536,2.123,2.123,0,0,0-1.564-.6,2.016,2.016,0,0,0-2.132,2.132,2,2,0,0,0,.569,1.5,2.533,2.533,0,0,0,3.154,0,1.992,1.992,0,0,0,.572-1.5m-2.147-7.158a1.842,1.842,0,0,0-1.362.521,2.157,2.157,0,0,0-.008,2.8,2.04,2.04,0,0,0,2.742,0,2.118,2.118,0,0,0-.02-2.783,1.819,1.819,0,0,0-1.352-.541" transform="translate(140.117 334.33)"/>
        <path id="Trazado_900582" data-name="Trazado 900582" d="M109.191,480.153h-1.436v-9.521l-2.88,1.059v-1.3l4.091-1.537h.225Z" transform="translate(67.02 299.619)"/>
        <path id="Trazado_900583" data-name="Trazado 900583" d="M182.6,520.633h-1.436v-9.521l-2.88,1.059v-1.3l4.091-1.537h.225Z" transform="translate(113.93 325.488)"/>
        <path id="Trazado_900584" data-name="Trazado 900584" d="M198.023,520.633h-1.436v-9.521l-2.881,1.059v-1.3l4.093-1.537h.225Z" transform="translate(123.786 325.488)"/>
        <line id="Línea_1640" data-name="Línea 1640" x2="16.385" transform="translate(593.448 833.702)" fill="none" stroke="#9d9d9c" stroke-miterlimit="10" stroke-width="0.75"/>
        <line id="Línea_1641" data-name="Línea 1641" y1="104.586" transform="translate(601.64 729.116)" fill="none" stroke="#9d9d9c" stroke-miterlimit="10" stroke-width="0.75"/>
        <line id="Línea_1642" data-name="Línea 1642" x1="16.386" transform="translate(593.447 583.655)" fill="none" stroke="#9d9d9c" stroke-miterlimit="10" stroke-width="0.75"/>
        <line id="Línea_1643" data-name="Línea 1643" y2="112.643" transform="translate(601.64 583.655)" fill="none" stroke="#9d9d9c" stroke-miterlimit="10" stroke-width="0.75"/>
        <line id="Línea_1644" data-name="Línea 1644" y2="569.069" transform="translate(52.812 264.163)" fill="none" stroke="#9d9d9c" stroke-miterlimit="10" stroke-width="0.75"/>
        <line id="Línea_1645" data-name="Línea 1645" x2="507.046" transform="translate(52.813 607.191)" fill="none" stroke="#9d9d9c" stroke-miterlimit="10" stroke-width="0.75"/>
        <line id="Línea_1646" data-name="Línea 1646" x2="507.046" transform="translate(53.028 409.266)" fill="none" stroke="#9d9d9c" stroke-miterlimit="10" stroke-width="0.75"/>
        <line id="Línea_1647" data-name="Línea 1647" y1="395.791" transform="translate(440.638 437.441)" fill="none" stroke="#9d9d9c" stroke-miterlimit="10" stroke-width="0.75"/>
        <line id="Línea_1648" data-name="Línea 1648" y1="193.3" transform="translate(307.546 413.891)" fill="none" stroke="#9d9d9c" stroke-miterlimit="10" stroke-width="0.75"/>
        <line id="Línea_1649" data-name="Línea 1649" x1="120.114" transform="translate(244.663 586.256)" fill="none" stroke="#9d9d9c" stroke-miterlimit="10" stroke-width="0.75"/>
        <line id="Línea_1650" data-name="Línea 1650" x1="99.941" transform="translate(390.866 580.034)" fill="none" stroke="#9d9d9c" stroke-miterlimit="10" stroke-width="0.75"/>
        <path id="Trazado_900585" data-name="Trazado 900585" d="M32.222,382.677h96.153l152.288-12.222" transform="translate(20.591 236.736)" fill="none" stroke="#9d9d9c" stroke-miterlimit="10" stroke-width="0.75"/>
        <path id="Trazado_900586" data-name="Trazado 900586" d="M152.185,93.568l-4.132,7.158h8.264Z" transform="translate(94.612 59.794)"/>
        <path id="Trazado_900587" data-name="Trazado 900587" d="M41.086,124.291l-4.132,7.158h8.264Z" transform="translate(23.615 79.427)"/>
        <path id="Trazado_900588" data-name="Trazado 900588" d="M221.145,93.568l-4.132,7.158h8.264Z" transform="translate(138.68 59.794)" fill="none" stroke="#000" stroke-miterlimit="10" stroke-width="0.5"/>
        <path id="Trazado_900589" data-name="Trazado 900589" d="M326.742,81.577l-4.132,7.158h8.264Z" transform="translate(206.161 52.131)" fill="none" stroke="#000" stroke-miterlimit="10" stroke-width="0.5"/>
        <path id="Trazado_900590" data-name="Trazado 900590" d="M2.776,164.711l7.158,4.132-1.639-4.132,1.639-4.132Z" transform="translate(1.774 102.617)"/>
        <path id="Trazado_900591" data-name="Trazado 900591" d="M109.679,125.14a8.556,8.556,0,0,0-.434,2.419,8.683,8.683,0,0,0,16.974,2.77l5.527,1.734a14.46,14.46,0,1,1-27.593-8.657Z" transform="translate(66.129 78.862)" fill="none" stroke="#000" stroke-miterlimit="10" stroke-width="0.75"/>
        <path id="Trazado_900592" data-name="Trazado 900592" d="M254.523,112.523a8.532,8.532,0,0,0,1,2.244,8.683,8.683,0,0,0,15.594-7.253l5.545-1.675a14.46,14.46,0,1,1-27.685,8.357Z" transform="translate(159.107 67.636)" fill="none" stroke="#000" stroke-miterlimit="10" stroke-width="0.75"/>
        <line id="Línea_1651" data-name="Línea 1651" x2="122.307" y2="41.519" transform="translate(121.137 206.859)" fill="none" stroke="#000" stroke-miterlimit="10" stroke-width="0.75"/>
        <path id="Trazado_900593" data-name="Trazado 900593" d="M339.181,125.55a2.245,2.245,0,1,1-2.244-2.244A2.244,2.244,0,0,1,339.181,125.55Z" transform="translate(213.882 78.798)" fill="none" stroke="#000" stroke-miterlimit="10" stroke-width="0.75"/>
        <path id="Trazado_900594" data-name="Trazado 900594" d="M339.181,133.737a2.245,2.245,0,1,1-2.244-2.244A2.244,2.244,0,0,1,339.181,133.737Z" transform="translate(213.882 84.03)" fill="none" stroke="#000" stroke-miterlimit="10" stroke-width="0.75"/>
        <path id="Trazado_900595" data-name="Trazado 900595" d="M332.14,129.469a2.245,2.245,0,1,1-2.244-2.244A2.244,2.244,0,0,1,332.14,129.469Z" transform="translate(209.383 81.302)" fill="none" stroke="#000" stroke-miterlimit="10" stroke-width="0.75"/>
        <path id="Trazado_900596" data-name="Trazado 900596" d="M240.909,72.255a2.245,2.245,0,1,1-2.244-2.244A2.244,2.244,0,0,1,240.909,72.255Z" transform="translate(151.082 44.74)" fill="none" stroke="#000" stroke-miterlimit="10" stroke-width="0.75"/>
        <path id="Trazado_900597" data-name="Trazado 900597" d="M240.909,80.442a2.245,2.245,0,1,1-2.244-2.244A2.244,2.244,0,0,1,240.909,80.442Z" transform="translate(151.082 49.972)" fill="none" stroke="#000" stroke-miterlimit="10" stroke-width="0.75"/>
        <path id="Trazado_900598" data-name="Trazado 900598" d="M233.868,76.174a2.245,2.245,0,1,1-2.244-2.244A2.244,2.244,0,0,1,233.868,76.174Z" transform="translate(146.583 47.244)" fill="none" stroke="#000" stroke-miterlimit="10" stroke-width="0.75"/>
        <path id="Trazado_900599" data-name="Trazado 900599" d="M240.909,24.662a2.245,2.245,0,1,1-2.244-2.244A2.244,2.244,0,0,1,240.909,24.662Z" transform="translate(151.082 14.326)" fill="none" stroke="#000" stroke-miterlimit="10" stroke-width="0.75"/>
        <path id="Trazado_900600" data-name="Trazado 900600" d="M240.909,32.849a2.245,2.245,0,1,1-2.244-2.244A2.244,2.244,0,0,1,240.909,32.849Z" transform="translate(151.082 19.558)" fill="none" stroke="#000" stroke-miterlimit="10" stroke-width="0.75"/>
        <path id="Trazado_900601" data-name="Trazado 900601" d="M233.868,28.581a2.245,2.245,0,1,1-2.244-2.244A2.245,2.245,0,0,1,233.868,28.581Z" transform="translate(146.583 16.83)" fill="none" stroke="#000" stroke-miterlimit="10" stroke-width="0.75"/>
        <path id="Trazado_900602" data-name="Trazado 900602" d="M339.181,266.394a2.245,2.245,0,1,1-2.244-2.244A2.244,2.244,0,0,1,339.181,266.394Z" transform="translate(213.882 168.803)" fill="none" stroke="#000" stroke-miterlimit="10" stroke-width="0.75"/>
        <path id="Trazado_900603" data-name="Trazado 900603" d="M339.181,274.581a2.245,2.245,0,1,1-2.244-2.244A2.244,2.244,0,0,1,339.181,274.581Z" transform="translate(213.882 174.035)" fill="none" stroke="#000" stroke-miterlimit="10" stroke-width="0.75"/>
        <path id="Trazado_900604" data-name="Trazado 900604" d="M332.14,270.314a2.245,2.245,0,1,1-2.244-2.244A2.244,2.244,0,0,1,332.14,270.314Z" transform="translate(209.383 171.308)" fill="none" stroke="#000" stroke-miterlimit="10" stroke-width="0.75"/>
        <path id="Trazado_900605" data-name="Trazado 900605" d="M6.07,163.975s22.161.164,31.047-2.249" transform="translate(3.879 103.35)" fill="none" stroke="#000" stroke-miterlimit="10" stroke-width="0.75"/>
        <path id="Trazado_900606" data-name="Trazado 900606" d="M222.058,20.615l4.132,7.158-4.132-1.639-4.132,1.639Z" transform="translate(139.264 13.174)"/>
        <path id="Trazado_900607" data-name="Trazado 900607" d="M222.058,40.327l-4.132-7.158,4.132,1.639,4.132-1.639Z" transform="translate(139.264 21.197)"/>
        <line id="Línea_1652" data-name="Línea 1652" y2="18.949" transform="translate(361.322 38.255)" fill="none" stroke="#000" stroke-miterlimit="10" stroke-width="0.75"/>
        <path id="Trazado_900608" data-name="Trazado 900608" d="M125.465,0,129.6,7.157l-4.132-1.639-4.132,1.639Z" transform="translate(77.537 0)"/>
        <line id="Línea_1653" data-name="Línea 1653" y2="25.182" transform="translate(203.001 4.466)" fill="none" stroke="#000" stroke-miterlimit="10" stroke-width="0.75"/>
        <path id="Trazado_900609" data-name="Trazado 900609" d="M223.666,66.838,227.8,74l-4.132-1.639L219.534,74Z" transform="translate(140.291 42.712)"/>
        <path id="Trazado_900610" data-name="Trazado 900610" d="M223.666,86.551l-4.132-7.158,4.132,1.639,4.132-1.639Z" transform="translate(140.291 50.736)"/>
        <line id="Línea_1654" data-name="Línea 1654" y2="18.949" transform="translate(363.957 114.017)" fill="none" stroke="#000" stroke-miterlimit="10" stroke-width="0.75"/>
        <path id="Trazado_900611" data-name="Trazado 900611" d="M318.6,139.47l-7.158,4.132,1.639-4.132-1.639-4.132Z" transform="translate(199.024 86.487)"/>
        <path id="Trazado_900612" data-name="Trazado 900612" d="M249.323,139.47l7.158-4.132-1.639,4.132,1.639,4.132Z" transform="translate(159.328 86.487)"/>
        <line id="Línea_1655" data-name="Línea 1655" x1="99.133" transform="translate(412.971 225.956)" fill="none" stroke="#000" stroke-miterlimit="10" stroke-width="0.75"/>
        <path id="Trazado_900613" data-name="Trazado 900613" d="M315.657,259.42l4.132,7.158-4.132-1.639-4.132,1.639Z" transform="translate(199.078 165.78)"/>
        <path id="Trazado_900614" data-name="Trazado 900614" d="M315.657,323.658l-4.132-7.158,4.132,1.639,4.132-1.639Z" transform="translate(199.078 202.257)"/>
        <line id="Línea_1656" data-name="Línea 1656" y2="91.618" transform="translate(514.734 430.719)" fill="none" stroke="#000" stroke-miterlimit="10" stroke-width="0.75"/>
        <path id="Trazado_900615" data-name="Trazado 900615" d="M54.648,259.42l4.132,7.158-4.132-1.639-4.132,1.639Z" transform="translate(32.282 165.78)"/>
        <path id="Trazado_900616" data-name="Trazado 900616" d="M54.648,323.658,50.516,316.5l4.132,1.639L58.78,316.5Z" transform="translate(32.282 202.257)"/>
        <line id="Línea_1657" data-name="Línea 1657" y2="91.618" transform="translate(86.929 430.719)" fill="none" stroke="#000" stroke-miterlimit="10" stroke-width="0.75"/>
        <path id="Trazado_900617" data-name="Trazado 900617" d="M172.83,154.329l-4.132-7.158,4.132,1.639,4.132-1.639Z" transform="translate(107.805 94.048)"/>
        <line id="Línea_1658" data-name="Línea 1658" y2="10.611" transform="translate(280.634 233.447)" fill="none" stroke="#000" stroke-miterlimit="10" stroke-width="0.75"/>
        <path id="Trazado_900618" data-name="Trazado 900618" d="M92.312,133.553l-4.132-7.158,4.132,1.639,4.132-1.639Z" transform="translate(56.351 80.772)"/>
        <line id="Línea_1659" data-name="Línea 1659" y2="10.611" transform="translate(148.663 199.394)" fill="none" stroke="#000" stroke-miterlimit="10" stroke-width="0.75"/>
        <path id="Trazado_900619" data-name="Trazado 900619" d="M198.581,371.2c52.369,31.411,95.158,11.473,115.856.166,0,0,58.615,34.346,118.521-.915" transform="translate(126.902 236.736)" fill="none" stroke="#9d9d9c" stroke-miterlimit="10" stroke-width="0.75" stroke-dasharray="5.164 2.066"/>
        <path id="Trazado_900620" data-name="Trazado 900620" d="M190.552,370.88l-34.4-33.85,67.5,33.215" transform="translate(99.791 215.377)" fill="none" stroke="#9d9d9c" stroke-miterlimit="10" stroke-width="0.75"/>
        <path id="Trazado_900621" data-name="Trazado 900621" d="M266.916,363.519l-11.157-24.707,32.063,23.723" transform="translate(163.441 216.515)" fill="none" stroke="#9d9d9c" stroke-miterlimit="10" stroke-width="0.75"/>
        <path id="Trazado_900622" data-name="Trazado 900622" d="M269.307,257.817l24.448-20.822-24.917,36.757" transform="translate(171.799 151.449)" fill="none" stroke="#9d9d9c" stroke-miterlimit="10" stroke-width="0.75"/>
        <path id="Trazado_900623" data-name="Trazado 900623" d="M120.472,87.382,92.941,63.632,127.83,59.9" transform="translate(59.393 38.281)" fill="none" stroke="#9d9d9c" stroke-miterlimit="10" stroke-width="0.75"/>
        <path id="Trazado_900624" data-name="Trazado 900624" d="M125.46,79.917,103.584,85.8l10.087-9.136" transform="translate(66.195 48.994)" fill="none" stroke="#9d9d9c" stroke-miterlimit="10" stroke-width="0.75"/>
        <path id="Trazado_900625" data-name="Trazado 900625" d="M287.375,361.842l25.459-20.4L285.624,389" transform="translate(182.526 218.193)" fill="none" stroke="#9d9d9c" stroke-miterlimit="10" stroke-width="0.75"/>
        <path id="Trazado_900626" data-name="Trazado 900626" d="M198.027,465.567l-3.962,86.258L246.4,441.371l-41.74,10.595-14.274-13.411,13.224,29.329" transform="translate(121.666 280.255)" fill="none" stroke="#9d9d9c" stroke-miterlimit="10" stroke-width="0.75"/>
        <path id="Trazado_900627" data-name="Trazado 900627" d="M196.714,462.591l3.655,88.392L153.745,441.37l41.741,10.6,14.274-13.411-13.327,27.123" transform="translate(98.249 280.256)" fill="none" stroke="#9d9d9c" stroke-miterlimit="10" stroke-width="0.75"/>
        <path id="Trazado_900628" data-name="Trazado 900628" d="M207.922,367.645l19.79-25.553L212.35,388.579" transform="translate(132.871 218.612)" fill="none" stroke="#9d9d9c" stroke-miterlimit="10" stroke-width="0.75"/>
        <path id="Trazado_900629" data-name="Trazado 900629" d="M278.138,667.452l5.715-254.181L273.227,259.42,261.97,414.159l5.473,253.293" transform="translate(167.41 165.78)" fill="none" stroke="#000" stroke-miterlimit="10" stroke-width="1"/>
        <path id="Trazado_900630" data-name="Trazado 900630" d="M302.516,582.589H198.581V392.216" transform="translate(126.901 250.643)" fill="none" stroke="#9d9d9c" stroke-miterlimit="10" stroke-width="0.75"/>
        <path id="Trazado_900631" data-name="Trazado 900631" d="M31.824,582.589H268.669V392.216" transform="translate(20.337 250.643)" fill="none" stroke="#9d9d9c" stroke-miterlimit="10" stroke-width="0.75"/>
        <path id="Trazado_900632" data-name="Trazado 900632" d="M41.77,512.763l-24.489,4.9,24-16.176" transform="translate(11.043 320.469)" fill="none" stroke="#9d9d9c" stroke-miterlimit="10" stroke-width="0.75"/>
        <path id="Trazado_900633" data-name="Trazado 900633" d="M41.77,267.659l-24.489,4.9L41.77,255.211" transform="translate(11.043 163.09)" fill="none" stroke="#9d9d9c" stroke-miterlimit="10" stroke-width="0.75"/>
        <path id="Trazado_900634" data-name="Trazado 900634" d="M100.123,512.1h23.643l29.365-27.09" transform="translate(63.983 309.943)" fill="none" stroke="#9d9d9c" stroke-miterlimit="10" stroke-width="0.75"/>
        <line id="Línea_1660" data-name="Línea 1660" x1="21.096" y1="28.452" transform="translate(383.475 804.78)" fill="none" stroke="#9d9d9c" stroke-miterlimit="10" stroke-width="0.75"/>
        <line id="Línea_1661" data-name="Línea 1661" x2="10.195" y2="34.207" transform="translate(177.033 784.798)" fill="none" stroke="#9d9d9c" stroke-miterlimit="10" stroke-width="0.5"/>
        <line id="Línea_1662" data-name="Línea 1662" x1="6.427" y2="21.565" transform="translate(405.273 808.911)" fill="none" stroke="#9d9d9c" stroke-miterlimit="10" stroke-width="0.5"/>
        <path id="Trazado_900635" data-name="Trazado 900635" d="M40.385,189a5.874,5.874,0,1,1-5.874-5.874A5.874,5.874,0,0,1,40.385,189Z" transform="translate(18.301 117.027)" fill="none" stroke="#000" stroke-miterlimit="10" stroke-width="0.664"/>
        <line id="Línea_1663" data-name="Línea 1663" x2="6.294" transform="translate(49.665 306.028)" fill="none" stroke="#000" stroke-miterlimit="10" stroke-width="0.75"/>
        <path id="Trazado_900636" data-name="Trazado 900636" d="M40.385,238.683a5.874,5.874,0,1,1-5.874-5.874A5.874,5.874,0,0,1,40.385,238.683Z" transform="translate(18.301 148.775)" fill="none" stroke="#000" stroke-miterlimit="10" stroke-width="0.664"/>
        <line id="Línea_1664" data-name="Línea 1664" x2="6.294" transform="translate(49.665 387.458)" fill="none" stroke="#000" stroke-miterlimit="10" stroke-width="0.75"/>
        <path id="Trazado_900637" data-name="Trazado 900637" d="M40.385,287.9a5.874,5.874,0,1,1-5.874-5.874A5.874,5.874,0,0,1,40.385,287.9Z" transform="translate(18.301 180.225)" fill="none" stroke="#000" stroke-miterlimit="10" stroke-width="0.664"/>
        <line id="Línea_1665" data-name="Línea 1665" x2="6.294" transform="translate(49.665 468.124)" fill="none" stroke="#000" stroke-miterlimit="10" stroke-width="0.75"/>
        <path id="Trazado_900638" data-name="Trazado 900638" d="M40.385,337.114a5.874,5.874,0,1,1-5.874-5.874A5.874,5.874,0,0,1,40.385,337.114Z" transform="translate(18.301 211.676)" fill="none" stroke="#000" stroke-miterlimit="10" stroke-width="0.664"/>
        <line id="Línea_1666" data-name="Línea 1666" x2="6.294" transform="translate(49.665 548.79)" fill="none" stroke="#000" stroke-miterlimit="10" stroke-width="0.75"/>
        <path id="Trazado_900639" data-name="Trazado 900639" d="M40.385,386.562a5.874,5.874,0,1,1-5.874-5.874A5.874,5.874,0,0,1,40.385,386.562Z" transform="translate(18.301 243.276)" fill="none" stroke="#000" stroke-miterlimit="10" stroke-width="0.664"/>
        <line id="Línea_1667" data-name="Línea 1667" x2="6.294" transform="translate(49.665 629.838)" fill="none" stroke="#000" stroke-miterlimit="10" stroke-width="0.75"/>
        <path id="Trazado_900640" data-name="Trazado 900640" d="M40.385,436.127a5.874,5.874,0,1,1-5.874-5.874A5.874,5.874,0,0,1,40.385,436.127Z" transform="translate(18.301 274.95)" fill="none" stroke="#000" stroke-miterlimit="10" stroke-width="0.664"/>
        <line id="Línea_1668" data-name="Línea 1668" x2="6.294" transform="translate(49.665 711.077)" fill="none" stroke="#000" stroke-miterlimit="10" stroke-width="0.75"/>
        <path id="Trazado_900641" data-name="Trazado 900641" d="M34.275,456.927a3.994,3.994,0,0,1-1.269,2.655,4.17,4.17,0,0,1-2.844.934,3.824,3.824,0,0,1-3.08-1.377,5.549,5.549,0,0,1-1.159-3.688v-1.042a6.226,6.226,0,0,1,.539-2.66A4.042,4.042,0,0,1,28,449.989a4.255,4.255,0,0,1,2.293-.615,3.936,3.936,0,0,1,2.773.962,4.038,4.038,0,0,1,1.213,2.672H32.837a3.119,3.119,0,0,0-.808-1.883,2.455,2.455,0,0,0-1.741-.583,2.559,2.559,0,0,0-2.147,1.016,4.635,4.635,0,0,0-.78,2.883v1.052A4.794,4.794,0,0,0,28.1,458.3a2.382,2.382,0,0,0,2.064,1.044,2.747,2.747,0,0,0,1.829-.541,3,3,0,0,0,.846-1.88Z" transform="translate(16.567 287.169)" fill="#9d9d9c"/>
        <path id="Trazado_900642" data-name="Trazado 900642" d="M40.495,455.519h-4.55v4.791H34.514V449.464h6.718v1.169H35.945v3.717h4.55Z" transform="translate(22.056 287.227)" fill="#9d9d9c"/>
        <path id="Trazado_900643" data-name="Trazado 900643" d="M33.549,440.225s5.673-13.845,5.273-25.577" transform="translate(21.439 264.978)" fill="none" stroke="#9d9d9c" stroke-miterlimit="10" stroke-width="0.5"/>
        <path id="Trazado_900644" data-name="Trazado 900644" d="M37.193,410.567a128.45,128.45,0,0,0-3.6-22.711" transform="translate(21.465 247.856)" fill="none" stroke="#9d9d9c" stroke-miterlimit="10" stroke-width="0.5"/>
        <path id="Trazado_900645" data-name="Trazado 900645" d="M34.174,390.777s5.673-13.845,5.273-25.577" transform="translate(21.839 233.378)" fill="none" stroke="#9d9d9c" stroke-miterlimit="10" stroke-width="0.5"/>
        <path id="Trazado_900646" data-name="Trazado 900646" d="M37.819,361.118a128.359,128.359,0,0,0-3.6-22.711" transform="translate(21.865 216.256)" fill="none" stroke="#9d9d9c" stroke-miterlimit="10" stroke-width="0.5"/>
        <path id="Trazado_900647" data-name="Trazado 900647" d="M34.19,341.328s5.673-13.845,5.273-25.577" transform="translate(21.849 201.778)" fill="none" stroke="#9d9d9c" stroke-miterlimit="10" stroke-width="0.5"/>
        <path id="Trazado_900648" data-name="Trazado 900648" d="M37.835,311.67a128.449,128.449,0,0,0-3.6-22.711" transform="translate(21.876 184.657)" fill="none" stroke="#9d9d9c" stroke-miterlimit="10" stroke-width="0.5"/>
        <path id="Trazado_900649" data-name="Trazado 900649" d="M34.19,292.272s5.673-13.845,5.273-25.577" transform="translate(21.849 170.429)" fill="none" stroke="#9d9d9c" stroke-miterlimit="10" stroke-width="0.5"/>
        <path id="Trazado_900650" data-name="Trazado 900650" d="M37.835,262.614a128.45,128.45,0,0,0-3.6-22.711" transform="translate(21.876 153.308)" fill="none" stroke="#9d9d9c" stroke-miterlimit="10" stroke-width="0.5"/>
        <path id="Trazado_900651" data-name="Trazado 900651" d="M34.19,243.02s5.673-13.845,5.273-25.577" transform="translate(21.849 138.955)" fill="none" stroke="#9d9d9c" stroke-miterlimit="10" stroke-width="0.5"/>
        <path id="Trazado_900652" data-name="Trazado 900652" d="M35.3,188.478a52.171,52.171,0,0,0,3.349-10.516" transform="translate(22.56 113.725)" fill="none" stroke="#9d9d9c" stroke-miterlimit="10" stroke-width="0.5"/>
        <path id="Trazado_900653" data-name="Trazado 900653" d="M37.835,212.542a128.45,128.45,0,0,0-3.6-22.711" transform="translate(21.876 121.31)" fill="none" stroke="#9d9d9c" stroke-miterlimit="10" stroke-width="0.5"/>
        <path id="Trazado_900654" data-name="Trazado 900654" d="M39.395,170.279a26.644,26.644,0,0,0-6.353-9.11" transform="translate(21.115 102.994)" fill="none" stroke="#9d9d9c" stroke-miterlimit="10" stroke-width="0.5"/>
        <path id="Trazado_900655" data-name="Trazado 900655" d="M96.714,115.283s-28.929-3.016-50.894,14.889" transform="translate(29.281 73.548)" fill="none" stroke="#9d9d9c" stroke-miterlimit="10" stroke-width="0.5"/>
        <path id="Trazado_900656" data-name="Trazado 900656" d="M348.283,120.845S342.915,97.156,331.43,88" transform="translate(211.798 56.233)" fill="none" stroke="#9d9d9c" stroke-miterlimit="10" stroke-width="0.5"/>
        <path id="Trazado_900657" data-name="Trazado 900657" d="M334.338,84.575s-20.372,3.417-42.758,22.03" transform="translate(186.332 54.047)" fill="none" stroke="#9d9d9c" stroke-miterlimit="10" stroke-width="0.5"/>
        <path id="Trazado_900658" data-name="Trazado 900658" d="M226.094,102.256s20.616-3.58,27.97-16.682" transform="translate(144.484 54.685)" fill="none" stroke="#9d9d9c" stroke-miterlimit="10" stroke-width="0.5"/>
        <path id="Trazado_900659" data-name="Trazado 900659" d="M155.034,102.951s40.75-2.518,55.739-17.377" transform="translate(99.073 54.685)" fill="none" stroke="#9d9d9c" stroke-miterlimit="10" stroke-width="0.5"/>
        <path id="Trazado_900660" data-name="Trazado 900660" d="M119.871,85.883s12.375,12.6,40.642,16.176" transform="translate(76.603 54.883)" fill="none" stroke="#9d9d9c" stroke-miterlimit="10" stroke-width="0.5"/>
        <path id="Trazado_900661" data-name="Trazado 900661" d="M125.86,82.242a103.964,103.964,0,0,0-15.9,15.733" transform="translate(70.268 52.556)" fill="none" stroke="#9d9d9c" stroke-miterlimit="10" stroke-width="0.5"/>
        <path id="Trazado_900662" data-name="Trazado 900662" d="M190.113,85.534a45.539,45.539,0,0,0,33.4,17.443" transform="translate(121.49 54.66)" fill="none" stroke="#9d9d9c" stroke-miterlimit="10" stroke-width="0.5"/>
        <line id="Línea_1669" data-name="Línea 1669" x2="12.132" transform="translate(435.231 425.201)" fill="none" stroke="#9d9d9c" stroke-miterlimit="10" stroke-width="0.75"/>
        <line id="Línea_1670" data-name="Línea 1670" x2="22.832" y2="20.683" transform="translate(335.017 340.154)" fill="none" stroke="#9d9d9c" stroke-miterlimit="10" stroke-width="0.75"/>
        <line id="Línea_1671" data-name="Línea 1671" x1="25.135" y2="24.181" transform="translate(243.395 336.657)" fill="none" stroke="#9d9d9c" stroke-miterlimit="10" stroke-width="0.75"/>
        <path id="Trazado_900663" data-name="Trazado 900663" d="M37.455,134.222s-5.233,22.453-5.233,44.167" transform="translate(20.591 85.774)" fill="none" stroke="#9d9d9c" stroke-miterlimit="10" stroke-width="0.5"/>
        <line id="Línea_1672" data-name="Línea 1672" x2="21.604" y2="28.392" transform="translate(326.327 732.221)" fill="none" stroke="#9d9d9c" stroke-miterlimit="10" stroke-width="0.75"/>
        <line id="Línea_1673" data-name="Línea 1673" x1="26.69" y2="23.722" transform="translate(266.591 732.221)" fill="none" stroke="#9d9d9c" stroke-miterlimit="10" stroke-width="0.75"/>
        <path id="Trazado_900664" data-name="Trazado 900664" d="M440.422,181.31,350.3,194.07c11.491,157.34-59.224,151.152-59.224,151.152-109.608,0-58.34-182.532-58.34-182.532l-122.423-35.8c-17.238,77.345-85.3,75.576-85.3,75.576V759.343H144.783s19.447,3.095,49.058-20.331c0,0,59.666-56.572,84.858-55.687,0,0-18.359-164.717,12.939-335.314,0,0,29.454,175.635,12.072,335.2,0,0,17.685-2.624,40.379,29.372s46.132,58.038,74.78,58.038H543.875V114.714s-46.134,8.185-81.849-16.741L341.485,134.806l8.93,46.5H543.875" transform="translate(15.984 62.609)" fill="none" stroke="#000" stroke-miterlimit="10" stroke-width="1"/>
        <line id="Línea_1674" data-name="Línea 1674" y2="37.049" transform="translate(398.627 69.11)" fill="none" stroke="#9d9d9c" stroke-miterlimit="10" stroke-width="0.5"/>
        <path id="Trazado_900665" data-name="Trazado 900665" d="M111.921,75.814,115.7,59.9l16.145,2.7s-10.408,30.7-6.9,39.657H258.435" transform="translate(71.522 38.281)" fill="none" stroke="#9d9d9c" stroke-miterlimit="10" stroke-width="0.5"/>
        <path id="Trazado_900666" data-name="Trazado 900666" d="M109.738,86.327s41.5,14.6,131.256,14.6H328.5v-34.1H232.63s-23.368,1.551-86.584-4.139C146.046,62.684,114.732,53.709,109.738,86.327Z" transform="translate(70.127 39.335)" fill="none" stroke="#000" stroke-miterlimit="10" stroke-width="0.5"/>
        <path id="Trazado_900667" data-name="Trazado 900667" d="M319.57,60.128V14.056s-86.556,2.709-102.817,4.335-71.447,9.215-93.042,1.9V92.148S194.3,62.839,319.57,60.128Z" transform="translate(79.057 8.982)" fill="none" stroke="#000" stroke-miterlimit="10" stroke-width="0.5"/>
        <path id="Trazado_900668" data-name="Trazado 900668" d="M129.954,72.93a5.874,5.874,0,1,1-5.874-5.874A5.874,5.874,0,0,1,129.954,72.93Z" transform="translate(75.539 42.852)" fill="none" stroke="#000" stroke-miterlimit="10" stroke-width="0.664"/>
        <line id="Línea_1675" data-name="Línea 1675" x2="6.294" transform="translate(196.473 115.783)" fill="none" stroke="#000" stroke-miterlimit="10" stroke-width="0.75"/>
      </g>
    </g>
  </g>
</svg>
