<svg xmlns="http://www.w3.org/2000/svg" xmlns:xlink="http://www.w3.org/1999/xlink" width="819.725" height="759" viewBox="0 0 819.725 759">
  <defs>
    <clipPath id="clip-path">
      <rect id="Rectángulo_407511" data-name="Rectángulo 407511" width="819.725" height="709.513" fill="none"/>
    </clipPath>
  </defs>
  <g id="Grupo_1114375" data-name="Grupo 1114375" transform="translate(-390.051 -2166)">
    <g id="Grupo_1114202" data-name="Grupo 1114202" transform="translate(390.051 2166)">
      <path id="Trazado_899653" data-name="Trazado 899653" d="M39.545,401.766l-25.76-13.781,25.76,32.834" transform="translate(8.554 240.758)" fill="none" stroke="#9d9d9c" stroke-miterlimit="10" stroke-width="0.75"/>
      <line id="Línea_1401" data-name="Línea 1401" x2="324.674" transform="translate(48.1 642.524)" fill="none" stroke="#000" stroke-miterlimit="10" stroke-width="0.75"/>
      <g id="Grupo_1114199" data-name="Grupo 1114199">
        <g id="Grupo_1114198" data-name="Grupo 1114198" clip-path="url(#clip-path)">
          <path id="Trazado_899654" data-name="Trazado 899654" d="M29.681,226.061s1.11-.958,3.2-2.476" transform="translate(18.418 138.742)" fill="none" stroke="#9d9d9c" stroke-miterlimit="10" stroke-width="0.75"/>
          <path id="Trazado_899655" data-name="Trazado 899655" d="M33.272,229.313c15.813-10.649,61.9-34.851,114.061,1" transform="translate(20.646 131.183)" fill="none" stroke="#9d9d9c" stroke-miterlimit="10" stroke-width="0.75" stroke-dasharray="4.938 1.975"/>
          <path id="Trazado_899656" data-name="Trazado 899656" d="M104.474,223.641q1.634,1.152,3.275,2.385s1.175-.875,3.343-2.279" transform="translate(64.83 138.777)" fill="none" stroke="#9d9d9c" stroke-miterlimit="10" stroke-width="0.75"/>
          <path id="Trazado_899657" data-name="Trazado 899657" d="M110.283,229.643c17.875-10.854,71.539-37.193,117.721,4.032,0,0,33.242,57.689,72.963,6.168" transform="translate(68.435 131.129)" fill="none" stroke="#9d9d9c" stroke-miterlimit="10" stroke-width="0.75" stroke-dasharray="5.099 2.04"/>
          <path id="Trazado_899658" data-name="Trazado 899658" d="M228.572,229.36q1.179-1.58,2.366-3.293s.749,1.343,2.162,3.421" transform="translate(141.837 140.283)" fill="none" stroke="#9d9d9c" stroke-miterlimit="10" stroke-width="0.75"/>
          <path id="Trazado_899659" data-name="Trazado 899659" d="M232.536,282.083c10.028,13.413,37.572,40.8,70.531-6.079,0,0,49.972-61.475,3.295-130.413" transform="translate(144.297 90.345)" fill="none" stroke="#9d9d9c" stroke-miterlimit="10" stroke-width="0.75" stroke-dasharray="5.044 2.018"/>
          <path id="Trazado_899660" data-name="Trazado 899660" d="M278.419,147.294q-1.142-1.646-2.36-3.295s.87-1.172,2.274-3.346" transform="translate(171.304 87.28)" fill="none" stroke="#9d9d9c" stroke-miterlimit="10" stroke-width="0.75"/>
          <path id="Trazado_899661" data-name="Trazado 899661" d="M278.783,185.97c10.835-17.847,37.8-72.4-.765-122.644" transform="translate(172.52 39.296)" fill="none" stroke="#9d9d9c" stroke-miterlimit="10" stroke-width="0.75" stroke-dasharray="4.861 1.945"/>
          <path id="Trazado_899662" data-name="Trazado 899662" d="M278.4,63.751q-1.242-1.57-2.569-3.132" transform="translate(171.162 37.616)" fill="none" stroke="#9d9d9c" stroke-miterlimit="10" stroke-width="0.75"/>
          <path id="Trazado_899663" data-name="Trazado 899663" d="M184.113,227.257s-1-1.081-2.586-3.108" transform="translate(112.644 139.092)" fill="none" stroke="#9d9d9c" stroke-miterlimit="10" stroke-width="0.75"/>
          <path id="Trazado_899664" data-name="Trazado 899664" d="M187.4,263.944c-11.17-15.453-36.11-59.722,1.01-108.279" transform="translate(104.743 96.596)" fill="none" stroke="#9d9d9c" stroke-miterlimit="10" stroke-width="0.75" stroke-dasharray="5.223 2.089"/>
          <path id="Trazado_899665" data-name="Trazado 899665" d="M181.544,157.261q1.235-1.568,2.557-3.144s-.951-1.125-2.468-3.205" transform="translate(112.654 93.646)" fill="none" stroke="#9d9d9c" stroke-miterlimit="10" stroke-width="0.75"/>
          <path id="Trazado_899666" data-name="Trazado 899666" d="M187.628,190.057c-11.073-16.27-36.669-63.233.886-106.633" transform="translate(104.736 51.768)" fill="none" stroke="#9d9d9c" stroke-miterlimit="10" stroke-width="0.75" stroke-dasharray="5.164 2.066"/>
          <path id="Trazado_899667" data-name="Trazado 899667" d="M181.648,83.776q1.33-1.485,2.761-2.966" transform="translate(112.719 50.145)" fill="none" stroke="#9d9d9c" stroke-miterlimit="10" stroke-width="0.75"/>
          <line id="Línea_1402" data-name="Línea 1402" y2="276.173" transform="translate(372.775 366.35)" fill="none" stroke="#000" stroke-miterlimit="10" stroke-width="1"/>
          <line id="Línea_1403" data-name="Línea 1403" y2="295.146" transform="translate(172.055 366.35)" fill="none" stroke="#000" stroke-miterlimit="10" stroke-width="0.75"/>
          <line id="Línea_1404" data-name="Línea 1404" y2="282.484" transform="translate(446.085 83.304)" fill="none" stroke="#000" stroke-miterlimit="10" stroke-width="0.5"/>
          <line id="Línea_1405" data-name="Línea 1405" x1="35.986" transform="translate(410.414 97.954)" fill="none" stroke="#000" stroke-miterlimit="10" stroke-width="0.5"/>
          <line id="Línea_1406" data-name="Línea 1406" y2="282.289" transform="translate(297.129 83.304)" fill="none" stroke="#000" stroke-miterlimit="10" stroke-width="0.5"/>
          <path id="Trazado_899668" data-name="Trazado 899668" d="M109,266.339s-50.59-3.4-78.565-39.886" transform="translate(18.887 140.522)" fill="none" stroke="#9d9d9c" stroke-miterlimit="10" stroke-width="0.75"/>
          <path id="Trazado_899669" data-name="Trazado 899669" d="M134.871,266.125s38.279-4.7,79.62-39.326" transform="translate(83.692 140.737)" fill="none" stroke="#9d9d9c" stroke-miterlimit="10" stroke-width="0.75"/>
          <path id="Trazado_899670" data-name="Trazado 899670" d="M383.946,259.533s57.482-4.291,87.512-33.253" transform="translate(238.252 140.415)" fill="none" stroke="#9d9d9c" stroke-miterlimit="10" stroke-width="0.75"/>
          <path id="Trazado_899671" data-name="Trazado 899671" d="M367.859,258.966s-69.284-5.366-91.873-32.514" transform="translate(171.259 140.521)" fill="none" stroke="#9d9d9c" stroke-miterlimit="10" stroke-width="0.75"/>
          <path id="Trazado_899672" data-name="Trazado 899672" d="M146.388,190.5l-3.6,6.237h7.2Z" transform="translate(88.604 118.214)"/>
          <path id="Trazado_899673" data-name="Trazado 899673" d="M146.388,190.5l-3.6,6.237h7.2Z" transform="translate(88.604 118.214)" fill="none" stroke="#000" stroke-miterlimit="10" stroke-width="0.5"/>
          <path id="Trazado_899674" data-name="Trazado 899674" d="M317.127,187.9l-3.6,6.237h7.2Z" transform="translate(194.554 116.596)"/>
          <path id="Trazado_899675" data-name="Trazado 899675" d="M78.953,123.9l-4.085,7.077h8.171Z" transform="translate(46.458 76.887)"/>
          <path id="Trazado_899676" data-name="Trazado 899676" d="M46.551,123.9l-4.085,7.077h8.171Z" transform="translate(26.351 76.887)"/>
          <path id="Trazado_899677" data-name="Trazado 899677" d="M110.8,88.919,106.714,96h8.171Z" transform="translate(66.22 55.177)"/>
          <path id="Trazado_899678" data-name="Trazado 899678" d="M250.283,62.01,257.36,66.1l-1.621-4.085,1.621-4.085Z" transform="translate(155.309 35.944)"/>
          <path id="Trazado_899679" data-name="Trazado 899679" d="M191.357,233.046l-41.8-35.757,79.153,19.362" transform="translate(92.805 122.425)" fill="none" stroke="#9d9d9c" stroke-miterlimit="10" stroke-width="0.75"/>
          <path id="Trazado_899680" data-name="Trazado 899680" d="M290.671,240.178l45.843-46.1-77.471,28.246" transform="translate(160.745 120.434)" fill="none" stroke="#9d9d9c" stroke-miterlimit="10" stroke-width="0.75"/>
          <path id="Trazado_899681" data-name="Trazado 899681" d="M233.153,229.574a20.324,20.324,0,0,0,3.551,1.93" transform="translate(144.68 142.459)" fill="none" stroke="#9d9d9c" stroke-miterlimit="10" stroke-width="0.75"/>
          <path id="Trazado_899682" data-name="Trazado 899682" d="M237.312,233.1c5.213,1.481,12.859,1.813,20.787-4.256" transform="translate(147.26 142.006)" fill="none" stroke="#9d9d9c" stroke-miterlimit="10" stroke-width="0.75" stroke-dasharray="5.23 2.092"/>
          <path id="Trazado_899683" data-name="Trazado 899683" d="M250.955,229.258a35.992,35.992,0,0,0,2.923-2.805,23.349,23.349,0,0,0,2.886,2.831" transform="translate(155.726 140.522)" fill="none" stroke="#9d9d9c" stroke-miterlimit="10" stroke-width="0.75"/>
          <path id="Trazado_899684" data-name="Trazado 899684" d="M256.361,229.544a22.306,22.306,0,0,0,22.713,1.4" transform="translate(159.081 142.44)" fill="none" stroke="#9d9d9c" stroke-miterlimit="10" stroke-width="0.75" stroke-dasharray="5.662 2.265"/>
          <path id="Trazado_899685" data-name="Trazado 899685" d="M271.391,230.714a34.617,34.617,0,0,0,3.41-2.189" transform="translate(168.408 141.808)" fill="none" stroke="#9d9d9c" stroke-miterlimit="10" stroke-width="0.75"/>
          <path id="Trazado_899686" data-name="Trazado 899686" d="M244.182,229.516l-3.6,6.237h7.2Z" transform="translate(149.289 142.423)"/>
          <path id="Trazado_899687" data-name="Trazado 899687" d="M244.182,229.516l-3.6,6.237h7.2Z" transform="translate(149.289 142.423)" fill="none" stroke="#000" stroke-miterlimit="10" stroke-width="0.5"/>
          <path id="Trazado_899688" data-name="Trazado 899688" d="M267.211,229.516l-3.6,6.237h7.2Z" transform="translate(163.579 142.423)"/>
          <path id="Trazado_899689" data-name="Trazado 899689" d="M267.211,229.516l-3.6,6.237h7.2Z" transform="translate(163.579 142.423)" fill="none" stroke="#000" stroke-miterlimit="10" stroke-width="0.5"/>
          <line id="Línea_1407" data-name="Línea 1407" y1="25.462" x2="25.502" transform="translate(296.757 340.889)" fill="none" stroke="#000" stroke-miterlimit="10" stroke-width="0.75"/>
          <line id="Línea_1408" data-name="Línea 1408" x1="24.958" y1="22.812" transform="translate(421.127 342.976)" fill="none" stroke="#000" stroke-miterlimit="10" stroke-width="0.75"/>
          <line id="Línea_1409" data-name="Línea 1409" x2="662.888" transform="translate(48.1 366.35)" fill="none" stroke="#9d9d9c" stroke-miterlimit="10" stroke-width="0.75"/>
          <path id="Trazado_899690" data-name="Trazado 899690" d="M90.127,112.455q-1.22,1.74-2.449,3.228" transform="translate(54.407 69.782)" fill="none" stroke="#9d9d9c" stroke-miterlimit="10" stroke-width="0.5"/>
          <path id="Trazado_899691" data-name="Trazado 899691" d="M100.8,116.485C85.549,132.426,70.1,121.634,63.132,115" transform="translate(39.176 71.359)" fill="none" stroke="#9d9d9c" stroke-miterlimit="10" stroke-width="0.5" stroke-dasharray="4.896 1.958"/>
          <path id="Trazado_899692" data-name="Trazado 899692" d="M64.424,115.47a37.456,37.456,0,0,1-2.7-3.016q-1.218,1.733-2.479,3.212" transform="translate(36.764 69.782)" fill="none" stroke="#9d9d9c" stroke-miterlimit="10" stroke-width="0.5"/>
          <path id="Trazado_899693" data-name="Trazado 899693" d="M73.152,115.886c-14.324,14.2-31.649,7.219-39.826,2.523" transform="translate(20.68 71.911)" fill="none" stroke="#9d9d9c" stroke-miterlimit="10" stroke-width="0.5" stroke-dasharray="4.937 1.975"/>
          <path id="Trazado_899694" data-name="Trazado 899694" d="M33.766,117.814a37.8,37.8,0,0,1-3.345-2.278" transform="translate(18.877 71.694)" fill="none" stroke="#9d9d9c" stroke-miterlimit="10" stroke-width="0.5"/>
          <line id="Línea_1410" data-name="Línea 1410" y1="93.14" transform="translate(144.681 89.629)" fill="none" stroke="#9d9d9c" stroke-miterlimit="10" stroke-width="0.75"/>
          <path id="Trazado_899695" data-name="Trazado 899695" d="M71.084,90.753h53.68l-24.34,35.169" transform="translate(44.11 56.315)" fill="none" stroke="#9d9d9c" stroke-miterlimit="10" stroke-width="0.5"/>
          <path id="Trazado_899696" data-name="Trazado 899696" d="M438.736,53.415,460.844,36.7,438.736,61.084" transform="translate(272.251 22.771)" fill="none" stroke="#9d9d9c" stroke-miterlimit="10" stroke-width="0.5"/>
          <path id="Trazado_899697" data-name="Trazado 899697" d="M377.492,34.562,397.12,14.887,388.1,44.136" transform="translate(234.247 9.238)" fill="none" stroke="#9d9d9c" stroke-miterlimit="10" stroke-width="0.5"/>
          <path id="Trazado_899698" data-name="Trazado 899698" d="M183.722,60.418,216.9,36.583l-32.651,69.166" transform="translate(114.006 22.701)" fill="none" stroke="#9d9d9c" stroke-miterlimit="10" stroke-width="0.5"/>
          <path id="Trazado_899699" data-name="Trazado 899699" d="M286.551,75.592,257.6,36.037,263.4,75.312" transform="translate(159.849 22.362)" fill="none" stroke="#9d9d9c" stroke-miterlimit="10" stroke-width="0.5"/>
          <path id="Trazado_899700" data-name="Trazado 899700" d="M276.751,51.405l59.655,17.231-60.942-2.58" transform="translate(170.935 31.899)" fill="none" stroke="#9d9d9c" stroke-miterlimit="10" stroke-width="0.5"/>
          <path id="Trazado_899701" data-name="Trazado 899701" d="M388.018,36.126,377.724,64.8l-.1-37.008" transform="translate(234.328 17.247)" fill="none" stroke="#9d9d9c" stroke-miterlimit="10" stroke-width="0.5"/>
          <path id="Trazado_899702" data-name="Trazado 899702" d="M29.487,51.577v97.96h96.748L94.466,117.864" transform="translate(18.298 32.006)" fill="none" stroke="#000" stroke-miterlimit="10" stroke-width="0.5"/>
          <path id="Trazado_899703" data-name="Trazado 899703" d="M8.769,84.95s2.881,36.044,33.655,44.377" transform="translate(5.441 52.714)" fill="none" stroke="#9d9d9c" stroke-miterlimit="10" stroke-width="0.5"/>
          <path id="Trazado_899704" data-name="Trazado 899704" d="M7.649,86.76S15.1,57.894,43.354,51.577" transform="translate(4.746 32.005)" fill="none" stroke="#9d9d9c" stroke-miterlimit="10" stroke-width="0.5"/>
          <path id="Trazado_899705" data-name="Trazado 899705" d="M29.681,63.926S33.424,41.376,54.64,32.27" transform="translate(18.418 20.025)" fill="none" stroke="#9d9d9c" stroke-miterlimit="10" stroke-width="0.5"/>
          <path id="Trazado_899706" data-name="Trazado 899706" d="M99.651,64.511S97.9,44.924,74.079,31.326" transform="translate(45.969 19.439)" fill="none" stroke="#9d9d9c" stroke-miterlimit="10" stroke-width="0.5"/>
          <path id="Trazado_899707" data-name="Trazado 899707" d="M351.121,20.584S269.94,44.328,261.181,84.9" transform="translate(162.072 12.773)" fill="none" stroke="#9d9d9c" stroke-miterlimit="10" stroke-width="0.5"/>
          <path id="Trazado_899708" data-name="Trazado 899708" d="M402.484,34.675s-2.64-23.793-65.714-18.613" transform="translate(208.978 9.509)" fill="none" stroke="#9d9d9c" stroke-miterlimit="10" stroke-width="0.5"/>
          <path id="Trazado_899709" data-name="Trazado 899709" d="M425.884,79.135s11.968-3.881,21.475-26.985" transform="translate(264.276 32.361)" fill="none" stroke="#9d9d9c" stroke-miterlimit="10" stroke-width="0.5"/>
          <path id="Trazado_899710" data-name="Trazado 899710" d="M386.96,69.185s-7.6-3.756-9.338-17.876" transform="translate(234.328 31.839)" fill="none" stroke="#9d9d9c" stroke-miterlimit="10" stroke-width="0.5"/>
          <path id="Trazado_899711" data-name="Trazado 899711" d="M89.859,63.988S101.357,43,139.473,32.17" transform="translate(55.761 19.963)" fill="none" stroke="#9d9d9c" stroke-miterlimit="10" stroke-width="0.5"/>
          <path id="Trazado_899712" data-name="Trazado 899712" d="M224.336,110.153S218.311,65.4,146.019,34.762" transform="translate(90.61 21.571)" fill="none" stroke="#9d9d9c" stroke-miterlimit="10" stroke-width="0.5"/>
          <line id="Línea_1411" data-name="Línea 1411" x2="662.246" transform="translate(47.946 83.235)" fill="none" stroke="#9d9d9c" stroke-miterlimit="10" stroke-width="1"/>
          <path id="Trazado_899713" data-name="Trazado 899713" d="M29.681,163.816V644.658H153.974l199.595-19.053h339V59.269s-64.432,3.374-99.527-32L404.835,80.756s20.083,59.8,21.286,102.695,5.212,165.982-71.765,165.982-82.189-120.276-71.363-176,13.23-55.729,13.23-55.729L127.033,66.381S123.568,146.186,29.681,163.816Z" transform="translate(18.418 16.919)" fill="none" stroke="#000" stroke-linecap="round" stroke-linejoin="round" stroke-width="1"/>
        </g>
      </g>
      <rect id="Rectángulo_407512" data-name="Rectángulo 407512" width="3.726" height="1.152" transform="translate(185.793 148.067)"/>
      <g id="Grupo_1114201" data-name="Grupo 1114201">
        <g id="Grupo_1114200" data-name="Grupo 1114200" clip-path="url(#clip-path)">
          <path id="Trazado_899714" data-name="Trazado 899714" d="M124.694,94.211a6.483,6.483,0,0,1-.846,3.688,3.52,3.52,0,0,1-5.283.024,6.11,6.11,0,0,1-.886-3.521V92.517a6.334,6.334,0,0,1,.846-3.643,3.587,3.587,0,0,1,5.3-.041,6.094,6.094,0,0,1,.87,3.546Zm-1.412-1.93a5.154,5.154,0,0,0-.506-2.614,1.732,1.732,0,0,0-1.595-.822,1.713,1.713,0,0,0-1.58.817,5.047,5.047,0,0,0-.512,2.512v2.259a5.265,5.265,0,0,0,.523,2.661,1.735,1.735,0,0,0,1.585.859,1.707,1.707,0,0,0,1.552-.81,5.067,5.067,0,0,0,.532-2.549Z" transform="translate(73.024 54.412)"/>
          <path id="Trazado_899715" data-name="Trazado 899715" d="M123.232,94.508a.886.886,0,0,1,.217-.611.825.825,0,0,1,.653-.243.847.847,0,0,1,.66.243.863.863,0,0,1,.225.611.81.81,0,0,1-.225.587.868.868,0,0,1-.66.237.845.845,0,0,1-.653-.237.831.831,0,0,1-.217-.587" transform="translate(76.47 58.116)"/>
          <path id="Trazado_899716" data-name="Trazado 899716" d="M127.8,92.709h1.061a2.339,2.339,0,0,0,1.574-.527A1.763,1.763,0,0,0,131,90.8a1.725,1.725,0,0,0-1.948-1.954,2.022,2.022,0,0,0-1.46.523,1.827,1.827,0,0,0-.546,1.386h-1.413a2.835,2.835,0,0,1,.967-2.2,3.513,3.513,0,0,1,2.452-.873,3.47,3.47,0,0,1,2.466.833,3,3,0,0,1,.895,2.313,2.438,2.438,0,0,1-.47,1.4,2.851,2.851,0,0,1-1.28,1.016,2.736,2.736,0,0,1,1.418.963,2.662,2.662,0,0,1,.5,1.64,3.032,3.032,0,0,1-.977,2.376,3.661,3.661,0,0,1-2.543.877,3.749,3.749,0,0,1-2.544-.848,2.809,2.809,0,0,1-.982-2.236h1.42a1.817,1.817,0,0,0,.574,1.405,2.18,2.18,0,0,0,1.533.527,2.137,2.137,0,0,0,1.565-.535,2.057,2.057,0,0,0,.543-1.535,1.868,1.868,0,0,0-.6-1.488,2.587,2.587,0,0,0-1.718-.535H127.8Z" transform="translate(77.9 54.412)"/>
          <path id="Trazado_899717" data-name="Trazado 899717" d="M54.766,35.843H50.11l-1.047,2.909H47.551L51.8,27.637h1.282l4.252,11.115h-1.5Zm-4.213-1.2H54.33l-1.893-5.2Z" transform="translate(29.507 17.15)"/>
          <rect id="Rectángulo_407513" data-name="Rectángulo 407513" width="3.726" height="1.152" transform="translate(87.327 50.603)"/>
          <path id="Trazado_899718" data-name="Trazado 899718" d="M63.931,34.069a6.47,6.47,0,0,1-.846,3.688,3.521,3.521,0,0,1-5.283.026,6.13,6.13,0,0,1-.886-3.521V32.375a6.333,6.333,0,0,1,.848-3.643,3.587,3.587,0,0,1,5.3-.041,6.1,6.1,0,0,1,.869,3.547Zm-1.411-1.93a5.174,5.174,0,0,0-.5-2.614,1.735,1.735,0,0,0-1.595-.822,1.715,1.715,0,0,0-1.582.817,5.049,5.049,0,0,0-.51,2.512v2.259a5.267,5.267,0,0,0,.522,2.661,1.734,1.734,0,0,0,1.585.859A1.71,1.71,0,0,0,61.99,37a5.076,5.076,0,0,0,.53-2.551Z" transform="translate(35.318 17.091)"/>
          <path id="Trazado_899719" data-name="Trazado 899719" d="M62.47,34.366a.883.883,0,0,1,.219-.611.822.822,0,0,1,.651-.243.849.849,0,0,1,.661.243.873.873,0,0,1,.225.611.816.816,0,0,1-.225.587.864.864,0,0,1-.661.238.837.837,0,0,1-.651-.238.825.825,0,0,1-.219-.587" transform="translate(38.765 20.795)"/>
          <path id="Trazado_899720" data-name="Trazado 899720" d="M65.452,33.178l.566-5.542h5.695v1.306h-4.5l-.337,3.03a3.607,3.607,0,0,1,1.855-.481,3.07,3.07,0,0,1,2.413,1,3.937,3.937,0,0,1,.891,2.714,3.8,3.8,0,0,1-.927,2.706,3.381,3.381,0,0,1-2.59.987,3.515,3.515,0,0,1-2.406-.817,3.255,3.255,0,0,1-1.06-2.259h1.335a2.245,2.245,0,0,0,.679,1.439,2.11,2.11,0,0,0,1.452.485,1.9,1.9,0,0,0,1.544-.673,2.8,2.8,0,0,0,.561-1.854,2.581,2.581,0,0,0-.608-1.791,2.06,2.06,0,0,0-1.614-.676,2.318,2.318,0,0,0-1.449.405l-.376.306Z" transform="translate(40.37 17.149)"/>
          <path id="Trazado_899721" data-name="Trazado 899721" d="M127.184,38.752V27.637h3.635a4.214,4.214,0,0,1,2.721.749,2.7,2.7,0,0,1,.912,2.214,2.271,2.271,0,0,1-.442,1.377,2.9,2.9,0,0,1-1.206.929,2.564,2.564,0,0,1,1.421.956,2.745,2.745,0,0,1,.525,1.684,2.978,2.978,0,0,1-.971,2.351,4.006,4.006,0,0,1-2.74.856Zm1.467-6.375h2.212A2.306,2.306,0,0,0,132.4,31.9a1.614,1.614,0,0,0,.579-1.308,1.589,1.589,0,0,0-.535-1.335,2.632,2.632,0,0,0-1.625-.416h-2.168Zm0,1.177v4h2.419a2.329,2.329,0,0,0,1.614-.53,1.866,1.866,0,0,0,.591-1.463q0-2.005-2.183-2.006Z" transform="translate(78.922 17.15)"/>
          <rect id="Rectángulo_407514" data-name="Rectángulo 407514" width="3.726" height="1.152" transform="translate(214.831 50.603)"/>
          <path id="Trazado_899722" data-name="Trazado 899722" d="M140.123,38.773H138.7V29.359l-2.847,1.047V29.124L139.9,27.6h.222Z" transform="translate(84.304 17.129)"/>
          <path id="Trazado_899723" data-name="Trazado 899723" d="M11.492,85.527H6.836L5.789,88.436H4.277L8.523,77.322H9.8l4.252,11.114h-1.5Zm-4.213-1.2h3.777l-1.893-5.2Z" transform="translate(2.654 47.981)"/>
          <path id="Trazado_899724" data-name="Trazado 899724" d="M225.056,32.058h3.1V33.4h-3.1v3.51h-1.421V33.4h-3.1V32.058h3.1V28.814h1.421Z" transform="translate(136.851 17.88)"/>
          <path id="Trazado_899725" data-name="Trazado 899725" d="M230.707,38.773h-1.42V29.359l-2.849,1.047V29.124l4.046-1.52h.222Z" transform="translate(140.513 17.129)"/>
          <path id="Trazado_899726" data-name="Trazado 899726" d="M257.176,38.773h-1.42V29.359l-2.849,1.047V29.124l4.046-1.52h.222Z" transform="translate(156.938 17.129)"/>
          <path id="Trazado_899727" data-name="Trazado 899727" d="M258.2,34.366a.89.89,0,0,1,.217-.611.825.825,0,0,1,.653-.243.847.847,0,0,1,.66.243.865.865,0,0,1,.225.611.809.809,0,0,1-.225.587.863.863,0,0,1-.66.238.84.84,0,0,1-.653-.238.831.831,0,0,1-.217-.587" transform="translate(160.223 20.795)"/>
          <path id="Trazado_899728" data-name="Trazado 899728" d="M261.185,33.178l.566-5.542h5.693v1.306h-4.5l-.335,3.03a3.6,3.6,0,0,1,1.854-.481,3.07,3.07,0,0,1,2.413,1,3.93,3.93,0,0,1,.893,2.714,3.8,3.8,0,0,1-.927,2.706,3.385,3.385,0,0,1-2.591.987,3.511,3.511,0,0,1-2.4-.817,3.256,3.256,0,0,1-1.061-2.259h1.335a2.246,2.246,0,0,0,.681,1.439,2.106,2.106,0,0,0,1.45.485,1.906,1.906,0,0,0,1.546-.673,2.81,2.81,0,0,0,.559-1.854,2.58,2.58,0,0,0-.606-1.791,2.065,2.065,0,0,0-1.614-.676,2.323,2.323,0,0,0-1.45.405l-.374.306Z" transform="translate(161.828 17.149)"/>
          <path id="Trazado_899729" data-name="Trazado 899729" d="M324.564,25.894V14.779H328.2a4.214,4.214,0,0,1,2.721.749,2.7,2.7,0,0,1,.912,2.214,2.271,2.271,0,0,1-.442,1.377,2.9,2.9,0,0,1-1.206.929,2.564,2.564,0,0,1,1.421.956,2.745,2.745,0,0,1,.525,1.684,2.978,2.978,0,0,1-.971,2.351,4.006,4.006,0,0,1-2.74.856Zm1.467-6.375h2.212a2.306,2.306,0,0,0,1.538-.481,1.614,1.614,0,0,0,.579-1.308,1.589,1.589,0,0,0-.535-1.335,2.632,2.632,0,0,0-1.625-.416h-2.168Zm0,1.177v4h2.419a2.329,2.329,0,0,0,1.614-.53,1.866,1.866,0,0,0,.591-1.463q0-2.005-2.183-2.006Z" transform="translate(201.403 9.171)"/>
          <path id="Trazado_899730" data-name="Trazado 899730" d="M398.558,75.4h3.1v1.335h-3.1v3.512h-1.421V76.734h-3.1V75.4h3.1V72.154h1.421Z" transform="translate(244.515 44.774)"/>
          <path id="Trazado_899731" data-name="Trazado 899731" d="M401.842,75.9H402.9a2.338,2.338,0,0,0,1.574-.525A1.765,1.765,0,0,0,405.049,74a1.725,1.725,0,0,0-1.948-1.954,2.028,2.028,0,0,0-1.46.522,1.828,1.828,0,0,0-.546,1.387h-1.413a2.835,2.835,0,0,1,.967-2.2,3.513,3.513,0,0,1,2.452-.873,3.476,3.476,0,0,1,2.466.831,3.006,3.006,0,0,1,.894,2.314,2.438,2.438,0,0,1-.47,1.4,2.85,2.85,0,0,1-1.28,1.016,2.736,2.736,0,0,1,1.418.963,2.662,2.662,0,0,1,.5,1.64,3.03,3.03,0,0,1-.977,2.374,3.654,3.654,0,0,1-2.543.878,3.757,3.757,0,0,1-2.544-.848,2.811,2.811,0,0,1-.982-2.236H401a1.817,1.817,0,0,0,.574,1.4,2.179,2.179,0,0,0,1.533.525,2.136,2.136,0,0,0,1.565-.533,2.059,2.059,0,0,0,.543-1.535,1.867,1.867,0,0,0-.6-1.488,2.587,2.587,0,0,0-1.718-.535h-1.061Z" transform="translate(247.955 43.985)"/>
          <path id="Trazado_899732" data-name="Trazado 899732" d="M405.236,77.705a.891.891,0,0,1,.216-.611.833.833,0,0,1,.653-.243.853.853,0,0,1,.659.243.868.868,0,0,1,.225.611.815.815,0,0,1-.225.588.868.868,0,0,1-.659.237.848.848,0,0,1-.653-.237.837.837,0,0,1-.216-.588" transform="translate(251.463 47.689)"/>
          <path id="Trazado_899733" data-name="Trazado 899733" d="M414.97,71.771l-4.6,10.32h-1.48l4.588-9.953h-6.015v-1.16h7.511Z" transform="translate(252.843 44.043)"/>
          <path id="Trazado_899734" data-name="Trazado 899734" d="M419.6,74.472h-6.367v-1.23H419.6Zm0,3.168h-6.367V76.418H419.6Z" transform="translate(256.423 45.449)"/>
          <path id="Trazado_899735" data-name="Trazado 899735" d="M425.155,79.18H420.5l-1.047,2.91h-1.512l4.246-11.114h1.284l4.251,11.114h-1.5Zm-4.215-1.2h3.779l-1.894-5.2Z" transform="translate(259.346 44.044)"/>
          <path id="Trazado_899736" data-name="Trazado 899736" d="M215.657,30.778H211l-1.047,2.909h-1.512l4.246-11.115h1.283l4.251,11.115h-1.5Zm-4.215-1.2h3.779l-1.894-5.2Z" transform="translate(129.345 14.007)"/>
          <path id="Trazado_899737" data-name="Trazado 899737" d="M211.45,39.275h1.061a2.338,2.338,0,0,0,1.574-.525,1.765,1.765,0,0,0,.572-1.382,1.725,1.725,0,0,0-1.948-1.954,2.028,2.028,0,0,0-1.46.522,1.828,1.828,0,0,0-.546,1.387H209.29a2.834,2.834,0,0,1,.967-2.2,3.513,3.513,0,0,1,2.452-.873,3.476,3.476,0,0,1,2.466.831,3.006,3.006,0,0,1,.895,2.314,2.438,2.438,0,0,1-.47,1.4,2.851,2.851,0,0,1-1.28,1.016,2.736,2.736,0,0,1,1.418.963,2.662,2.662,0,0,1,.5,1.64,3.03,3.03,0,0,1-.977,2.374,3.654,3.654,0,0,1-2.543.878,3.757,3.757,0,0,1-2.544-.848,2.811,2.811,0,0,1-.982-2.236h1.42a1.817,1.817,0,0,0,.574,1.405,2.179,2.179,0,0,0,1.533.525,2.136,2.136,0,0,0,1.565-.533,2.059,2.059,0,0,0,.543-1.535,1.868,1.868,0,0,0-.6-1.488,2.588,2.588,0,0,0-1.718-.535H211.45Z" transform="translate(129.81 21.255)"/>
          <line id="Línea_1412" data-name="Línea 1412" x1="21.331" transform="translate(332.007 50.884)"/>
          <line id="Línea_1413" data-name="Línea 1413" x1="21.331" transform="translate(332.007 50.884)" fill="none" stroke="#000" stroke-miterlimit="10" stroke-width="0.75"/>
          <path id="Trazado_899738" data-name="Trazado 899738" d="M401.027,8.206h-4.656l-1.047,2.909h-1.512L398.058,0h1.282l4.252,11.115h-1.5Zm-4.213-1.2h3.777L398.7,1.81Z" transform="translate(244.374)"/>
          <path id="Trazado_899739" data-name="Trazado 899739" d="M396.822,16.7h1.06a2.332,2.332,0,0,0,1.574-.525,1.766,1.766,0,0,0,.574-1.382,1.725,1.725,0,0,0-1.948-1.954,2.032,2.032,0,0,0-1.462.522,1.828,1.828,0,0,0-.546,1.387h-1.411a2.833,2.833,0,0,1,.966-2.2,3.52,3.52,0,0,1,2.453-.873,3.479,3.479,0,0,1,2.466.831,3.011,3.011,0,0,1,.893,2.314,2.447,2.447,0,0,1-.468,1.4,2.85,2.85,0,0,1-1.28,1.016,2.725,2.725,0,0,1,1.416.963,2.662,2.662,0,0,1,.5,1.64,3.029,3.029,0,0,1-.976,2.374,3.657,3.657,0,0,1-2.543.878,3.758,3.758,0,0,1-2.546-.848,2.816,2.816,0,0,1-.982-2.236h1.42a1.822,1.822,0,0,0,.574,1.405,2.183,2.183,0,0,0,1.535.525,2.139,2.139,0,0,0,1.565-.533,2.058,2.058,0,0,0,.541-1.535,1.867,1.867,0,0,0-.595-1.488,2.592,2.592,0,0,0-1.719-.535h-1.06Z" transform="translate(244.839 7.248)"/>
          <line id="Línea_1414" data-name="Línea 1414" x1="21.331" transform="translate(632.407 14.304)"/>
          <line id="Línea_1415" data-name="Línea 1415" x1="21.331" transform="translate(632.407 14.304)" fill="none" stroke="#000" stroke-miterlimit="10" stroke-width="0.75"/>
          <path id="Trazado_899740" data-name="Trazado 899740" d="M383.578,72.491v4.353h-1.465V65.727h4.1a4.124,4.124,0,0,1,2.86.933,3.16,3.16,0,0,1,1.032,2.465,3.114,3.114,0,0,1-1.011,2.492,4.3,4.3,0,0,1-2.9.873Zm0-1.2h2.633a2.638,2.638,0,0,0,1.8-.554,2.029,2.029,0,0,0,.626-1.6,2.1,2.1,0,0,0-.626-1.591,2.46,2.46,0,0,0-1.718-.617h-2.718Z" transform="translate(237.115 40.786)"/>
          <path id="Trazado_899741" data-name="Trazado 899741" d="M462.7,39.915a6.484,6.484,0,0,1-.846,3.688,3.522,3.522,0,0,1-5.283.026,6.118,6.118,0,0,1-.886-3.521V38.221a6.333,6.333,0,0,1,.846-3.643,3.587,3.587,0,0,1,5.3-.041,6.1,6.1,0,0,1,.87,3.547Zm-1.411-1.93a5.154,5.154,0,0,0-.506-2.614,1.732,1.732,0,0,0-1.595-.822,1.712,1.712,0,0,0-1.58.817,5.047,5.047,0,0,0-.512,2.512v2.259a5.265,5.265,0,0,0,.523,2.661,1.732,1.732,0,0,0,1.585.859,1.709,1.709,0,0,0,1.552-.809,5.076,5.076,0,0,0,.532-2.551Z" transform="translate(282.767 20.719)"/>
          <path id="Trazado_899742" data-name="Trazado 899742" d="M461.236,40.212a.888.888,0,0,1,.216-.611.828.828,0,0,1,.653-.243.847.847,0,0,1,.66.243.865.865,0,0,1,.225.611.81.81,0,0,1-.225.587.862.862,0,0,1-.66.238.843.843,0,0,1-.653-.238.83.83,0,0,1-.216-.587" transform="translate(286.213 24.423)"/>
          <path id="Trazado_899743" data-name="Trazado 899743" d="M465.8,38.413h1.061a2.33,2.33,0,0,0,1.573-.527,1.76,1.76,0,0,0,.572-1.382,1.725,1.725,0,0,0-1.948-1.954,2.022,2.022,0,0,0-1.46.523,1.827,1.827,0,0,0-.546,1.386h-1.413a2.84,2.84,0,0,1,.967-2.2,3.513,3.513,0,0,1,2.452-.873,3.47,3.47,0,0,1,2.466.833,3,3,0,0,1,.894,2.313,2.439,2.439,0,0,1-.47,1.4,2.847,2.847,0,0,1-1.28,1.014,2.746,2.746,0,0,1,1.418.963,2.666,2.666,0,0,1,.5,1.64,3.032,3.032,0,0,1-.977,2.376,3.66,3.66,0,0,1-2.543.877,3.756,3.756,0,0,1-2.544-.846,2.812,2.812,0,0,1-.982-2.238h1.42a1.817,1.817,0,0,0,.574,1.405,2.172,2.172,0,0,0,1.533.527,2.137,2.137,0,0,0,1.565-.535,2.055,2.055,0,0,0,.543-1.533,1.871,1.871,0,0,0-.6-1.489,2.6,2.6,0,0,0-1.718-.535H465.8Z" transform="translate(287.642 20.719)"/>
          <path id="Trazado_899744" data-name="Trazado 899744" d="M471.461,150.142h3.1v1.335h-3.1v3.512h-1.42v-3.512h-3.1v-1.335h3.1V146.9h1.42Z" transform="translate(289.754 91.155)"/>
          <path id="Trazado_899745" data-name="Trazado 899745" d="M478.087,152.008a3.46,3.46,0,0,1-1.057.848,2.869,2.869,0,0,1-1.348.321,2.974,2.974,0,0,1-1.676-.473,3.081,3.081,0,0,1-1.1-1.334,4.507,4.507,0,0,1-.391-1.894,4.637,4.637,0,0,1,.425-2.009,3.128,3.128,0,0,1,1.2-1.366,3.431,3.431,0,0,1,1.817-.473,3.1,3.1,0,0,1,2.6,1.233,5.383,5.383,0,0,1,.953,3.361v.413a7.189,7.189,0,0,1-1.285,4.737,4.928,4.928,0,0,1-3.87,1.531h-.275v-1.2h.3a3.359,3.359,0,0,0,3.709-3.695m-2.173,0a2.18,2.18,0,0,0,1.308-.436,2.569,2.569,0,0,0,.873-1.076v-.564a3.881,3.881,0,0,0-.6-2.261,1.844,1.844,0,0,0-3.024-.156,2.943,2.943,0,0,0-.564,1.881,3.055,3.055,0,0,0,.548,1.875,1.724,1.724,0,0,0,1.462.736" transform="translate(293.212 90.366)"/>
          <path id="Trazado_899746" data-name="Trazado 899746" d="M494.544,202.3a4.094,4.094,0,0,1-2.723-1.3,4.27,4.27,0,0,1-.958-2.912,3.911,3.911,0,0,1,1.415-3.155,5.676,5.676,0,0,1,3.777-1.186h1.068a6.319,6.319,0,0,1,2.724.553,4.135,4.135,0,0,1,1.809,1.567,4.4,4.4,0,0,1,.627,2.351,4.009,4.009,0,0,1-.989,2.839,4.123,4.123,0,0,1-2.734,1.246v-1.473a3.18,3.18,0,0,0,1.927-.83,2.5,2.5,0,0,0,.6-1.783,2.623,2.623,0,0,0-1.039-2.2,4.773,4.773,0,0,0-2.957-.8h-1.078a4.9,4.9,0,0,0-2.88.757,2.44,2.44,0,0,0-1.07,2.113,2.82,2.82,0,0,0,.554,1.875,3.064,3.064,0,0,0,1.927.867Z" transform="translate(304.598 120.223)"/>
          <path id="Trazado_899747" data-name="Trazado 899747" d="M490.865,203.682a3.609,3.609,0,0,1,1.1-2.731,4.09,4.09,0,0,1,2.951-1.055h.259a4.932,4.932,0,0,1,2.194.472,3.643,3.643,0,0,1,1.512,1.311,3.3,3.3,0,0,1,.546,1.83,3.091,3.091,0,0,1-1.061,2.5,4.594,4.594,0,0,1-3.037.893h-.588v-5.6a2.947,2.947,0,0,0-1.975.715,2.246,2.246,0,0,0-.749,1.736,2.466,2.466,0,0,0,.3,1.267,3.216,3.216,0,0,0,.81.909l-.673.861a3.462,3.462,0,0,1-1.595-3.115m7.4-.173a1.885,1.885,0,0,0-.622-1.436,3.026,3.026,0,0,0-1.745-.716v4.137h.107a2.7,2.7,0,0,0,1.669-.58,1.777,1.777,0,0,0,.592-1.405" transform="translate(304.599 124.043)"/>
          <path id="Trazado_899748" data-name="Trazado 899748" d="M499.217,206.563l-1.039.047a3.005,3.005,0,0,1,1.193,2.473q0,2.618-2.956,2.643h-5.456v-1.415h5.466a1.89,1.89,0,0,0,1.321-.407,1.64,1.64,0,0,0,.426-1.249,2.042,2.042,0,0,0-.366-1.206,2.488,2.488,0,0,0-.963-.81h-5.884v-1.411h8.258Z" transform="translate(304.657 127.351)"/>
          <path id="Trazado_899749" data-name="Trazado 899749" d="M501.276,212.85h-2v1.541h-1.091V212.85h-5.129a1.147,1.147,0,0,0-.744.206.86.86,0,0,0-.251.7,3.52,3.52,0,0,0,.092.671h-1.138a4.073,4.073,0,0,1-.152-1.083,1.754,1.754,0,0,1,.574-1.428,2.454,2.454,0,0,1,1.625-.481h5.122v-1.5h1.091v1.5h2Z" transform="translate(304.598 130.272)"/>
          <path id="Trazado_899750" data-name="Trazado 899750" d="M497.951,217.7A4.4,4.4,0,0,0,498,217a1.865,1.865,0,0,0-1.183-1.886H490.96V213.7h8.257v1.374l-.953.023a2.2,2.2,0,0,1,1.107,1.971,1.471,1.471,0,0,1-.105.626Z" transform="translate(304.658 132.61)"/>
          <path id="Trazado_899751" data-name="Trazado 899751" d="M495.223,216.642a4.864,4.864,0,0,1,2.183.478,3.535,3.535,0,0,1,1.5,1.327,3.612,3.612,0,0,1,.527,1.943,3.486,3.486,0,0,1-1.167,2.729,4.5,4.5,0,0,1-3.107,1.044h-.1a4.919,4.919,0,0,1-2.163-.463,3.527,3.527,0,0,1-1.494-1.321,3.667,3.667,0,0,1-.533-1.974,3.472,3.472,0,0,1,1.168-2.721,4.472,4.472,0,0,1,3.09-1.042Zm-.169,1.42a3.534,3.534,0,0,0-2.206.639,2.16,2.16,0,0,0,.011,3.414,3.849,3.849,0,0,0,2.363.635,3.531,3.531,0,0,0,2.2-.645,2.054,2.054,0,0,0,.843-1.715,2.027,2.027,0,0,0-.831-1.687,3.832,3.832,0,0,0-2.382-.642" transform="translate(304.598 134.434)"/>
          <path id="Trazado_899752" data-name="Trazado 899752" d="M491.018,229.953a2.948,2.948,0,0,1,.87-.2,3.143,3.143,0,0,1-1.024-2.351,2.916,2.916,0,0,1,.692-2,2.234,2.234,0,0,1,1.75-.781,2.338,2.338,0,0,1,2,.98,4.615,4.615,0,0,1,.715,2.76v1.373h.648a1.58,1.58,0,0,0,1.18-.441,1.784,1.784,0,0,0,.438-1.306,2.067,2.067,0,0,0-.379-1.267,1.126,1.126,0,0,0-.924-.51v-1.421a1.96,1.96,0,0,1,1.193.439,2.964,2.964,0,0,1,.912,1.191,4.009,4.009,0,0,1,.335,1.653,3.258,3.258,0,0,1-.713,2.235,2.569,2.569,0,0,1-1.966.843h-3.8a4.645,4.645,0,0,0-1.81.288h-.12Zm1.076-2.343a2.5,2.5,0,0,0,.342,1.261,2.1,2.1,0,0,0,.894.86h1.7v-1.107q0-2.594-1.52-2.6a1.286,1.286,0,0,0-1.039.444,1.7,1.7,0,0,0-.373,1.138" transform="translate(304.598 139.383)"/>
          <path id="Trazado_899753" data-name="Trazado 899753" d="M501.276,232.309h-2v1.543h-1.091v-1.543h-5.129a1.138,1.138,0,0,0-.744.207.858.858,0,0,0-.251.7,3.518,3.518,0,0,0,.092.673h-1.138a4.094,4.094,0,0,1-.152-1.084,1.757,1.757,0,0,1,.574-1.428,2.462,2.462,0,0,1,1.625-.481h5.122v-1.5h1.091v1.5h2Z" transform="translate(304.598 142.347)"/>
          <path id="Trazado_899754" data-name="Trazado 899754" d="M497.951,237.156a4.439,4.439,0,0,0,.054-.7,1.863,1.863,0,0,0-1.183-1.885H490.96v-1.411h8.257v1.374l-.953.023a2.2,2.2,0,0,1,1.107,1.969,1.473,1.473,0,0,1-.105.627Z" transform="translate(304.658 144.686)"/>
          <path id="Trazado_899755" data-name="Trazado 899755" d="M491.019,241.617a2.86,2.86,0,0,1,.869-.2,3.144,3.144,0,0,1-1.023-2.351,2.911,2.911,0,0,1,.692-2,2.228,2.228,0,0,1,1.749-.781,2.338,2.338,0,0,1,2,.98,4.622,4.622,0,0,1,.713,2.76V241.4h.65a1.576,1.576,0,0,0,1.178-.444,1.77,1.77,0,0,0,.441-1.3,2.063,2.063,0,0,0-.379-1.267,1.135,1.135,0,0,0-.927-.512v-1.421a1.947,1.947,0,0,1,1.194.441,2.966,2.966,0,0,1,.914,1.189,4.013,4.013,0,0,1,.335,1.653,3.262,3.262,0,0,1-.713,2.236,2.576,2.576,0,0,1-1.967.839h-3.8a4.642,4.642,0,0,0-1.808.292h-.12Zm1.076-2.345a2.487,2.487,0,0,0,.342,1.261,2.079,2.079,0,0,0,.891.862h1.7v-1.108q0-2.591-1.517-2.594a1.294,1.294,0,0,0-1.04.442,1.7,1.7,0,0,0-.371,1.138m10.647,1.306v1.71l-2.244-2.045,0-1.138Z" transform="translate(304.599 146.621)"/>
          <path id="Trazado_899756" data-name="Trazado 899756" d="M493.208,246.615a1.04,1.04,0,0,0,.89-.431,4.126,4.126,0,0,0,.545-1.5,7.066,7.066,0,0,1,.551-1.7,2.394,2.394,0,0,1,.762-.93,1.825,1.825,0,0,1,1.055-.3,2.145,2.145,0,0,1,1.718.861,3.361,3.361,0,0,1,.7,2.194,3.46,3.46,0,0,1-.724,2.279,2.3,2.3,0,0,1-1.855.873v-1.42a1.268,1.268,0,0,0,1-.491,1.838,1.838,0,0,0,.421-1.241,1.935,1.935,0,0,0-.336-1.206,1.058,1.058,0,0,0-.878-.436.857.857,0,0,0-.771.405,4.943,4.943,0,0,0-.5,1.462,7.682,7.682,0,0,1-.564,1.715,2.522,2.522,0,0,1-.791.972,1.936,1.936,0,0,1-1.126.316,2.111,2.111,0,0,1-1.775-.885,3.712,3.712,0,0,1-.668-2.3,4.145,4.145,0,0,1,.352-1.755,2.845,2.845,0,0,1,.98-1.194,2.358,2.358,0,0,1,1.363-.433v1.411a1.465,1.465,0,0,0-1.128.57,2.217,2.217,0,0,0-.413,1.4,2.283,2.283,0,0,0,.322,1.287,1,1,0,0,0,.867.485" transform="translate(304.599 149.836)"/>
          <path id="Trazado_899757" data-name="Trazado 899757" d="M442.3,198.622a10.592,10.592,0,0,1-3.369,7.046,11.047,11.047,0,0,1-7.537,2.478,10.133,10.133,0,0,1-8.171-3.654q-3.073-3.656-3.073-9.782v-2.766a16.378,16.378,0,0,1,1.433-7.054,10.689,10.689,0,0,1,4.061-4.672,11.314,11.314,0,0,1,6.085-1.63,10.4,10.4,0,0,1,7.351,2.559,10.721,10.721,0,0,1,3.22,7.083h-3.815a8.274,8.274,0,0,0-2.142-4.994,6.484,6.484,0,0,0-4.614-1.546,6.791,6.791,0,0,0-5.7,2.69q-2.066,2.688-2.065,7.654v2.787a12.679,12.679,0,0,0,1.958,7.456,6.315,6.315,0,0,0,5.473,2.768,7.3,7.3,0,0,0,4.85-1.433q1.689-1.432,2.241-4.99Z" transform="translate(260.72 110.82)" fill="#9d9d9c"/>
          <path id="Trazado_899758" data-name="Trazado 899758" d="M460.149,200.071H448.1l-2.706,7.529h-3.912l10.986-28.769h3.319L466.789,207.6H462.9Zm-10.906-3.1h9.782l-4.9-13.457Z" transform="translate(273.953 110.971)" fill="#9d9d9c"/>
          <path id="Trazado_899759" data-name="Trazado 899759" d="M34.164,198.622a10.592,10.592,0,0,1-3.369,7.046,11.047,11.047,0,0,1-7.537,2.478,10.132,10.132,0,0,1-8.171-3.654q-3.073-3.656-3.073-9.782v-2.766a16.378,16.378,0,0,1,1.433-7.054,10.689,10.689,0,0,1,4.061-4.672,11.314,11.314,0,0,1,6.085-1.63,10.4,10.4,0,0,1,7.351,2.559,10.721,10.721,0,0,1,3.22,7.083H30.35a8.274,8.274,0,0,0-2.142-4.994,6.485,6.485,0,0,0-4.614-1.546,6.791,6.791,0,0,0-5.7,2.69q-2.066,2.688-2.065,7.654v2.787a12.679,12.679,0,0,0,1.958,7.456,6.315,6.315,0,0,0,5.473,2.768,7.3,7.3,0,0,0,4.85-1.433q1.689-1.432,2.241-4.99Z" transform="translate(7.456 110.82)" fill="#9d9d9c"/>
          <path id="Trazado_899760" data-name="Trazado 899760" d="M50.925,194.9H38.852v12.7H35.059V178.831H52.881v3.1H38.852v9.859H50.925Z" transform="translate(21.755 110.971)" fill="#9d9d9c"/>
          <path id="Trazado_899761" data-name="Trazado 899761" d="M386.876,88.676h-7.283V87.66l3.849-4.275a9.071,9.071,0,0,0,1.178-1.575,2.62,2.62,0,0,0,.326-1.256,1.993,1.993,0,0,0-.528-1.428,1.834,1.834,0,0,0-1.4-.556,2.189,2.189,0,0,0-1.638.6,2.289,2.289,0,0,0-.583,1.668h-1.411a3.283,3.283,0,0,1,.987-2.481,3.673,3.673,0,0,1,2.646-.946,3.527,3.527,0,0,1,2.45.814,2.77,2.77,0,0,1,.9,2.165q0,1.641-2.092,3.907l-2.979,3.23h5.58Z" transform="translate(235.419 48.034)"/>
          <path id="Trazado_899762" data-name="Trazado 899762" d="M391.917,83.934a6.466,6.466,0,0,1-.848,3.688,3.522,3.522,0,0,1-5.283.026,6.143,6.143,0,0,1-.886-3.521V82.24a6.337,6.337,0,0,1,.848-3.643,3.587,3.587,0,0,1,5.3-.041,6.112,6.112,0,0,1,.87,3.547ZM390.505,82A5.158,5.158,0,0,0,390,79.39a1.734,1.734,0,0,0-1.595-.82,1.712,1.712,0,0,0-1.58.817,5.04,5.04,0,0,0-.512,2.51v2.259a5.268,5.268,0,0,0,.523,2.663,1.733,1.733,0,0,0,1.583.857,1.706,1.706,0,0,0,1.554-.809,5.072,5.072,0,0,0,.532-2.549Z" transform="translate(238.844 48.034)"/>
          <line id="Línea_1416" data-name="Línea 1416" x1="21.331" transform="translate(612.202 120.818)"/>
          <line id="Línea_1417" data-name="Línea 1417" x1="21.331" transform="translate(612.202 120.818)" fill="none" stroke="#000" stroke-miterlimit="10" stroke-width="0.75"/>
          <path id="Trazado_899763" data-name="Trazado 899763" d="M458.107,147.294v4.354H456.64V140.53h4.1a4.123,4.123,0,0,1,2.859.935,3.151,3.151,0,0,1,1.034,2.465,3.113,3.113,0,0,1-1.011,2.491,4.29,4.29,0,0,1-2.9.873Zm0-1.2h2.633a2.63,2.63,0,0,0,1.8-.553,2.028,2.028,0,0,0,.627-1.6,2.1,2.1,0,0,0-.627-1.591,2.46,2.46,0,0,0-1.716-.616h-2.718Z" transform="translate(283.361 87.204)"/>
          <path id="Trazado_899764" data-name="Trazado 899764" d="M462.26,152.3v1.2H462a3.72,3.72,0,0,0-2.625.979,4.059,4.059,0,0,0-1.13,2.663,3.016,3.016,0,0,1,2.4-1.006,2.878,2.878,0,0,1,2.314,1.023,4.483,4.483,0,0,1-.068,5.39,3.218,3.218,0,0,1-2.509,1.031,3.172,3.172,0,0,1-2.586-1.225,4.852,4.852,0,0,1-.993-3.157v-.543a7.322,7.322,0,0,1,1.309-4.69,4.815,4.815,0,0,1,3.9-1.661Zm-1.854,5.007a2.242,2.242,0,0,0-1.335.436,2.279,2.279,0,0,0-.851,1.091v.52a3.632,3.632,0,0,0,.621,2.214,1.845,1.845,0,0,0,1.539.839,1.794,1.794,0,0,0,1.5-.7,3.368,3.368,0,0,0-.008-3.69,1.768,1.768,0,0,0-1.467-.708" transform="translate(283.461 94.508)"/>
          <line id="Línea_1418" data-name="Línea 1418" x1="21.331" transform="translate(732.977 242.04)"/>
          <line id="Línea_1419" data-name="Línea 1419" x1="21.331" transform="translate(732.977 242.04)" fill="none" stroke="#000" stroke-miterlimit="10" stroke-width="0.75"/>
          <path id="Trazado_899765" data-name="Trazado 899765" d="M242.811,427.1h3.1v1.335h-3.1v3.512H241.39v-3.512h-3.1V427.1h3.1v-3.244h1.421Z" transform="translate(147.868 263.018)"/>
          <path id="Trazado_899766" data-name="Trazado 899766" d="M248.462,433.815h-1.42V424.4l-2.849,1.045v-1.282l4.046-1.52h.222Z" transform="translate(151.531 262.267)"/>
          <path id="Trazado_899767" data-name="Trazado 899767" d="M256.367,429.112a6.483,6.483,0,0,1-.846,3.688,3.52,3.52,0,0,1-5.283.024,6.11,6.11,0,0,1-.886-3.521v-1.886a6.332,6.332,0,0,1,.846-3.641,3.589,3.589,0,0,1,5.3-.042,6.1,6.1,0,0,1,.87,3.547Zm-1.412-1.932a5.162,5.162,0,0,0-.506-2.614,1.734,1.734,0,0,0-1.595-.82,1.713,1.713,0,0,0-1.58.817,5.047,5.047,0,0,0-.512,2.512v2.259a5.265,5.265,0,0,0,.523,2.661,1.734,1.734,0,0,0,1.585.857,1.705,1.705,0,0,0,1.552-.809,5.071,5.071,0,0,0,.532-2.549Z" transform="translate(154.732 262.23)"/>
          <path id="Trazado_899768" data-name="Trazado 899768" d="M228.847,424.253v4.353H227.38V417.489h4.1a4.122,4.122,0,0,1,2.859.933,3.156,3.156,0,0,1,1.034,2.465,3.115,3.115,0,0,1-1.013,2.492,4.294,4.294,0,0,1-2.9.873Zm0-1.2h2.633a2.634,2.634,0,0,0,1.8-.554,2.024,2.024,0,0,0,.627-1.6,2.1,2.1,0,0,0-.627-1.591,2.457,2.457,0,0,0-1.718-.617h-2.716Z" transform="translate(141.097 259.067)"/>
          <path id="Trazado_899769" data-name="Trazado 899769" d="M234.853,440.438H227.57v-1.014l3.849-4.277a9.071,9.071,0,0,0,1.178-1.575,2.638,2.638,0,0,0,.326-1.256,2,2,0,0,0-.528-1.428,1.84,1.84,0,0,0-1.4-.556,2.188,2.188,0,0,0-1.637.6,2.292,2.292,0,0,0-.583,1.668h-1.413a3.278,3.278,0,0,1,.988-2.479,3.664,3.664,0,0,1,2.645-.946,3.528,3.528,0,0,1,2.452.812,2.779,2.779,0,0,1,.9,2.165q0,1.641-2.092,3.907l-2.977,3.23h5.58Z" transform="translate(141.082 266.316)"/>
          <line id="Línea_1420" data-name="Línea 1420" x1="21.331" transform="translate(361.453 690.862)"/>
          <line id="Línea_1421" data-name="Línea 1421" x1="21.331" transform="translate(361.453 690.862)" fill="none" stroke="#000" stroke-miterlimit="10" stroke-width="0.75"/>
          <path id="Trazado_899770" data-name="Trazado 899770" d="M361.966,250.111h3.1v1.335h-3.1v3.512h-1.42v-3.512h-3.1v-1.335h3.1v-3.244h1.42Z" transform="translate(221.808 153.19)"/>
          <path id="Trazado_899771" data-name="Trazado 899771" d="M370.424,246.483,365.818,256.8h-1.48l4.588-9.953h-6.015v-1.162h7.513Z" transform="translate(225.199 152.459)"/>
          <path id="Trazado_899772" data-name="Trazado 899772" d="M348.612,247.263v4.353h-1.467V240.5h4.1a4.123,4.123,0,0,1,2.859.933,3.159,3.159,0,0,1,1.034,2.466,3.113,3.113,0,0,1-1.011,2.491,4.3,4.3,0,0,1-2.9.873Zm0-1.2h2.633a2.631,2.631,0,0,0,1.8-.554,2.022,2.022,0,0,0,.627-1.6,2.092,2.092,0,0,0-.627-1.59,2.454,2.454,0,0,0-1.716-.619h-2.718Z" transform="translate(215.416 149.238)"/>
          <path id="Trazado_899773" data-name="Trazado 899773" d="M352.765,252.27v1.2H352.5a3.717,3.717,0,0,0-2.625.979,4.059,4.059,0,0,0-1.129,2.663,3.013,3.013,0,0,1,2.4-1.006,2.879,2.879,0,0,1,2.316,1.023,4.483,4.483,0,0,1-.068,5.39,3.22,3.22,0,0,1-2.509,1.031,3.17,3.17,0,0,1-2.586-1.225,4.852,4.852,0,0,1-.993-3.157v-.543a7.322,7.322,0,0,1,1.309-4.69,4.815,4.815,0,0,1,3.9-1.661Zm-1.856,5.007a2.249,2.249,0,0,0-1.335.436,2.275,2.275,0,0,0-.849,1.091v.52a3.642,3.642,0,0,0,.619,2.214,1.848,1.848,0,0,0,1.541.839,1.794,1.794,0,0,0,1.5-.7,3.368,3.368,0,0,0-.008-3.69,1.769,1.769,0,0,0-1.468-.708" transform="translate(215.515 156.542)"/>
          <line id="Línea_1422" data-name="Línea 1422" x1="21.331" transform="translate(555.536 404.043)"/>
          <line id="Línea_1423" data-name="Línea 1423" x1="21.331" transform="translate(555.536 404.043)" fill="none" stroke="#000" stroke-miterlimit="10" stroke-width="0.75"/>
          <path id="Trazado_899774" data-name="Trazado 899774" d="M112.9,256.094H116v1.337h-3.1v3.51h-1.42v-3.51h-3.1v-1.337h3.1V252.85h1.42Z" transform="translate(67.252 156.902)"/>
          <path id="Trazado_899775" data-name="Trazado 899775" d="M114.6,257.214l.566-5.542h5.695v1.306h-4.5l-.337,3.03a3.606,3.606,0,0,1,1.856-.481,3.07,3.07,0,0,1,2.413,1,3.937,3.937,0,0,1,.891,2.714,3.8,3.8,0,0,1-.927,2.706,3.381,3.381,0,0,1-2.59.987,3.515,3.515,0,0,1-2.407-.817,3.254,3.254,0,0,1-1.06-2.259h1.335a2.245,2.245,0,0,0,.679,1.439,2.11,2.11,0,0,0,1.452.485,1.9,1.9,0,0,0,1.544-.673,2.8,2.8,0,0,0,.561-1.854,2.581,2.581,0,0,0-.608-1.791,2.06,2.06,0,0,0-1.614-.676,2.319,2.319,0,0,0-1.449.405l-.376.306Z" transform="translate(70.869 156.171)"/>
          <path id="Trazado_899776" data-name="Trazado 899776" d="M119.575,258.4a.883.883,0,0,1,.219-.611.822.822,0,0,1,.651-.243.848.848,0,0,1,.661.243.873.873,0,0,1,.225.611.816.816,0,0,1-.225.587.864.864,0,0,1-.661.238.837.837,0,0,1-.651-.238.825.825,0,0,1-.219-.587" transform="translate(74.201 159.818)"/>
          <path id="Trazado_899777" data-name="Trazado 899777" d="M122.557,257.214l.566-5.542h5.695v1.306h-4.5l-.337,3.03a3.606,3.606,0,0,1,1.855-.481,3.07,3.07,0,0,1,2.413,1,3.937,3.937,0,0,1,.891,2.714,3.8,3.8,0,0,1-.927,2.706,3.381,3.381,0,0,1-2.59.987,3.515,3.515,0,0,1-2.406-.817,3.254,3.254,0,0,1-1.06-2.259H123.5a2.245,2.245,0,0,0,.679,1.439,2.111,2.111,0,0,0,1.452.485,1.9,1.9,0,0,0,1.544-.673,2.8,2.8,0,0,0,.561-1.854,2.582,2.582,0,0,0-.608-1.791,2.06,2.06,0,0,0-1.614-.676,2.318,2.318,0,0,0-1.449.405l-.376.306Z" transform="translate(75.806 156.171)"/>
          <path id="Trazado_899778" data-name="Trazado 899778" d="M96.431,253.248V257.6H94.966V246.484h4.1a4.124,4.124,0,0,1,2.86.932,3.164,3.164,0,0,1,1.032,2.466,3.113,3.113,0,0,1-1.011,2.491,4.286,4.286,0,0,1-2.9.875Zm0-1.2h2.633a2.63,2.63,0,0,0,1.8-.554,2.025,2.025,0,0,0,.626-1.6,2.1,2.1,0,0,0-.626-1.591,2.461,2.461,0,0,0-1.718-.619H96.431Z" transform="translate(58.93 152.952)"/>
          <path id="Trazado_899779" data-name="Trazado 899779" d="M100.586,258.254v1.2h-.261a3.724,3.724,0,0,0-2.625.977,4.06,4.06,0,0,0-1.13,2.664,3.009,3.009,0,0,1,2.4-1.008,2.881,2.881,0,0,1,2.316,1.024,4.48,4.48,0,0,1-.068,5.388,3.22,3.22,0,0,1-2.509,1.031,3.17,3.17,0,0,1-2.586-1.225,4.849,4.849,0,0,1-.993-3.157V264.6a7.316,7.316,0,0,1,1.309-4.69,4.81,4.81,0,0,1,3.9-1.661Zm-1.856,5.007a2.382,2.382,0,0,0-2.184,1.527v.52a3.642,3.642,0,0,0,.619,2.214,1.85,1.85,0,0,0,1.541.838,1.794,1.794,0,0,0,1.5-.7,3.369,3.369,0,0,0-.008-3.69,1.772,1.772,0,0,0-1.468-.707" transform="translate(59.029 160.256)"/>
          <line id="Línea_1424" data-name="Línea 1424" x1="21.331" transform="translate(146.871 413.74)"/>
          <line id="Línea_1425" data-name="Línea 1425" x1="21.331" transform="translate(146.871 413.74)" fill="none" stroke="#000" stroke-miterlimit="10" stroke-width="0.75"/>
          <path id="Trazado_899780" data-name="Trazado 899780" d="M10.782,374.261H6.125L5.078,377.17H3.566l4.246-11.114H9.1l4.251,11.114h-1.5Zm-4.215-1.2h3.779l-1.894-5.2Z" transform="translate(2.213 227.151)"/>
          <path id="Trazado_899781" data-name="Trazado 899781" d="M9.954,377.826v1.2H9.693A3.729,3.729,0,0,0,7.067,380a4.063,4.063,0,0,0-1.13,2.664,3.015,3.015,0,0,1,2.4-1.006,2.881,2.881,0,0,1,2.317,1.023,4.486,4.486,0,0,1-.07,5.39A3.218,3.218,0,0,1,8.075,389.1a3.17,3.17,0,0,1-2.586-1.225,4.836,4.836,0,0,1-1-3.155v-.543a7.306,7.306,0,0,1,1.311-4.69,4.809,4.809,0,0,1,3.9-1.661ZM8.1,382.833a2.378,2.378,0,0,0-2.183,1.527v.52a3.652,3.652,0,0,0,.617,2.214,1.851,1.851,0,0,0,1.543.838,1.8,1.8,0,0,0,1.5-.7,3.369,3.369,0,0,0-.008-3.69,1.775,1.775,0,0,0-1.47-.707" transform="translate(2.789 234.454)"/>
          <line id="Línea_1426" data-name="Línea 1426" x1="21.331" transform="translate(0 607.51)"/>
          <line id="Línea_1427" data-name="Línea 1427" x1="21.331" transform="translate(0 607.51)" fill="none" stroke="#000" stroke-miterlimit="10" stroke-width="0.75"/>
          <path id="Trazado_899782" data-name="Trazado 899782" d="M328.858,63.068H324.2l-1.047,2.909h-1.512l4.246-11.114h1.283l4.251,11.114h-1.5Zm-4.215-1.2h3.779l-1.894-5.2Z" transform="translate(199.59 34.044)"/>
          <path id="Trazado_899783" data-name="Trazado 899783" d="M328.031,66.633v1.2h-.261a3.724,3.724,0,0,0-2.625.977,4.06,4.06,0,0,0-1.129,2.664,3.009,3.009,0,0,1,2.4-1.008,2.881,2.881,0,0,1,2.316,1.024,4.48,4.48,0,0,1-.068,5.388,3.22,3.22,0,0,1-2.509,1.031,3.17,3.17,0,0,1-2.586-1.225,4.849,4.849,0,0,1-.993-3.157v-.541a7.316,7.316,0,0,1,1.309-4.69,4.81,4.81,0,0,1,3.9-1.661Zm-1.855,5.007a2.382,2.382,0,0,0-2.185,1.527v.52a3.642,3.642,0,0,0,.619,2.214,1.85,1.85,0,0,0,1.541.838,1.794,1.794,0,0,0,1.5-.7,3.369,3.369,0,0,0-.008-3.69,1.772,1.772,0,0,0-1.468-.707" transform="translate(200.167 41.348)"/>
          <line id="Línea_1428" data-name="Línea 1428" x1="21.331" transform="translate(515.454 103.211)"/>
          <line id="Línea_1429" data-name="Línea 1429" x1="21.331" transform="translate(515.454 103.211)" fill="none" stroke="#000" stroke-miterlimit="10" stroke-width="0.75"/>
          <line id="Línea_1430" data-name="Línea 1430" x2="37.301" transform="translate(740.003 82.607)" fill="none" stroke="#9d9d9c" stroke-miterlimit="10" stroke-width="0.75"/>
          <line id="Línea_1431" data-name="Línea 1431" y1="131.879" transform="translate(758.654 82.608)" fill="none" stroke="#9d9d9c" stroke-miterlimit="10" stroke-width="0.75"/>
          <line id="Línea_1432" data-name="Línea 1432" x2="37.301" transform="translate(782.423 82.607)" fill="none" stroke="#9d9d9c" stroke-miterlimit="10" stroke-width="0.75"/>
          <line id="Línea_1433" data-name="Línea 1433" x2="37.301" transform="translate(782.423 641.823)" fill="none" stroke="#9d9d9c" stroke-miterlimit="10" stroke-width="0.75"/>
          <line id="Línea_1434" data-name="Línea 1434" y1="218.325" transform="translate(801.074 82.608)" fill="none" stroke="#9d9d9c" stroke-miterlimit="10" stroke-width="0.75"/>
          <line id="Línea_1435" data-name="Línea 1435" y1="225.489" transform="translate(801.074 416.333)" fill="none" stroke="#9d9d9c" stroke-miterlimit="10" stroke-width="0.75"/>
          <line id="Línea_1436" data-name="Línea 1436" y1="37.301" transform="translate(711.032 672.211)" fill="none" stroke="#9d9d9c" stroke-miterlimit="10" stroke-width="0.75"/>
          <line id="Línea_1437" data-name="Línea 1437" y1="37.301" transform="translate(48.1 672.211)" fill="none" stroke="#9d9d9c" stroke-miterlimit="10" stroke-width="0.75"/>
          <line id="Línea_1438" data-name="Línea 1438" x1="287.267" transform="translate(423.765 690.862)" fill="none" stroke="#9d9d9c" stroke-miterlimit="10" stroke-width="0.75"/>
          <line id="Línea_1439" data-name="Línea 1439" x1="298.405" transform="translate(48.496 690.862)" fill="none" stroke="#9d9d9c" stroke-miterlimit="10" stroke-width="0.75"/>
          <line id="Línea_1440" data-name="Línea 1440" y1="101.013" transform="translate(758.654 264.901)" fill="none" stroke="#9d9d9c" stroke-miterlimit="10" stroke-width="0.75"/>
          <line id="Línea_1441" data-name="Línea 1441" x2="37.301" transform="translate(740.003 366.459)" fill="none" stroke="#9d9d9c" stroke-miterlimit="10" stroke-width="0.75"/>
        </g>
      </g>
    </g>
    <g id="Grupo_1114209" data-name="Grupo 1114209" transform="translate(228 -197)">
      <text id="_Medida_-_Centímetro" data-name="*Medida - Centímetro" transform="translate(287.051 3103)" fill="#12263f" font-size="16" font-family="Roboto-Medium, Roboto" font-weight="500"><tspan x="-76.711" y="15">*Medida - Centímetro</tspan></text>
      <text id="_P_Contorno_de_pecho" data-name="*P = Contorno de pecho" transform="translate(484.051 3103)" fill="#12263f" font-size="16" font-family="Roboto-Medium, Roboto" font-weight="500"><tspan x="-85.023" y="15">*P = Contorno de pecho</tspan></text>
      <text id="_Costura_-_No_incluida" data-name="*Costura - No incluida" transform="translate(695.051 3103)" fill="#12263f" font-size="16" font-family="Roboto-Medium, Roboto" font-weight="500"><tspan x="-78.461" y="15">*Costura - No incluida</tspan></text>
    </g>
  </g>
</svg>
