<svg xmlns="http://www.w3.org/2000/svg" width="86.076" height="93.087" viewBox="0 0 86.076 93.087">
  <g id="Grupo_1114377" data-name="Grupo 1114377" transform="translate(-704.502 -4499.085)">
    <path id="Unión_44" data-name="Unión 44" d="M18014.729,11697.78v-20a30.039,30.039,0,0,1,.982-7.641,2.312,2.312,0,0,1,.117-3.857l1.666-1.1a30.107,30.107,0,0,1,8.83-11.1c-2.1.466-4.414-2.183-2.346-3.8l23.91-18.658-15.789,8.146c-2.652,1.367-5-2.64-2.338-4.007l37.84-19.524c2.221-1.145,4.975,1.953,2.813,3.644q-13.843,10.8-27.68,21.6,17.716-8.175,35.434-16.347a2.32,2.32,0,0,1,2.344,4l-27.586,18.205,42.682-21.785c2.648-1.349,4.93,2.48,2.34,4.007l-25.01,14.731,20.912-10.2a2.32,2.32,0,0,1,2.344,4l-16.848,11.244c.279.095.555.192.828.294l13.008-5.8c2.662-1.19,5,2.508,2.34,4l-8.715,4.9,10.055-3.814c2.508-.954,4.012,2.985,1.785,4.238l-7.111,4a30.13,30.13,0,0,1,3.008,3.737,2.423,2.423,0,0,1,1.793,2.99,29.871,29.871,0,0,1,3.4,13.881v20Zm24.164-49.431a30.179,30.179,0,0,1,4.953-.554l8.709-5.748Z" transform="translate(-17309.727 -7106.107)" fill="#f4e6e6" stroke="rgba(0,0,0,0)" stroke-miterlimit="10" stroke-width="1"/>
    <g id="tamano" transform="translate(695.467 4496.835)">
      <circle id="Elipse_11581" data-name="Elipse 11581" cx="1.68" cy="1.68" r="1.68" transform="translate(31.426 32.461)" fill="#8f0000"/>
      <circle id="Elipse_11582" data-name="Elipse 11582" cx="1.68" cy="1.68" r="1.68" transform="translate(31.426 37.24)" fill="#8f0000"/>
      <circle id="Elipse_11583" data-name="Elipse 11583" cx="1.68" cy="1.68" r="1.68" transform="translate(31.426 42.019)" fill="#8f0000"/>
      <circle id="Elipse_11584" data-name="Elipse 11584" cx="1.68" cy="1.68" r="1.68" transform="translate(59.24 79.568)" fill="#8f0000"/>
      <circle id="Elipse_11585" data-name="Elipse 11585" cx="1.68" cy="1.68" r="1.68" transform="translate(54.461 79.568)" fill="#8f0000"/>
      <circle id="Elipse_11586" data-name="Elipse 11586" cx="1.68" cy="1.68" r="1.68" transform="translate(49.682 79.568)" fill="#8f0000"/>
      <path id="Trazado_899632" data-name="Trazado 899632" d="M83.173,18.78,78.147,5.957A5.8,5.8,0,0,0,72.714,2.25H52.955A4.36,4.36,0,0,0,48.6,6.6V71.237a4.36,4.36,0,0,0,4.355,4.355H71.806a4.36,4.36,0,0,0,4.355-4.355V41.629a29.425,29.425,0,0,1,6.25-18.084,5.232,5.232,0,0,0,.762-4.765Zm-2.615,3.313a31.789,31.789,0,0,0-6.75,19.536V71.237a2.005,2.005,0,0,1-2,2H52.958a2.005,2.005,0,0,1-2-2V6.6a2.005,2.005,0,0,1,2-2H72.717a3.464,3.464,0,0,1,3.244,2.213l5.026,12.824A2.874,2.874,0,0,1,80.558,22.093Z" transform="translate(-6.906)" fill="#8f0000"/>
      <path id="Trazado_899633" data-name="Trazado 899633" d="M85.027,14.424,83.9,11.546a1.176,1.176,0,1,0-2.19.859l1.128,2.878a1.176,1.176,0,1,0,2.19-.859Z" transform="translate(-17.737 -2.803)" fill="#8f0000"/>
      <path id="Trazado_899634" data-name="Trazado 899634" d="M88.437,24.4a1.176,1.176,0,1,0-2.19.858l.725,1.85c-.58.82-1.132,1.668-1.645,2.53a1.176,1.176,0,1,0,2.02,1.2c.586-.983,1.225-1.949,1.9-2.87a1.177,1.177,0,0,0,.147-1.125Z" transform="translate(-18.892 -7.018)" fill="#8f0000"/>
      <path id="Trazado_899635" data-name="Trazado 899635" d="M81.9,40.041a1.175,1.175,0,0,0-1.52.672A37.273,37.273,0,0,0,78.6,46.837a1.176,1.176,0,1,0,2.307.461,34.939,34.939,0,0,1,1.668-5.737A1.177,1.177,0,0,0,81.9,40.041Z" transform="translate(-16.737 -12.367)" fill="#8f0000"/>
      <path id="Trazado_899636" data-name="Trazado 899636" d="M78.773,57.923a1.161,1.161,0,0,0-1.2,1.147c-.016.656-.007.8-.009,6.212a1.176,1.176,0,0,0,2.352,0c0-5.393-.006-5.521.009-6.155a1.175,1.175,0,0,0-1.148-1.2Z" transform="translate(-16.403 -18.257)" fill="#8f0000"/>
      <path id="Trazado_899637" data-name="Trazado 899637" d="M78.736,76.324A1.176,1.176,0,0,0,77.56,77.5v6.183a1.176,1.176,0,1,0,2.352,0V77.5a1.176,1.176,0,0,0-1.176-1.176Z" transform="translate(-16.403 -24.292)" fill="#8f0000"/>
      <path id="Trazado_899638" data-name="Trazado 899638" d="M78.736,94.727A1.176,1.176,0,0,0,77.56,95.9v3.091a1.176,1.176,0,1,0,2.352,0V95.9a1.176,1.176,0,0,0-1.176-1.176Z" transform="translate(-16.403 -30.327)" fill="#8f0000"/>
      <path id="Trazado_899639" data-name="Trazado 899639" d="M38.67,3.426A1.176,1.176,0,0,0,37.494,2.25H28.717a1.176,1.176,0,1,0,0,2.352H31.93V29.794a1.176,1.176,0,0,0,2.352,0V4.6H37.5A1.176,1.176,0,0,0,38.67,3.426Z" transform="translate(0 0)" fill="#8f0000"/>
      <path id="Trazado_899640" data-name="Trazado 899640" d="M28.717,97.363H37.5a1.176,1.176,0,1,0,0-2.352H34.282V69.819a1.176,1.176,0,0,0-2.352,0V95.011H28.717a1.176,1.176,0,1,0,0,2.352Z" transform="translate(0 -21.773)" fill="#8f0000"/>
      <path id="Trazado_899641" data-name="Trazado 899641" d="M48.6,120.668a1.176,1.176,0,1,0,2.352,0v-1.685l2.474.007a1.177,1.177,0,1,0,.009-2.355l-2.481-.007v-1.613a1.176,1.176,0,0,0-2.352,0Z" transform="translate(-6.908 -36.594)" fill="#8f0000"/>
      <path id="Trazado_899642" data-name="Trazado 899642" d="M87.482,121.845a1.176,1.176,0,0,0,1.176-1.176v-5.651a1.176,1.176,0,0,0-2.352,0V116.7l-2.474-.007h-.006a1.176,1.176,0,0,0,0,2.352l2.481.007v1.612a1.176,1.176,0,0,0,1.175,1.176Z" transform="translate(-18.072 -36.595)" fill="#8f0000"/>
    </g>
  </g>
</svg>
