<svg xmlns="http://www.w3.org/2000/svg" xmlns:xlink="http://www.w3.org/1999/xlink" width="505" height="221.837" viewBox="0 0 505 221.837">
  <defs>
    <clipPath id="clip-path">
      <rect id="Rect치ngulo_407628" data-name="Rect치ngulo 407628" width="231.829" height="221.837" fill="none"/>
    </clipPath>
    <clipPath id="clip-path-2">
      <path id="Trazado_901113" data-name="Trazado 901113" d="M.506,1386.41l54.712,14.078,37.336-16.595-54.712-14.078Z" transform="translate(-0.506 -1369.815)" fill="none"/>
    </clipPath>
    <clipPath id="clip-path-3">
      <path id="Trazado_901119" data-name="Trazado 901119" d="M0,1377.6l54.712,14.078,37.336-16.595-54.711-14.078Z" transform="translate(0 -1361.005)" fill="none"/>
    </clipPath>
  </defs>
  <g id="Grupo_1114374" data-name="Grupo 1114374" transform="translate(-915.416 -4286.653)">
    <rect id="Rect치ngulo_407627" data-name="Rect치ngulo 407627" width="505" height="196.144" rx="14" transform="translate(915.416 4312.347)" fill="#acbeae"/>
    <g id="Grupo_1114357" data-name="Grupo 1114357" transform="translate(1052.416 4286.653)">
      <g id="Grupo_1114352" data-name="Grupo 1114352">
        <g id="Grupo_1114351" data-name="Grupo 1114351" clip-path="url(#clip-path)">
          <path id="Trazado_901008" data-name="Trazado 901008" d="M1610.75,51.215a.268.268,0,0,1-.267-.257c0-.041-.166-4.106-.326-5.554-.068-.617.49-1.491,1.2-2.6.819-1.282,1.838-2.878,1.6-3.926a1.28,1.28,0,0,0-.62-.819,2.475,2.475,0,0,0-2.208-.418,3.46,3.46,0,0,0-1.655,2.069.267.267,0,0,1-.514-.149,3.936,3.936,0,0,1,1.976-2.418,2.967,2.967,0,0,1,2.685.463,1.811,1.811,0,0,1,.858,1.155c.286,1.266-.755,2.894-1.672,4.331a5.857,5.857,0,0,0-1.116,2.252c.163,1.468.322,5.424.329,5.592a.267.267,0,0,1-.256.278h-.011" transform="translate(-1413.029 -32.508)" fill="#b1bbc9"/>
          <path id="Trazado_901009" data-name="Trazado 901009" d="M1551.207,195.246s.85-40.04,1.309-43.71,9.237-13.68,12.335-5.422,4.918,114.07,3.2,115.821-16.622-3.21-17.827-7.965.986-58.725.986-58.725" transform="translate(-1361.981 -125.607)" fill="#d29999"/>
          <path id="Trazado_901010" data-name="Trazado 901010" d="M1575.98,873.952c-4.038,0-9.305-.369-9.781-.67-.166-.1-.67-.424-.471-4.649a21.578,21.578,0,0,1,.575-4.711c.121-.23.321-.616,6.131-.549,2.794.031,5.575.155,5.6.157a.267.267,0,0,1-.024.534c-5.1-.23-10.667-.242-11.249.133-.431.938-.824,8.112-.273,8.638.967.545,13.023.805,13.714.29a.258.258,0,0,1,.369-.036.276.276,0,0,1,.036.383c-.277.35-2.238.48-4.63.48" transform="translate(-1375.886 -758.706)" fill="#e59a49"/>
          <path id="Trazado_901011" data-name="Trazado 901011" d="M1604.125,185.938s-.528,60.059.792,67.733,12.145,3.337,12.409,1.335,2.387-78.244-4.879-85.835Z" transform="translate(-1409.577 -148.664)" fill="#d29999"/>
          <path id="Trazado_901012" data-name="Trazado 901012" d="M1608.323,377.92a6.4,6.4,0,0,1-3.1-.712,5.15,5.15,0,0,1-2.534-3.885c-1.309-7.61-.818-65.328-.8-67.781a.267.267,0,0,1,.267-.265h0a.267.267,0,0,1,.265.27c-.005.6-.513,60.123.788,67.686a4.642,4.642,0,0,0,2.265,3.507c2.041,1.124,4.954.618,7-.23a.267.267,0,0,1,.2.494,11.784,11.784,0,0,1-4.362.917" transform="translate(-1407.612 -268.271)" fill="#a4a3df"/>
          <path id="Trazado_901013" data-name="Trazado 901013" d="M1490.664,53.518a.268.268,0,0,1-.267-.257c0-.041-.165-4.106-.326-5.555-.068-.617.49-1.491,1.2-2.6.818-1.282,1.838-2.878,1.6-3.926a1.28,1.28,0,0,0-.62-.819,2.471,2.471,0,0,0-2.21-.417,3.445,3.445,0,0,0-1.653,2.067.267.267,0,1,1-.514-.148,3.935,3.935,0,0,1,1.976-2.418,2.971,2.971,0,0,1,2.685.463,1.811,1.811,0,0,1,.858,1.155c.286,1.266-.754,2.894-1.672,4.331a5.857,5.857,0,0,0-1.116,2.252c.163,1.468.322,5.425.329,5.592a.267.267,0,0,1-.257.278h-.011" transform="translate(-1307.5 -34.531)" fill="#b1bbc9"/>
          <path id="Trazado_901014" data-name="Trazado 901014" d="M1426.11,166.325s-.3-22.573,9.207-21.917,7.1,23.058,7.1,23.058-1.858,49.4.765,56.608,14.682,55.146,17.141,58.588-7.469,13.21-9.437,13.21a30.479,30.479,0,0,1-22.293,1.967s-2.295-5.246-3.77-31.965c-.58-10.505-.382-28.1.071-45.585.7-26.986,1.213-53.964,1.213-53.964" transform="translate(-1251.79 -126.891)" fill="#8f0000"/>
          <path id="Trazado_901015" data-name="Trazado 901015" d="M1480.955,944.568a1.892,1.892,0,0,1-1.141-.407c-2.919-2.172-4.413-13.211-5.731-22.95-.9-6.679-1.929-14.25-3.083-14.365-.024,0-.074-.008-.151.072-2.007,2.05.586,27.407,1.755,37a.268.268,0,0,1-.233.3.265.265,0,0,1-.3-.233c-.433-3.558-4.158-34.835-1.606-37.443a.7.7,0,0,1,.587-.23c1.5.15,2.292,5.457,3.56,14.825,1.239,9.158,2.782,20.555,5.52,22.593a1.3,1.3,0,0,0,1.015.286.843.843,0,0,0,.582-.411c1.908-2.9-2.075-18.4-5.276-30.86-3.158-12.291-5.04-19.893-3.987-21.251a.648.648,0,0,1,.526-.265c1.954,0,4.232,9.026,7.786,23.753,2.895,11.994,6.176,25.588,8.453,26.729a.423.423,0,0,0,.376.028c.719-.308,1.114-2.685-1.087-12.257-1.593-6.929-4.15-15.925-6.406-23.863-3.814-13.419-6.117-21.714-5.427-23.094a.437.437,0,0,1,.5-.269c.436.1,1.763.416,10.038,28.4,4.042,13.668,8,28.181,8,29.038a.266.266,0,0,1-.266.266h0a.268.268,0,0,1-.267-.266c-.006-.738-3.71-14.459-7.92-28.7-7.111-24.061-9.111-27.683-9.628-28.155-.491,1.614,2.546,12.3,5.486,22.642,5.911,20.793,9.886,35.6,7.189,36.757a.958.958,0,0,1-.826-.041c-2.5-1.252-5.527-13.8-8.733-27.082-1.477-6.119-2.872-11.9-4.158-16.275-1.808-6.15-2.724-7.069-3.109-7.069a.117.117,0,0,0-.1.058c-.946,1.22,1.61,11.169,4.083,20.791,3.395,13.211,7.242,28.185,5.2,31.286a1.365,1.365,0,0,1-.945.645,1.766,1.766,0,0,1-.276.022" transform="translate(-1291.434 -775.3)" fill="#635fb2"/>
          <path id="Trazado_901016" data-name="Trazado 901016" d="M1481.3,248.155h0l-9.835-.109a.267.267,0,0,1,0-.535h0l9.652.107c2.223-5.819-.708-22.789-.739-22.961a.267.267,0,0,1,.527-.092c.125.717,3.046,17.628.639,23.426a.267.267,0,0,1-.247.165" transform="translate(-1292.852 -197.148)" fill="#635fb2"/>
          <path id="Trazado_901017" data-name="Trazado 901017" d="M1071.332,189.52a.268.268,0,0,1-.267-.257c-.214-5.525-5.189-135.409.045-143.259,5.268-7.9,95.783-4.06,99.634-3.892a.267.267,0,0,1,.256.279.262.262,0,0,1-.279.255c-.236-.01-23.811-1.024-47.723-1.064-39.875-.061-49.983,2.529-51.442,4.718-5.138,7.707-.008,141.59.045,142.942a.267.267,0,0,1-.257.278h-.011" transform="translate(-939.17 -36.057)" fill="#b1bbc9"/>
          <path id="Trazado_901018" data-name="Trazado 901018" d="M1210.889,63.977a.267.267,0,0,1-.266-.244c-.006-.065-.559-6.5-.72-7.95-.068-.617.49-1.491,1.2-2.6.819-1.282,1.838-2.878,1.6-3.926a1.28,1.28,0,0,0-.62-.819,2.471,2.471,0,0,0-2.208-.417,3.457,3.457,0,0,0-1.655,2.068.267.267,0,0,1-.514-.148,3.935,3.935,0,0,1,1.976-2.419,2.969,2.969,0,0,1,2.685.463,1.809,1.809,0,0,1,.858,1.154c.286,1.266-.754,2.895-1.672,4.331a5.865,5.865,0,0,0-1.116,2.252c.162,1.462.716,7.9.721,7.963a.267.267,0,0,1-.243.289h-.023" transform="translate(-1061.294 -41.629)" fill="#b1bbc9"/>
          <path id="Trazado_901019" data-name="Trazado 901019" d="M1163.122,221.245s.85-39.341,1.309-42.948,9.237-13.442,12.335-5.327,3.1,106.959,1.377,108.68-14.8,1.967-16.007-2.7.986-57.7.986-57.7" transform="translate(-1020.941 -149.256)" fill="#d29999"/>
          <path id="Trazado_901020" data-name="Trazado 901020" d="M1187.827,888.088c-4.037,0-9.3-.363-9.778-.658-1.031-.64-.3-8.448.1-9.205.121-.226.325-.606,6.129-.54,2.794.03,5.575.152,5.6.154a.267.267,0,1,1-.024.534c-5.1-.226-10.665-.238-11.25.131-.429.923-.822,7.96-.273,8.478.966.537,13.025.793,13.718.285a.258.258,0,0,1,.369-.033.276.276,0,0,1,.033.384c-.277.344-2.238.472-4.63.472" transform="translate(-1034.779 -771.282)" fill="#a4a3df"/>
          <path id="Trazado_901021" data-name="Trazado 901021" d="M1216.04,212.1s-.528,59.012.792,66.552,12.145,3.278,12.409,1.311,2.387-76.879-4.879-84.338Z" transform="translate(-1068.537 -171.911)" fill="#d29999"/>
          <path id="Trazado_901022" data-name="Trazado 901022" d="M1220.238,400.7a6.465,6.465,0,0,1-3.139-.722,5.071,5.071,0,0,1-2.5-3.8c-1.309-7.479-.818-64.19-.8-66.6a.267.267,0,0,1,.267-.265h0a.267.267,0,0,1,.265.27c-.005.59-.513,59.074.788,66.5a4.562,4.562,0,0,0,2.229,3.423c2.042,1.129,4.974.634,7.038-.207a.267.267,0,1,1,.2.5,11.954,11.954,0,0,1-4.36.9" transform="translate(-1066.571 -289.397)" fill="#a4a3df"/>
          <path id="Trazado_901023" data-name="Trazado 901023" d="M1353.693,53.294a.268.268,0,0,1-.267-.257c0-.041-.166-4.106-.326-5.555-.069-.617.49-1.491,1.2-2.6.819-1.282,1.838-2.878,1.6-3.926a1.28,1.28,0,0,0-.62-.819,2.472,2.472,0,0,0-2.21-.417,3.443,3.443,0,0,0-1.653,2.067.267.267,0,1,1-.514-.148,3.934,3.934,0,0,1,1.976-2.418,2.971,2.971,0,0,1,2.685.463,1.81,1.81,0,0,1,.858,1.155c.286,1.266-.754,2.894-1.672,4.331a5.857,5.857,0,0,0-1.116,2.252c.163,1.468.322,5.425.329,5.592a.267.267,0,0,1-.256.278h-.011" transform="translate(-1187.133 -34.335)" fill="#b1bbc9"/>
          <path id="Trazado_901024" data-name="Trazado 901024" d="M1296.233,203.049s1.525-44.235,1.29-48.315c-.487-8.457,9.1-15.122,12.156-5.993s3.053,120.327,1.357,122.264-14.586,2.213-15.773-3.043.972-64.912.972-64.912" transform="translate(-1137.933 -126.857)" fill="#e8cccc"/>
          <path id="Trazado_901025" data-name="Trazado 901025" d="M1320.648,959.744c-3.893,0-9.106-.33-9.687-.742-.161-.114-.65-.46-.454-5.1a26.68,26.68,0,0,1,.562-5.185c.119-.252.317-.675,6.05-.6,2.754.034,5.5.172,5.523.173a.268.268,0,0,1-.027.534c-5.031-.255-10.518-.269-11.072.145-.432,1.027-.821,9.037-.266,9.609.958.6,12.814.884,13.486.322a.26.26,0,0,1,.367-.057.275.275,0,0,1,.058.38c-.115.162-.364.266-.833.347a26.415,26.415,0,0,1-3.707.183" transform="translate(-1151.604 -833.169)" fill="#cdcdec"/>
          <path id="Trazado_901026" data-name="Trazado 901026" d="M1348.379,199.056s-.52,66.388.781,74.87,11.968,3.688,12.228,1.475,2.352-86.488-4.808-94.879Z" transform="translate(-1184.835 -158.64)" fill="#e8cccc"/>
          <path id="Trazado_901027" data-name="Trazado 901027" d="M1352.529,411.442a5.911,5.911,0,0,1-2.808-.641,5.615,5.615,0,0,1-2.744-4.42c-1.289-8.407-.789-74.249-.784-74.913a.267.267,0,0,1,.535,0c-.005.664-.505,66.463.777,74.828a5.113,5.113,0,0,0,2.468,4.029c1.993,1.067,4.74.5,6.645-.386a.267.267,0,1,1,.226.485,10.607,10.607,0,0,1-4.315,1.014" transform="translate(-1182.917 -291.054)" fill="#cdcdec"/>
          <path id="Trazado_901028" data-name="Trazado 901028" d="M1741.778,51.217a.267.267,0,0,1-.267-.257c0-.041-.166-4.105-.327-5.554-.068-.617.49-1.491,1.2-2.6.819-1.282,1.838-2.878,1.6-3.926a1.28,1.28,0,0,0-.62-.819,2.471,2.471,0,0,0-2.208-.417,3.458,3.458,0,0,0-1.655,2.068.267.267,0,0,1-.514-.149,3.936,3.936,0,0,1,1.976-2.418,2.969,2.969,0,0,1,2.685.463,1.811,1.811,0,0,1,.858,1.155c.286,1.266-.755,2.894-1.672,4.331a5.861,5.861,0,0,0-1.116,2.252c.163,1.468.322,5.424.329,5.592a.267.267,0,0,1-.256.278h-.011" transform="translate(-1528.173 -32.51)" fill="#b1bbc9"/>
          <path id="Trazado_901029" data-name="Trazado 901029" d="M1684.318,200.974s1.525-44.235,1.29-48.315c-.487-8.457,9.1-15.122,12.155-5.993s3.053,120.327,1.357,122.264-14.586,2.213-15.774-3.043.972-64.912.972-64.912" transform="translate(-1478.973 -125.034)" fill="#e8cccc"/>
          <path id="Trazado_901030" data-name="Trazado 901030" d="M1708.732,957.669c-3.893,0-9.1-.33-9.686-.742-.161-.114-.65-.46-.454-5.1a26.627,26.627,0,0,1,.562-5.185c.119-.252.317-.674,6.05-.6,2.754.034,5.5.172,5.522.173a.268.268,0,0,1,.254.281.265.265,0,0,1-.281.254c-5.03-.255-10.518-.269-11.071.145-.433,1.027-.821,9.037-.266,9.609.959.6,12.815.884,13.486.321a.26.26,0,0,1,.367-.057.275.275,0,0,1,.059.38c-.115.163-.364.266-.834.347a26.347,26.347,0,0,1-3.707.183" transform="translate(-1492.645 -831.347)" fill="#cdcdec"/>
          <path id="Trazado_901031" data-name="Trazado 901031" d="M1736.464,196.981s-.52,66.388.781,74.87,11.968,3.688,12.228,1.475,2.352-86.488-4.808-94.879Z" transform="translate(-1525.875 -156.816)" fill="#e8cccc"/>
          <path id="Trazado_901032" data-name="Trazado 901032" d="M1740.615,409.368a5.913,5.913,0,0,1-2.807-.641,5.614,5.614,0,0,1-2.745-4.42c-1.289-8.407-.789-74.249-.784-74.913a.267.267,0,0,1,.267-.265h0a.267.267,0,0,1,.265.269c-.005.664-.505,66.463.778,74.828a5.114,5.114,0,0,0,2.468,4.029c1.994,1.067,4.74.5,6.645-.386a.267.267,0,1,1,.226.485,10.607,10.607,0,0,1-4.316,1.014" transform="translate(-1523.958 -289.231)" fill="#cdcdec"/>
          <path id="Trazado_901033" data-name="Trazado 901033" d="M933.406,1228.122a20.525,20.525,0,0,1,11.271-2.52c6.17.56,18.469,1.706,18.469,1.706l11.848,17.017-27.007,4.878Z" transform="translate(-820.256 -1076.972)" fill="#e9eaf2"/>
          <path id="Trazado_901034" data-name="Trazado 901034" d="M740.235,1253.076s-18.469-18.963-19.776-20.154-13.6-2.015-18.692,1.752-10.037,4.164-12.091,6.812,11.2,19.842,11.2,19.842Z" transform="translate(-605.883 -1082.586)" fill="#e9eaf2"/>
          <path id="Trazado_901035" data-name="Trazado 901035" d="M965.5,1261a.266.266,0,0,1-.191-.081c-3.563-3.655-15.4-15.792-18.124-18.487a.267.267,0,0,1,.376-.38c2.728,2.7,14.567,14.838,18.131,18.494a.267.267,0,0,1-.191.454" transform="translate(-832.296 -1091.415)" fill="#c5cbd8"/>
          <path id="Trazado_901036" data-name="Trazado 901036" d="M819.414,1392.637s-4.826-5.111-13.419-1.846-20.617,4.891-20.935,5.472-2.6,3.253-2.039,3.717,35.755-5.858,36.394-7.343" transform="translate(-688.024 -1221.238)" fill="#d8dce5"/>
          <path id="Trazado_901037" data-name="Trazado 901037" d="M243.042,1632.007c0-.985-.5-5.96.517-6.7,3.111-2.254,11.42.755,18.917.786,7.437.03,17.29-2.986,19.514-.213.318.4,0,5.16,0,5.615,0,3.9-10.86,5.674-19.514,5.843-8.156.159-19.434-1.745-19.434-5.333" transform="translate(-213.471 -1427.549)" fill="#ee6e81"/>
          <path id="Trazado_901038" data-name="Trazado 901038" d="M243.938,1597.442c0-4,9.482-5.953,19.434-5.913,8.5.035,19.514,1.755,19.514,5.4,0,3.9-10.86,5.674-19.514,5.843-8.156.159-19.434-1.745-19.434-5.333" transform="translate(-214.367 -1398.6)" fill="#f6848e"/>
          <path id="Trazado_901039" data-name="Trazado 901039" d="M263.645,1605.413c-7.152,0-15.743-1.9-17.74-3.934a1.386,1.386,0,0,1-.47-.986c.057-2.67,11.552-4.2,17.4-4.385,7.112-.23,17.938,1.052,18.048,3.508a1.261,1.261,0,0,1-.405.909c-1.815,1.936-9.775,3.823-16.7,3.959-7.3.141-15.04-1.6-16.57-3.142a1.017,1.017,0,0,1-.348-.733c.06-2.351,12.707-3.277,16.091-3.4a77.871,77.871,0,0,1,10.507.347c5.6.611,5.663,1.565,5.683,1.878a.835.835,0,0,1-.258.615c-1.412,1.543-8.864,3.161-15.335,3.328-6.694.171-13.51-1.108-14.685-2.285a.665.665,0,0,1-.225-.487c.015-.526.685-1.14,5.542-1.714,3.036-.359,6.612-.564,8.947-.637,2.887-.09,6.265-.051,8.814.1,4.885.289,4.918.842,4.935,1.14a.484.484,0,0,1-.143.36c-.869.955-7.485,2.1-13.357,2.3-5.846.208-12.276-.509-12.991-1.216a.372.372,0,0,1-.121-.277c.01-.447.021-.91,13.027-1.306.116,0,10.671-.3,11.115.121a.3.3,0,0,1,.089.2.283.283,0,0,1-.078.2c-.3.3-8.612,1.18-20.147,1.18a.267.267,0,1,1,0-.535c8.023,0,13.974-.406,17.176-.723-2.077-.022-5.1,0-8.13.1-7.075.216-11.2.483-12.306.795,1.252.453,6.533,1.141,12.347.936,6.631-.235,12.339-1.5,12.952-2.1-.745-.563-7.113-.927-13.167-.739-7.134.222-13.793,1.1-13.971,1.833.1.725,6.561,2.421,14.362,2.22,6.657-.172,13.786-1.879,14.954-3.155a.363.363,0,0,0,.119-.22c0-.033-.11-.825-5.207-1.38a77.354,77.354,0,0,0-10.43-.344,83.527,83.527,0,0,0-10.14.992c-5.148.87-5.43,1.722-5.434,1.884a.556.556,0,0,0,.193.342c1.448,1.457,9.2,3.12,16.18,2.984,7.324-.143,14.787-2.155,16.32-3.79a.766.766,0,0,0,.261-.519c-.075-1.662-9.4-3.257-17.5-3-7.57.245-16.849,2.075-16.887,3.862a.893.893,0,0,0,.317.6c1.723,1.755,9.652,3.773,17.344,3.773h.145c7.225-.024,15.728-2.022,17.84-4.191a1.2,1.2,0,0,0,.42-.82,1.238,1.238,0,0,0-.476-.821c-2.094-1.948-10.845-3.9-18.991-3.507q-.819.04-1.614.075c-6.893.312-12.337.558-16.558,5.022a.267.267,0,0,1-.389-.368c4.369-4.62,9.909-4.871,16.923-5.188q.794-.036,1.612-.075c7.688-.376,16.925,1.364,19.381,3.649a1.734,1.734,0,0,1,.646,1.2,1.7,1.7,0,0,1-.572,1.206c-2.233,2.294-10.748,4.328-18.222,4.353h-.133" transform="translate(-214.366 -1401.61)" fill="#ee6e81"/>
          <path id="Trazado_901040" data-name="Trazado 901040" d="M273.717,1668.618s12.918,1.262,18.2,9.335l-4.831,3.6s-3.329-6.534-14.233-7.629Z" transform="translate(-239.78 -1466.344)" fill="#ee6e81"/>
          <path id="Trazado_901041" data-name="Trazado 901041" d="M349.072,1685.3a.267.267,0,0,1-.2-.086,23.272,23.272,0,0,0-9.144-5.892.267.267,0,0,1,.178-.5,23.82,23.82,0,0,1,9.359,6.034.267.267,0,0,1-.2.448" transform="translate(-298.392 -1475.292)" fill="#f6848e"/>
          <path id="Trazado_901042" data-name="Trazado 901042" d="M81.31,8.815s34.467,1.4,53.922-6.406c0,0,1.223,80.217,12.61,76.757,0,0-27.4,17.79-58.442,7.789-7.745-2.5-8.091-78.14-8.091-78.14" transform="translate(-71.453 -2.117)" fill="#e9eaf2"/>
          <path id="Trazado_901043" data-name="Trazado 901043" d="M305.683,190.863a.267.267,0,0,1-.217-.112,23.622,23.622,0,0,0-1.978-2.535c-.107-.056-.45-.235-.449-2.564-.586-2.067-1.286-3.993-1.8-5.4a17.5,17.5,0,0,1-.816-2.519c-.109-.85-1.214-4.47-1.225-4.507a.267.267,0,1,1,.511-.156c.046.151,1.13,3.7,1.245,4.595a18.349,18.349,0,0,0,.788,2.4c.518,1.424,1.227,3.375,1.82,5.474a.265.265,0,0,1,.01.073,7.862,7.862,0,0,0,.2,2.15,15.2,15.2,0,0,1,1.7,2.089,7.817,7.817,0,0,0-.007-2c-.237-.352-1.393-2.305-1.442-2.388a.267.267,0,0,1-.035-.1c-.513-3.769-1.269-7.886-1.645-8.25s-.639-1.707-1.049-3.878a15.379,15.379,0,0,0-.945-3.742,11.058,11.058,0,0,0-3.131-.753,7.528,7.528,0,0,1-1.03-.191c-.437-.165-.669-1.336-.786-2.29a.267.267,0,1,1,.531-.065,5.582,5.582,0,0,0,.46,1.86c.116.035.518.1.907.157a9.384,9.384,0,0,1,3.4.878c.406.351.69,1.767,1.121,4.047a15.649,15.649,0,0,0,.9,3.594c.688.667,1.6,7.081,1.8,8.508.18.3,1.188,2.006,1.4,2.321a8.578,8.578,0,0,1,.031,3.063.267.267,0,0,1-.2.232.259.259,0,0,1-.069.009m-1.941-3.117h0Z" transform="translate(-259.596 -145.841)" fill="#b1bbc9"/>
          <path id="Trazado_901044" data-name="Trazado 901044" d="M257.543,244.987a.267.267,0,0,1-.247-.371c2.2-5.254,5.674-13.81,5.748-14.67-.462-1.022-3.752-8.392-4.167-12.1a8.123,8.123,0,0,1,.04-1.709.267.267,0,1,1,.532.057,7.6,7.6,0,0,0-.04,1.592c.42,3.747,3.989,11.648,4.141,11.982.081.18.194.426-2.789,7.826-.894,2.217-1.806,4.428-2.379,5.811a27.508,27.508,0,0,1,13.658-7.829c-.812-1.285-3.641-5.791-3.946-6.633a9.407,9.407,0,0,1-.028-2.54,45.185,45.185,0,0,0-.473-10.6,8.745,8.745,0,0,0-1.855-3.638,9.844,9.844,0,0,1-.775-1.134c-.525-.972.126-4.8.43-6.4a11.893,11.893,0,0,1-8.043,1.516c.661,1.388,2.526,5.319,2.669,5.724a5.782,5.782,0,0,1-.2,1.938l-.025.143a.267.267,0,0,1-.526-.093l.025-.143a9.715,9.715,0,0,0,.226-1.671c-.132-.373-2.118-4.56-2.872-6.142a.268.268,0,0,1,.033-.283.271.271,0,0,1,.27-.092c.049.012,4.912,1.115,8.679-1.708a.268.268,0,0,1,.422.268c-.452,2.187-1.017,5.936-.612,6.686a9.518,9.518,0,0,0,.733,1.068,9.186,9.186,0,0,1,1.952,3.86,45.668,45.668,0,0,1,.482,10.721,10.986,10.986,0,0,0,0,2.332c.263.727,2.8,4.806,4.106,6.862a.268.268,0,0,1-.187.408,26.692,26.692,0,0,0-14.769,8.866.267.267,0,0,1-.2.093" transform="translate(-225.508 -179.069)" fill="#b1bbc9"/>
          <path id="Trazado_901045" data-name="Trazado 901045" d="M327.868,492.153a5.237,5.237,0,0,1-2.45-1.263,6.616,6.616,0,0,1-.463-1.922.042.042,0,0,1,0,.008.475.475,0,0,1-.26.338c-.726.365-2.71-.1-3.262-.4a.49.49,0,0,1-.294-.343,11.284,11.284,0,0,0-1.3-3.443c-.451-.884-.648-1.286-.577-1.573a2.811,2.811,0,0,1,1.082-1.377,2.121,2.121,0,0,0,.451-.436c.241-.525-.109-3.189-.387-4.744a.267.267,0,0,1,.52-.122c.168.568,1.349,2.983,2.3,4.923.859,1.756,1.348,2.76,1.407,2.979.339,1.269.6,2.721.813,3.888a14.687,14.687,0,0,0,.4,1.907,4.973,4.973,0,0,0,2.048,1.045,5.479,5.479,0,0,0,.277-2.327c-.084-.281-1.572-3.053-2.132-4.1l-.3-.566c-.647-1.215-2.465-8.578-2.543-8.891a.267.267,0,0,1,.519-.128c.019.076,1.879,7.611,2.5,8.768l.3.564c1.3,2.417,2.114,3.965,2.178,4.217.049.193.124,2.611-.566,2.942a.6.6,0,0,1-.258.051m-6.208-3.72a5.343,5.343,0,0,0,2.77.414c-.008-.093-.111-.355-.717-1.054-.058-.067-.1-.118-.123-.146a16.592,16.592,0,0,1-1.274-3.678,10.935,10.935,0,0,1,.28-2.239c-.469-.96-.956-1.958-1.352-2.8a8.3,8.3,0,0,1,.037,3.032,2.111,2.111,0,0,1-.6.626,2.393,2.393,0,0,0-.9,1.092,5.917,5.917,0,0,0,.534,1.2,11.974,11.974,0,0,1,1.345,3.547m1.329-5.9a6.745,6.745,0,0,0-.143,1.37,16.918,16.918,0,0,0,1.17,3.42c.017.023.053.064.1.119a4.844,4.844,0,0,1,.753,1.05c-.2-1.107-.447-2.424-.755-3.576-.044-.161-.562-1.229-1.126-2.382" transform="translate(-280.547 -417.778)" fill="#b1bbc9"/>
          <path id="Trazado_901046" data-name="Trazado 901046" d="M219.86,186.836c-.406,0-.884-.008-1.449-.027a21.9,21.9,0,0,1-3.54-2.011c-3.08-2.041-3.091-2.417-3.1-2.577-.021-.76,4-7.413,4.3-7.778a5.693,5.693,0,0,1,1.683-.921,7.46,7.46,0,0,0,1.884-1.019,10.416,10.416,0,0,0,.162-2.152.267.267,0,0,1,.267-.266h0a.268.268,0,0,1,.266.269,7.38,7.38,0,0,1-.273,2.474,6.413,6.413,0,0,1-2.089,1.182,7.3,7.3,0,0,0-1.488.771,63.671,63.671,0,0,0-4.172,7.4c.41.683,5.529,3.991,6.127,4.09a20.755,20.755,0,0,0,3.2-.077,5.125,5.125,0,0,0-1.287-1.684,3.32,3.32,0,0,0-1.257.929.268.268,0,0,1-.352.028l-4.506-3.355a.267.267,0,0,1-.059-.368l3.449-4.933a.267.267,0,1,1,.438.307l-3.3,4.721,4.112,3.062c.475-.464,1.189-1.05,1.647-.9a4.8,4.8,0,0,1,1.545,1.851.761.761,0,0,1,.106.585c-.057.152-.145.392-2.318.392" transform="translate(-186.104 -149.467)" fill="#b1bbc9"/>
          <path id="Trazado_901047" data-name="Trazado 901047" d="M266.839,130.038c-1.627,0-2.473-2.7-2.516-2.843-.59-1.881-.173-3.06,1.24-3.506a3.632,3.632,0,0,1,1.695-.041.267.267,0,0,1,.186.158,2.048,2.048,0,0,1,.1,1.328,9.893,9.893,0,0,0,1.027.611.268.268,0,0,1,.142.2c.017.144.4,3.535-1.47,4.034a1.572,1.572,0,0,1-.406.055m-1.929-2.778c.24.655,1.027,2.52,2.2,2.206,1.125-.3,1.176-2.377,1.09-3.315a9.676,9.676,0,0,1-.965-.584,13.98,13.98,0,0,1-2.323,1.693m1.536-3.161a2.428,2.428,0,0,0-.723.1c-.662.209-1.463.7-.975,2.545a12.415,12.415,0,0,0,2.241-1.7l0-.006a1.165,1.165,0,0,0,0-.9,3.628,3.628,0,0,0-.551-.043" transform="translate(-232.053 -108.586)" fill="#b1bbc9"/>
          <path id="Trazado_901048" data-name="Trazado 901048" d="M289.24,126.793h-.025a.268.268,0,0,1-.241-.291,1.881,1.881,0,0,0-.319-1.461.978.978,0,0,0-.666-.32.267.267,0,0,1,0-.535,1.5,1.5,0,0,1,1.056.487,2.363,2.363,0,0,1,.464,1.879.268.268,0,0,1-.266.243" transform="translate(-252.844 -109.13)" fill="#b1bbc9"/>
          <path id="Trazado_901049" data-name="Trazado 901049" d="M780.8,136.136s-5.9,16.844-3.309,21.626,6.748,12.015,1.728,21.272c-4.578,8.442-9.667,9.517-14.574,9.316-4.877-.2-17.637-8.535-17.637-8.535l18.286-56.765Z" transform="translate(-656.453 -108.134)" fill="#4b4968"/>
          <path id="Trazado_901050" data-name="Trazado 901050" d="M890.631,466.711a.267.267,0,0,1-.062-.527,12.341,12.341,0,0,0,8.05-5.571c3.779-6.2,1.662-15.025,1.641-15.113a.267.267,0,0,1,.519-.128c.022.091,2.193,9.128-1.7,15.518a12.857,12.857,0,0,1-8.384,5.815.268.268,0,0,1-.062.007" transform="translate(-782.432 -391.204)" fill="#3d3851"/>
          <path id="Trazado_901051" data-name="Trazado 901051" d="M893.648,854.869s18.756,36.631,16.665,44.21-19.776,4.979-22.3.791-19.088-39.4-19.088-39.4Z" transform="translate(-763.589 -751.24)" fill="#d1f1ff"/>
          <path id="Trazado_901052" data-name="Trazado 901052" d="M385.03,875.8s-.287,9.962,2.965,17.084c3.612,7.909,2.327,20.908-7.2,23.3-3.872.972-5.924,15.264-7.55,15.729s-61.564-11.741-63.538-13.649,5.808-42.464,5.808-42.464Z" transform="translate(-271.88 -769.632)" fill="#d1f1ff"/>
          <path id="Trazado_901053" data-name="Trazado 901053" d="M937.9,944.316l-.035,0a.267.267,0,0,1-.23-.3,22.262,22.262,0,0,0-1.652-11.656,37.621,37.621,0,0,1-2.742-11.471.267.267,0,0,1,.532-.051,37.094,37.094,0,0,0,2.7,11.3,22.488,22.488,0,0,1,1.7,11.947.267.267,0,0,1-.265.233" transform="translate(-820.107 -808.997)" fill="#7e9199"/>
          <path id="Trazado_901054" data-name="Trazado 901054" d="M771.063,994.992a.267.267,0,0,1-.182-.463c3.316-3.079,8.486-9.453,5.858-17.54a46.26,46.26,0,0,1-2.363-14.975.274.274,0,0,1,.281-.253.268.268,0,0,1,.253.281,45.7,45.7,0,0,0,2.337,14.782c2.721,8.37-2.593,14.931-6,18.1a.267.267,0,0,1-.182.072" transform="translate(-677.358 -845.174)" fill="#7e9199"/>
          <path id="Trazado_901055" data-name="Trazado 901055" d="M978.688,1322.169l.771-.907a17.122,17.122,0,0,1,1.86,2.361c-.067.2-2.631-1.454-2.631-1.454" transform="translate(-860.049 -1161.095)" fill="#f4c57c"/>
          <path id="Trazado_901056" data-name="Trazado 901056" d="M683.454,1081.518s-4.1-3.094-4.132-3.51.522-1.069.853-1,4.26,3.36,4.26,3.36Z" transform="translate(-596.972 -946.442)" fill="#3c3d5b"/>
          <path id="Trazado_901057" data-name="Trazado 901057" d="M702.353,1095.778c-1.481-1.259.436-3.595,1.77-2.98s31.135,25.61,32.1,27.026c.54.795-.533,2.083-1.393,1.64s-30.5-24.007-32.473-25.686" transform="translate(-616.74 -960.237)" fill="#4a4968"/>
          <path id="Trazado_901058" data-name="Trazado 901058" d="M692.556,1101.722a.267.267,0,0,1-.261-.212,2.762,2.762,0,0,0-.891-1.339,4.651,4.651,0,0,0-1.16-.669,24.847,24.847,0,0,1-2.708-1.448,47.716,47.716,0,0,1-7.439-6.326c-.487-.686.822-1.95,1.236-2.32a.267.267,0,1,1,.357.4c-.709.637-1.282,1.436-1.157,1.613a48.084,48.084,0,0,0,7.281,6.178,24.436,24.436,0,0,0,2.656,1.421,5.1,5.1,0,0,1,1.281.746,3.242,3.242,0,0,1,1.068,1.635.267.267,0,0,1-.206.317.251.251,0,0,1-.056.006" transform="translate(-597.559 -957.287)" fill="#3c3d5b"/>
          <path id="Trazado_901059" data-name="Trazado 901059" d="M662.782,1128.4s1.637-3.227,3.889-2.531a30.945,30.945,0,0,1,6.15,2.448c.639.483,4.707,3.55,5.059,4.169s6.4,6.416.946,6.786c0,0,5.367,4.452,4.36,6.541a2.881,2.881,0,0,1-3.276,1.5s1.786,4.333-2.637,3.855a3.237,3.237,0,0,1-4.166,2.15,76.756,76.756,0,0,1-8.243-3.334s-7.29,3.521-10.579.861-3.191-10.472-2.01-13.658,10.507-8.791,10.507-8.791" transform="translate(-572.544 -989.298)" fill="#e08290"/>
          <path id="Trazado_901060" data-name="Trazado 901060" d="M717.829,1171.132a.266.266,0,0,1-.2-.088,4.822,4.822,0,0,1-.693-6.188,5.86,5.86,0,0,1,.564-6.021,4.965,4.965,0,0,1,1.85-5.247.267.267,0,0,1,.3.443,4.351,4.351,0,0,0-1.6,4.789.269.269,0,0,1-.053.246,5.244,5.244,0,0,0-.513,5.691.267.267,0,0,1-.03.292c-.087.108-2.108,2.7.569,5.637a.267.267,0,0,1-.2.447" transform="translate(-629.313 -1013.707)" fill="#a55572"/>
          <path id="Trazado_901061" data-name="Trazado 901061" d="M781.31,1173.337a.266.266,0,0,1-.187-.076c-.055-.054-5.534-5.414-7.044-6.142a52.758,52.758,0,0,0-5.56-1.886.267.267,0,0,1,.146-.514,51.958,51.958,0,0,1,5.646,1.919c1.589.766,6.958,6.019,7.186,6.242a.267.267,0,0,1-.187.458" transform="translate(-675.187 -1023.519)" fill="#a55572"/>
          <path id="Trazado_901062" data-name="Trazado 901062" d="M783.695,1218.341a.268.268,0,0,1-.173-.063c-.049-.042-4.917-4.162-5.95-4.992s-7.407-6.028-7.472-6.08a.267.267,0,0,1,.338-.415c.064.052,6.434,5.247,7.468,6.078s5.912,4.958,5.961,5a.267.267,0,0,1-.173.472" transform="translate(-676.661 -1060.448)" fill="#a55572"/>
          <path id="Trazado_901063" data-name="Trazado 901063" d="M773.623,1269a.264.264,0,0,1-.126-.032c-.036-.019-3.606-1.936-5.277-3.041a85.2,85.2,0,0,1-6.547-5.788.267.267,0,1,1,.371-.385c.048.046,4.831,4.643,6.471,5.728s5.2,3,5.234,3.016a.267.267,0,0,1-.127.5" transform="translate(-669.27 -1106.974)" fill="#a55572"/>
          <path id="Trazado_901064" data-name="Trazado 901064" d="M504.947,1227.355l20.56-1.59-1.2-14.6-18.459,1.485s-2.691,5.437-.9,14.7" transform="translate(-443.195 -1064.346)" fill="#e08290"/>
          <path id="Trazado_901065" data-name="Trazado 901065" d="M102.343,821.17c-6.752,9.61-21.816,50.766-17.627,56.207,5.663,7.356,65.11,8.954,62.694,5.43-2.609-3.8-.7-12.116,3.02-15.136,2.057-1.672-29.679-7.3-36.594-7.589,0,0,1.8-2.662-1.336-1.684l13.423-30.651s-20.076-11.566-23.58-6.579" transform="translate(-73.811 -720.529)" fill="#d1f1ff"/>
          <path id="Trazado_901066" data-name="Trazado 901066" d="M355.155,922.738a.267.267,0,0,1-.193-.453c-1.167-1.655-28.856-6.822-36.413-7.136a.267.267,0,0,1-.21-.417c.286-.424.591-1.132.42-1.362-.052-.071-.313-.274-1.454.083a.268.268,0,0,1-.325-.363L330.4,882.44a.267.267,0,0,1,.49.215l-13.2,30.142c.757-.162,1.248-.078,1.5.255.329.443.064,1.139-.172,1.587,3.543.224,12.018,1.5,20.182,3.05,4.445.843,8.264,1.666,11.043,2.38,4.984,1.28,5.166,1.826,5.253,2.089a.462.462,0,0,1-.171.521.267.267,0,0,1-.168.06" transform="translate(-278.535 -775.327)" fill="#7e9199"/>
          <path id="Trazado_901067" data-name="Trazado 901067" d="M205.654,1139.2a.267.267,0,0,1-.1-.516,46.027,46.027,0,0,1,13.607-3.552.276.276,0,0,1,.284.249.268.268,0,0,1-.249.284,45.525,45.525,0,0,0-13.443,3.514.268.268,0,0,1-.1.019" transform="translate(-180.49 -997.528)" fill="#7e9199"/>
          <path id="Trazado_901068" data-name="Trazado 901068" d="M152.213,1163.255a.267.267,0,0,1-.185-.46c.115-.11,11.588-11.029,21.627-14.149a.267.267,0,1,1,.159.511c-9.918,3.082-21.3,13.915-21.416,14.024a.264.264,0,0,1-.185.074" transform="translate(-133.527 -1009.394)" fill="#7e9199"/>
          <path id="Trazado_901069" data-name="Trazado 901069" d="M155.58,1159.3a.267.267,0,0,1-.176-.469c5.551-4.857,16.4-8.553,16.512-8.59a.267.267,0,0,1,.171.507c-.108.036-10.86,3.7-16.331,8.486a.266.266,0,0,1-.176.066" transform="translate(-136.486 -1010.792)" fill="#7e9199"/>
          <path id="Trazado_901070" data-name="Trazado 901070" d="M171.173,713.039s12-21.29,13.531-21.155,90.838,3.547,91.419,4.039,10.308,20.151,10.308,20.151-43.042,22.419-115.258-3.035" transform="translate(-150.423 -608.011)" fill="#a7c1cc"/>
          <path id="Trazado_901071" data-name="Trazado 901071" d="M267.616,887.886c-19.7,0-40.467-3.573-61.869-10.658a.267.267,0,0,1,.168-.508c58.377,19.325,97,7.13,107.453,2.932a.267.267,0,0,1,.2.5c-5.71,2.294-18,6.31-36.133,7.436q-4.862.3-9.819.3" transform="translate(-180.644 -770.431)" fill="#7e9199"/>
          <path id="Trazado_901072" data-name="Trazado 901072" d="M817.021,804.822a.267.267,0,0,1-.114-.509c3.018-1.415.29-15.76-1.016-21.169a.267.267,0,0,1,.52-.125c.491,2.034,4.683,19.923.723,21.778a.267.267,0,0,1-.113.025" transform="translate(-716.981 -687.919)" fill="#7e9199"/>
          <path id="Trazado_901073" data-name="Trazado 901073" d="M358.313,388.4s-2.181,9-.914,11.025,19.924,6.626,22,8.629c1.86,1.791,4.558,4.657,4.558,4.657s-19.472,7.554-30.63,7.086c-24.156-1.013-53.413-7.483-57.924-11.387,0,0,2.1-4.252,5.363-5.825,4.7-2.265,25.988-4.31,27.76-5.576s10.13-27.856,10.13-27.856Z" transform="translate(-259.596 -324.407)" fill="#e8cccc"/>
          <path id="Trazado_901074" data-name="Trazado 901074" d="M635.647,433.707l-.921-.9L611,420.711s4.874,17.54,23.358,21.074a52.961,52.961,0,0,1,1.292-8.078" transform="translate(-536.93 -369.711)" fill="#d29999"/>
          <path id="Trazado_901075" data-name="Trazado 901075" d="M550.324,621.816c-2.2,0-10.09-2.96-15.34-5.157-3.449-1.444-14.864-6.384-16.956-9.357a.267.267,0,0,1,.437-.308c1.589,2.258,9.625,6.194,16.615,9.125,8.257,3.463,14.761,5.493,15.436,5.154,1.05-.7,3.234-7.494,4.445-11.889a.267.267,0,1,1,.515.142c-.314,1.139-3.11,11.156-4.668,12.194a.918.918,0,0,1-.485.1" transform="translate(-455.188 -533.313)" fill="#ffb751"/>
          <path id="Trazado_901076" data-name="Trazado 901076" d="M773.266,726.471a1.64,1.64,0,0,1,2.876-.655,5.134,5.134,0,0,1,1.107,4.33,1.876,1.876,0,0,1-3.566.538,5.273,5.273,0,0,1-.417-4.214" transform="translate(-679.296 -637.295)" fill="#ffb751"/>
          <path id="Trazado_901077" data-name="Trazado 901077" d="M692.148,97.446a45.375,45.375,0,0,1,.392,7.372c-.241,2.532-2.649,8.985-2.185,10.811a20.7,20.7,0,0,1,.14,8.445c-.576,2.453-6.168,12.464-10.152,18.377-3.048,4.524-8.773,4.119-13.9.6C663.46,141,653.08,133.5,651.7,129.525c-1.161-3.346-.057-15.859.992-20.8,3.337-15.718,18.3-21.424,22.879-21.32s14.1,7.031,16.575,10.04" transform="translate(-572.265 -76.809)" fill="#e8cccc"/>
          <path id="Trazado_901078" data-name="Trazado 901078" d="M613.663,356.748a6.257,6.257,0,1,1,6.257-6.257,6.264,6.264,0,0,1-6.257,6.257m0-11.979a5.722,5.722,0,1,0,5.722,5.722,5.728,5.728,0,0,0-5.722-5.722" transform="translate(-533.775 -302.505)" fill="#f5c57b"/>
          <path id="Trazado_901079" data-name="Trazado 901079" d="M859.307,316.824a4.142,4.142,0,0,1-.69-.06,14.446,14.446,0,0,1-1.931-.557c-.616-.206-1.253-.419-1.823-.553a.267.267,0,0,1,.122-.521c.594.139,1.243.356,1.871.566a14.093,14.093,0,0,0,1.851.537,2.135,2.135,0,0,0,2.1-.546,2.114,2.114,0,0,0,.02-2.163c-1.244-2.909-.421-8.808-.385-9.058a.267.267,0,1,1,.529.076c-.009.06-.838,6,.347,8.772a2.608,2.608,0,0,1-.091,2.7,2.353,2.353,0,0,1-1.917.8" transform="translate(-751.053 -267.359)" fill="#a55572"/>
          <path id="Trazado_901080" data-name="Trazado 901080" d="M800.229,433.38a15.728,15.728,0,0,1-1.76-.289c-2.443-.516-3.339,1.3-8.83-2.336,0,0-3.776-2.082-3.472-.549.55,2.778,1.858,6.906,4.867,8.17,4.4,1.849,9.2-5,9.2-5" transform="translate(-690.851 -377.561)" fill="#8b3950"/>
          <path id="Trazado_901081" data-name="Trazado 901081" d="M793.951,419.811c.48-.114,1.346-1.153,1.908-1.885a37.461,37.461,0,0,1-12.669-5.537,22.681,22.681,0,0,0,.366,2.6c3.45,3.722,9.789,4.964,10.4,4.82" transform="translate(-688.25 -362.397)" fill="#fff"/>
          <path id="Trazado_901082" data-name="Trazado 901082" d="M935.709,303.885c-.208.885-.877,1.485-1.494,1.34s-.95-.98-.742-1.865.909-1.449,1.527-1.3.917.944.709,1.829" transform="translate(-820.26 -265.421)" fill="#2e1d2d"/>
          <path id="Trazado_901083" data-name="Trazado 901083" d="M929.772,302.71a1.438,1.438,0,0,1-.476-.079.265.265,0,0,1-.11-.075,2.352,2.352,0,0,0-1.714-.926h-.031a2.812,2.812,0,0,0-1.806.831.267.267,0,1,1-.39-.366,3.332,3.332,0,0,1,2.2-1h.04a2.825,2.825,0,0,1,2.056,1.051.728.728,0,0,0,.921-.461.267.267,0,1,1,.5.2,1.219,1.219,0,0,1-1.182.825" transform="translate(-813.021 -264.595)" fill="#2e1d2d"/>
          <path id="Trazado_901084" data-name="Trazado 901084" d="M815.938,281.716c-.208.885-.91,1.477-1.567,1.323a1.483,1.483,0,0,1-.815-1.882c.208-.885.91-1.477,1.567-1.323a1.483,1.483,0,0,1,.815,1.882" transform="translate(-714.884 -245.89)" fill="#2e1d2d"/>
          <path id="Trazado_901085" data-name="Trazado 901085" d="M800.888,280.045a.267.267,0,0,1-.223-.12,2.815,2.815,0,0,0-1.675-1.129,2.351,2.351,0,0,0-1.842.625.265.265,0,0,1-.121.056,1.272,1.272,0,0,1-1.509-1.014.267.267,0,0,1,.523-.114.728.728,0,0,0,.83.609,2.829,2.829,0,0,1,2.2-.69,3.317,3.317,0,0,1,2.036,1.362.267.267,0,0,1-.223.415" transform="translate(-699.077 -244.422)" fill="#2e1d2d"/>
          <path id="Trazado_901086" data-name="Trazado 901086" d="M930.809,262.744c.039-1.171,4.674-.062,5.459.279s1.675,1.573,1.478,2.077-1.306-.385-1.92-.53c-1.64-.385-5.056-.657-5.017-1.827" transform="translate(-817.973 -230.433)" fill="#3d3851"/>
          <path id="Trazado_901087" data-name="Trazado 901087" d="M802.027,238.783c.411-1.107-5.277-1.769-6.3-1.738s-2.511.856-2.483,1.4,1.63.118,2.383.208c2.009.24,5.988,1.238,6.4.13" transform="translate(-697.085 -208.309)" fill="#3d3851"/>
          <path id="Trazado_901088" data-name="Trazado 901088" d="M483.089,12.936s25.115,6.413,1.375,25.623c0,0,3.175-11.8-4.849-18.571,0,0,2.4,19.024-15.9,14.314,0,0,3.8-3.04,4.595-5.632,0,0-5.89,8.31-14.809,5.778,0,0-7.884,6.479-7.411,16.077s3.375,20.462-4.82,25.942-15.971-3.982-15.971-3.982,4.117.273,4.891-.7c0,0-16.417-3.187-15.215-14.566,1.14-10.788,8.557-10.784,8.557-10.784s-1.466,1.709-.242,3.118c1.372,1.58,7.977-1.792,8.526-12.559,1.349-26.454,17.656-43.481,32.666-34.634,0,0,14.4-3.678,18.611,10.577" transform="translate(-364.612 0)" fill="#4b4968"/>
          <path id="Trazado_901089" data-name="Trazado 901089" d="M844.154,36.677a.268.268,0,0,1-.262-.213c-1.432-6.923-13.776-12.97-13.9-13.03a.267.267,0,1,1,.233-.481c.518.251,12.706,6.223,14.191,13.4a.268.268,0,0,1-.208.316.278.278,0,0,1-.054.005" transform="translate(-729.245 -20.147)" fill="#3d3851"/>
          <path id="Trazado_901090" data-name="Trazado 901090" d="M669.874,148.812a.269.269,0,0,1-.075-.011c-5.158-1.512-7.312-6.7-7.773-9.525-.158-.972-.1-1.559.162-1.744a.382.382,0,0,1,.414-.01c6.327,3.593,14.2-7.076,14.283-7.185a.267.267,0,1,1,.432.315c-.331.454-8.121,11.006-14.831,7.417a8.584,8.584,0,0,0,.751,3.535c.779,1.989,2.687,5.5,6.711,6.683a.267.267,0,0,1-.075.524" transform="translate(-581.696 -114.442)" fill="#3d3851"/>
          <path id="Trazado_901091" data-name="Trazado 901091" d="M850.882,135.27a.267.267,0,0,1-.085-.521c9.922-3.337,7.22-18.026,7.192-18.174a.268.268,0,0,1,.525-.1,28.253,28.253,0,0,1,.166,8.031c-.746,5.588-3.414,9.306-7.713,10.752a.269.269,0,0,1-.085.014" transform="translate(-747.501 -102.163)" fill="#3d3851"/>
          <path id="Trazado_901092" data-name="Trazado 901092" d="M721.667,122.1a12.961,12.961,0,0,1-3.514-.513.268.268,0,1,1,.145-.515,10.253,10.253,0,0,0,8.5-.962c5.894-3.656,7.722-13.048,7.74-13.142a.267.267,0,0,1,.526.1c-.074.395-1.886,9.715-7.982,13.5a10.088,10.088,0,0,1-5.411,1.536" transform="translate(-630.925 -93.813)" fill="#3d3851"/>
          <path id="Trazado_901093" data-name="Trazado 901093" d="M986.413,232.75a.267.267,0,0,1-.2-.442c3.813-4.408-.147-10.247-.187-10.306a.267.267,0,1,1,.44-.3c.043.062,4.232,6.242.151,10.96a.266.266,0,0,1-.2.092" transform="translate(-866.454 -194.722)" fill="#3d3851"/>
          <path id="Trazado_901094" data-name="Trazado 901094" d="M975.15,145.523a.264.264,0,0,1-.108-.023.267.267,0,0,1-.136-.353,8.46,8.46,0,0,0,.3-6.719c-1.842-4.687-7.647-7.221-7.705-7.246a.267.267,0,0,1,.21-.491c.247.106,6.07,2.649,7.992,7.542a8.974,8.974,0,0,1-.309,7.131.267.267,0,0,1-.245.159" transform="translate(-850.076 -114.829)" fill="#3d3851"/>
          <path id="Trazado_901095" data-name="Trazado 901095" d="M615.531,75.121a.271.271,0,0,1-.079-.012.268.268,0,0,1-.176-.335c3.444-11.082,9.277-15.968,13.563-18.115a17.452,17.452,0,0,1,8.61-2.024.267.267,0,0,1,.243.289.264.264,0,0,1-.289.243,17.3,17.3,0,0,0-8.353,1.984c-4.184,2.1-9.881,6.9-13.263,17.781a.268.268,0,0,1-.255.188" transform="translate(-540.68 -47.995)" fill="#3d3851"/>
          <path id="Trazado_901096" data-name="Trazado 901096" d="M463.248,373.4c-3.1,0-5.021-3.538-5.1-3.693a.267.267,0,0,1,.472-.252c.019.036,1.939,3.575,4.843,3.4s5.914-4.041,8.706-11.186a.267.267,0,1,1,.5.195c-2.916,7.46-6,11.338-9.175,11.525q-.121.007-.241.007" transform="translate(-402.579 -317.684)" fill="#3d3851"/>
          <path id="Trazado_901097" data-name="Trazado 901097" d="M465.886,285.575c-2.9,0-5.519-2.178-7.319-6.151a.268.268,0,1,1,.487-.221c1.937,4.277,4.829,6.361,7.945,5.722,4.025-.83,7.141-5.815,7.249-11.6.278-14.882,8.4-23.522,8.485-23.608a.267.267,0,0,1,.386.37c-.08.084-8.062,8.584-8.336,23.247-.112,6.025-3.413,11.23-7.676,12.109a6.05,6.05,0,0,1-1.221.127" transform="translate(-402.957 -219.378)" fill="#3d3851"/>
          <path id="Trazado_901098" data-name="Trazado 901098" d="M555.9,469.717a.267.267,0,0,1-.032-.533,9.638,9.638,0,0,0,6.93-3.853c3.993-5.445,2.32-14.7,2.3-14.8a.268.268,0,0,1,.526-.1c.073.389,1.732,9.581-2.4,15.211a10.154,10.154,0,0,1-7.3,4.068l-.032,0" transform="translate(-488.28 -395.642)" fill="#3d3851"/>
          <path id="Trazado_901099" data-name="Trazado 901099" d="M719.6,1591.964s-82.417,17.585-85.451,16.432c-10.9-4.143-36.868-23.254-37.649-26.5a12.061,12.061,0,0,1,0-4.011Z" transform="translate(-524.032 -1386.614)" fill="#cc9341"/>
          <path id="Trazado_901100" data-name="Trazado 901100" d="M663.183,1531.983l-28.139,7.323s-39.389-24.721-37.649-27.566c2.565-4.193,48.608-9.125,48.608-9.125Z" transform="translate(-524.928 -1320.464)" fill="#ffb751"/>
          <path id="Trazado_901101" data-name="Trazado 901101" d="M1029.613,1103.066c-2.314-1.854-96.143,10.216-99.506,13.035-3.4,2.847-21.726,71.92-21.726,71.92l99.506-15.709s25.176-66.482,21.726-69.246" transform="translate(-798.265 -969.18)" fill="#ffe2b9"/>
          <path id="Trazado_901102" data-name="Trazado 901102" d="M1471.944,1364.582c1.56.521,1.861,4.182,1.133,6.795-.7,2.5-2.713,5.4-4.247,5.1-1.634-.323-2.717-4.278-1.7-7.361.847-2.563,3.313-5.031,4.813-4.53" transform="translate(-1288.935 -1199.106)" fill="#ffb751"/>
          <path id="Trazado_901103" data-name="Trazado 901103" d="M211.191,1569.73c0-.986-.5-5.96.517-6.7,3.111-2.255,11.42.755,18.917.786,7.437.03,17.29-2.986,19.514-.213.318.4,0,5.16,0,5.615,0,3.9-10.86,5.674-19.514,5.843-8.156.159-19.434-1.745-19.434-5.332" transform="translate(-185.481 -1372.821)" fill="#efaa6e"/>
          <path id="Trazado_901104" data-name="Trazado 901104" d="M212.087,1535.165c0-4,9.482-5.953,19.434-5.913,8.5.035,19.514,1.756,19.514,5.4,0,3.9-10.86,5.674-19.514,5.843-8.156.159-19.434-1.745-19.434-5.332" transform="translate(-186.377 -1343.872)" fill="#f5c57b"/>
          <path id="Trazado_901105" data-name="Trazado 901105" d="M231.795,1543.139c-7.152,0-15.743-1.9-17.74-3.934a1.388,1.388,0,0,1-.47-.986c.057-2.67,11.552-4.2,17.4-4.385,7.115-.23,17.938,1.052,18.048,3.508a1.262,1.262,0,0,1-.405.909c-1.815,1.936-9.775,3.823-16.7,3.959-7.314.14-15.039-1.6-16.57-3.142a1.016,1.016,0,0,1-.348-.733c.061-2.351,12.708-3.277,16.091-3.4a77.855,77.855,0,0,1,10.506.347c5.6.611,5.664,1.565,5.683,1.878a.835.835,0,0,1-.258.615c-1.412,1.543-8.864,3.161-15.335,3.328-6.694.168-13.511-1.108-14.685-2.285a.664.664,0,0,1-.225-.488c.015-.525.685-1.14,5.542-1.714,3.035-.359,6.612-.564,8.946-.637,2.888-.09,6.265-.052,8.814.1,4.885.289,4.918.842,4.935,1.14a.485.485,0,0,1-.143.36c-.869.955-7.485,2.1-13.357,2.3-5.846.208-12.276-.51-12.991-1.216a.371.371,0,0,1-.121-.277c.01-.448.021-.91,13.027-1.306.116,0,10.672-.3,11.115.121a.3.3,0,0,1,.089.2.281.281,0,0,1-.078.2c-.295.3-8.61,1.18-20.147,1.18a.267.267,0,1,1,0-.535c8.023,0,13.974-.406,17.176-.723-2.075-.022-5.1,0-8.13.1-7.075.216-11.2.483-12.306.795,1.251.453,6.53,1.139,12.347.936,6.631-.235,12.339-1.5,12.952-2.1-.745-.563-7.114-.927-13.167-.739-7.133.221-13.792,1.1-13.97,1.833.1.725,6.559,2.423,14.362,2.22,6.657-.172,13.786-1.879,14.954-3.155a.363.363,0,0,0,.119-.22c0-.033-.111-.825-5.208-1.38a77.325,77.325,0,0,0-10.43-.344,83.5,83.5,0,0,0-10.141.992c-5.149.87-5.43,1.722-5.434,1.884a.557.557,0,0,0,.193.342c1.449,1.458,9.2,3.118,16.18,2.984,7.324-.143,14.787-2.155,16.32-3.79a.765.765,0,0,0,.261-.519c-.075-1.662-9.394-3.259-17.5-3-7.57.245-16.849,2.075-16.887,3.862a.893.893,0,0,0,.317.6c1.734,1.766,9.747,3.807,17.489,3.773,7.225-.024,15.728-2.021,17.84-4.191a1.2,1.2,0,0,0,.42-.821,1.239,1.239,0,0,0-.476-.821c-2.094-1.948-10.847-3.906-18.991-3.507q-.819.04-1.614.075c-6.892.312-12.337.558-16.557,5.022a.267.267,0,1,1-.389-.368c4.369-4.621,9.908-4.871,16.922-5.188q.794-.036,1.613-.075c7.688-.375,16.925,1.364,19.381,3.649a1.734,1.734,0,0,1,.646,1.2,1.7,1.7,0,0,1-.572,1.206c-2.233,2.294-10.748,4.328-18.222,4.353h-.133" transform="translate(-186.377 -1346.884)" fill="#ea9d63"/>
          <path id="Trazado_901106" data-name="Trazado 901106" d="M241.866,1606.341s12.918,1.262,18.2,9.335l-4.831,3.6s-3.329-6.534-14.233-7.629Z" transform="translate(-211.79 -1411.616)" fill="#efaa6e"/>
          <path id="Trazado_901107" data-name="Trazado 901107" d="M317.222,1624.962a.267.267,0,0,1-.2-.086,22.274,22.274,0,0,0-9.144-5.624.267.267,0,0,1,.178-.5,22.8,22.8,0,0,1,9.359,5.766.267.267,0,0,1-.2.448" transform="translate(-270.403 -1422.506)" fill="#ea9d63"/>
        </g>
      </g>
      <g id="Grupo_1114354" data-name="Grupo 1114354" transform="translate(0.061 166.052)">
        <g id="Grupo_1114353" data-name="Grupo 1114353" clip-path="url(#clip-path-2)">
          <path id="Trazado_901108" data-name="Trazado 901108" d="M429.455,1491.552l-6.29.308,1.062.274c7.794,2.006,18.99,4.764,20.087,4.89a14.833,14.833,0,0,0,4.646-.663c.414-.092-9.776-2.138-19.5-4.809" transform="translate(-371.929 -1476.795)" fill="#c3cad8"/>
          <path id="Trazado_901109" data-name="Trazado 901109" d="M202.65,1405a8.1,8.1,0,0,1-1.21-.4c-2.479-1.092-1.746-2.134.508-2.794a14.033,14.033,0,0,1,6.51-.082,5.269,5.269,0,0,1,1,.355c1.644.81,2.69,2.542.436,3.2a16.56,16.56,0,0,1-7.246-.281m7.356-4.4c-4.765-1.226-12.185.131-13.544,1.21-.822,2.233,1,3.148,3.311,3.742a70,70,0,0,0,8.192,1.286,8.079,8.079,0,0,1,1.014.195,14.765,14.765,0,0,1,2.291.846,13.407,13.407,0,0,0,1.939.755,3.3,3.3,0,0,0,.786.114c.3,0,.84-.035,1.467-.1,1.207-.12,2.732-.327,3.452-.493.332-.077.493-.144.374-.19-1.475-.57-3.491-1.089-4.532-2.2s-.085-3.047-3.134-4.579a8.117,8.117,0,0,0-1.616-.588" transform="translate(-172.532 -1396.444)" fill="#ee6e81"/>
          <path id="Trazado_901110" data-name="Trazado 901110" d="M342.755,1471.557c-.361-.093-.313-.316.025-.442a2.165,2.165,0,0,1,.98-.09c.035.006.068.013.1.02.3.077.354.242.167.365a2.07,2.07,0,0,1-1.257.151l-.013,0m33.441-2.474c-1.254-.057-20.748,1.032-31.922,1.46-2.672.1-4.967.2-6.571.274-1.388.066-2.259.119-2.406.151-.425.093-2.17.318-3.825.628a5.958,5.958,0,0,1,1.867.963c2.529-.121,5.725-.275,9.248-.447l6.29-.308c14.352-.707,30.273-1.673,30.121-1.811Z" transform="translate(-291.352 -1457.047)" fill="#c3cad8"/>
          <path id="Trazado_901111" data-name="Trazado 901111" d="M423.831,1484.983c-.03-.008-.063-.015-.1-.02a2.163,2.163,0,0,0-.98.09c-.338.126-.387.349-.025.442l.013,0a2.071,2.071,0,0,0,1.257-.151c.186-.122.132-.287-.167-.365" transform="translate(-371.325 -1470.985)" fill="#c3cad8"/>
          <path id="Trazado_901112" data-name="Trazado 901112" d="M94.255,1490.438a2.117,2.117,0,0,1-1.329-.72c-.47-.876,1.136-1.85,5.517-2.4a25.34,25.34,0,0,1,7.529.167,1.535,1.535,0,0,1,.951.495c.47.876-4.1,1.9-7.188,2.332a16.243,16.243,0,0,1-5.481.124m23.73-4.685c-.1-.027-.2-.047-.28-.06-1.38-.22-6.311.286-9.1.178-4.27-.164-13.538-1.309-17.962,1.1-2.212,1.2-1.408,3.8,1.417,4.528a20.186,20.186,0,0,0,7.608.136c5.792-.831,9.117-2.581,12.341-3.352a60.542,60.542,0,0,1,8.441-1.169c.165-.017.139-.057.138-.161,0-.433-.061-1.068-.061-1.068-.263-.1-2.322-.073-2.538-.129" transform="translate(-78.597 -1471.437)" fill="#ee6e81"/>
        </g>
      </g>
      <g id="Grupo_1114356" data-name="Grupo 1114356" transform="translate(0 164.984)">
        <g id="Grupo_1114355" data-name="Grupo 1114355" clip-path="url(#clip-path-3)">
          <path id="Trazado_901114" data-name="Trazado 901114" d="M368.74,1460.68l-6.29.308,1.062.274c7.794,2.006,18.99,4.764,20.087,4.89,1.685.194,4.553,1.07,5.186.284.266-.33-10.315-3.084-20.044-5.756m-11.144-3.043c-.72.166-2.245.373-3.452.493.716.5,1.689.938,1.844,1.077a12.845,12.845,0,0,0,1.577.486c1.6-.077,3.9-.171,6.571-.274-2.486-.679-4.748-1.3-6.54-1.782" transform="translate(-311.214 -1445.923)" fill="#c3cad8"/>
          <path id="Trazado_901115" data-name="Trazado 901115" d="M202.924,1396.581a8.09,8.09,0,0,1-1.21-.4c-2.479-1.091-1.746-2.133.508-2.794a14.036,14.036,0,0,1,6.51-.082,5.278,5.278,0,0,1,1,.355c1.644.81,2.69,2.542.436,3.2a16.562,16.562,0,0,1-7.246-.281m7.356-4.4c-4.765-1.226-12.44.359-13.483,2.277-.673,1.239.942,2.08,3.25,2.674a70,70,0,0,0,8.192,1.286,8.1,8.1,0,0,1,1.014.195,14.776,14.776,0,0,1,2.291.846,13.41,13.41,0,0,0,1.939.755,3.3,3.3,0,0,0,.786.114c.3,0,.84-.035,1.467-.1,1.207-.12,2.732-.327,3.452-.493.332-.077.493-.144.374-.19-1.475-.57-3.491-1.089-4.532-2.2s-.085-3.047-3.134-4.579a8.115,8.115,0,0,0-1.616-.588" transform="translate(-172.805 -1388.026)" fill="#f6848e"/>
          <path id="Trazado_901116" data-name="Trazado 901116" d="M342.249,1466.53c-.361-.093-.313-.316.025-.442a2.165,2.165,0,0,1,.98-.09c.035.006.068.013.1.02.3.077.354.242.168.365a2.072,2.072,0,0,1-1.257.151l-.013,0m36.305-.5c-.775-.2-3.034-1.382-4.6-1.455-1.254-.057-19.008.508-30.182.937-2.672.1-4.967.2-6.571.274-1.388.066-2.259.119-2.406.151-.425.094-2.17.318-3.825.628a5.958,5.958,0,0,1,1.867.963c2.529-.121,5.725-.275,9.248-.447l6.29-.308c14.352-.707,30.182-.744,30.182-.744" transform="translate(-290.846 -1452.02)" fill="#d8dce5"/>
          <path id="Trazado_901117" data-name="Trazado 901117" d="M423.325,1476.174c-.03-.008-.063-.015-.1-.02a2.162,2.162,0,0,0-.98.09c-.338.126-.387.349-.025.442l.013,0a2.071,2.071,0,0,0,1.257-.151c.186-.122.132-.287-.167-.365" transform="translate(-370.819 -1462.176)" fill="#c3cad8"/>
          <path id="Trazado_901118" data-name="Trazado 901118" d="M94.041,1483.125a2.116,2.116,0,0,1-1.329-.719c-.47-.877,1.136-1.85,5.517-2.4a25.344,25.344,0,0,1,7.529.167,1.535,1.535,0,0,1,.951.495c.47.876-4.081,2.164-7.172,2.6a15.5,15.5,0,0,1-5.5-.144m23.73-4.685c-.1-.026-.2-.047-.28-.06-1.38-.22-6.28.819-9.073.712-4.27-.164-13.507-.775-17.931,1.631-2.212,1.2-1.469,2.733,1.356,3.46a20.186,20.186,0,0,0,7.608.136c5.792-.831,9.117-2.581,12.341-3.352a60.542,60.542,0,0,1,8.441-1.169c.165-.018.2-.076.138-.161a5.954,5.954,0,0,0-1.867-.963c-.263-.1-.516-.178-.732-.234" transform="translate(-78.382 -1464.124)" fill="#f6848e"/>
        </g>
      </g>
    </g>
  </g>
</svg>
